<svg width="198" height="65" viewBox="0 0 198 65" fill="none" xmlns="http://www.w3.org/2000/svg">
<path d="M104.374 36.0605H111.55V21.1769L124.566 0.599609H116.202L107.937 14.0348L99.7208 0.599609H91.4062L104.374 21.127V36.0605Z" fill="white"/>
<path d="M64.5625 36.0605H86.4384V29.1681H71.7389V21.6763H83.4689V14.784H71.7389V7.49202H86.4384V0.599609H64.5625V36.0605Z" fill="white"/>
<path d="M34.3057 36.0605H56.1814V29.1681H41.4821V21.6763H53.2119V14.784H41.4821V7.49202H56.1814V0.599609H34.3057V36.0605Z" fill="white"/>
<path d="M0.611328 25.0723C0.908286 30.9159 5.70911 36.6596 14.1229 36.6596C21.4973 36.6596 26.3476 32.1645 26.3476 26.1212C26.3476 20.6273 22.9326 16.9813 17.2409 15.383L13.133 14.2343C10.2625 13.3853 8.67869 12.1866 8.72816 9.98898C8.77764 7.89128 10.7574 6.69263 13.2815 6.69263C15.3602 6.69263 17.6864 7.79141 18.4782 10.7881H25.6052C25.3578 5.49392 20.8539 0 13.2815 0C6.25349 0 1.45271 3.94565 1.5022 10.4884C1.55169 15.8825 5.16468 19.3786 10.7079 20.9769L14.4198 22.0757C17.7853 23.0246 19.1217 24.473 19.1217 26.3709C19.1217 28.6185 16.9935 29.9669 14.1229 29.9669C11.0048 29.9669 8.28273 28.2688 7.78778 25.0723H0.611328Z" fill="white"/>
<path d="M193.777 22.0759V0.599609H186.6V22.1758C186.6 26.8706 183.73 29.6675 179.473 29.6675C175.217 29.6675 172.346 26.8706 172.346 22.1758V0.599609H165.17V22.0759C165.17 30.9162 171.06 36.6598 179.473 36.6598C187.788 36.6598 193.777 30.9162 193.777 22.0759Z" fill="white"/>
<path fill-rule="evenodd" clip-rule="evenodd" d="M149.963 10.4345C151.756 12.4305 152.839 15.0979 152.839 17.9998C152.839 24.0816 148.082 29.1334 142 29.1334C135.918 29.1334 131.161 24.0816 131.161 17.9998C131.161 11.9592 135.854 6.93475 141.876 6.86687V0C131.977 0.0662468 124 8.0845 124 17.9998C124 27.9563 132.044 36 142 36C151.957 36 160 27.9563 160 17.9998C160 13.7912 158.563 9.92452 156.152 6.86253L149.963 10.4345Z" fill="white"/>
<path d="M8.72889 58.2176H6.59524C6.35651 58.7461 5.72984 59.0725 5.01365 59.0725C3.7454 59.0725 3.08889 58.2798 2.99937 57.3627H8.81842C8.92286 54.4404 7.11746 52.8083 4.92413 52.8083C2.65619 52.8083 1 54.5337 1 56.8497C1 59.2124 2.62635 60.9223 4.90921 60.9223C6.80413 60.9223 8.28127 59.7876 8.72889 58.2176ZM4.86445 54.5337C5.56572 54.5337 6.32667 54.9223 6.58032 55.9637H3.07397C3.26794 55.1088 3.92445 54.5337 4.86445 54.5337Z" fill="white"/>
<path d="M15.9773 64H18.0214V52.9793H15.9773V53.8497C15.649 53.3523 14.8582 52.8083 13.8287 52.8083C11.8443 52.8083 10.3224 54.658 10.3224 56.8653C10.3224 59.0725 11.8443 60.9223 13.8287 60.9223C14.8582 60.9223 15.649 60.3782 15.9773 59.8808V64ZM16.1414 56.8653C16.1414 58.0777 15.3805 58.9793 14.2614 58.9793C13.1424 58.9793 12.3814 58.0777 12.3814 56.8653C12.3814 55.6529 13.1424 54.7513 14.2614 54.7513C15.3805 54.7513 16.1414 55.6529 16.1414 56.8653Z" fill="white"/>
<path d="M20.4115 57.487C20.4115 59.5544 21.4112 60.9223 23.2166 60.9223C24.1715 60.9223 24.8728 60.487 25.2607 59.8653V60.7513H27.3049V52.9793H25.2607V56.772C25.2607 58.2798 24.6341 58.9793 23.7239 58.9793C22.8436 58.9793 22.4557 58.2953 22.4557 57.1295V52.9793H20.4115V57.487Z" fill="white"/>
<path d="M32.0928 50.3523C32.0928 49.6062 31.5108 49 30.7797 49C30.0785 49 29.4816 49.6062 29.4816 50.3523C29.4816 51.0984 30.0785 51.7047 30.7797 51.7047C31.5108 51.7047 32.0928 51.0984 32.0928 50.3523ZM29.7651 60.7513H31.8093V52.9793H29.7651V60.7513Z" fill="white"/>
<path d="M39.1734 60.6736V58.7927C38.9347 58.886 38.6661 58.9326 38.3379 58.9326C37.4575 58.9326 37.0696 58.5596 37.0696 57.6114V54.8446H39.1734V52.9793H37.0696V50.8187H35.0255V52.9793H33.5185V54.8446H35.0255V58.0311C35.0255 59.9275 36.2937 60.8446 37.8753 60.8446C38.4423 60.8446 38.8452 60.7824 39.1734 60.6736Z" fill="white"/>
<path d="M40.5449 56.8653C40.5449 59.0725 42.0669 60.9223 44.0513 60.9223C45.0808 60.9223 45.8716 60.3782 46.1999 59.8808V60.7513H48.244V52.9793H46.1999V53.8497C45.8716 53.3523 45.0808 52.8083 44.0513 52.8083C42.0669 52.8083 40.5449 54.658 40.5449 56.8653ZM46.364 56.8653C46.364 58.0777 45.603 58.9793 44.484 58.9793C43.3649 58.9793 42.604 58.0777 42.604 56.8653C42.604 55.6529 43.3649 54.7513 44.484 54.7513C45.603 54.7513 46.364 55.6529 46.364 56.8653Z" fill="white"/>
<path d="M52.7677 59.8808C53.1109 60.3782 53.9017 60.9223 54.9312 60.9223C56.9157 60.9223 58.4376 59.0725 58.4376 56.8653C58.4376 54.658 56.9157 52.8083 54.9312 52.8083C53.9017 52.8083 53.1109 53.3523 52.7677 53.8497V49.0933H50.7236V60.7513H52.7677V59.8808ZM56.3636 56.8653C56.3636 58.0777 55.6027 58.9793 54.4836 58.9793C53.3646 58.9793 52.6036 58.0777 52.6036 56.8653C52.6036 55.6529 53.3646 54.7513 54.4836 54.7513C55.6027 54.7513 56.3636 55.6529 56.3636 56.8653Z" fill="white"/>
<path d="M60.4248 60.7513H62.469V49.0933H60.4248V60.7513Z" fill="white"/>
<path d="M72.1757 58.2176H70.042C69.8033 58.7461 69.1766 59.0725 68.4604 59.0725C67.1922 59.0725 66.5357 58.2798 66.4461 57.3627H72.2652C72.3696 54.4404 70.5642 52.8083 68.3709 52.8083C66.103 52.8083 64.4468 54.5337 64.4468 56.8497C64.4468 59.2124 66.0731 60.9223 68.356 60.9223C70.2509 60.9223 71.728 59.7876 72.1757 58.2176ZM68.3112 54.5337C69.0125 54.5337 69.7734 54.9223 70.0271 55.9637H66.5207C66.7147 55.1088 67.3712 54.5337 68.3112 54.5337Z" fill="white"/>
<path d="M85.4004 57.7824H83.2816C82.9981 58.4819 82.4461 58.9948 81.5807 58.9948C80.5064 58.9948 79.7156 58.1554 79.7156 56.8653C79.7156 55.5751 80.5064 54.7358 81.5807 54.7358C82.4461 54.7358 82.9981 55.2487 83.2816 55.9482H85.4004C84.9975 54.1606 83.6397 52.8083 81.5807 52.8083C79.3127 52.8083 77.6565 54.6114 77.6565 56.8653C77.6565 59.1192 79.3127 60.9223 81.5807 60.9223C83.6397 60.9223 84.9975 59.5699 85.4004 57.7824Z" fill="white"/>
<path d="M94.6374 56.8653C94.6374 54.5959 92.8768 52.8083 90.7133 52.8083C88.5498 52.8083 86.7891 54.5959 86.7891 56.8653C86.7891 59.1347 88.5498 60.9223 90.7133 60.9223C92.8768 60.9223 94.6374 59.1347 94.6374 56.8653ZM88.8482 56.8653C88.8482 55.6684 89.639 54.7979 90.7133 54.7979C91.7876 54.7979 92.5634 55.6684 92.5634 56.8653C92.5634 58.0622 91.7876 58.9326 90.7133 58.9326C89.639 58.9326 88.8482 58.0622 88.8482 56.8653Z" fill="white"/>
<path d="M96.6039 60.7513H98.648V56.9585C98.648 55.4663 99.2598 54.7513 100.14 54.7513C100.946 54.7513 101.304 55.4508 101.304 56.601V60.7513H103.348V56.9585C103.348 55.4663 103.96 54.7513 104.84 54.7513C105.646 54.7513 106.004 55.4508 106.004 56.601V60.7513H108.048V56.2435C108.048 54.1451 107.033 52.8083 105.258 52.8083C104.407 52.8083 103.408 53.2746 102.945 54.2383C102.498 53.3368 101.722 52.8083 100.632 52.8083C99.7223 52.8083 99.0509 53.2591 98.648 53.8653V52.9793H96.6039V60.7513Z" fill="white"/>
<path d="M110.414 60.7513H112.458V56.9585C112.458 55.4663 113.07 54.7513 113.95 54.7513C114.756 54.7513 115.114 55.4508 115.114 56.601V60.7513H117.158V56.9585C117.158 55.4663 117.77 54.7513 118.65 54.7513C119.456 54.7513 119.814 55.4508 119.814 56.601V60.7513H121.858V56.2435C121.858 54.1451 120.844 52.8083 119.068 52.8083C118.218 52.8083 117.218 53.2746 116.755 54.2383C116.308 53.3368 115.532 52.8083 114.443 52.8083C113.533 52.8083 112.861 53.2591 112.458 53.8653V52.9793H110.414V60.7513Z" fill="white"/>
<path d="M124.135 57.487C124.135 59.5544 125.134 60.9223 126.94 60.9223C127.895 60.9223 128.596 60.487 128.984 59.8653V60.7513H131.028V52.9793H128.984V56.772C128.984 58.2798 128.357 58.9793 127.447 58.9793C126.567 58.9793 126.179 58.2953 126.179 57.1295V52.9793H124.135V57.487Z" fill="white"/>
<path d="M133.488 60.7513H135.533V56.9585C135.533 55.4663 136.249 54.7513 137.189 54.7513C138.039 54.7513 138.502 55.4352 138.502 56.5544V60.7513H140.546V56.1969C140.546 54.1762 139.472 52.8083 137.666 52.8083C136.696 52.8083 135.92 53.2435 135.533 53.8653V52.9793H133.488V60.7513Z" fill="white"/>
<path d="M145.24 50.3523C145.24 49.6062 144.658 49 143.927 49C143.226 49 142.629 49.6062 142.629 50.3523C142.629 51.0984 143.226 51.7047 143.927 51.7047C144.658 51.7047 145.24 51.0984 145.24 50.3523ZM142.913 60.7513H144.957V52.9793H142.913V60.7513Z" fill="white"/>
<path d="M154.679 57.7824H152.56C152.276 58.4819 151.724 58.9948 150.859 58.9948C149.785 58.9948 148.994 58.1554 148.994 56.8653C148.994 55.5751 149.785 54.7358 150.859 54.7358C151.724 54.7358 152.276 55.2487 152.56 55.9482H154.679C154.276 54.1606 152.918 52.8083 150.859 52.8083C148.591 52.8083 146.935 54.6114 146.935 56.8653C146.935 59.1192 148.591 60.9223 150.859 60.9223C152.918 60.9223 154.276 59.5699 154.679 57.7824Z" fill="white"/>
<path d="M156.082 56.8653C156.082 59.0725 157.604 60.9223 159.589 60.9223C160.618 60.9223 161.409 60.3782 161.737 59.8808V60.7513H163.781V52.9793H161.737V53.8497C161.409 53.3523 160.618 52.8083 159.589 52.8083C157.604 52.8083 156.082 54.658 156.082 56.8653ZM161.901 56.8653C161.901 58.0777 161.14 58.9793 160.021 58.9793C158.902 58.9793 158.141 58.0777 158.141 56.8653C158.141 55.6529 158.902 54.7513 160.021 54.7513C161.14 54.7513 161.901 55.6529 161.901 56.8653Z" fill="white"/>
<path d="M171.17 60.6736V58.7927C170.931 58.886 170.662 58.9326 170.334 58.9326C169.454 58.9326 169.066 58.5596 169.066 57.6114V54.8446H171.17V52.9793H169.066V50.8187H167.022V52.9793H165.515V54.8446H167.022V58.0311C167.022 59.9275 168.29 60.8446 169.872 60.8446C170.439 60.8446 170.842 60.7824 171.17 60.6736Z" fill="white"/>
<path d="M175.448 50.3523C175.448 49.6062 174.867 49 174.135 49C173.434 49 172.837 49.6062 172.837 50.3523C172.837 51.0984 173.434 51.7047 174.135 51.7047C174.867 51.7047 175.448 51.0984 175.448 50.3523ZM173.121 60.7513H175.165V52.9793H173.121V60.7513Z" fill="white"/>
<path d="M184.976 56.8653C184.976 54.5959 183.215 52.8083 181.052 52.8083C178.888 52.8083 177.128 54.5959 177.128 56.8653C177.128 59.1347 178.888 60.9223 181.052 60.9223C183.215 60.9223 184.976 59.1347 184.976 56.8653ZM179.187 56.8653C179.187 55.6684 179.978 54.7979 181.052 54.7979C182.126 54.7979 182.902 55.6684 182.902 56.8653C182.902 58.0622 182.126 58.9326 181.052 58.9326C179.978 58.9326 179.187 58.0622 179.187 56.8653Z" fill="white"/>
<path d="M186.943 60.7513H188.987V56.9585C188.987 55.4663 189.703 54.7513 190.643 54.7513C191.493 54.7513 191.956 55.4352 191.956 56.5544V60.7513H194V56.1969C194 54.1762 192.926 52.8083 191.12 52.8083C190.15 52.8083 189.375 53.2435 188.987 53.8653V52.9793H186.943V60.7513Z" fill="white"/>
</svg>
