<svg width="161" height="31" viewBox="0 0 161 31" fill="none" xmlns="http://www.w3.org/2000/svg">
<path d="M86.6681 29.7082H92.617V17.7812L103.407 1.2915H96.4735L89.6217 12.0578L82.8113 1.2915H75.9189L86.6681 17.7411V29.7082Z" fill="#303030"/>
<path d="M53.667 29.7082H71.9922V24.1849H59.6786V18.1814H69.5046V12.6582H59.6786V6.81475H71.9922V1.2915H53.667V29.7082Z" fill="#303030"/>
<path d="M27.4883 29.7082H45.8135V24.1849H33.4999V18.1814H43.3259V12.6582H33.4999V6.81475H45.8135V1.2915H27.4883V29.7082Z" fill="#303030"/>
<path d="M0 21.2016C0.241651 26.143 4.14835 31 10.9951 31C16.9961 31 20.9431 27.1989 20.9431 22.0885C20.9431 17.4428 18.1641 14.3597 13.5324 13.0082L10.1896 12.0368C7.85366 11.3188 6.56486 10.3052 6.60512 8.44686C6.64539 6.67301 8.25639 5.65941 10.3104 5.65941C12.002 5.65941 13.8949 6.58856 14.5393 9.12261H20.3389C20.1376 4.64576 16.4725 0 10.3104 0C4.59134 0 0.684676 3.33651 0.724953 8.86921C0.765227 13.4305 3.70532 16.3869 8.21613 17.7384L11.2368 18.6676C13.9754 19.47 15.0629 20.6948 15.0629 22.2997C15.0629 24.2003 13.3311 25.3406 10.9951 25.3406C8.45778 25.3406 6.24265 23.9046 5.83988 21.2016H0Z" fill="#303030"/>
<path d="M161 18.9848V1.2915H155.09V19.0671C155.09 22.935 152.725 25.2392 149.22 25.2392C145.714 25.2392 143.35 22.935 143.35 19.0671V1.2915H137.439V18.9848C137.439 26.2679 142.29 30.9998 149.22 30.9998C156.068 30.9998 161 26.2679 161 18.9848Z" fill="#303030"/>
<path fill-rule="evenodd" clip-rule="evenodd" d="M124.753 8.98528C126.318 10.7041 127.264 13.001 127.264 15.4998C127.264 20.7369 123.112 25.0871 117.805 25.0871C112.498 25.0871 108.346 20.7369 108.346 15.4998C108.346 10.2982 112.442 5.97159 117.697 5.91313V0C109.059 0.0570459 102.098 6.96166 102.098 15.4998C102.098 24.0735 109.117 31 117.805 31C126.493 31 133.512 24.0735 133.512 15.4998C133.512 11.8758 132.258 8.54611 130.154 5.9094L124.753 8.98528Z" fill="#303030"/>
</svg>
