<svg width="171" height="56" viewBox="0 0 171 56" fill="none" xmlns="http://www.w3.org/2000/svg">
<path d="M91.4631 32.7385H97.6311V19.7208L108.818 1.72302H101.63L94.5255 13.474L87.4642 1.72302H80.3181L91.4631 19.6771V32.7385Z" fill="#303030"/>
<path d="M57 32.7385H76V26.7101H63.233V20.1576H73.4209V14.1292H63.233V7.75139H76V1.72302H57V32.7385Z" fill="#303030"/>
<path d="M31.0908 32.7385H50.0908V26.7101H37.3239V20.1576H47.5117V14.1292H37.3239V7.75139H50.0908V1.72302H31.0908V32.7385Z" fill="#303030"/>
<path d="M1.72729 23.5245C1.98639 28.6057 6.17503 33.6001 13.5159 33.6001C19.95 33.6001 24.1818 29.6914 24.1818 24.4365C24.1818 19.6593 21.2023 16.489 16.2364 15.0992L12.6523 14.1003C10.1478 13.3621 8.76595 12.3197 8.80911 10.4089C8.85228 8.58483 10.5796 7.54254 12.7818 7.54254C14.5954 7.54254 16.625 8.49798 17.3159 11.1037H23.5341C23.3182 6.50022 19.3886 1.72302 12.7818 1.72302C6.65 1.72302 2.46138 5.15393 2.50457 10.8432C2.54775 15.5335 5.70003 18.5736 10.5364 19.9633L13.775 20.9187C16.7114 21.7439 17.8773 23.0033 17.8773 24.6536C17.8773 26.608 16.0205 27.7805 13.5159 27.7805C10.7955 27.7805 8.42048 26.304 7.98864 23.5245H1.72729Z" fill="#303030"/>
<path d="M169.273 20.708V1.72302H162.99V20.7962C162.99 24.9465 160.476 27.4189 156.75 27.4189C153.024 27.4189 150.51 24.9465 150.51 20.7962V1.72302H144.227V20.708C144.227 28.5227 149.384 33.6001 156.75 33.6001C164.03 33.6001 169.273 28.5227 169.273 20.708Z" fill="#303030"/>
<path fill-rule="evenodd" clip-rule="evenodd" d="M131.24 10.7128C132.789 12.4324 133.725 14.7305 133.725 17.2306C133.725 22.4703 129.616 26.8227 124.364 26.8227C119.111 26.8227 115.002 22.4703 115.002 17.2306C115.002 12.0264 119.056 7.6976 124.257 7.63911V1.72302C115.708 1.7801 108.818 8.68816 108.818 17.2306C108.818 25.8085 115.765 32.7385 124.364 32.7385C132.962 32.7385 139.909 25.8085 139.909 17.2306C139.909 13.6048 138.668 10.2734 136.585 7.63538L131.24 10.7128Z" fill="#303030"/>
<path d="M3.54968 51.9549H4.95745V45.8897H6.79912V44.4264H1.72729V45.8897H3.54968V51.9549Z" fill="#303030"/>
<path d="M7.8749 51.9549H9.19589V49.3676C9.19589 48.3497 9.65872 47.8619 10.2662 47.8619C10.8158 47.8619 11.1147 48.3285 11.1147 49.0919V51.9549H12.4357V48.8481C12.4357 47.4696 11.7414 46.5365 10.5747 46.5365C9.94799 46.5365 9.44659 46.8334 9.19589 47.2575V44.0022H7.8749V51.9549Z" fill="#303030"/>
<path d="M18.6514 50.2265H17.2726C17.1183 50.587 16.7133 50.8097 16.2505 50.8097C15.4309 50.8097 15.0066 50.2689 14.9488 49.6433H18.7092C18.7767 47.6499 17.61 46.5365 16.1926 46.5365C14.727 46.5365 13.6567 47.7135 13.6567 49.2934C13.6567 50.9052 14.7077 52.0716 16.183 52.0716C17.4075 52.0716 18.3621 51.2975 18.6514 50.2265ZM16.1541 47.7135C16.6072 47.7135 17.099 47.9786 17.2629 48.689H14.997C15.1223 48.1058 15.5466 47.7135 16.1541 47.7135Z" fill="#303030"/>
<path d="M24.4277 51.9549H25.6716L28.5064 44.4264H26.9636L25.0545 49.6539L23.1164 44.4264H21.6025L24.4277 51.9549Z" fill="#303030"/>
<path d="M30.9816 44.8611C30.9816 44.3521 30.6055 43.9386 30.1331 43.9386C29.6799 43.9386 29.2942 44.3521 29.2942 44.8611C29.2942 45.3701 29.6799 45.7836 30.1331 45.7836C30.6055 45.7836 30.9816 45.3701 30.9816 44.8611ZM29.4774 51.9549H30.7984V46.6531H29.4774V51.9549Z" fill="#303030"/>
<path d="M32.0765 49.304C32.0765 50.8097 33.06 52.0716 34.3424 52.0716C35.0077 52.0716 35.5188 51.7004 35.7309 51.3611V51.9549H37.0519V44.0022H35.7309V47.2469C35.5188 46.9076 35.0077 46.5365 34.3424 46.5365C33.06 46.5365 32.0765 47.7983 32.0765 49.304ZM35.837 49.304C35.837 50.1311 35.3452 50.7461 34.622 50.7461C33.8989 50.7461 33.4071 50.1311 33.4071 49.304C33.4071 48.4769 33.8989 47.8619 34.622 47.8619C35.3452 47.8619 35.837 48.4769 35.837 49.304Z" fill="#303030"/>
<path d="M43.3404 50.2265H41.9616C41.8073 50.587 41.4024 50.8097 40.9395 50.8097C40.1199 50.8097 39.6957 50.2689 39.6378 49.6433H43.3983C43.4658 47.6499 42.2991 46.5365 40.8817 46.5365C39.416 46.5365 38.3458 47.7135 38.3458 49.2934C38.3458 50.9052 39.3968 52.0716 40.872 52.0716C42.0966 52.0716 43.0512 51.2975 43.3404 50.2265ZM40.8431 47.7135C41.2963 47.7135 41.788 47.9786 41.952 48.689H39.686C39.8114 48.1058 40.2356 47.7135 40.8431 47.7135Z" fill="#303030"/>
<path d="M49.4324 49.304C49.4324 47.7559 48.2946 46.5365 46.8965 46.5365C45.4983 46.5365 44.3606 47.7559 44.3606 49.304C44.3606 50.8521 45.4983 52.0716 46.8965 52.0716C48.2946 52.0716 49.4324 50.8521 49.4324 49.304ZM45.6912 49.304C45.6912 48.4875 46.2022 47.8937 46.8965 47.8937C47.5907 47.8937 48.0921 48.4875 48.0921 49.304C48.0921 50.1205 47.5907 50.7143 46.8965 50.7143C46.2022 50.7143 45.6912 50.1205 45.6912 49.304Z" fill="#303030"/>
<path d="M52.9454 48.1906C52.9454 50.375 54.4592 52.0822 56.5323 52.0822C58.0847 52.0822 59.4732 50.99 59.8493 49.3888H58.3354C58.0462 50.1417 57.3037 50.5977 56.5323 50.5977C55.221 50.5977 54.3532 49.5373 54.3532 48.1906C54.3532 46.844 55.221 45.7836 56.5323 45.7836C57.3037 45.7836 58.0462 46.2396 58.3354 46.9924H59.8493C59.4732 45.3913 58.0847 44.2991 56.5323 44.2991C54.4592 44.2991 52.9454 46.0063 52.9454 48.1906Z" fill="#303030"/>
<path d="M65.8108 49.304C65.8108 47.7559 64.673 46.5365 63.2749 46.5365C61.8768 46.5365 60.739 47.7559 60.739 49.304C60.739 50.8521 61.8768 52.0716 63.2749 52.0716C64.673 52.0716 65.8108 50.8521 65.8108 49.304ZM62.0696 49.304C62.0696 48.4875 62.5806 47.8937 63.2749 47.8937C63.9691 47.8937 64.4705 48.4875 64.4705 49.304C64.4705 50.1205 63.9691 50.7143 63.2749 50.7143C62.5806 50.7143 62.0696 50.1205 62.0696 49.304Z" fill="#303030"/>
<path d="M67.0816 51.9549H68.4026V49.3676C68.4026 48.3497 68.8654 47.8619 69.4729 47.8619C70.0225 47.8619 70.3214 48.3285 70.3214 49.0919V51.9549H71.6424V48.8481C71.6424 47.4696 70.9482 46.5365 69.7814 46.5365C69.1547 46.5365 68.6533 46.8334 68.4026 47.2575V46.6531H67.0816V51.9549Z" fill="#303030"/>
<path d="M73.6265 51.9549H74.9475V47.9255H76.3071V46.6531H74.9475V46.1441C74.9475 45.4973 75.1982 45.2428 75.7671 45.2428C75.9792 45.2428 76.1528 45.2747 76.3071 45.3383V44.0552C76.0949 43.981 75.8346 43.9386 75.4682 43.9386C74.4461 43.9386 73.6265 44.6702 73.6265 45.9639V46.6531H72.6526V47.9255H73.6265V51.9549Z" fill="#303030"/>
<path d="M81.9616 50.2265H80.5828C80.4285 50.587 80.0235 50.8097 79.5607 50.8097C78.7411 50.8097 78.3169 50.2689 78.259 49.6433H82.0195C82.087 47.6499 80.9203 46.5365 79.5029 46.5365C78.0372 46.5365 76.9669 47.7135 76.9669 49.2934C76.9669 50.9052 78.0179 52.0716 79.4932 52.0716C80.7178 52.0716 81.6724 51.2975 81.9616 50.2265ZM79.4643 47.7135C79.9175 47.7135 80.4092 47.9786 80.5732 48.689H78.3072C78.4326 48.1058 78.8568 47.7135 79.4643 47.7135Z" fill="#303030"/>
<path d="M83.2999 51.9549H84.6209V49.4207C84.6209 48.5512 85.0355 48.0104 85.6623 48.0104C85.8744 48.0104 86.0576 48.0528 86.2601 48.127V46.6531C86.0962 46.6001 85.9516 46.5895 85.8166 46.5895C85.2766 46.5895 84.7849 46.9818 84.6209 47.5014V46.6531H83.2999V51.9549Z" fill="#303030"/>
<path d="M91.9389 50.2265H90.5601C90.4058 50.587 90.0009 50.8097 89.538 50.8097C88.7184 50.8097 88.2942 50.2689 88.2363 49.6433H91.9968C92.0643 47.6499 90.8976 46.5365 89.4802 46.5365C88.0145 46.5365 86.9443 47.7135 86.9443 49.2934C86.9443 50.9052 87.9953 52.0716 89.4705 52.0716C90.6951 52.0716 91.6497 51.2975 91.9389 50.2265ZM89.4416 47.7135C89.8948 47.7135 90.3865 47.9786 90.5505 48.689H88.2845C88.4099 48.1058 88.8341 47.7135 89.4416 47.7135Z" fill="#303030"/>
<path d="M93.2773 51.9549H94.5982V49.3676C94.5982 48.3497 95.0611 47.8619 95.6685 47.8619C96.2181 47.8619 96.5171 48.3285 96.5171 49.0919V51.9549H97.838V48.8481C97.838 47.4696 97.1438 46.5365 95.9771 46.5365C95.3503 46.5365 94.8489 46.8334 94.5982 47.2575V46.6531H93.2773V51.9549Z" fill="#303030"/>
<path d="M104.063 49.9296H102.694C102.511 50.4068 102.154 50.7567 101.595 50.7567C100.901 50.7567 100.39 50.1841 100.39 49.304C100.39 48.4239 100.901 47.8513 101.595 47.8513C102.154 47.8513 102.511 48.2012 102.694 48.6784H104.063C103.803 47.459 102.926 46.5365 101.595 46.5365C100.129 46.5365 99.0591 47.7665 99.0591 49.304C99.0591 50.8415 100.129 52.0716 101.595 52.0716C102.926 52.0716 103.803 51.149 104.063 49.9296Z" fill="#303030"/>
<path d="M109.965 50.2265H108.586C108.432 50.587 108.027 50.8097 107.564 50.8097C106.745 50.8097 106.32 50.2689 106.263 49.6433H110.023C110.091 47.6499 108.924 46.5365 107.506 46.5365C106.041 46.5365 104.971 47.7135 104.971 49.2934C104.971 50.9052 106.022 52.0716 107.497 52.0716C108.721 52.0716 109.676 51.2975 109.965 50.2265ZM107.468 47.7135C107.921 47.7135 108.413 47.9786 108.577 48.689H106.311C106.436 48.1058 106.86 47.7135 107.468 47.7135Z" fill="#303030"/>
<path d="M112.888 51.9549H114.334L114.999 50.2371H117.911L118.577 51.9549H120.042L117.082 44.4264H115.838L112.888 51.9549ZM115.51 48.8905L116.455 46.441L117.4 48.8905H115.51Z" fill="#303030"/>
<path d="M120.732 52.2836C120.829 53.4182 121.725 54.2771 123.085 54.2771C124.338 54.2771 125.524 53.5455 125.524 51.6262V46.6531H124.203V47.2469C123.953 46.844 123.422 46.5365 122.805 46.5365C121.552 46.5365 120.53 47.7241 120.53 49.2192C120.53 50.7037 121.552 51.8913 122.805 51.8913C123.422 51.8913 123.953 51.5838 124.203 51.1915V51.8171C124.203 52.6547 123.692 53.0683 123.114 53.0683C122.564 53.0683 122.188 52.8244 122.024 52.2836H120.732ZM124.309 49.2192C124.309 50.0251 123.75 50.5764 123.085 50.5764C122.42 50.5764 121.86 50.0251 121.86 49.2192C121.86 48.4027 122.42 47.8619 123.085 47.8619C123.75 47.8619 124.309 48.4027 124.309 49.2192Z" fill="#303030"/>
<path d="M127.011 52.2836C127.107 53.4182 128.004 54.2771 129.364 54.2771C130.617 54.2771 131.803 53.5455 131.803 51.6262V46.6531H130.482V47.2469C130.231 46.844 129.701 46.5365 129.084 46.5365C127.83 46.5365 126.808 47.7241 126.808 49.2192C126.808 50.7037 127.83 51.8913 129.084 51.8913C129.701 51.8913 130.231 51.5838 130.482 51.1915V51.8171C130.482 52.6547 129.971 53.0683 129.393 53.0683C128.843 53.0683 128.467 52.8244 128.303 52.2836H127.011ZM130.588 49.2192C130.588 50.0251 130.029 50.5764 129.364 50.5764C128.698 50.5764 128.139 50.0251 128.139 49.2192C128.139 48.4027 128.698 47.8619 129.364 47.8619C130.029 47.8619 130.588 48.4027 130.588 49.2192Z" fill="#303030"/>
<path d="M133.396 51.9549H134.717V49.4207C134.717 48.5512 135.131 48.0104 135.758 48.0104C135.97 48.0104 136.153 48.0528 136.356 48.127V46.6531C136.192 46.6001 136.047 46.5895 135.912 46.5895C135.372 46.5895 134.881 46.9818 134.717 47.5014V46.6531H133.396V51.9549Z" fill="#303030"/>
<path d="M142.035 50.2265H140.656C140.502 50.587 140.097 50.8097 139.634 50.8097C138.814 50.8097 138.39 50.2689 138.332 49.6433H142.092C142.16 47.6499 140.993 46.5365 139.576 46.5365C138.11 46.5365 137.04 47.7135 137.04 49.2934C137.04 50.9052 138.091 52.0716 139.566 52.0716C140.791 52.0716 141.745 51.2975 142.035 50.2265ZM139.537 47.7135C139.99 47.7135 140.482 47.9786 140.646 48.689H138.38C138.506 48.1058 138.93 47.7135 139.537 47.7135Z" fill="#303030"/>
<path d="M143.267 52.2836C143.363 53.4182 144.26 54.2771 145.62 54.2771C146.873 54.2771 148.059 53.5455 148.059 51.6262V46.6531H146.738V47.2469C146.487 46.844 145.957 46.5365 145.34 46.5365C144.086 46.5365 143.064 47.7241 143.064 49.2192C143.064 50.7037 144.086 51.8913 145.34 51.8913C145.957 51.8913 146.487 51.5838 146.738 51.1915V51.8171C146.738 52.6547 146.227 53.0683 145.649 53.0683C145.099 53.0683 144.723 52.8244 144.559 52.2836H143.267ZM146.844 49.2192C146.844 50.0251 146.285 50.5764 145.62 50.5764C144.954 50.5764 144.395 50.0251 144.395 49.2192C144.395 48.4027 144.954 47.8619 145.62 47.8619C146.285 47.8619 146.844 48.4027 146.844 49.2192Z" fill="#303030"/>
<path d="M149.343 49.304C149.343 50.8097 150.327 52.0716 151.609 52.0716C152.274 52.0716 152.785 51.7004 152.997 51.3611V51.9549H154.318V46.6531H152.997V47.2469C152.785 46.9076 152.274 46.5365 151.609 46.5365C150.327 46.5365 149.343 47.7983 149.343 49.304ZM153.104 49.304C153.104 50.1311 152.612 50.7461 151.889 50.7461C151.165 50.7461 150.674 50.1311 150.674 49.304C150.674 48.4769 151.165 47.8619 151.889 47.8619C152.612 47.8619 153.104 48.4769 153.104 49.304Z" fill="#303030"/>
<path d="M159.093 51.9019V50.6189C158.939 50.6825 158.765 50.7143 158.553 50.7143C157.984 50.7143 157.734 50.4598 157.734 49.813V47.9255H159.093V46.6531H157.734V45.1792H156.413V46.6531H155.439V47.9255H156.413V50.0993C156.413 51.3929 157.232 52.0185 158.254 52.0185C158.621 52.0185 158.881 51.9761 159.093 51.9019Z" fill="#303030"/>
<path d="M165.042 49.304C165.042 47.7559 163.904 46.5365 162.506 46.5365C161.108 46.5365 159.97 47.7559 159.97 49.304C159.97 50.8521 161.108 52.0716 162.506 52.0716C163.904 52.0716 165.042 50.8521 165.042 49.304ZM161.301 49.304C161.301 48.4875 161.812 47.8937 162.506 47.8937C163.2 47.8937 163.701 48.4875 163.701 49.304C163.701 50.1205 163.2 50.7143 162.506 50.7143C161.812 50.7143 161.301 50.1205 161.301 49.304Z" fill="#303030"/>
<path d="M166.313 51.9549H167.633V49.4207C167.633 48.5512 168.048 48.0104 168.675 48.0104C168.887 48.0104 169.07 48.0528 169.273 48.127V46.6531C169.109 46.6001 168.964 46.5895 168.829 46.5895C168.289 46.5895 167.797 46.9818 167.633 47.5014V46.6531H166.313V51.9549Z" fill="#303030"/>
</svg>
