<svg width="24" height="24" viewBox="0 0 24 24" fill="none" xmlns="http://www.w3.org/2000/svg">
<path fill-rule="evenodd" clip-rule="evenodd" d="M6.33301 10.3333C6.33301 7.57183 8.57158 5.33325 11.333 5.33325C14.0944 5.33325 16.333 7.57183 16.333 10.3333C16.333 13.0947 14.0944 15.3333 11.333 15.3333C8.57158 15.3333 6.33301 13.0947 6.33301 10.3333ZM11.333 3.33325C7.46701 3.33325 4.33301 6.46726 4.33301 10.3333C4.33301 14.1992 7.46701 17.3333 11.333 17.3333C12.9053 17.3333 14.3566 16.8149 15.5252 15.9396L19.2926 19.707C19.6831 20.0976 20.3162 20.0976 20.7068 19.707C21.0973 19.3165 21.0973 18.6834 20.7068 18.2928L16.9394 14.5254C17.8146 13.3569 18.333 11.9056 18.333 10.3333C18.333 6.46726 15.199 3.33325 11.333 3.33325Z" fill="#A0A3BD"/>
</svg>
