<svg width="167" height="47" viewBox="0 0 167 47" fill="none" xmlns="http://www.w3.org/2000/svg">
<path fill-rule="evenodd" clip-rule="evenodd" d="M4.74146 21.6153L0 24.8644C0.712769 26.3385 1.70445 27.7073 2.97504 28.9708C4.24562 30.2344 5.73314 31.2422 7.43759 31.9943C9.17303 32.7163 11.0324 33.0773 13.0158 33.0773C14.5033 33.0773 15.9133 32.8517 17.2459 32.4004C18.6095 31.9792 19.8336 31.3625 20.9182 30.5502C22.0029 29.7079 22.8551 28.685 23.4749 27.4817C24.0947 26.2783 24.4046 24.9095 24.4046 23.3752C24.4046 22.0214 24.1722 20.8331 23.7073 19.8103C23.2735 18.7573 22.6537 17.8548 21.8479 17.1027C21.0732 16.3205 20.19 15.6587 19.1983 15.1172C18.2376 14.5757 17.2304 14.1244 16.1768 13.7634C14.5343 13.2219 13.1707 12.6954 12.0861 12.184C11.0014 11.6425 10.1957 11.0859 9.66887 10.5143C9.14204 9.91266 8.87862 9.22073 8.87862 8.43855C8.87862 7.65636 9.20402 6.97948 9.8548 6.40788C10.5056 5.8062 11.4818 5.50536 12.7834 5.50536C13.775 5.50536 14.6582 5.70091 15.433 6.092C16.2077 6.45301 16.8895 6.94939 17.4783 7.58116C18.0981 8.18283 18.625 8.85972 19.0588 9.61182L24.2651 6.81401C23.7073 5.70091 22.9171 4.63293 21.8944 3.61008C20.9027 2.55714 19.6476 1.69974 18.1291 1.0379C16.6416 0.345965 14.8597 0 12.7834 0C10.769 0 8.9406 0.361008 7.29813 1.08302C5.68666 1.77495 4.40057 2.78277 3.43988 4.10646C2.51019 5.40007 2.04534 6.94939 2.04534 8.75443C2.04534 10.2586 2.33974 11.5522 2.92855 12.6353C3.51736 13.6882 4.26112 14.5907 5.15983 15.3428C6.05854 16.0648 7.00373 16.6665 7.99541 17.1478C9.01808 17.5991 9.91679 17.9601 10.6915 18.2309C12.1481 18.7724 13.3722 19.2838 14.3638 19.7652C15.3865 20.2164 16.1458 20.7429 16.6416 21.3446C17.1684 21.9462 17.4318 22.7435 17.4318 23.7362C17.4318 24.8794 17.0135 25.7819 16.1768 26.4438C15.34 27.1056 14.2554 27.4366 12.9228 27.4366C11.7762 27.4366 10.707 27.1959 9.71535 26.7145C8.72367 26.2332 7.80947 25.5563 6.97274 24.6839C6.167 23.8114 5.42324 22.7886 4.74146 21.6153ZM98.0468 0.806762L91.3437 13.4822L84.6851 0.806762H77.4493L88.1476 19.2805V32.2705H94.5843V19.2355L105.283 0.806762H98.0468ZM73.0121 32.2705H60.467H58.3291H54.0532V0.806762H58.3291H60.467H73.0121V6.2455H60.467V12.8978H70.146V18.2467H60.467V26.8318H73.0121V32.2705ZM35.8139 32.2705H47.8007V26.8318H35.8139V18.2467H45.0457V12.8978H35.8139V6.2455H47.8007V0.806762H35.8139H33.7588H29.6485V32.2705H33.7588H35.8139ZM142.797 21.2604V0.806762H149.254V20.8687C149.254 22.6095 149.721 24.0165 150.654 25.09C151.617 26.1344 153.032 26.6567 154.899 26.6567C156.765 26.6567 158.165 26.1344 159.098 25.09C160.061 24.0165 160.543 22.6095 160.543 20.8687V0.806762H167V21.2604C167 23.0591 166.699 24.6403 166.097 26.0039C165.495 27.3675 164.637 28.5134 163.523 29.4418C162.439 30.3702 161.16 31.0665 159.685 31.5307C158.21 32.0239 156.614 32.2705 154.899 32.2705C153.153 32.2705 151.542 32.0239 150.067 31.5307C148.592 31.0665 147.313 30.3702 146.229 29.4418C145.145 28.5134 144.302 27.3675 143.7 26.0039C143.098 24.6403 142.797 23.0591 142.797 21.2604ZM129.138 9.58738C130.785 11.4213 131.781 13.8722 131.781 16.5384C131.781 22.1265 127.409 26.7682 121.821 26.7682C116.233 26.7682 111.862 22.1265 111.862 16.5384C111.862 10.9883 116.174 6.37174 121.708 6.30937V0C112.612 0.0608685 105.283 7.42815 105.283 16.5384C105.283 25.6866 112.673 33.0773 121.821 33.0773C130.969 33.0773 138.36 25.6866 138.36 16.5384C138.36 12.6716 137.04 9.11879 134.824 6.30539L129.138 9.58738ZM110.737 46.6767L111.329 45.4465H113.275L113.873 46.6767H115.185L112.309 40.9432L109.432 46.6767H110.737ZM111.599 44.5721H113.012L112.309 43.0169L111.599 44.5721ZM67.2117 41.2605V44.6185L63.1763 40.9897V46.6767H64.2946V43.3186L68.3299 46.9475V41.2605H67.2117ZM42.0254 43.0478C41.8742 43.3161 41.7985 43.623 41.7985 43.9686C41.7985 44.3142 41.8742 44.6211 42.0254 44.8894C42.1767 45.1576 42.3847 45.3691 42.6494 45.5238C42.9141 45.6786 43.222 45.756 43.5731 45.756C43.9243 45.756 44.2322 45.6786 44.4969 45.5238C44.7616 45.3691 44.9669 45.1576 45.1127 44.8894C45.264 44.6211 45.3396 44.3142 45.3396 43.9686C45.3396 43.623 45.2667 43.3161 45.1208 43.0478C44.975 42.7796 44.7697 42.5681 44.505 42.4134C44.2403 42.2586 43.9297 42.1812 43.5731 42.1812C43.222 42.1812 42.9141 42.2586 42.6494 42.4134C42.3847 42.5681 42.1767 42.7796 42.0254 43.0478ZM40.7937 45.106C40.6479 44.7552 40.5749 44.3761 40.5749 43.9686C40.5749 43.5559 40.6506 43.1794 40.8018 42.8389C40.9531 42.4933 41.1638 42.1941 41.4339 41.9414C41.704 41.6886 42.02 41.4952 42.382 41.3611C42.7493 41.2218 43.1464 41.1521 43.5731 41.1521C44.0053 41.1521 44.4024 41.2218 44.7643 41.3611C45.1262 41.4952 45.4423 41.6886 45.7124 41.9414C45.9879 42.1941 46.1986 42.4933 46.3444 42.8389C46.4957 43.1794 46.5713 43.5559 46.5713 43.9686C46.5713 44.3761 46.4957 44.7552 46.3444 45.106C46.1986 45.4516 45.9906 45.7534 45.7205 46.0113C45.4558 46.2692 45.1398 46.4704 44.7724 46.6148C44.4105 46.7541 44.0107 46.8237 43.5731 46.8237C43.1356 46.8237 42.7331 46.7541 42.3658 46.6148C42.0038 46.4704 41.6878 46.2692 41.4177 46.0113C41.1476 45.7534 40.9396 45.4516 40.7937 45.106ZM3.33862 42.2586H1.81521V41.2605H6.02888V42.2586H4.49738V46.6767H3.33862V42.2586ZM8.11343 43.2954V41.2605H6.95467V46.6767H8.11343V44.2936H10.7632V46.6767H11.9219V41.2605H10.7632V43.2954H8.11343ZM14.5285 46.6767H17.0162V45.7405H14.5285V44.2626H16.8541V43.3419H14.5285V42.1967H17.0162V41.2605H14.5285H14.1558H13.4103V46.6767H14.1558H14.5285ZM21.8517 41.2605L23.3913 44.7888L24.9228 41.2605H26.268L23.3913 46.994L20.5147 41.2605H21.8517ZM27.1507 41.2605V46.6767H28.3257V41.2605H27.1507ZM29.8158 46.6767V41.2605H30.5613H30.9989H31.7444C32.3386 41.2605 32.8573 41.3714 33.3002 41.5932C33.7486 41.815 34.097 42.1297 34.3455 42.5372C34.594 42.9395 34.7183 43.4167 34.7183 43.9686C34.7183 44.5205 34.594 45.0003 34.3455 45.4078C34.097 45.8101 33.7486 46.1222 33.3002 46.344C32.8573 46.5658 32.3386 46.6767 31.7444 46.6767H30.9989H30.5613H29.8158ZM30.9989 45.6708H31.7039C31.9524 45.6708 32.1874 45.6399 32.4089 45.578C32.6304 45.5109 32.8248 45.4078 32.9923 45.2685C33.1598 45.1292 33.2894 44.9538 33.3813 44.7423C33.4785 44.5257 33.5271 44.2678 33.5271 43.9686C33.5271 43.6694 33.4785 43.4141 33.3813 43.2026C33.2894 42.9859 33.1598 42.808 32.9923 42.6687C32.8248 42.5294 32.6304 42.4288 32.4089 42.3669C32.1874 42.2999 31.9524 42.2663 31.7039 42.2663H30.9989V45.6708ZM37.0019 46.6767H39.4896V45.7405H37.0019V44.2626H39.3276V43.3419H37.0019V42.1967H39.4896V41.2605H37.0019H36.6292H35.8837V46.6767H36.6292H37.0019ZM51.3632 43.9686C51.3632 43.6075 51.4469 43.2954 51.6144 43.0324C51.7872 42.7693 52.0114 42.5681 52.2869 42.4288C52.5624 42.2844 52.8623 42.2122 53.1864 42.2122C53.4565 42.2122 53.6969 42.2457 53.9076 42.3128C54.1183 42.3798 54.3073 42.4701 54.4748 42.5836C54.6477 42.6971 54.7962 42.8209 54.9205 42.955V41.7093C54.6882 41.5339 54.4343 41.3972 54.1588 41.2992C53.8887 41.2012 53.5456 41.1521 53.1297 41.1521C52.6975 41.1521 52.295 41.2192 51.9223 41.3533C51.5549 41.4874 51.2335 41.6809 50.958 41.9336C50.6879 42.1864 50.4772 42.4856 50.326 42.8312C50.1801 43.1716 50.1072 43.5508 50.1072 43.9686C50.1072 44.3864 50.1801 44.7681 50.326 45.1138C50.4772 45.4542 50.6879 45.7508 50.958 46.0036C51.2335 46.2563 51.5549 46.4498 51.9223 46.5839C52.295 46.718 52.6975 46.785 53.1297 46.785C53.5456 46.785 53.8887 46.736 54.1588 46.638C54.4343 46.54 54.6882 46.4033 54.9205 46.2279V44.9822C54.7962 45.1163 54.6477 45.2401 54.4748 45.3536C54.3073 45.4671 54.1183 45.5574 53.9076 45.6244C53.6969 45.6915 53.4565 45.725 53.1864 45.725C52.8623 45.725 52.5624 45.6554 52.2869 45.5161C52.0114 45.3717 51.7872 45.1679 51.6144 44.9048C51.4469 44.6366 51.3632 44.3245 51.3632 43.9686ZM57.4672 43.0478C57.316 43.3161 57.2403 43.623 57.2403 43.9686C57.2403 44.3142 57.316 44.6211 57.4672 44.8894C57.6185 45.1576 57.8265 45.3691 58.0912 45.5238C58.3559 45.6786 58.6638 45.756 59.0149 45.756C59.3661 45.756 59.674 45.6786 59.9387 45.5238C60.2034 45.3691 60.4087 45.1576 60.5545 44.8894C60.7058 44.6211 60.7814 44.3142 60.7814 43.9686C60.7814 43.623 60.7085 43.3161 60.5626 43.0478C60.4168 42.7796 60.2115 42.5681 59.9468 42.4134C59.6821 42.2586 59.3715 42.1812 59.0149 42.1812C58.6638 42.1812 58.3559 42.2586 58.0912 42.4134C57.8265 42.5681 57.6185 42.7796 57.4672 43.0478ZM56.2355 45.106C56.0897 44.7552 56.0167 44.3761 56.0167 43.9686C56.0167 43.5559 56.0924 43.1794 56.2436 42.8389C56.3949 42.4933 56.6056 42.1941 56.8757 41.9414C57.1458 41.6886 57.4618 41.4952 57.8238 41.3611C58.1911 41.2218 58.5882 41.1521 59.0149 41.1521C59.4471 41.1521 59.8442 41.2218 60.2061 41.3611C60.568 41.4952 60.8841 41.6886 61.1542 41.9414C61.4297 42.1941 61.6404 42.4933 61.7862 42.8389C61.9375 43.1794 62.0131 43.5559 62.0131 43.9686C62.0131 44.3761 61.9375 44.7552 61.7862 45.106C61.6404 45.4516 61.4324 45.7534 61.1623 46.0113C60.8976 46.2692 60.5816 46.4704 60.2142 46.6148C59.8523 46.7541 59.4525 46.8237 59.0149 46.8237C58.5774 46.8237 58.1749 46.7541 57.8076 46.6148C57.4456 46.4704 57.1296 46.2692 56.8595 46.0113C56.5894 45.7534 56.3814 45.4516 56.2355 45.106ZM70.5752 41.2605H70.948H73.1115V42.2277H70.948V43.4425H73.0305V44.3632H70.948V46.6767H69.8297V41.2605H70.5752ZM75.5598 46.6767H78.0475V45.7405H75.5598V44.2626H77.8854V43.3419H75.5598V42.1967H78.0475V41.2605H75.5598H75.187H74.4415V46.6767H75.187H75.5598ZM81.1212 44.7114L82.447 46.6767H83.8165L82.2817 44.5814C82.3591 44.5562 82.4332 44.5273 82.5037 44.4948C82.8171 44.3503 83.0574 44.1491 83.2249 43.8912C83.3924 43.6282 83.4761 43.3264 83.4761 42.9859C83.4761 42.6403 83.3924 42.3386 83.2249 42.0807C83.0574 41.8227 82.8171 41.6216 82.5037 41.4771C82.1904 41.3327 81.8096 41.2605 81.3612 41.2605H80.6157H80.1619H79.4569V46.6767H80.6157V44.7114H81.1212ZM80.6157 42.2044V43.8293H81.2882C81.4935 43.8293 81.6691 43.7984 81.815 43.7365C81.9662 43.6694 82.0824 43.5766 82.1634 43.4579C82.2444 43.3341 82.2849 43.1871 82.2849 43.0169C82.2849 42.8467 82.2444 42.7022 82.1634 42.5836C82.0824 42.4598 81.9662 42.3669 81.815 42.305C81.6691 42.238 81.4935 42.2044 81.2882 42.2044H80.6157ZM85.8675 46.6767H88.3552V45.7405H85.8675V44.2626H88.1931V43.3419H85.8675V42.1967H88.3552V41.2605H85.8675H85.4948H84.7493V46.6767H85.4948H85.8675ZM93.8 44.6185V41.2605H94.9183V46.9475L90.8829 43.3186V46.6767H89.7646V40.9897L93.8 44.6185ZM97.3499 43.9686C97.3499 43.6075 97.4337 43.2954 97.6011 43.0324C97.774 42.7693 97.9982 42.5681 98.2737 42.4288C98.5492 42.2844 98.849 42.2122 99.1732 42.2122C99.4433 42.2122 99.6837 42.2457 99.8943 42.3128C100.105 42.3798 100.294 42.4701 100.462 42.5836C100.634 42.6971 100.783 42.8209 100.907 42.955V41.7093C100.675 41.5339 100.421 41.3972 100.146 41.2992C99.8754 41.2012 99.5324 41.1521 99.1164 41.1521C98.6843 41.1521 98.2818 41.2192 97.9091 41.3533C97.5417 41.4874 97.2203 41.6809 96.9448 41.9336C96.6747 42.1864 96.464 42.4856 96.3127 42.8312C96.1669 43.1716 96.0939 43.5508 96.0939 43.9686C96.0939 44.3864 96.1669 44.7681 96.3127 45.1138C96.464 45.4542 96.6747 45.7508 96.9448 46.0036C97.2203 46.2563 97.5417 46.4498 97.9091 46.5839C98.2818 46.718 98.6843 46.785 99.1164 46.785C99.5324 46.785 99.8754 46.736 100.146 46.638C100.421 46.54 100.675 46.4033 100.907 46.2279V44.9822C100.783 45.1163 100.634 45.2401 100.462 45.3536C100.294 45.4671 100.105 45.5574 99.8943 45.6244C99.6837 45.6915 99.4433 45.725 99.1732 45.725C98.849 45.725 98.5492 45.6554 98.2737 45.5161C97.9982 45.3717 97.774 45.1679 97.6011 44.9048C97.4337 44.6366 97.3499 44.3245 97.3499 43.9686ZM105.934 46.6767H103.446H103.073H102.328V41.2605H103.073H103.446H105.934V42.1967H103.446V43.3419H105.772V44.2626H103.446V45.7405H105.934V46.6767ZM120.207 44.665H118.578V43.7829H121.373C121.39 44.1956 121.338 44.585 121.22 44.9513C121.106 45.3175 120.925 45.6425 120.677 45.9262C120.434 46.2047 120.131 46.424 119.769 46.5839C119.407 46.7438 118.994 46.8237 118.529 46.8237C118.092 46.8237 117.687 46.7541 117.314 46.6148C116.946 46.4755 116.625 46.2795 116.349 46.0268C116.079 45.774 115.869 45.4723 115.717 45.1215C115.572 44.7707 115.499 44.3864 115.499 43.9686C115.499 43.5508 115.574 43.1691 115.726 42.8234C115.882 42.4727 116.098 42.1735 116.374 41.9259C116.649 41.6783 116.973 41.4874 117.346 41.3533C117.719 41.2192 118.124 41.1521 118.562 41.1521C118.951 41.1521 119.299 41.2037 119.607 41.3069C119.92 41.4101 120.196 41.5545 120.434 41.7402C120.677 41.9207 120.885 42.1374 121.057 42.3901L120.069 42.9395C119.928 42.7022 119.731 42.5114 119.477 42.3669C119.229 42.2173 118.924 42.1426 118.562 42.1426C118.221 42.1426 117.911 42.2173 117.63 42.3669C117.349 42.5114 117.125 42.7203 116.957 42.9937C116.795 43.2671 116.714 43.592 116.714 43.9686C116.714 44.34 116.795 44.6676 116.957 44.9513C117.119 45.2298 117.338 45.4465 117.614 45.6012C117.895 45.756 118.211 45.8333 118.562 45.8333C118.794 45.8333 119.002 45.805 119.186 45.7482C119.369 45.6863 119.526 45.6012 119.656 45.4929C119.791 45.3846 119.904 45.2608 119.996 45.1215C120.088 44.9822 120.158 44.83 120.207 44.665ZM125.342 44.665H126.971C126.922 44.83 126.852 44.9822 126.76 45.1215C126.668 45.2608 126.555 45.3846 126.42 45.4929C126.29 45.6012 126.134 45.6863 125.95 45.7482C125.766 45.805 125.558 45.8333 125.326 45.8333C124.975 45.8333 124.659 45.756 124.378 45.6012C124.102 45.4465 123.884 45.2298 123.721 44.9513C123.559 44.6676 123.478 44.34 123.478 43.9686C123.478 43.592 123.559 43.2671 123.721 42.9937C123.889 42.7203 124.113 42.5114 124.394 42.3669C124.675 42.2173 124.986 42.1426 125.326 42.1426C125.688 42.1426 125.993 42.2173 126.242 42.3669C126.495 42.5114 126.693 42.7022 126.833 42.9395L127.822 42.3901C127.649 42.1374 127.441 41.9207 127.198 41.7402C126.96 41.5545 126.685 41.4101 126.371 41.3069C126.063 41.2037 125.715 41.1521 125.326 41.1521C124.888 41.1521 124.483 41.2192 124.11 41.3533C123.738 41.4874 123.414 41.6783 123.138 41.9259C122.863 42.1735 122.646 42.4727 122.49 42.8234C122.339 43.1691 122.263 43.5508 122.263 43.9686C122.263 44.3864 122.336 44.7707 122.482 45.1215C122.633 45.4723 122.844 45.774 123.114 46.0268C123.389 46.2795 123.711 46.4755 124.078 46.6148C124.451 46.7541 124.856 46.8237 125.293 46.8237C125.758 46.8237 126.171 46.7438 126.533 46.5839C126.895 46.424 127.198 46.2047 127.441 45.9262C127.689 45.6425 127.87 45.3175 127.984 44.9513C128.103 44.585 128.154 44.1956 128.138 43.7829H125.342V44.665ZM131.015 44.7114L132.341 46.6767H133.711L132.176 44.5814C132.253 44.5562 132.327 44.5273 132.398 44.4948C132.711 44.3503 132.952 44.1491 133.119 43.8912C133.287 43.6282 133.37 43.3264 133.37 42.9859C133.37 42.6403 133.287 42.3386 133.119 42.0807C132.952 41.8227 132.711 41.6216 132.398 41.4771C132.085 41.3327 131.704 41.2605 131.255 41.2605H130.51H130.056H129.351V46.6767H130.51V44.7114H131.015ZM130.51 42.2044V43.8293H131.183C131.388 43.8293 131.563 43.7984 131.709 43.7365C131.861 43.6694 131.977 43.5766 132.058 43.4579C132.139 43.3341 132.179 43.1871 132.179 43.0169C132.179 42.8467 132.139 42.7022 132.058 42.5836C131.977 42.4598 131.861 42.3669 131.709 42.305C131.563 42.238 131.388 42.2044 131.183 42.2044H130.51ZM135.762 46.6767H138.249V45.7405H135.762V44.2626H138.087V43.3419H135.762V42.1967H138.249V41.2605H135.762H135.389H134.644V46.6767H135.389H135.762ZM144.043 44.665H142.414V43.7829H145.21C145.226 44.1956 145.175 44.585 145.056 44.9513C144.942 45.3175 144.761 45.6425 144.513 45.9262C144.27 46.2047 143.967 46.424 143.605 46.5839C143.243 46.7438 142.83 46.8237 142.365 46.8237C141.928 46.8237 141.523 46.7541 141.15 46.6148C140.783 46.4755 140.461 46.2795 140.186 46.0268C139.916 45.774 139.705 45.4723 139.554 45.1215C139.408 44.7707 139.335 44.3864 139.335 43.9686C139.335 43.5508 139.41 43.1691 139.562 42.8234C139.718 42.4727 139.934 42.1735 140.21 41.9259C140.485 41.6783 140.81 41.4874 141.182 41.3533C141.555 41.2192 141.96 41.1521 142.398 41.1521C142.787 41.1521 143.135 41.2037 143.443 41.3069C143.756 41.4101 144.032 41.5545 144.27 41.7402C144.513 41.9207 144.721 42.1374 144.894 42.3901L143.905 42.9395C143.765 42.7022 143.567 42.5114 143.313 42.3669C143.065 42.2173 142.76 42.1426 142.398 42.1426C142.057 42.1426 141.747 42.2173 141.466 42.3669C141.185 42.5114 140.961 42.7203 140.793 42.9937C140.631 43.2671 140.55 43.592 140.55 43.9686C140.55 44.34 140.631 44.6676 140.793 44.9513C140.955 45.2298 141.174 45.4465 141.45 45.6012C141.731 45.756 142.047 45.8333 142.398 45.8333C142.63 45.8333 142.838 45.805 143.022 45.7482C143.205 45.6863 143.362 45.6012 143.492 45.4929C143.627 45.3846 143.74 45.2608 143.832 45.1215C143.924 44.9822 143.994 44.83 144.043 44.665ZM146.875 46.6767L147.467 45.4465H149.413L150.011 46.6767H151.323L148.447 40.9432L145.57 46.6767H146.875ZM147.737 44.5721H149.151L148.447 43.0169L147.737 44.5721ZM152.593 42.2586H151.069V41.2605H155.283V42.2586H153.751V46.6767H152.593V42.2586ZM156.704 43.9686C156.704 43.623 156.78 43.3161 156.931 43.0478C157.083 42.7796 157.291 42.5681 157.555 42.4134C157.82 42.2586 158.128 42.1812 158.479 42.1812C158.836 42.1812 159.146 42.2586 159.411 42.4134C159.676 42.5681 159.881 42.7796 160.027 43.0478C160.173 43.3161 160.246 43.623 160.246 43.9686C160.246 44.3142 160.17 44.6211 160.019 44.8894C159.873 45.1576 159.668 45.3691 159.403 45.5238C159.138 45.6786 158.83 45.756 158.479 45.756C158.128 45.756 157.82 45.6786 157.555 45.5238C157.291 45.3691 157.083 45.1576 156.931 44.8894C156.78 44.6211 156.704 44.3142 156.704 43.9686ZM155.481 43.9686C155.481 44.3761 155.554 44.7552 155.7 45.106C155.846 45.4516 156.054 45.7534 156.324 46.0113C156.594 46.2692 156.91 46.4704 157.272 46.6148C157.639 46.7541 158.042 46.8237 158.479 46.8237C158.917 46.8237 159.316 46.7541 159.678 46.6148C160.046 46.4704 160.362 46.2692 160.626 46.0113C160.897 45.7534 161.105 45.4516 161.25 45.106C161.402 44.7552 161.477 44.3761 161.477 43.9686C161.477 43.5559 161.402 43.1794 161.25 42.8389C161.105 42.4933 160.894 42.1941 160.618 41.9414C160.348 41.6886 160.032 41.4952 159.67 41.3611C159.308 41.2218 158.911 41.1521 158.479 41.1521C158.052 41.1521 157.655 41.2218 157.288 41.3611C156.926 41.4952 156.61 41.6886 156.34 41.9414C156.07 42.1941 155.859 42.4933 155.708 42.8389C155.557 43.1794 155.481 43.5559 155.481 43.9686ZM164.305 44.7114L165.631 46.6767H167L165.465 44.5814C165.543 44.5562 165.617 44.5273 165.687 44.4948C166.001 44.3503 166.241 44.1491 166.408 43.8912C166.576 43.6282 166.66 43.3264 166.66 42.9859C166.66 42.6403 166.576 42.3386 166.408 42.0807C166.241 41.8227 166.001 41.6216 165.687 41.4771C165.374 41.3327 164.993 41.2605 164.545 41.2605H163.799H163.345H162.64V46.6767H163.799V44.7114H164.305ZM163.799 42.2044V43.8293H164.472C164.677 43.8293 164.853 43.7984 164.998 43.7365C165.15 43.6694 165.266 43.5766 165.347 43.4579C165.428 43.3341 165.468 43.1871 165.468 43.0169C165.468 42.8467 165.428 42.7022 165.347 42.5836C165.266 42.4598 165.15 42.3669 164.998 42.305C164.853 42.238 164.677 42.2044 164.472 42.2044H163.799Z" fill="#303030"/>
</svg>
