<svg width="82" height="16" viewBox="0 0 82 16" fill="none" xmlns="http://www.w3.org/2000/svg">
<path d="M2.32814 10.4557L0 12.0273C0.349982 12.7403 0.836914 13.4025 1.4608 14.0136C2.08468 14.6248 2.81508 15.1123 3.65199 15.4761C4.50412 15.8254 5.41712 16 6.39098 16C7.12138 16 7.81374 15.8909 8.46805 15.6726C9.13758 15.4689 9.73864 15.1705 10.2712 14.7776C10.8038 14.3702 11.2223 13.8754 11.5266 13.2933C11.8309 12.7112 11.9831 12.0491 11.9831 11.307C11.9831 10.6521 11.869 10.0773 11.6407 9.58254C11.4277 9.07322 11.1234 8.63665 10.7277 8.27285C10.3473 7.8945 9.91363 7.57435 9.4267 7.31242C8.95498 7.05048 8.46044 6.8322 7.94308 6.65757C7.1366 6.39564 6.46706 6.14097 5.93448 5.89359C5.4019 5.63165 5.00627 5.36244 4.74759 5.08595C4.4889 4.79491 4.35956 4.46021 4.35956 4.08186C4.35956 3.7035 4.51934 3.37608 4.83889 3.09959C5.15844 2.80855 5.63776 2.66303 6.27686 2.66303C6.76379 2.66303 7.19746 2.75762 7.57788 2.94679C7.95829 3.12142 8.29306 3.36153 8.58218 3.66712C8.88651 3.95816 9.14519 4.28558 9.35822 4.64939L11.9146 3.29604C11.6407 2.75762 11.2527 2.24102 10.7505 1.74625C10.2636 1.23693 9.64734 0.822192 8.90172 0.502046C8.17133 0.167349 7.29637 0 6.27686 0C5.28778 0 4.39 0.174625 3.58351 0.523875C2.79225 0.858572 2.16076 1.34607 1.68905 1.98636C1.23255 2.6121 1.0043 3.36153 1.0043 4.23465C1.0043 4.96226 1.14886 5.588 1.43797 6.11187C1.72709 6.62119 2.09229 7.05775 2.53357 7.42156C2.97485 7.77081 3.43896 8.06185 3.92589 8.29468C4.42804 8.51296 4.86932 8.68759 5.24974 8.81855C5.96492 9.08049 6.56597 9.32788 7.0529 9.56071C7.55505 9.77899 7.92786 10.0337 8.17133 10.3247C8.43001 10.6157 8.55935 11.0014 8.55935 11.4816C8.55935 12.0346 8.35393 12.4711 7.94308 12.7913C7.53223 13.1114 6.99965 13.2715 6.34533 13.2715C5.78232 13.2715 5.25734 13.1551 4.77041 12.9222C4.28348 12.6894 3.83459 12.362 3.42374 11.94C3.02811 11.518 2.66291 11.0232 2.32814 10.4557Z" fill="#303030"/>
<path d="M48.1431 0.390259L44.8517 6.52155L41.5822 0.390259H38.0293L43.2824 9.32629V15.6098H46.4429V9.30454L51.696 0.390259H48.1431Z" fill="#303030"/>
<path d="M35.8502 12.979V15.6098H26.541V0.390259H35.8502V3.02106H29.6904V6.2389H34.4429V8.82622H29.6904V12.979H35.8502Z" fill="#303030"/>
<path d="M23.4716 12.979V15.6098H14.5586V0.390259H23.4716V3.02106H17.5859V6.2389H22.1189V8.82622H17.5859V12.979H23.4716Z" fill="#303030"/>
<path d="M70.1162 0.390259V10.284C70.1162 11.1541 70.264 11.9189 70.5596 12.5785C70.8553 13.2381 71.2691 13.7924 71.8013 14.2415C72.3334 14.6906 72.9616 15.0274 73.6859 15.2519C74.4101 15.4905 75.2009 15.6098 76.0582 15.6098C76.9008 15.6098 77.6842 15.4905 78.4084 15.2519C79.1327 15.0274 79.7609 14.6906 80.293 14.2415C80.8399 13.7924 81.2612 13.2381 81.5568 12.5785C81.8525 11.9189 82.0003 11.1541 82.0003 10.284V0.390259H78.8297V10.0945C78.8297 10.9366 78.5932 11.6172 78.1202 12.1364C77.662 12.6416 76.9747 12.8943 76.0582 12.8943C75.1418 12.8943 74.4471 12.6416 73.9741 12.1364C73.5159 11.6172 73.2868 10.9366 73.2868 10.0945V0.390259H70.1162Z" fill="#303030"/>
<path fill-rule="evenodd" clip-rule="evenodd" d="M63.4085 4.63756C64.2176 5.52468 64.7063 6.71019 64.7063 7.9999C64.7063 10.7029 62.5599 12.9482 59.8161 12.9482C57.0723 12.9482 54.9259 10.7029 54.9259 7.9999C54.9259 5.31522 57.0433 3.08211 59.7604 3.05194V0C55.2943 0.029443 51.6953 3.59311 51.6953 7.9999C51.6953 12.425 55.3243 16 59.8161 16C64.308 16 67.9369 12.425 67.9369 7.9999C67.9369 6.12944 67.2886 4.4109 66.2007 3.05001L63.4085 4.63756Z" fill="#303030"/>
</svg>
