<svg width="150" height="43" viewBox="0 0 150 43" fill="none" xmlns="http://www.w3.org/2000/svg">
<rect y="0.623901" width="150" height="42" rx="5" fill="white"/>
<path d="M54.2653 9.6239V16.6239H55.1153V9.6239H54.2653ZM56.3653 16.6239C57.0453 16.6239 57.6487 16.4772 58.1753 16.1839C58.702 15.8906 59.1153 15.4839 59.4153 14.9639C59.7153 14.4372 59.8653 13.8239 59.8653 13.1239C59.8653 12.4239 59.7153 11.8139 59.4153 11.2939C59.1153 10.7672 58.702 10.3572 58.1753 10.0639C57.6487 9.77057 57.0453 9.6239 56.3653 9.6239H54.7353V10.4739H56.3653C56.7587 10.4739 57.1187 10.5372 57.4453 10.6639C57.772 10.7839 58.052 10.9606 58.2853 11.1939C58.5187 11.4206 58.6987 11.6972 58.8253 12.0239C58.952 12.3506 59.0153 12.7172 59.0153 13.1239C59.0153 13.5306 58.952 13.8972 58.8253 14.2239C58.6987 14.5506 58.5187 14.8306 58.2853 15.0639C58.052 15.2906 57.772 15.4672 57.4453 15.5939C57.1187 15.7139 56.7587 15.7739 56.3653 15.7739H54.7353V16.6239H56.3653ZM60.6122 14.3239C60.6122 14.7839 60.7155 15.1972 60.9222 15.5639C61.1355 15.9239 61.4222 16.2072 61.7822 16.4139C62.1422 16.6206 62.5455 16.7239 62.9922 16.7239C63.4455 16.7239 63.8489 16.6206 64.2022 16.4139C64.5622 16.2072 64.8455 15.9239 65.0522 15.5639C65.2655 15.1972 65.3722 14.7839 65.3722 14.3239C65.3722 13.8572 65.2655 13.4439 65.0522 13.0839C64.8455 12.7239 64.5622 12.4406 64.2022 12.2339C63.8489 12.0272 63.4455 11.9239 62.9922 11.9239C62.5455 11.9239 62.1422 12.0272 61.7822 12.2339C61.4222 12.4406 61.1355 12.7239 60.9222 13.0839C60.7155 13.4439 60.6122 13.8572 60.6122 14.3239ZM61.4222 14.3239C61.4222 14.0039 61.4889 13.7206 61.6222 13.4739C61.7622 13.2206 61.9489 13.0239 62.1822 12.8839C62.4222 12.7439 62.6922 12.6739 62.9922 12.6739C63.2922 12.6739 63.5589 12.7439 63.7922 12.8839C64.0322 13.0239 64.2189 13.2206 64.3522 13.4739C64.4922 13.7206 64.5622 14.0039 64.5622 14.3239C64.5622 14.6439 64.4922 14.9272 64.3522 15.1739C64.2189 15.4206 64.0322 15.6172 63.7922 15.7639C63.5589 15.9039 63.2922 15.9739 62.9922 15.9739C62.6922 15.9739 62.4222 15.9039 62.1822 15.7639C61.9489 15.6172 61.7622 15.4206 61.6222 15.1739C61.4889 14.9272 61.4222 14.6439 61.4222 14.3239ZM65.6247 12.0239L67.6247 16.9739L68.9347 13.6239L70.3247 16.9739L72.3247 12.0239H71.4247L70.2647 15.0339L68.9247 11.6739L67.6747 15.0139L66.5247 12.0239H65.6247ZM76.0716 13.8239V16.6239H76.8716V13.7239C76.8716 13.1706 76.7282 12.7339 76.4416 12.4139C76.1616 12.0872 75.7782 11.9239 75.2916 11.9239C74.9916 11.9239 74.7249 11.9906 74.4916 12.1239C74.2649 12.2572 74.0749 12.4639 73.9216 12.7439V12.0239H73.1216V16.6239H73.9216V13.8239C73.9216 13.5972 73.9682 13.3972 74.0616 13.2239C74.1616 13.0506 74.2982 12.9172 74.4716 12.8239C74.6516 12.7239 74.8582 12.6739 75.0916 12.6739C75.4116 12.6739 75.6549 12.7706 75.8216 12.9639C75.9882 13.1572 76.0716 13.4439 76.0716 13.8239ZM78.3755 8.8239V16.6239H79.1755V8.8239H78.3755ZM80.2802 14.3239C80.2802 14.7839 80.3835 15.1972 80.5902 15.5639C80.8035 15.9239 81.0902 16.2072 81.4502 16.4139C81.8102 16.6206 82.2135 16.7239 82.6602 16.7239C83.1135 16.7239 83.5168 16.6206 83.8702 16.4139C84.2302 16.2072 84.5135 15.9239 84.7202 15.5639C84.9335 15.1972 85.0402 14.7839 85.0402 14.3239C85.0402 13.8572 84.9335 13.4439 84.7202 13.0839C84.5135 12.7239 84.2302 12.4406 83.8702 12.2339C83.5168 12.0272 83.1135 11.9239 82.6602 11.9239C82.2135 11.9239 81.8102 12.0272 81.4502 12.2339C81.0902 12.4406 80.8035 12.7239 80.5902 13.0839C80.3835 13.4439 80.2802 13.8572 80.2802 14.3239ZM81.0902 14.3239C81.0902 14.0039 81.1568 13.7206 81.2902 13.4739C81.4302 13.2206 81.6168 13.0239 81.8502 12.8839C82.0902 12.7439 82.3602 12.6739 82.6602 12.6739C82.9602 12.6739 83.2268 12.7439 83.4602 12.8839C83.7002 13.0239 83.8868 13.2206 84.0202 13.4739C84.1602 13.7206 84.2302 14.0039 84.2302 14.3239C84.2302 14.6439 84.1602 14.9272 84.0202 15.1739C83.8868 15.4206 83.7002 15.6172 83.4602 15.7639C83.2268 15.9039 82.9602 15.9739 82.6602 15.9739C82.3602 15.9739 82.0902 15.9039 81.8502 15.7639C81.6168 15.6172 81.4302 15.4206 81.2902 15.1739C81.1568 14.9272 81.0902 14.6439 81.0902 14.3239ZM86.4992 15.2039C86.4992 15.0372 86.5392 14.8939 86.6192 14.7739C86.6992 14.6539 86.8192 14.5606 86.9792 14.4939C87.1458 14.4272 87.3592 14.3939 87.6192 14.3939C87.8992 14.3939 88.1625 14.4306 88.4092 14.5039C88.6558 14.5706 88.8958 14.6839 89.1292 14.8439V14.3739C89.0825 14.3139 88.9925 14.2372 88.8592 14.1439C88.7258 14.0439 88.5458 13.9572 88.3192 13.8839C88.0992 13.8039 87.8225 13.7639 87.4892 13.7639C86.9225 13.7639 86.4792 13.9006 86.1592 14.1739C85.8458 14.4406 85.6892 14.7972 85.6892 15.2439C85.6892 15.5572 85.7625 15.8239 85.9092 16.0439C86.0558 16.2639 86.2492 16.4339 86.4892 16.5539C86.7358 16.6672 86.9992 16.7239 87.2792 16.7239C87.5325 16.7239 87.7858 16.6772 88.0392 16.5839C88.2992 16.4906 88.5158 16.3472 88.6892 16.1539C88.8692 15.9606 88.9592 15.7172 88.9592 15.4239L88.7992 14.8239C88.7992 15.0639 88.7392 15.2772 88.6192 15.4639C88.5058 15.6439 88.3492 15.7839 88.1492 15.8839C87.9558 15.9839 87.7358 16.0339 87.4892 16.0339C87.2958 16.0339 87.1225 16.0039 86.9692 15.9439C86.8225 15.8772 86.7058 15.7806 86.6192 15.6539C86.5392 15.5272 86.4992 15.3772 86.4992 15.2039ZM86.3792 13.0839C86.4525 13.0306 86.5525 12.9672 86.6792 12.8939C86.8058 12.8206 86.9592 12.7572 87.1392 12.7039C87.3258 12.6506 87.5325 12.6239 87.7592 12.6239C87.8992 12.6239 88.0325 12.6372 88.1592 12.6639C88.2858 12.6906 88.3958 12.7339 88.4892 12.7939C88.5892 12.8539 88.6658 12.9372 88.7192 13.0439C88.7725 13.1439 88.7992 13.2739 88.7992 13.4339V16.6239H89.5992V13.3239C89.5992 13.0239 89.5225 12.7706 89.3692 12.5639C89.2225 12.3572 89.0125 12.2006 88.7392 12.0939C88.4725 11.9806 88.1592 11.9239 87.7992 11.9239C87.3725 11.9239 87.0058 11.9872 86.6992 12.1139C86.3992 12.2406 86.1625 12.3672 85.9892 12.4939L86.3792 13.0839ZM94.4036 8.8239V16.6239H95.2036V8.8239H94.4036ZM90.5536 14.3239C90.5536 14.8172 90.6569 15.2439 90.8636 15.6039C91.0703 15.9639 91.3469 16.2406 91.6936 16.4339C92.0403 16.6272 92.4203 16.7239 92.8336 16.7239C93.2203 16.7239 93.5569 16.6272 93.8436 16.4339C94.1303 16.2406 94.3536 15.9639 94.5136 15.6039C94.6803 15.2439 94.7636 14.8172 94.7636 14.3239C94.7636 13.8239 94.6803 13.3972 94.5136 13.0439C94.3536 12.6839 94.1303 12.4072 93.8436 12.2139C93.5569 12.0206 93.2203 11.9239 92.8336 11.9239C92.4203 11.9239 92.0403 12.0206 91.6936 12.2139C91.3469 12.4072 91.0703 12.6839 90.8636 13.0439C90.6569 13.3972 90.5536 13.8239 90.5536 14.3239ZM91.3636 14.3239C91.3636 13.9706 91.4336 13.6706 91.5736 13.4239C91.7203 13.1772 91.9136 12.9906 92.1536 12.8639C92.3936 12.7372 92.6536 12.6739 92.9336 12.6739C93.1669 12.6739 93.3969 12.7372 93.6236 12.8639C93.8503 12.9906 94.0369 13.1772 94.1836 13.4239C94.3303 13.6706 94.4036 13.9706 94.4036 14.3239C94.4036 14.6772 94.3303 14.9772 94.1836 15.2239C94.0369 15.4706 93.8503 15.6572 93.6236 15.7839C93.3969 15.9106 93.1669 15.9739 92.9336 15.9739C92.6536 15.9739 92.3936 15.9106 92.1536 15.7839C91.9136 15.6572 91.7203 15.4706 91.5736 15.2239C91.4336 14.9772 91.3636 14.6772 91.3636 14.3239ZM99.2548 14.3239C99.2548 14.7839 99.3581 15.1972 99.5648 15.5639C99.7781 15.9239 100.065 16.2072 100.425 16.4139C100.785 16.6206 101.188 16.7239 101.635 16.7239C102.088 16.7239 102.491 16.6206 102.845 16.4139C103.205 16.2072 103.488 15.9239 103.695 15.5639C103.908 15.1972 104.015 14.7839 104.015 14.3239C104.015 13.8572 103.908 13.4439 103.695 13.0839C103.488 12.7239 103.205 12.4406 102.845 12.2339C102.491 12.0272 102.088 11.9239 101.635 11.9239C101.188 11.9239 100.785 12.0272 100.425 12.2339C100.065 12.4406 99.7781 12.7239 99.5648 13.0839C99.3581 13.4439 99.2548 13.8572 99.2548 14.3239ZM100.065 14.3239C100.065 14.0039 100.131 13.7206 100.265 13.4739C100.405 13.2206 100.591 13.0239 100.825 12.8839C101.065 12.7439 101.335 12.6739 101.635 12.6739C101.935 12.6739 102.201 12.7439 102.435 12.8839C102.675 13.0239 102.861 13.2206 102.995 13.4739C103.135 13.7206 103.205 14.0039 103.205 14.3239C103.205 14.6439 103.135 14.9272 102.995 15.1739C102.861 15.4206 102.675 15.6172 102.435 15.7639C102.201 15.9039 101.935 15.9739 101.635 15.9739C101.335 15.9739 101.065 15.9039 100.825 15.7639C100.591 15.6172 100.405 15.4206 100.265 15.1739C100.131 14.9272 100.065 14.6439 100.065 14.3239ZM108.064 13.8239V16.6239H108.864V13.7239C108.864 13.1706 108.72 12.7339 108.434 12.4139C108.154 12.0872 107.77 11.9239 107.284 11.9239C106.984 11.9239 106.717 11.9906 106.484 12.1239C106.257 12.2572 106.067 12.4639 105.914 12.7439V12.0239H105.114V16.6239H105.914V13.8239C105.914 13.5972 105.96 13.3972 106.054 13.2239C106.154 13.0506 106.29 12.9172 106.464 12.8239C106.644 12.7239 106.85 12.6739 107.084 12.6739C107.404 12.6739 107.647 12.7706 107.814 12.9639C107.98 13.1572 108.064 13.4439 108.064 13.8239ZM112.666 12.0239V12.7739H114.966V12.0239H112.666ZM113.416 10.4239V16.6239H114.216V10.4239H113.416ZM116.568 8.8239H115.768V16.6239H116.568V8.8239ZM118.718 13.8239V16.6239H119.518V13.7239C119.518 13.3239 119.451 12.9906 119.318 12.7239C119.191 12.4572 119.008 12.2572 118.768 12.1239C118.535 11.9906 118.258 11.9239 117.938 11.9239C117.618 11.9239 117.335 12.0072 117.088 12.1739C116.848 12.3406 116.658 12.5672 116.518 12.8539C116.378 13.1339 116.308 13.4572 116.308 13.8239H116.568C116.568 13.6039 116.615 13.4072 116.708 13.2339C116.808 13.0606 116.945 12.9239 117.118 12.8239C117.298 12.7239 117.505 12.6739 117.738 12.6739C118.065 12.6739 118.308 12.7706 118.468 12.9639C118.635 13.1572 118.718 13.4439 118.718 13.8239ZM122.802 16.7239C123.295 16.7239 123.722 16.6272 124.082 16.4339C124.449 16.2339 124.752 15.9406 124.992 15.5539L124.342 15.1439C124.175 15.4239 123.972 15.6339 123.732 15.7739C123.492 15.9072 123.215 15.9739 122.902 15.9739C122.589 15.9739 122.322 15.9072 122.102 15.7739C121.882 15.6406 121.715 15.4472 121.602 15.1939C121.489 14.9406 121.432 14.6339 121.432 14.2739C121.439 13.9206 121.499 13.6239 121.612 13.3839C121.732 13.1372 121.899 12.9506 122.112 12.8239C122.332 12.6906 122.595 12.6239 122.902 12.6239C123.162 12.6239 123.389 12.6806 123.582 12.7939C123.775 12.9072 123.925 13.0639 124.032 13.2639C124.145 13.4639 124.202 13.7006 124.202 13.9739C124.202 14.0206 124.192 14.0806 124.172 14.1539C124.152 14.2206 124.132 14.2706 124.112 14.3039L124.432 13.8439H121.132V14.5239H125.062C125.062 14.5106 125.062 14.4806 125.062 14.4339C125.069 14.3806 125.072 14.3306 125.072 14.2839C125.072 13.7972 124.985 13.3772 124.812 13.0239C124.639 12.6706 124.389 12.4006 124.062 12.2139C123.742 12.0206 123.355 11.9239 122.902 11.9239C122.449 11.9239 122.049 12.0239 121.702 12.2239C121.362 12.4239 121.095 12.7039 120.902 13.0639C120.715 13.4239 120.622 13.8439 120.622 14.3239C120.622 14.7972 120.712 15.2139 120.892 15.5739C121.079 15.9339 121.335 16.2172 121.662 16.4239C121.995 16.6239 122.375 16.7239 122.802 16.7239Z" fill="#303030"/>
<path d="M55.6703 30.4739H61.2203L60.7703 29.2739H56.1203L55.6703 30.4739ZM58.4153 25.4939L60.2153 29.7239L60.3353 30.0239L61.8653 33.6239H63.2903L58.4153 22.5989L53.5403 33.6239H54.9653L56.5253 29.9339L56.6453 29.6639L58.4153 25.4939ZM65.6177 36.9239V26.7239H64.4177V36.9239H65.6177ZM71.3927 30.1739C71.3927 29.4239 71.2377 28.7839 70.9277 28.2539C70.6177 27.7139 70.2027 27.2989 69.6827 27.0089C69.1727 26.7189 68.6027 26.5739 67.9727 26.5739C67.4027 26.5739 66.8977 26.7189 66.4577 27.0089C66.0277 27.2989 65.6877 27.7139 65.4377 28.2539C65.1977 28.7839 65.0777 29.4239 65.0777 30.1739C65.0777 30.9139 65.1977 31.5539 65.4377 32.0939C65.6877 32.6339 66.0277 33.0489 66.4577 33.3389C66.8977 33.6289 67.4027 33.7739 67.9727 33.7739C68.6027 33.7739 69.1727 33.6289 69.6827 33.3389C70.2027 33.0489 70.6177 32.6339 70.9277 32.0939C71.2377 31.5539 71.3927 30.9139 71.3927 30.1739ZM70.1777 30.1739C70.1777 30.7039 70.0677 31.1539 69.8477 31.5239C69.6377 31.8939 69.3527 32.1739 68.9927 32.3639C68.6427 32.5539 68.2527 32.6489 67.8227 32.6489C67.4727 32.6489 67.1277 32.5539 66.7877 32.3639C66.4477 32.1739 66.1677 31.8939 65.9477 31.5239C65.7277 31.1539 65.6177 30.7039 65.6177 30.1739C65.6177 29.6439 65.7277 29.1939 65.9477 28.8239C66.1677 28.4539 66.4477 28.1739 66.7877 27.9839C67.1277 27.7939 67.4727 27.6989 67.8227 27.6989C68.2527 27.6989 68.6427 27.7939 68.9927 27.9839C69.3527 28.1739 69.6377 28.4539 69.8477 28.8239C70.0677 29.1939 70.1777 29.6439 70.1777 30.1739ZM74.1724 36.9239V26.7239H72.9724V36.9239H74.1724ZM79.9474 30.1739C79.9474 29.4239 79.7924 28.7839 79.4824 28.2539C79.1724 27.7139 78.7574 27.2989 78.2374 27.0089C77.7274 26.7189 77.1574 26.5739 76.5274 26.5739C75.9574 26.5739 75.4524 26.7189 75.0124 27.0089C74.5824 27.2989 74.2424 27.7139 73.9924 28.2539C73.7524 28.7839 73.6324 29.4239 73.6324 30.1739C73.6324 30.9139 73.7524 31.5539 73.9924 32.0939C74.2424 32.6339 74.5824 33.0489 75.0124 33.3389C75.4524 33.6289 75.9574 33.7739 76.5274 33.7739C77.1574 33.7739 77.7274 33.6289 78.2374 33.3389C78.7574 33.0489 79.1724 32.6339 79.4824 32.0939C79.7924 31.5539 79.9474 30.9139 79.9474 30.1739ZM78.7324 30.1739C78.7324 30.7039 78.6224 31.1539 78.4024 31.5239C78.1924 31.8939 77.9074 32.1739 77.5474 32.3639C77.1974 32.5539 76.8074 32.6489 76.3774 32.6489C76.0274 32.6489 75.6824 32.5539 75.3424 32.3639C75.0024 32.1739 74.7224 31.8939 74.5024 31.5239C74.2824 31.1539 74.1724 30.7039 74.1724 30.1739C74.1724 29.6439 74.2824 29.1939 74.5024 28.8239C74.7224 28.4539 75.0024 28.1739 75.3424 27.9839C75.6824 27.7939 76.0274 27.6989 76.3774 27.6989C76.8074 27.6989 77.1974 27.7939 77.5474 27.9839C77.9074 28.1739 78.1924 28.4539 78.4024 28.8239C78.6224 29.1939 78.7324 29.6439 78.7324 30.1739ZM86.5641 30.4439L85.5441 31.1339C85.7741 31.5939 86.0691 32.0289 86.4291 32.4389C86.7991 32.8389 87.2241 33.1639 87.7041 33.4139C88.1941 33.6539 88.7241 33.7739 89.2941 33.7739C89.7141 33.7739 90.1141 33.7039 90.4941 33.5639C90.8841 33.4239 91.2291 33.2239 91.5291 32.9639C91.8391 32.7039 92.0791 32.3889 92.2491 32.0189C92.4291 31.6489 92.5191 31.2339 92.5191 30.7739C92.5191 30.2939 92.4341 29.8839 92.2641 29.5439C92.0941 29.1939 91.8741 28.8989 91.6041 28.6589C91.3441 28.4089 91.0591 28.2039 90.7491 28.0439C90.4391 27.8839 90.1441 27.7539 89.8641 27.6539C89.2541 27.4439 88.7691 27.2339 88.4091 27.0239C88.0591 26.8039 87.8091 26.5739 87.6591 26.3339C87.5091 26.0839 87.4341 25.8139 87.4341 25.5239C87.4341 25.1839 87.5641 24.8789 87.8241 24.6089C88.0841 24.3289 88.4991 24.1889 89.0691 24.1889C89.4791 24.1889 89.8241 24.2689 90.1041 24.4289C90.3941 24.5889 90.6391 24.7939 90.8391 25.0439C91.0391 25.2939 91.2041 25.5489 91.3341 25.8089L92.4291 25.1789C92.2591 24.8089 92.0241 24.4589 91.7241 24.1289C91.4241 23.7889 91.0591 23.5139 90.6291 23.3039C90.2091 23.0839 89.7141 22.9739 89.1441 22.9739C88.5541 22.9739 88.0291 23.0939 87.5691 23.3339C87.1091 23.5639 86.7491 23.8839 86.4891 24.2939C86.2291 24.7039 86.0991 25.1689 86.0991 25.6889C86.0991 26.1689 86.1891 26.5739 86.3691 26.9039C86.5591 27.2339 86.7991 27.5139 87.0891 27.7439C87.3791 27.9639 87.6841 28.1489 88.0041 28.2989C88.3241 28.4389 88.6141 28.5539 88.8741 28.6439C89.2741 28.7839 89.6491 28.9439 89.9991 29.1239C90.3591 29.2939 90.6491 29.5189 90.8691 29.7989C91.0891 30.0789 91.1991 30.4539 91.1991 30.9239C91.1991 31.4039 91.0291 31.7989 90.6891 32.1089C90.3491 32.4189 89.8991 32.5739 89.3391 32.5739C88.9191 32.5739 88.5441 32.4839 88.2141 32.3039C87.8841 32.1239 87.5841 31.8739 87.3141 31.5539C87.0541 31.2339 86.8041 30.8639 86.5641 30.4439ZM93.2669 26.7239V27.8489H96.7169V26.7239H93.2669ZM94.3919 24.3239V33.6239H95.5919V24.3239H94.3919ZM97.3204 30.1739C97.3204 30.8639 97.4754 31.4839 97.7854 32.0339C98.1054 32.5739 98.5354 32.9989 99.0754 33.3089C99.6154 33.6189 100.22 33.7739 100.89 33.7739C101.57 33.7739 102.175 33.6189 102.705 33.3089C103.245 32.9989 103.67 32.5739 103.98 32.0339C104.3 31.4839 104.46 30.8639 104.46 30.1739C104.46 29.4739 104.3 28.8539 103.98 28.3139C103.67 27.7739 103.245 27.3489 102.705 27.0389C102.175 26.7289 101.57 26.5739 100.89 26.5739C100.22 26.5739 99.6154 26.7289 99.0754 27.0389C98.5354 27.3489 98.1054 27.7739 97.7854 28.3139C97.4754 28.8539 97.3204 29.4739 97.3204 30.1739ZM98.5354 30.1739C98.5354 29.6939 98.6354 29.2689 98.8354 28.8989C99.0454 28.5189 99.3254 28.2239 99.6754 28.0139C100.035 27.8039 100.44 27.6989 100.89 27.6989C101.34 27.6989 101.74 27.8039 102.09 28.0139C102.45 28.2239 102.73 28.5189 102.93 28.8989C103.14 29.2689 103.245 29.6939 103.245 30.1739C103.245 30.6539 103.14 31.0789 102.93 31.4489C102.73 31.8189 102.45 32.1139 102.09 32.3339C101.74 32.5439 101.34 32.6489 100.89 32.6489C100.44 32.6489 100.035 32.5439 99.6754 32.3339C99.3254 32.1139 99.0454 31.8189 98.8354 31.4489C98.6354 31.0789 98.5354 30.6539 98.5354 30.1739ZM107.309 26.7239H106.109V33.6239H107.309V26.7239ZM109.394 28.0439L110.054 27.0539C109.874 26.8639 109.674 26.7389 109.454 26.6789C109.244 26.6089 109.014 26.5739 108.764 26.5739C108.444 26.5739 108.129 26.6989 107.819 26.9489C107.509 27.1989 107.254 27.5389 107.054 27.9689C106.864 28.3889 106.769 28.8739 106.769 29.4239H107.309C107.309 29.0939 107.339 28.7989 107.399 28.5389C107.469 28.2789 107.589 28.0739 107.759 27.9239C107.929 27.7739 108.164 27.6989 108.464 27.6989C108.664 27.6989 108.829 27.7289 108.959 27.7889C109.089 27.8389 109.234 27.9239 109.394 28.0439ZM113.701 33.7739C114.441 33.7739 115.081 33.6289 115.621 33.3389C116.171 33.0389 116.626 32.5989 116.986 32.0189L116.011 31.4039C115.761 31.8239 115.456 32.1389 115.096 32.3489C114.736 32.5489 114.321 32.6489 113.851 32.6489C113.381 32.6489 112.981 32.5489 112.651 32.3489C112.321 32.1489 112.071 31.8589 111.901 31.4789C111.731 31.0989 111.646 30.6389 111.646 30.0989C111.656 29.5689 111.746 29.1239 111.916 28.7639C112.096 28.3939 112.346 28.1139 112.666 27.9239C112.996 27.7239 113.391 27.6239 113.851 27.6239C114.241 27.6239 114.581 27.7089 114.871 27.8789C115.161 28.0489 115.386 28.2839 115.546 28.5839C115.716 28.8839 115.801 29.2389 115.801 29.6489C115.801 29.7189 115.786 29.8089 115.756 29.9189C115.726 30.0189 115.696 30.0939 115.666 30.1439L116.146 29.4539H111.196V30.4739H117.091C117.091 30.4539 117.091 30.4089 117.091 30.3389C117.101 30.2589 117.106 30.1839 117.106 30.1139C117.106 29.3839 116.976 28.7539 116.716 28.2239C116.456 27.6939 116.081 27.2889 115.591 27.0089C115.111 26.7189 114.531 26.5739 113.851 26.5739C113.171 26.5739 112.571 26.7239 112.051 27.0239C111.541 27.3239 111.141 27.7439 110.851 28.2839C110.571 28.8239 110.431 29.4539 110.431 30.1739C110.431 30.8839 110.566 31.5089 110.836 32.0489C111.116 32.5889 111.501 33.0139 111.991 33.3239C112.491 33.6239 113.061 33.7739 113.701 33.7739Z" fill="#303030"/>
<path d="M34.6902 21.7286C34.7014 20.8609 34.9318 20.0101 35.3602 19.2554C35.7885 18.5007 36.4008 17.8666 37.1401 17.4122C36.6704 16.7415 36.0509 16.1895 35.3306 15.8001C34.6104 15.4107 33.8092 15.1946 32.9908 15.169C31.2451 14.9858 29.5527 16.2137 28.6631 16.2137C27.7563 16.2137 26.3866 15.1872 24.9117 15.2176C23.9577 15.2484 23.0279 15.5258 22.213 16.0228C21.3981 16.5198 20.7258 17.2194 20.2616 18.0535C18.2511 21.5345 19.7508 26.6504 21.6768 29.4642C22.6404 30.842 23.7665 32.3811 25.2401 32.3265C26.6821 32.2667 27.2207 31.407 28.9613 31.407C30.6857 31.407 31.191 32.3265 32.6945 32.2918C34.2418 32.2667 35.2167 30.9079 36.1465 29.517C36.8388 28.5352 37.3716 27.4502 37.725 26.302C36.8261 25.9218 36.0589 25.2854 35.5193 24.4721C34.9796 23.6588 34.6912 22.7047 34.6902 21.7286V21.7286Z" fill="#303030"/>
<path d="M31.8505 13.3184C32.6941 12.3056 33.1098 11.0039 33.0091 9.68958C31.7202 9.82495 30.5296 10.441 29.6745 11.4149C29.2565 11.8907 28.9363 12.4442 28.7322 13.0438C28.5282 13.6434 28.4444 14.2774 28.4855 14.9094C29.1302 14.916 29.768 14.7763 30.3509 14.5007C30.9337 14.2251 31.4465 13.8209 31.8505 13.3184Z" fill="#303030"/>
</svg>
