<svg width="150" height="43" viewBox="0 0 150 43" fill="none" xmlns="http://www.w3.org/2000/svg">
<rect y="0.623901" width="150" height="42" rx="5" fill="white"/>
<path d="M53.8 9.57764V16.5776H54.65V9.57764H53.8ZM55.9 16.5776C56.58 16.5776 57.1833 16.431 57.71 16.1376C58.2367 15.8443 58.65 15.4376 58.95 14.9176C59.25 14.391 59.4 13.7776 59.4 13.0776C59.4 12.3776 59.25 11.7676 58.95 11.2476C58.65 10.721 58.2367 10.311 57.71 10.0176C57.1833 9.7243 56.58 9.57764 55.9 9.57764H54.27V10.4276H55.9C56.2933 10.4276 56.6533 10.491 56.98 10.6176C57.3067 10.7376 57.5867 10.9143 57.82 11.1476C58.0533 11.3743 58.2333 11.651 58.36 11.9776C58.4867 12.3043 58.55 12.671 58.55 13.0776C58.55 13.4843 58.4867 13.851 58.36 14.1776C58.2333 14.5043 58.0533 14.7843 57.82 15.0176C57.5867 15.2443 57.3067 15.421 56.98 15.5476C56.6533 15.6676 56.2933 15.7276 55.9 15.7276H54.27V16.5776H55.9ZM60.1469 14.2776C60.1469 14.7376 60.2502 15.151 60.4569 15.5176C60.6702 15.8776 60.9569 16.161 61.3169 16.3676C61.6769 16.5743 62.0802 16.6776 62.5269 16.6776C62.9802 16.6776 63.3835 16.5743 63.7369 16.3676C64.0969 16.161 64.3802 15.8776 64.5869 15.5176C64.8002 15.151 64.9069 14.7376 64.9069 14.2776C64.9069 13.811 64.8002 13.3976 64.5869 13.0376C64.3802 12.6776 64.0969 12.3943 63.7369 12.1876C63.3835 11.981 62.9802 11.8776 62.5269 11.8776C62.0802 11.8776 61.6769 11.981 61.3169 12.1876C60.9569 12.3943 60.6702 12.6776 60.4569 13.0376C60.2502 13.3976 60.1469 13.811 60.1469 14.2776ZM60.9569 14.2776C60.9569 13.9576 61.0235 13.6743 61.1569 13.4276C61.2969 13.1743 61.4835 12.9776 61.7169 12.8376C61.9569 12.6976 62.2269 12.6276 62.5269 12.6276C62.8269 12.6276 63.0935 12.6976 63.3269 12.8376C63.5669 12.9776 63.7535 13.1743 63.8869 13.4276C64.0269 13.6743 64.0969 13.9576 64.0969 14.2776C64.0969 14.5976 64.0269 14.881 63.8869 15.1276C63.7535 15.3743 63.5669 15.571 63.3269 15.7176C63.0935 15.8576 62.8269 15.9276 62.5269 15.9276C62.2269 15.9276 61.9569 15.8576 61.7169 15.7176C61.4835 15.571 61.2969 15.3743 61.1569 15.1276C61.0235 14.881 60.9569 14.5976 60.9569 14.2776ZM65.1594 11.9776L67.1594 16.9276L68.4694 13.5776L69.8594 16.9276L71.8594 11.9776H70.9594L69.7994 14.9876L68.4594 11.6276L67.2094 14.9676L66.0594 11.9776H65.1594ZM75.6063 13.7776V16.5776H76.4063V13.6776C76.4063 13.1243 76.2629 12.6876 75.9763 12.3676C75.6963 12.041 75.3129 11.8776 74.8263 11.8776C74.5263 11.8776 74.2596 11.9443 74.0263 12.0776C73.7996 12.211 73.6096 12.4176 73.4563 12.6976V11.9776H72.6563V16.5776H73.4563V13.7776C73.4563 13.551 73.5029 13.351 73.5963 13.1776C73.6963 13.0043 73.8329 12.871 74.0063 12.7776C74.1863 12.6776 74.3929 12.6276 74.6263 12.6276C74.9463 12.6276 75.1896 12.7243 75.3563 12.9176C75.5229 13.111 75.6063 13.3976 75.6063 13.7776ZM77.9102 8.77764V16.5776H78.7102V8.77764H77.9102ZM79.8148 14.2776C79.8148 14.7376 79.9182 15.151 80.1248 15.5176C80.3382 15.8776 80.6248 16.161 80.9848 16.3676C81.3448 16.5743 81.7482 16.6776 82.1948 16.6776C82.6482 16.6776 83.0515 16.5743 83.4048 16.3676C83.7648 16.161 84.0482 15.8776 84.2548 15.5176C84.4682 15.151 84.5748 14.7376 84.5748 14.2776C84.5748 13.811 84.4682 13.3976 84.2548 13.0376C84.0482 12.6776 83.7648 12.3943 83.4048 12.1876C83.0515 11.981 82.6482 11.8776 82.1948 11.8776C81.7482 11.8776 81.3448 11.981 80.9848 12.1876C80.6248 12.3943 80.3382 12.6776 80.1248 13.0376C79.9182 13.3976 79.8148 13.811 79.8148 14.2776ZM80.6248 14.2776C80.6248 13.9576 80.6915 13.6743 80.8248 13.4276C80.9648 13.1743 81.1515 12.9776 81.3848 12.8376C81.6248 12.6976 81.8948 12.6276 82.1948 12.6276C82.4948 12.6276 82.7615 12.6976 82.9948 12.8376C83.2348 12.9776 83.4215 13.1743 83.5548 13.4276C83.6948 13.6743 83.7648 13.9576 83.7648 14.2776C83.7648 14.5976 83.6948 14.881 83.5548 15.1276C83.4215 15.3743 83.2348 15.571 82.9948 15.7176C82.7615 15.8576 82.4948 15.9276 82.1948 15.9276C81.8948 15.9276 81.6248 15.8576 81.3848 15.7176C81.1515 15.571 80.9648 15.3743 80.8248 15.1276C80.6915 14.881 80.6248 14.5976 80.6248 14.2776ZM86.0338 15.1576C86.0338 14.991 86.0738 14.8476 86.1538 14.7276C86.2338 14.6076 86.3538 14.5143 86.5138 14.4476C86.6805 14.381 86.8938 14.3476 87.1538 14.3476C87.4338 14.3476 87.6972 14.3843 87.9438 14.4576C88.1905 14.5243 88.4305 14.6376 88.6638 14.7976V14.3276C88.6172 14.2676 88.5272 14.191 88.3938 14.0976C88.2605 13.9976 88.0805 13.911 87.8538 13.8376C87.6338 13.7576 87.3572 13.7176 87.0238 13.7176C86.4572 13.7176 86.0138 13.8543 85.6938 14.1276C85.3805 14.3943 85.2238 14.751 85.2238 15.1976C85.2238 15.511 85.2972 15.7776 85.4438 15.9976C85.5905 16.2176 85.7838 16.3876 86.0238 16.5076C86.2705 16.621 86.5338 16.6776 86.8138 16.6776C87.0672 16.6776 87.3205 16.631 87.5738 16.5376C87.8338 16.4443 88.0505 16.301 88.2238 16.1076C88.4038 15.9143 88.4938 15.671 88.4938 15.3776L88.3338 14.7776C88.3338 15.0176 88.2738 15.231 88.1538 15.4176C88.0405 15.5976 87.8838 15.7376 87.6838 15.8376C87.4905 15.9376 87.2705 15.9876 87.0238 15.9876C86.8305 15.9876 86.6572 15.9576 86.5038 15.8976C86.3572 15.831 86.2405 15.7343 86.1538 15.6076C86.0738 15.481 86.0338 15.331 86.0338 15.1576ZM85.9138 13.0376C85.9872 12.9843 86.0872 12.921 86.2138 12.8476C86.3405 12.7743 86.4938 12.711 86.6738 12.6576C86.8605 12.6043 87.0672 12.5776 87.2938 12.5776C87.4338 12.5776 87.5672 12.591 87.6938 12.6176C87.8205 12.6443 87.9305 12.6876 88.0238 12.7476C88.1238 12.8076 88.2005 12.891 88.2538 12.9976C88.3072 13.0976 88.3338 13.2276 88.3338 13.3876V16.5776H89.1338V13.2776C89.1338 12.9776 89.0572 12.7243 88.9038 12.5176C88.7572 12.311 88.5472 12.1543 88.2738 12.0476C88.0072 11.9343 87.6938 11.8776 87.3338 11.8776C86.9072 11.8776 86.5405 11.941 86.2338 12.0676C85.9338 12.1943 85.6972 12.321 85.5238 12.4476L85.9138 13.0376ZM93.9383 8.77764V16.5776H94.7383V8.77764H93.9383ZM90.0883 14.2776C90.0883 14.771 90.1916 15.1976 90.3983 15.5576C90.6049 15.9176 90.8816 16.1943 91.2283 16.3876C91.5749 16.581 91.9549 16.6776 92.3683 16.6776C92.7549 16.6776 93.0916 16.581 93.3783 16.3876C93.6649 16.1943 93.8883 15.9176 94.0483 15.5576C94.2149 15.1976 94.2983 14.771 94.2983 14.2776C94.2983 13.7776 94.2149 13.351 94.0483 12.9976C93.8883 12.6376 93.6649 12.361 93.3783 12.1676C93.0916 11.9743 92.7549 11.8776 92.3683 11.8776C91.9549 11.8776 91.5749 11.9743 91.2283 12.1676C90.8816 12.361 90.6049 12.6376 90.3983 12.9976C90.1916 13.351 90.0883 13.7776 90.0883 14.2776ZM90.8983 14.2776C90.8983 13.9243 90.9683 13.6243 91.1083 13.3776C91.2549 13.131 91.4483 12.9443 91.6883 12.8176C91.9283 12.691 92.1883 12.6276 92.4683 12.6276C92.7016 12.6276 92.9316 12.691 93.1583 12.8176C93.3849 12.9443 93.5716 13.131 93.7183 13.3776C93.8649 13.6243 93.9383 13.9243 93.9383 14.2776C93.9383 14.631 93.8649 14.931 93.7183 15.1776C93.5716 15.4243 93.3849 15.611 93.1583 15.7376C92.9316 15.8643 92.7016 15.9276 92.4683 15.9276C92.1883 15.9276 91.9283 15.8643 91.6883 15.7376C91.4483 15.611 91.2549 15.4243 91.1083 15.1776C90.9683 14.931 90.8983 14.631 90.8983 14.2776ZM98.7895 14.2776C98.7895 14.7376 98.8928 15.151 99.0995 15.5176C99.3128 15.8776 99.5995 16.161 99.9595 16.3676C100.319 16.5743 100.723 16.6776 101.169 16.6776C101.623 16.6776 102.026 16.5743 102.379 16.3676C102.739 16.161 103.023 15.8776 103.229 15.5176C103.443 15.151 103.549 14.7376 103.549 14.2776C103.549 13.811 103.443 13.3976 103.229 13.0376C103.023 12.6776 102.739 12.3943 102.379 12.1876C102.026 11.981 101.623 11.8776 101.169 11.8776C100.723 11.8776 100.319 11.981 99.9595 12.1876C99.5995 12.3943 99.3128 12.6776 99.0995 13.0376C98.8928 13.3976 98.7895 13.811 98.7895 14.2776ZM99.5995 14.2776C99.5995 13.9576 99.6661 13.6743 99.7995 13.4276C99.9395 13.1743 100.126 12.9776 100.359 12.8376C100.599 12.6976 100.869 12.6276 101.169 12.6276C101.469 12.6276 101.736 12.6976 101.969 12.8376C102.209 12.9776 102.396 13.1743 102.529 13.4276C102.669 13.6743 102.739 13.9576 102.739 14.2776C102.739 14.5976 102.669 14.881 102.529 15.1276C102.396 15.3743 102.209 15.571 101.969 15.7176C101.736 15.8576 101.469 15.9276 101.169 15.9276C100.869 15.9276 100.599 15.8576 100.359 15.7176C100.126 15.571 99.9395 15.3743 99.7995 15.1276C99.6661 14.881 99.5995 14.5976 99.5995 14.2776ZM107.598 13.7776V16.5776H108.398V13.6776C108.398 13.1243 108.255 12.6876 107.968 12.3676C107.688 12.041 107.305 11.8776 106.818 11.8776C106.518 11.8776 106.252 11.9443 106.018 12.0776C105.792 12.211 105.602 12.4176 105.448 12.6976V11.9776H104.648V16.5776H105.448V13.7776C105.448 13.551 105.495 13.351 105.588 13.1776C105.688 13.0043 105.825 12.871 105.998 12.7776C106.178 12.6776 106.385 12.6276 106.618 12.6276C106.938 12.6276 107.182 12.7243 107.348 12.9176C107.515 13.111 107.598 13.3976 107.598 13.7776ZM112.2 11.9776V12.7276H114.5V11.9776H112.2ZM112.95 10.3776V16.5776H113.75V10.3776H112.95ZM116.103 8.77764H115.303V16.5776H116.103V8.77764ZM118.253 13.7776V16.5776H119.053V13.6776C119.053 13.2776 118.986 12.9443 118.853 12.6776C118.726 12.411 118.543 12.211 118.303 12.0776C118.069 11.9443 117.793 11.8776 117.473 11.8776C117.153 11.8776 116.869 11.961 116.623 12.1276C116.383 12.2943 116.193 12.521 116.053 12.8076C115.913 13.0876 115.843 13.411 115.843 13.7776H116.103C116.103 13.5576 116.149 13.361 116.243 13.1876C116.343 13.0143 116.479 12.8776 116.653 12.7776C116.833 12.6776 117.039 12.6276 117.273 12.6276C117.599 12.6276 117.843 12.7243 118.003 12.9176C118.169 13.111 118.253 13.3976 118.253 13.7776ZM122.337 16.6776C122.83 16.6776 123.257 16.581 123.617 16.3876C123.983 16.1876 124.287 15.8943 124.527 15.5076L123.877 15.0976C123.71 15.3776 123.507 15.5876 123.267 15.7276C123.027 15.861 122.75 15.9276 122.437 15.9276C122.123 15.9276 121.857 15.861 121.637 15.7276C121.417 15.5943 121.25 15.401 121.137 15.1476C121.023 14.8943 120.967 14.5876 120.967 14.2276C120.973 13.8743 121.033 13.5776 121.147 13.3376C121.267 13.091 121.433 12.9043 121.647 12.7776C121.867 12.6443 122.13 12.5776 122.437 12.5776C122.697 12.5776 122.923 12.6343 123.117 12.7476C123.31 12.861 123.46 13.0176 123.567 13.2176C123.68 13.4176 123.737 13.6543 123.737 13.9276C123.737 13.9743 123.727 14.0343 123.707 14.1076C123.687 14.1743 123.667 14.2243 123.647 14.2576L123.967 13.7976H120.667V14.4776H124.597C124.597 14.4643 124.597 14.4343 124.597 14.3876C124.603 14.3343 124.607 14.2843 124.607 14.2376C124.607 13.751 124.52 13.331 124.347 12.9776C124.173 12.6243 123.923 12.3543 123.597 12.1676C123.277 11.9743 122.89 11.8776 122.437 11.8776C121.983 11.8776 121.583 11.9776 121.237 12.1776C120.897 12.3776 120.63 12.6576 120.437 13.0176C120.25 13.3776 120.157 13.7976 120.157 14.2776C120.157 14.751 120.247 15.1676 120.427 15.5276C120.613 15.8876 120.87 16.171 121.197 16.3776C121.53 16.5776 121.91 16.6776 122.337 16.6776Z" fill="#303030"/>
<path d="M59.5403 29.3677H63.0353C62.9453 29.7777 62.8003 30.1627 62.6003 30.5227C62.4103 30.8827 62.1653 31.2027 61.8653 31.4827C61.5653 31.7627 61.2053 31.9827 60.7853 32.1427C60.3753 32.2927 59.9103 32.3677 59.3903 32.3677C58.6503 32.3677 57.9803 32.1927 57.3803 31.8427C56.7803 31.4927 56.3003 31.0077 55.9403 30.3877C55.5903 29.7677 55.4153 29.0527 55.4153 28.2427C55.4153 27.4227 55.5903 26.7077 55.9403 26.0977C56.3003 25.4777 56.7803 24.9927 57.3803 24.6427C57.9803 24.2927 58.6503 24.1177 59.3903 24.1177C60.1903 24.1177 60.8853 24.2777 61.4753 24.5977C62.0653 24.9077 62.5253 25.3427 62.8553 25.9027L63.7553 25.0777C63.4553 24.5877 63.0853 24.1777 62.6453 23.8477C62.2153 23.5177 61.7253 23.2677 61.1753 23.0977C60.6353 22.9277 60.0403 22.8427 59.3903 22.8427C58.6303 22.8427 57.9253 22.9777 57.2753 23.2477C56.6253 23.5077 56.0603 23.8827 55.5803 24.3727C55.1003 24.8527 54.7253 25.4227 54.4553 26.0827C54.1953 26.7427 54.0653 27.4627 54.0653 28.2427C54.0653 29.0227 54.1953 29.7427 54.4553 30.4027C54.7253 31.0627 55.1003 31.6377 55.5803 32.1277C56.0603 32.6077 56.6253 32.9827 57.2753 33.2527C57.9253 33.5127 58.6303 33.6427 59.3903 33.6427C60.1903 33.6427 60.9003 33.4977 61.5203 33.2077C62.1503 32.9077 62.6803 32.5027 63.1103 31.9927C63.5403 31.4827 63.8653 30.9027 64.0853 30.2527C64.3053 29.5927 64.4153 28.8977 64.4153 28.1677H59.5403V29.3677ZM65.6212 30.0427C65.6212 30.7327 65.7762 31.3527 66.0862 31.9027C66.4062 32.4427 66.8362 32.8677 67.3762 33.1777C67.9162 33.4877 68.5212 33.6427 69.1912 33.6427C69.8712 33.6427 70.4762 33.4877 71.0062 33.1777C71.5462 32.8677 71.9712 32.4427 72.2812 31.9027C72.6012 31.3527 72.7612 30.7327 72.7612 30.0427C72.7612 29.3427 72.6012 28.7227 72.2812 28.1827C71.9712 27.6427 71.5462 27.2177 71.0062 26.9077C70.4762 26.5977 69.8712 26.4427 69.1912 26.4427C68.5212 26.4427 67.9162 26.5977 67.3762 26.9077C66.8362 27.2177 66.4062 27.6427 66.0862 28.1827C65.7762 28.7227 65.6212 29.3427 65.6212 30.0427ZM66.8362 30.0427C66.8362 29.5627 66.9362 29.1377 67.1362 28.7677C67.3462 28.3877 67.6262 28.0927 67.9762 27.8827C68.3362 27.6727 68.7412 27.5677 69.1912 27.5677C69.6412 27.5677 70.0412 27.6727 70.3912 27.8827C70.7512 28.0927 71.0312 28.3877 71.2312 28.7677C71.4412 29.1377 71.5462 29.5627 71.5462 30.0427C71.5462 30.5227 71.4412 30.9477 71.2312 31.3177C71.0312 31.6877 70.7512 31.9827 70.3912 32.2027C70.0412 32.4127 69.6412 32.5177 69.1912 32.5177C68.7412 32.5177 68.3362 32.4127 67.9762 32.2027C67.6262 31.9827 67.3462 31.6877 67.1362 31.3177C66.9362 30.9477 66.8362 30.5227 66.8362 30.0427ZM73.8097 30.0427C73.8097 30.7327 73.9647 31.3527 74.2747 31.9027C74.5947 32.4427 75.0247 32.8677 75.5647 33.1777C76.1047 33.4877 76.7097 33.6427 77.3797 33.6427C78.0597 33.6427 78.6647 33.4877 79.1947 33.1777C79.7347 32.8677 80.1597 32.4427 80.4697 31.9027C80.7897 31.3527 80.9497 30.7327 80.9497 30.0427C80.9497 29.3427 80.7897 28.7227 80.4697 28.1827C80.1597 27.6427 79.7347 27.2177 79.1947 26.9077C78.6647 26.5977 78.0597 26.4427 77.3797 26.4427C76.7097 26.4427 76.1047 26.5977 75.5647 26.9077C75.0247 27.2177 74.5947 27.6427 74.2747 28.1827C73.9647 28.7227 73.8097 29.3427 73.8097 30.0427ZM75.0247 30.0427C75.0247 29.5627 75.1247 29.1377 75.3247 28.7677C75.5347 28.3877 75.8147 28.0927 76.1647 27.8827C76.5247 27.6727 76.9297 27.5677 77.3797 27.5677C77.8297 27.5677 78.2297 27.6727 78.5797 27.8827C78.9397 28.0927 79.2197 28.3877 79.4197 28.7677C79.6297 29.1377 79.7347 29.5627 79.7347 30.0427C79.7347 30.5227 79.6297 30.9477 79.4197 31.3177C79.2197 31.6877 78.9397 31.9827 78.5797 32.2027C78.2297 32.4127 77.8297 32.5177 77.3797 32.5177C76.9297 32.5177 76.5247 32.4127 76.1647 32.2027C75.8147 31.9827 75.5347 31.6877 75.3247 31.3177C75.1247 30.9477 75.0247 30.5227 75.0247 30.0427ZM82.1331 33.9427C82.1331 34.5327 82.2781 35.0527 82.5681 35.5027C82.8581 35.9627 83.2581 36.3177 83.7681 36.5677C84.2881 36.8177 84.8831 36.9427 85.5531 36.9427C86.1331 36.9427 86.6831 36.8077 87.2031 36.5377C87.7231 36.2677 88.1481 35.8627 88.4781 35.3227C88.8081 34.7927 88.9731 34.1327 88.9731 33.3427V26.5927H87.7731V33.3427C87.7731 33.9227 87.6581 34.3927 87.4281 34.7527C87.2081 35.1227 86.9281 35.3927 86.5881 35.5627C86.2481 35.7327 85.9031 35.8177 85.5531 35.8177C85.1031 35.8177 84.7131 35.7277 84.3831 35.5477C84.0531 35.3777 83.7981 35.1477 83.6181 34.8577C83.4381 34.5777 83.3481 34.2727 83.3481 33.9427H82.1331ZM81.9981 30.0427C81.9981 30.7827 82.1531 31.4227 82.4631 31.9627C82.7731 32.5027 83.1881 32.9177 83.7081 33.2077C84.2281 33.4977 84.7981 33.6427 85.4181 33.6427C85.9981 33.6427 86.5031 33.4977 86.9331 33.2077C87.3631 32.9177 87.6981 32.5027 87.9381 31.9627C88.1881 31.4227 88.3131 30.7827 88.3131 30.0427C88.3131 29.2927 88.1881 28.6527 87.9381 28.1227C87.6981 27.5827 87.3631 27.1677 86.9331 26.8777C86.5031 26.5877 85.9981 26.4427 85.4181 26.4427C84.7981 26.4427 84.2281 26.5877 83.7081 26.8777C83.1881 27.1677 82.7731 27.5827 82.4631 28.1227C82.1531 28.6527 81.9981 29.2927 81.9981 30.0427ZM83.2131 30.0427C83.2131 29.5127 83.3181 29.0627 83.5281 28.6927C83.7481 28.3227 84.0381 28.0427 84.3981 27.8527C84.7581 27.6627 85.1481 27.5677 85.5681 27.5677C85.8281 27.5677 86.0881 27.6227 86.3481 27.7327C86.6081 27.8427 86.8431 28.0027 87.0531 28.2127C87.2731 28.4227 87.4481 28.6827 87.5781 28.9927C87.7081 29.2927 87.7731 29.6427 87.7731 30.0427C87.7731 30.5727 87.6631 31.0227 87.4431 31.3927C87.2231 31.7627 86.9431 32.0427 86.6031 32.2327C86.2631 32.4227 85.9181 32.5177 85.5681 32.5177C85.1481 32.5177 84.7581 32.4227 84.3981 32.2327C84.0381 32.0427 83.7481 31.7627 83.5281 31.3927C83.3181 31.0227 83.2131 30.5727 83.2131 30.0427ZM91.1528 21.7927V33.4927H92.3528V21.7927H91.1528ZM97.2799 33.6427C98.0199 33.6427 98.6599 33.4977 99.1999 33.2077C99.7499 32.9077 100.205 32.4677 100.565 31.8877L99.5899 31.2727C99.3399 31.6927 99.0349 32.0077 98.6749 32.2177C98.3149 32.4177 97.8999 32.5177 97.4299 32.5177C96.9599 32.5177 96.5599 32.4177 96.2299 32.2177C95.8999 32.0177 95.6499 31.7277 95.4799 31.3477C95.3099 30.9677 95.2249 30.5077 95.2249 29.9677C95.2349 29.4377 95.3249 28.9927 95.4949 28.6327C95.6749 28.2627 95.9249 27.9827 96.2449 27.7927C96.5749 27.5927 96.9699 27.4927 97.4299 27.4927C97.8199 27.4927 98.1599 27.5777 98.4499 27.7477C98.7399 27.9177 98.9649 28.1527 99.1249 28.4527C99.2949 28.7527 99.3799 29.1077 99.3799 29.5177C99.3799 29.5877 99.3649 29.6777 99.3349 29.7877C99.3049 29.8877 99.2749 29.9627 99.2449 30.0127L99.7249 29.3227H94.7749V30.3427H100.67C100.67 30.3227 100.67 30.2777 100.67 30.2077C100.68 30.1277 100.685 30.0527 100.685 29.9827C100.685 29.2527 100.555 28.6227 100.295 28.0927C100.035 27.5627 99.6599 27.1577 99.1699 26.8777C98.6899 26.5877 98.1099 26.4427 97.4299 26.4427C96.7499 26.4427 96.1499 26.5927 95.6299 26.8927C95.1199 27.1927 94.7199 27.6127 94.4299 28.1527C94.1499 28.6927 94.0099 29.3227 94.0099 30.0427C94.0099 30.7527 94.1449 31.3777 94.4149 31.9177C94.6949 32.4577 95.0799 32.8827 95.5699 33.1927C96.0699 33.4927 96.6399 33.6427 97.2799 33.6427ZM106.902 22.9927V33.4927H108.177V22.9927H106.902ZM107.607 24.1927H109.752C110.432 24.1927 110.982 24.3577 111.402 24.6877C111.832 25.0077 112.047 25.4927 112.047 26.1427C112.047 26.7827 111.832 27.2677 111.402 27.5977C110.982 27.9277 110.432 28.0927 109.752 28.0927H107.607V29.2927H109.752C110.432 29.2927 111.037 29.1677 111.567 28.9177C112.107 28.6577 112.532 28.2927 112.842 27.8227C113.162 27.3427 113.322 26.7827 113.322 26.1427C113.322 25.4927 113.162 24.9327 112.842 24.4627C112.532 23.9927 112.107 23.6327 111.567 23.3827C111.037 23.1227 110.432 22.9927 109.752 22.9927H107.607V24.1927ZM115.044 21.7927V33.4927H116.244V21.7927H115.044ZM119.041 31.3627C119.041 31.1127 119.101 30.8977 119.221 30.7177C119.341 30.5377 119.521 30.3977 119.761 30.2977C120.011 30.1977 120.331 30.1477 120.721 30.1477C121.141 30.1477 121.536 30.2027 121.906 30.3127C122.276 30.4127 122.636 30.5827 122.986 30.8227V30.1177C122.916 30.0277 122.781 29.9127 122.581 29.7727C122.381 29.6227 122.111 29.4927 121.771 29.3827C121.441 29.2627 121.026 29.2027 120.526 29.2027C119.676 29.2027 119.011 29.4077 118.531 29.8177C118.061 30.2177 117.826 30.7527 117.826 31.4227C117.826 31.8927 117.936 32.2927 118.156 32.6227C118.376 32.9527 118.666 33.2077 119.026 33.3877C119.396 33.5577 119.791 33.6427 120.211 33.6427C120.591 33.6427 120.971 33.5727 121.351 33.4327C121.741 33.2927 122.066 33.0777 122.326 32.7877C122.596 32.4977 122.731 32.1327 122.731 31.6927L122.491 30.7927C122.491 31.1527 122.401 31.4727 122.221 31.7527C122.051 32.0227 121.816 32.2327 121.516 32.3827C121.226 32.5327 120.896 32.6077 120.526 32.6077C120.236 32.6077 119.976 32.5627 119.746 32.4727C119.526 32.3727 119.351 32.2277 119.221 32.0377C119.101 31.8477 119.041 31.6227 119.041 31.3627ZM118.861 28.1827C118.971 28.1027 119.121 28.0077 119.311 27.8977C119.501 27.7877 119.731 27.6927 120.001 27.6127C120.281 27.5327 120.591 27.4927 120.931 27.4927C121.141 27.4927 121.341 27.5127 121.531 27.5527C121.721 27.5927 121.886 27.6577 122.026 27.7477C122.176 27.8377 122.291 27.9627 122.371 28.1227C122.451 28.2727 122.491 28.4677 122.491 28.7077V33.4927H123.691V28.5427C123.691 28.0927 123.576 27.7127 123.346 27.4027C123.126 27.0927 122.811 26.8577 122.401 26.6977C122.001 26.5277 121.531 26.4427 120.991 26.4427C120.351 26.4427 119.801 26.5377 119.341 26.7277C118.891 26.9177 118.536 27.1077 118.276 27.2977L118.861 28.1827ZM131.125 26.5927H129.775L127.645 31.9327L128.14 31.9927L125.95 26.5927H124.525L127.165 32.5177L125.275 36.7927H126.625L131.125 26.5927Z" fill="#303030"/>
<path d="M20.4726 10.8016C20.2114 11.0786 20.0583 11.5075 20.0583 12.0527V31.8198C20.0583 32.3738 20.2114 32.8028 20.4726 33.0709L20.5357 33.1334L31.6939 22.0703V21.9362V21.8022L20.5357 10.739L20.4726 10.8016Z" fill="url(#paint0_linear_1813_20291)"/>
<path d="M35.4133 25.7609L31.6938 22.0702V21.9362V21.8021L35.4133 18.1115L35.4943 18.1561L39.8982 20.6404C41.159 21.3464 41.159 22.5081 39.8982 23.223L35.4943 25.7073L35.4133 25.7609Z" fill="url(#paint1_linear_1813_20291)"/>
<path d="M35.4941 25.7163L31.6937 21.9363L20.4724 33.0709C20.8867 33.5088 21.5711 33.5624 22.3456 33.1245L35.4941 25.7163Z" fill="url(#paint2_linear_1813_20291)"/>
<path d="M35.4946 18.1652L22.3371 10.748C21.5626 10.3101 20.8781 10.3638 20.4639 10.8016L31.6941 21.9363L35.4946 18.1652Z" fill="url(#paint3_linear_1813_20291)"/>
<path opacity="0.2" d="M35.4133 25.627L22.3369 32.9994C21.6074 33.4105 20.95 33.3837 20.5357 33.0084L20.4727 33.0709L20.5357 33.1335C20.959 33.5088 21.6074 33.5356 22.3369 33.1245L35.4944 25.7074L35.4133 25.627Z" fill="black"/>
<path opacity="0.12" d="M20.4726 32.9457C20.2114 32.6686 20.0583 32.2397 20.0583 31.6946V31.8286C20.0583 32.3827 20.2114 32.8116 20.4726 33.0797L20.5357 33.0172L20.4726 32.9457Z" fill="black"/>
<path opacity="0.12" d="M39.8982 23.098L35.4043 25.627L35.4853 25.7074L39.8892 23.2231C40.5196 22.8657 40.8348 22.401 40.8348 21.9363C40.7898 22.3563 40.4746 22.7763 39.8982 23.098Z" fill="black"/>
<path opacity="0.25" d="M22.337 10.8732L39.8984 20.7747C40.4658 21.0964 40.79 21.5075 40.844 21.9364C40.844 21.4717 40.5288 20.9981 39.8984 20.6496L22.337 10.7481C21.0762 10.0422 20.0496 10.632 20.0496 12.0618V12.1958C20.0496 10.7571 21.0852 10.1673 22.337 10.8732Z" fill="#303030"/>
<defs>
<linearGradient id="paint0_linear_1813_20291" x1="30.7029" y1="11.8469" x2="15.7061" y2="26.9604" gradientUnits="userSpaceOnUse">
<stop stop-color="#00A0FF"/>
<stop offset="0.00657445" stop-color="#00A1FF"/>
<stop offset="0.2601" stop-color="#00BEFF"/>
<stop offset="0.5122" stop-color="#00D2FF"/>
<stop offset="0.7604" stop-color="#00DFFF"/>
<stop offset="1" stop-color="#00E3FF"/>
</linearGradient>
<linearGradient id="paint1_linear_1813_20291" x1="41.5411" y1="21.9375" x2="19.7498" y2="21.9375" gradientUnits="userSpaceOnUse">
<stop stop-color="#FFE000"/>
<stop offset="0.4087" stop-color="#FFBD00"/>
<stop offset="0.7754" stop-color="#FFA500"/>
<stop offset="1" stop-color="#FF9C00"/>
</linearGradient>
<linearGradient id="paint2_linear_1813_20291" x1="33.429" y1="23.9882" x2="13.0921" y2="44.4833" gradientUnits="userSpaceOnUse">
<stop stop-color="#FF3A44"/>
<stop offset="1" stop-color="#C31162"/>
</linearGradient>
<linearGradient id="paint3_linear_1813_20291" x1="17.6425" y1="4.22111" x2="26.7239" y2="13.3731" gradientUnits="userSpaceOnUse">
<stop stop-color="#32A071"/>
<stop offset="0.0685" stop-color="#2DA771"/>
<stop offset="0.4762" stop-color="#15CF74"/>
<stop offset="0.8009" stop-color="#06E775"/>
<stop offset="1" stop-color="#00F076"/>
</linearGradient>
</defs>
</svg>
