<svg width="150" height="43" viewBox="0 0 150 43" fill="none" xmlns="http://www.w3.org/2000/svg">
<rect y="0.623901" width="150" height="42" rx="5" fill="white"/>
<path d="M54.2653 9.6239V16.6239H55.1153V9.6239H54.2653ZM56.3653 16.6239C57.0453 16.6239 57.6487 16.4772 58.1753 16.1839C58.702 15.8906 59.1153 15.4839 59.4153 14.9639C59.7153 14.4372 59.8653 13.8239 59.8653 13.1239C59.8653 12.4239 59.7153 11.8139 59.4153 11.2939C59.1153 10.7672 58.702 10.3572 58.1753 10.0639C57.6487 9.77057 57.0453 9.6239 56.3653 9.6239H54.7353V10.4739H56.3653C56.7587 10.4739 57.1187 10.5372 57.4453 10.6639C57.772 10.7839 58.052 10.9606 58.2853 11.1939C58.5187 11.4206 58.6987 11.6972 58.8253 12.0239C58.952 12.3506 59.0153 12.7172 59.0153 13.1239C59.0153 13.5306 58.952 13.8972 58.8253 14.2239C58.6987 14.5506 58.5187 14.8306 58.2853 15.0639C58.052 15.2906 57.772 15.4672 57.4453 15.5939C57.1187 15.7139 56.7587 15.7739 56.3653 15.7739H54.7353V16.6239H56.3653ZM60.6122 14.3239C60.6122 14.7839 60.7155 15.1972 60.9222 15.5639C61.1355 15.9239 61.4222 16.2072 61.7822 16.4139C62.1422 16.6206 62.5455 16.7239 62.9922 16.7239C63.4455 16.7239 63.8489 16.6206 64.2022 16.4139C64.5622 16.2072 64.8455 15.9239 65.0522 15.5639C65.2655 15.1972 65.3722 14.7839 65.3722 14.3239C65.3722 13.8572 65.2655 13.4439 65.0522 13.0839C64.8455 12.7239 64.5622 12.4406 64.2022 12.2339C63.8489 12.0272 63.4455 11.9239 62.9922 11.9239C62.5455 11.9239 62.1422 12.0272 61.7822 12.2339C61.4222 12.4406 61.1355 12.7239 60.9222 13.0839C60.7155 13.4439 60.6122 13.8572 60.6122 14.3239ZM61.4222 14.3239C61.4222 14.0039 61.4889 13.7206 61.6222 13.4739C61.7622 13.2206 61.9489 13.0239 62.1822 12.8839C62.4222 12.7439 62.6922 12.6739 62.9922 12.6739C63.2922 12.6739 63.5589 12.7439 63.7922 12.8839C64.0322 13.0239 64.2189 13.2206 64.3522 13.4739C64.4922 13.7206 64.5622 14.0039 64.5622 14.3239C64.5622 14.6439 64.4922 14.9272 64.3522 15.1739C64.2189 15.4206 64.0322 15.6172 63.7922 15.7639C63.5589 15.9039 63.2922 15.9739 62.9922 15.9739C62.6922 15.9739 62.4222 15.9039 62.1822 15.7639C61.9489 15.6172 61.7622 15.4206 61.6222 15.1739C61.4889 14.9272 61.4222 14.6439 61.4222 14.3239ZM65.6247 12.0239L67.6247 16.9739L68.9347 13.6239L70.3247 16.9739L72.3247 12.0239H71.4247L70.2647 15.0339L68.9247 11.6739L67.6747 15.0139L66.5247 12.0239H65.6247ZM76.0716 13.8239V16.6239H76.8716V13.7239C76.8716 13.1706 76.7282 12.7339 76.4416 12.4139C76.1616 12.0872 75.7782 11.9239 75.2916 11.9239C74.9916 11.9239 74.7249 11.9906 74.4916 12.1239C74.2649 12.2572 74.0749 12.4639 73.9216 12.7439V12.0239H73.1216V16.6239H73.9216V13.8239C73.9216 13.5972 73.9682 13.3972 74.0616 13.2239C74.1616 13.0506 74.2982 12.9172 74.4716 12.8239C74.6516 12.7239 74.8582 12.6739 75.0916 12.6739C75.4116 12.6739 75.6549 12.7706 75.8216 12.9639C75.9882 13.1572 76.0716 13.4439 76.0716 13.8239ZM78.3755 8.8239V16.6239H79.1755V8.8239H78.3755ZM80.2802 14.3239C80.2802 14.7839 80.3835 15.1972 80.5902 15.5639C80.8035 15.9239 81.0902 16.2072 81.4502 16.4139C81.8102 16.6206 82.2135 16.7239 82.6602 16.7239C83.1135 16.7239 83.5168 16.6206 83.8702 16.4139C84.2302 16.2072 84.5135 15.9239 84.7202 15.5639C84.9335 15.1972 85.0402 14.7839 85.0402 14.3239C85.0402 13.8572 84.9335 13.4439 84.7202 13.0839C84.5135 12.7239 84.2302 12.4406 83.8702 12.2339C83.5168 12.0272 83.1135 11.9239 82.6602 11.9239C82.2135 11.9239 81.8102 12.0272 81.4502 12.2339C81.0902 12.4406 80.8035 12.7239 80.5902 13.0839C80.3835 13.4439 80.2802 13.8572 80.2802 14.3239ZM81.0902 14.3239C81.0902 14.0039 81.1568 13.7206 81.2902 13.4739C81.4302 13.2206 81.6168 13.0239 81.8502 12.8839C82.0902 12.7439 82.3602 12.6739 82.6602 12.6739C82.9602 12.6739 83.2268 12.7439 83.4602 12.8839C83.7002 13.0239 83.8868 13.2206 84.0202 13.4739C84.1602 13.7206 84.2302 14.0039 84.2302 14.3239C84.2302 14.6439 84.1602 14.9272 84.0202 15.1739C83.8868 15.4206 83.7002 15.6172 83.4602 15.7639C83.2268 15.9039 82.9602 15.9739 82.6602 15.9739C82.3602 15.9739 82.0902 15.9039 81.8502 15.7639C81.6168 15.6172 81.4302 15.4206 81.2902 15.1739C81.1568 14.9272 81.0902 14.6439 81.0902 14.3239ZM86.4992 15.2039C86.4992 15.0372 86.5392 14.8939 86.6192 14.7739C86.6992 14.6539 86.8192 14.5606 86.9792 14.4939C87.1458 14.4272 87.3592 14.3939 87.6192 14.3939C87.8992 14.3939 88.1625 14.4306 88.4092 14.5039C88.6558 14.5706 88.8958 14.6839 89.1292 14.8439V14.3739C89.0825 14.3139 88.9925 14.2372 88.8592 14.1439C88.7258 14.0439 88.5458 13.9572 88.3192 13.8839C88.0992 13.8039 87.8225 13.7639 87.4892 13.7639C86.9225 13.7639 86.4792 13.9006 86.1592 14.1739C85.8458 14.4406 85.6892 14.7972 85.6892 15.2439C85.6892 15.5572 85.7625 15.8239 85.9092 16.0439C86.0558 16.2639 86.2492 16.4339 86.4892 16.5539C86.7358 16.6672 86.9992 16.7239 87.2792 16.7239C87.5325 16.7239 87.7858 16.6772 88.0392 16.5839C88.2992 16.4906 88.5158 16.3472 88.6892 16.1539C88.8692 15.9606 88.9592 15.7172 88.9592 15.4239L88.7992 14.8239C88.7992 15.0639 88.7392 15.2772 88.6192 15.4639C88.5058 15.6439 88.3492 15.7839 88.1492 15.8839C87.9558 15.9839 87.7358 16.0339 87.4892 16.0339C87.2958 16.0339 87.1225 16.0039 86.9692 15.9439C86.8225 15.8772 86.7058 15.7806 86.6192 15.6539C86.5392 15.5272 86.4992 15.3772 86.4992 15.2039ZM86.3792 13.0839C86.4525 13.0306 86.5525 12.9672 86.6792 12.8939C86.8058 12.8206 86.9592 12.7572 87.1392 12.7039C87.3258 12.6506 87.5325 12.6239 87.7592 12.6239C87.8992 12.6239 88.0325 12.6372 88.1592 12.6639C88.2858 12.6906 88.3958 12.7339 88.4892 12.7939C88.5892 12.8539 88.6658 12.9372 88.7192 13.0439C88.7725 13.1439 88.7992 13.2739 88.7992 13.4339V16.6239H89.5992V13.3239C89.5992 13.0239 89.5225 12.7706 89.3692 12.5639C89.2225 12.3572 89.0125 12.2006 88.7392 12.0939C88.4725 11.9806 88.1592 11.9239 87.7992 11.9239C87.3725 11.9239 87.0058 11.9872 86.6992 12.1139C86.3992 12.2406 86.1625 12.3672 85.9892 12.4939L86.3792 13.0839ZM94.4036 8.8239V16.6239H95.2036V8.8239H94.4036ZM90.5536 14.3239C90.5536 14.8172 90.6569 15.2439 90.8636 15.6039C91.0703 15.9639 91.3469 16.2406 91.6936 16.4339C92.0403 16.6272 92.4203 16.7239 92.8336 16.7239C93.2203 16.7239 93.5569 16.6272 93.8436 16.4339C94.1303 16.2406 94.3536 15.9639 94.5136 15.6039C94.6803 15.2439 94.7636 14.8172 94.7636 14.3239C94.7636 13.8239 94.6803 13.3972 94.5136 13.0439C94.3536 12.6839 94.1303 12.4072 93.8436 12.2139C93.5569 12.0206 93.2203 11.9239 92.8336 11.9239C92.4203 11.9239 92.0403 12.0206 91.6936 12.2139C91.3469 12.4072 91.0703 12.6839 90.8636 13.0439C90.6569 13.3972 90.5536 13.8239 90.5536 14.3239ZM91.3636 14.3239C91.3636 13.9706 91.4336 13.6706 91.5736 13.4239C91.7203 13.1772 91.9136 12.9906 92.1536 12.8639C92.3936 12.7372 92.6536 12.6739 92.9336 12.6739C93.1669 12.6739 93.3969 12.7372 93.6236 12.8639C93.8503 12.9906 94.0369 13.1772 94.1836 13.4239C94.3303 13.6706 94.4036 13.9706 94.4036 14.3239C94.4036 14.6772 94.3303 14.9772 94.1836 15.2239C94.0369 15.4706 93.8503 15.6572 93.6236 15.7839C93.3969 15.9106 93.1669 15.9739 92.9336 15.9739C92.6536 15.9739 92.3936 15.9106 92.1536 15.7839C91.9136 15.6572 91.7203 15.4706 91.5736 15.2239C91.4336 14.9772 91.3636 14.6772 91.3636 14.3239ZM99.3048 12.0239V12.7739H101.605V12.0239H99.3048ZM101.525 9.7839L101.965 9.1239C101.918 9.05723 101.851 8.9939 101.765 8.9339C101.685 8.8739 101.588 8.8239 101.475 8.7839C101.361 8.7439 101.231 8.7239 101.085 8.7239C100.805 8.7239 100.565 8.7839 100.365 8.9039C100.171 9.01723 100.021 9.19057 99.9148 9.4239C99.8081 9.65723 99.7548 9.95723 99.7548 10.3239V16.6239H100.555V10.4239C100.555 10.2039 100.575 10.0272 100.615 9.8939C100.655 9.76057 100.708 9.66723 100.775 9.6139C100.848 9.5539 100.935 9.5239 101.035 9.5239C101.115 9.5239 101.198 9.54057 101.285 9.5739C101.378 9.60057 101.458 9.67057 101.525 9.7839ZM102.116 14.3239C102.116 14.7839 102.219 15.1972 102.426 15.5639C102.639 15.9239 102.926 16.2072 103.286 16.4139C103.646 16.6206 104.049 16.7239 104.496 16.7239C104.949 16.7239 105.353 16.6206 105.706 16.4139C106.066 16.2072 106.349 15.9239 106.556 15.5639C106.769 15.1972 106.876 14.7839 106.876 14.3239C106.876 13.8572 106.769 13.4439 106.556 13.0839C106.349 12.7239 106.066 12.4406 105.706 12.2339C105.353 12.0272 104.949 11.9239 104.496 11.9239C104.049 11.9239 103.646 12.0272 103.286 12.2339C102.926 12.4406 102.639 12.7239 102.426 13.0839C102.219 13.4439 102.116 13.8572 102.116 14.3239ZM102.926 14.3239C102.926 14.0039 102.993 13.7206 103.126 13.4739C103.266 13.2206 103.453 13.0239 103.686 12.8839C103.926 12.7439 104.196 12.6739 104.496 12.6739C104.796 12.6739 105.063 12.7439 105.296 12.8839C105.536 13.0239 105.723 13.2206 105.856 13.4739C105.996 13.7206 106.066 14.0039 106.066 14.3239C106.066 14.6439 105.996 14.9272 105.856 15.1739C105.723 15.4206 105.536 15.6172 105.296 15.7639C105.063 15.9039 104.796 15.9739 104.496 15.9739C104.196 15.9739 103.926 15.9039 103.686 15.7639C103.453 15.6172 103.266 15.4206 103.126 15.1739C102.993 14.9272 102.926 14.6439 102.926 14.3239ZM108.775 12.0239H107.975V16.6239H108.775V12.0239ZM110.165 12.9039L110.605 12.2439C110.485 12.1172 110.352 12.0339 110.205 11.9939C110.065 11.9472 109.912 11.9239 109.745 11.9239C109.532 11.9239 109.322 12.0072 109.115 12.1739C108.908 12.3406 108.738 12.5672 108.605 12.8539C108.478 13.1339 108.415 13.4572 108.415 13.8239H108.775C108.775 13.6039 108.795 13.4072 108.835 13.2339C108.882 13.0606 108.962 12.9239 109.075 12.8239C109.188 12.7239 109.345 12.6739 109.545 12.6739C109.678 12.6739 109.788 12.6939 109.875 12.7339C109.962 12.7672 110.058 12.8239 110.165 12.9039Z" fill="#303030"/>
<path d="M56.1203 26.5289L59.5403 32.6489L62.9603 26.5289L63.7403 33.6239H65.0153L63.7403 22.5989L59.5403 30.2039L55.3403 22.5989L54.0653 33.6239H55.3403L56.1203 26.5289ZM67.2739 31.4939C67.2739 31.2439 67.3339 31.0289 67.4539 30.8489C67.5739 30.6689 67.7539 30.5289 67.9939 30.4289C68.2439 30.3289 68.5639 30.2789 68.9539 30.2789C69.3739 30.2789 69.7689 30.3339 70.1389 30.4439C70.5089 30.5439 70.8689 30.7139 71.2189 30.9539V30.2489C71.1489 30.1589 71.0139 30.0439 70.8139 29.9039C70.6139 29.7539 70.3439 29.6239 70.0039 29.5139C69.6739 29.3939 69.2589 29.3339 68.7589 29.3339C67.9089 29.3339 67.2439 29.5389 66.7639 29.9489C66.2939 30.3489 66.0589 30.8839 66.0589 31.5539C66.0589 32.0239 66.1689 32.4239 66.3889 32.7539C66.6089 33.0839 66.8989 33.3389 67.2589 33.5189C67.6289 33.6889 68.0239 33.7739 68.4439 33.7739C68.8239 33.7739 69.2039 33.7039 69.5839 33.5639C69.9739 33.4239 70.2989 33.2089 70.5589 32.9189C70.8289 32.6289 70.9639 32.2639 70.9639 31.8239L70.7239 30.9239C70.7239 31.2839 70.6339 31.6039 70.4539 31.8839C70.2839 32.1539 70.0489 32.3639 69.7489 32.5139C69.4589 32.6639 69.1289 32.7389 68.7589 32.7389C68.4689 32.7389 68.2089 32.6939 67.9789 32.6039C67.7589 32.5039 67.5839 32.3589 67.4539 32.1689C67.3339 31.9789 67.2739 31.7539 67.2739 31.4939ZM67.0939 28.3139C67.2039 28.2339 67.3539 28.1389 67.5439 28.0289C67.7339 27.9189 67.9639 27.8239 68.2339 27.7439C68.5139 27.6639 68.8239 27.6239 69.1639 27.6239C69.3739 27.6239 69.5739 27.6439 69.7639 27.6839C69.9539 27.7239 70.1189 27.7889 70.2589 27.8789C70.4089 27.9689 70.5239 28.0939 70.6039 28.2539C70.6839 28.4039 70.7239 28.5989 70.7239 28.8389V33.6239H71.9239V28.6739C71.9239 28.2239 71.8089 27.8439 71.5789 27.5339C71.3589 27.2239 71.0439 26.9889 70.6339 26.8289C70.2339 26.6589 69.7639 26.5739 69.2239 26.5739C68.5839 26.5739 68.0339 26.6689 67.5739 26.8589C67.1239 27.0489 66.7689 27.2389 66.5089 27.4289L67.0939 28.3139ZM74.4956 30.1739C74.4956 29.6939 74.5956 29.2689 74.7956 28.8989C75.0056 28.5189 75.2856 28.2239 75.6356 28.0139C75.9956 27.8039 76.4006 27.6989 76.8506 27.6989C77.2206 27.6989 77.5656 27.7589 77.8856 27.8789C78.2156 27.9889 78.5006 28.1389 78.7406 28.3289C78.9806 28.5189 79.1506 28.7289 79.2506 28.9589V27.4589C79.0106 27.1789 78.6656 26.9639 78.2156 26.8139C77.7756 26.6539 77.3206 26.5739 76.8506 26.5739C76.1806 26.5739 75.5756 26.7289 75.0356 27.0389C74.4956 27.3489 74.0656 27.7739 73.7456 28.3139C73.4356 28.8539 73.2806 29.4739 73.2806 30.1739C73.2806 30.8639 73.4356 31.4839 73.7456 32.0339C74.0656 32.5739 74.4956 32.9989 75.0356 33.3089C75.5756 33.6189 76.1806 33.7739 76.8506 33.7739C77.3206 33.7739 77.7756 33.6989 78.2156 33.5489C78.6656 33.3889 79.0106 33.1689 79.2506 32.8889V31.3889C79.1506 31.6089 78.9806 31.8189 78.7406 32.0189C78.5006 32.2089 78.2156 32.3639 77.8856 32.4839C77.5656 32.5939 77.2206 32.6489 76.8506 32.6489C76.4006 32.6489 75.9956 32.5439 75.6356 32.3339C75.2856 32.1139 75.0056 31.8189 74.7956 31.4489C74.5956 31.0789 74.4956 30.6539 74.4956 30.1739ZM86.4407 28.3739C86.4407 27.5839 86.6107 26.8789 86.9507 26.2589C87.3007 25.6389 87.7757 25.1489 88.3757 24.7889C88.9757 24.4289 89.6557 24.2489 90.4157 24.2489C91.1857 24.2489 91.8657 24.4289 92.4557 24.7889C93.0557 25.1489 93.5257 25.6389 93.8657 26.2589C94.2157 26.8789 94.3907 27.5839 94.3907 28.3739C94.3907 29.1639 94.2157 29.8689 93.8657 30.4889C93.5257 31.1089 93.0557 31.5989 92.4557 31.9589C91.8657 32.3189 91.1857 32.4989 90.4157 32.4989C89.6557 32.4989 88.9757 32.3189 88.3757 31.9589C87.7757 31.5989 87.3007 31.1089 86.9507 30.4889C86.6107 29.8689 86.4407 29.1639 86.4407 28.3739ZM85.0907 28.3739C85.0907 29.1339 85.2207 29.8439 85.4807 30.5039C85.7507 31.1639 86.1257 31.7389 86.6057 32.2289C87.0857 32.7089 87.6507 33.0889 88.3007 33.3689C88.9507 33.6389 89.6557 33.7739 90.4157 33.7739C91.1857 33.7739 91.8907 33.6389 92.5307 33.3689C93.1807 33.0889 93.7457 32.7089 94.2257 32.2289C94.7057 31.7389 95.0757 31.1639 95.3357 30.5039C95.6057 29.8439 95.7407 29.1339 95.7407 28.3739C95.7407 27.6039 95.6057 26.8939 95.3357 26.2439C95.0757 25.5839 94.7057 25.0139 94.2257 24.5339C93.7457 24.0439 93.1807 23.6639 92.5307 23.3939C91.8907 23.1139 91.1857 22.9739 90.4157 22.9739C89.6557 22.9739 88.9507 23.1139 88.3007 23.3939C87.6507 23.6639 87.0857 24.0439 86.6057 24.5339C86.1257 25.0139 85.7507 25.5839 85.4807 26.2439C85.2207 26.8939 85.0907 27.6039 85.0907 28.3739ZM97.9313 30.4439L96.9113 31.1339C97.1413 31.5939 97.4363 32.0289 97.7963 32.4389C98.1663 32.8389 98.5913 33.1639 99.0713 33.4139C99.5613 33.6539 100.091 33.7739 100.661 33.7739C101.081 33.7739 101.481 33.7039 101.861 33.5639C102.251 33.4239 102.596 33.2239 102.896 32.9639C103.206 32.7039 103.446 32.3889 103.616 32.0189C103.796 31.6489 103.886 31.2339 103.886 30.7739C103.886 30.2939 103.801 29.8839 103.631 29.5439C103.461 29.1939 103.241 28.8989 102.971 28.6589C102.711 28.4089 102.426 28.2039 102.116 28.0439C101.806 27.8839 101.511 27.7539 101.231 27.6539C100.621 27.4439 100.136 27.2339 99.7763 27.0239C99.4263 26.8039 99.1763 26.5739 99.0263 26.3339C98.8763 26.0839 98.8013 25.8139 98.8013 25.5239C98.8013 25.1839 98.9313 24.8789 99.1913 24.6089C99.4513 24.3289 99.8663 24.1889 100.436 24.1889C100.846 24.1889 101.191 24.2689 101.471 24.4289C101.761 24.5889 102.006 24.7939 102.206 25.0439C102.406 25.2939 102.571 25.5489 102.701 25.8089L103.796 25.1789C103.626 24.8089 103.391 24.4589 103.091 24.1289C102.791 23.7889 102.426 23.5139 101.996 23.3039C101.576 23.0839 101.081 22.9739 100.511 22.9739C99.9213 22.9739 99.3963 23.0939 98.9363 23.3339C98.4763 23.5639 98.1163 23.8839 97.8563 24.2939C97.5963 24.7039 97.4663 25.1689 97.4663 25.6889C97.4663 26.1689 97.5563 26.5739 97.7363 26.9039C97.9263 27.2339 98.1663 27.5139 98.4563 27.7439C98.7463 27.9639 99.0513 28.1489 99.3713 28.2989C99.6913 28.4389 99.9813 28.5539 100.241 28.6439C100.641 28.7839 101.016 28.9439 101.366 29.1239C101.726 29.2939 102.016 29.5189 102.236 29.7989C102.456 30.0789 102.566 30.4539 102.566 30.9239C102.566 31.4039 102.396 31.7989 102.056 32.1089C101.716 32.4189 101.266 32.5739 100.706 32.5739C100.286 32.5739 99.9113 32.4839 99.5813 32.3039C99.2513 32.1239 98.9513 31.8739 98.6813 31.5539C98.4213 31.2339 98.1713 30.8639 97.9313 30.4439Z" fill="#303030"/>
<path d="M34.6902 21.7286C34.7014 20.8609 34.9318 20.0101 35.3602 19.2554C35.7885 18.5007 36.4008 17.8666 37.1401 17.4122C36.6704 16.7415 36.0509 16.1895 35.3306 15.8001C34.6104 15.4107 33.8092 15.1946 32.9908 15.169C31.2451 14.9858 29.5527 16.2137 28.6631 16.2137C27.7563 16.2137 26.3866 15.1872 24.9117 15.2176C23.9577 15.2484 23.0279 15.5258 22.213 16.0228C21.3981 16.5198 20.7258 17.2194 20.2616 18.0535C18.2511 21.5345 19.7508 26.6504 21.6767 29.4642C22.6404 30.842 23.7665 32.3811 25.2401 32.3265C26.6821 32.2667 27.2207 31.407 28.9613 31.407C30.6857 31.407 31.191 32.3265 32.6945 32.2918C34.2418 32.2667 35.2167 30.9079 36.1465 29.517C36.8388 28.5352 37.3716 27.4502 37.725 26.302C36.8261 25.9218 36.0589 25.2854 35.5193 24.4721C34.9796 23.6588 34.6912 22.7047 34.6902 21.7286Z" fill="#303030"/>
<path d="M31.8505 13.3185C32.6941 12.3058 33.1098 11.004 33.0091 9.6897C31.7202 9.82507 30.5296 10.4411 29.6745 11.415C29.2565 11.8908 28.9363 12.4443 28.7322 13.0439C28.5282 13.6436 28.4444 14.2775 28.4855 14.9095C29.1302 14.9162 29.768 14.7764 30.3509 14.5008C30.9337 14.2253 31.4465 13.821 31.8505 13.3185Z" fill="#303030"/>
</svg>
