<svg width="150" height="43" viewBox="0 0 150 43" fill="none" xmlns="http://www.w3.org/2000/svg">
<rect y="0.623901" width="150" height="42" rx="5" fill="white"/>
<path d="M54.2653 9.6239V16.6239H55.1153V9.6239H54.2653ZM56.3653 16.6239C57.0453 16.6239 57.6487 16.4772 58.1753 16.1839C58.702 15.8906 59.1153 15.4839 59.4153 14.9639C59.7153 14.4372 59.8653 13.8239 59.8653 13.1239C59.8653 12.4239 59.7153 11.8139 59.4153 11.2939C59.1153 10.7672 58.702 10.3572 58.1753 10.0639C57.6487 9.77057 57.0453 9.6239 56.3653 9.6239H54.7353V10.4739H56.3653C56.7587 10.4739 57.1187 10.5372 57.4453 10.6639C57.772 10.7839 58.052 10.9606 58.2853 11.1939C58.5187 11.4206 58.6987 11.6972 58.8253 12.0239C58.952 12.3506 59.0153 12.7172 59.0153 13.1239C59.0153 13.5306 58.952 13.8972 58.8253 14.2239C58.6987 14.5506 58.5187 14.8306 58.2853 15.0639C58.052 15.2906 57.772 15.4672 57.4453 15.5939C57.1187 15.7139 56.7587 15.7739 56.3653 15.7739H54.7353V16.6239H56.3653ZM60.6122 14.3239C60.6122 14.7839 60.7155 15.1972 60.9222 15.5639C61.1355 15.9239 61.4222 16.2072 61.7822 16.4139C62.1422 16.6206 62.5455 16.7239 62.9922 16.7239C63.4455 16.7239 63.8489 16.6206 64.2022 16.4139C64.5622 16.2072 64.8455 15.9239 65.0522 15.5639C65.2655 15.1972 65.3722 14.7839 65.3722 14.3239C65.3722 13.8572 65.2655 13.4439 65.0522 13.0839C64.8455 12.7239 64.5622 12.4406 64.2022 12.2339C63.8489 12.0272 63.4455 11.9239 62.9922 11.9239C62.5455 11.9239 62.1422 12.0272 61.7822 12.2339C61.4222 12.4406 61.1355 12.7239 60.9222 13.0839C60.7155 13.4439 60.6122 13.8572 60.6122 14.3239ZM61.4222 14.3239C61.4222 14.0039 61.4889 13.7206 61.6222 13.4739C61.7622 13.2206 61.9489 13.0239 62.1822 12.8839C62.4222 12.7439 62.6922 12.6739 62.9922 12.6739C63.2922 12.6739 63.5589 12.7439 63.7922 12.8839C64.0322 13.0239 64.2189 13.2206 64.3522 13.4739C64.4922 13.7206 64.5622 14.0039 64.5622 14.3239C64.5622 14.6439 64.4922 14.9272 64.3522 15.1739C64.2189 15.4206 64.0322 15.6172 63.7922 15.7639C63.5589 15.9039 63.2922 15.9739 62.9922 15.9739C62.6922 15.9739 62.4222 15.9039 62.1822 15.7639C61.9489 15.6172 61.7622 15.4206 61.6222 15.1739C61.4889 14.9272 61.4222 14.6439 61.4222 14.3239ZM65.6247 12.0239L67.6247 16.9739L68.9347 13.6239L70.3247 16.9739L72.3247 12.0239H71.4247L70.2647 15.0339L68.9247 11.6739L67.6747 15.0139L66.5247 12.0239H65.6247ZM76.0716 13.8239V16.6239H76.8716V13.7239C76.8716 13.1706 76.7282 12.7339 76.4416 12.4139C76.1616 12.0872 75.7782 11.9239 75.2916 11.9239C74.9916 11.9239 74.7249 11.9906 74.4916 12.1239C74.2649 12.2572 74.0749 12.4639 73.9216 12.7439V12.0239H73.1216V16.6239H73.9216V13.8239C73.9216 13.5972 73.9682 13.3972 74.0616 13.2239C74.1616 13.0506 74.2982 12.9172 74.4716 12.8239C74.6516 12.7239 74.8582 12.6739 75.0916 12.6739C75.4116 12.6739 75.6549 12.7706 75.8216 12.9639C75.9882 13.1572 76.0716 13.4439 76.0716 13.8239ZM78.3755 8.8239V16.6239H79.1755V8.8239H78.3755ZM80.2802 14.3239C80.2802 14.7839 80.3835 15.1972 80.5902 15.5639C80.8035 15.9239 81.0902 16.2072 81.4502 16.4139C81.8102 16.6206 82.2135 16.7239 82.6602 16.7239C83.1135 16.7239 83.5168 16.6206 83.8702 16.4139C84.2302 16.2072 84.5135 15.9239 84.7202 15.5639C84.9335 15.1972 85.0402 14.7839 85.0402 14.3239C85.0402 13.8572 84.9335 13.4439 84.7202 13.0839C84.5135 12.7239 84.2302 12.4406 83.8702 12.2339C83.5168 12.0272 83.1135 11.9239 82.6602 11.9239C82.2135 11.9239 81.8102 12.0272 81.4502 12.2339C81.0902 12.4406 80.8035 12.7239 80.5902 13.0839C80.3835 13.4439 80.2802 13.8572 80.2802 14.3239ZM81.0902 14.3239C81.0902 14.0039 81.1568 13.7206 81.2902 13.4739C81.4302 13.2206 81.6168 13.0239 81.8502 12.8839C82.0902 12.7439 82.3602 12.6739 82.6602 12.6739C82.9602 12.6739 83.2268 12.7439 83.4602 12.8839C83.7002 13.0239 83.8868 13.2206 84.0202 13.4739C84.1602 13.7206 84.2302 14.0039 84.2302 14.3239C84.2302 14.6439 84.1602 14.9272 84.0202 15.1739C83.8868 15.4206 83.7002 15.6172 83.4602 15.7639C83.2268 15.9039 82.9602 15.9739 82.6602 15.9739C82.3602 15.9739 82.0902 15.9039 81.8502 15.7639C81.6168 15.6172 81.4302 15.4206 81.2902 15.1739C81.1568 14.9272 81.0902 14.6439 81.0902 14.3239ZM86.4992 15.2039C86.4992 15.0372 86.5392 14.8939 86.6192 14.7739C86.6992 14.6539 86.8192 14.5606 86.9792 14.4939C87.1458 14.4272 87.3592 14.3939 87.6192 14.3939C87.8992 14.3939 88.1625 14.4306 88.4092 14.5039C88.6558 14.5706 88.8958 14.6839 89.1292 14.8439V14.3739C89.0825 14.3139 88.9925 14.2372 88.8592 14.1439C88.7258 14.0439 88.5458 13.9572 88.3192 13.8839C88.0992 13.8039 87.8225 13.7639 87.4892 13.7639C86.9225 13.7639 86.4792 13.9006 86.1592 14.1739C85.8458 14.4406 85.6892 14.7972 85.6892 15.2439C85.6892 15.5572 85.7625 15.8239 85.9092 16.0439C86.0558 16.2639 86.2492 16.4339 86.4892 16.5539C86.7358 16.6672 86.9992 16.7239 87.2792 16.7239C87.5325 16.7239 87.7858 16.6772 88.0392 16.5839C88.2992 16.4906 88.5158 16.3472 88.6892 16.1539C88.8692 15.9606 88.9592 15.7172 88.9592 15.4239L88.7992 14.8239C88.7992 15.0639 88.7392 15.2772 88.6192 15.4639C88.5058 15.6439 88.3492 15.7839 88.1492 15.8839C87.9558 15.9839 87.7358 16.0339 87.4892 16.0339C87.2958 16.0339 87.1225 16.0039 86.9692 15.9439C86.8225 15.8772 86.7058 15.7806 86.6192 15.6539C86.5392 15.5272 86.4992 15.3772 86.4992 15.2039ZM86.3792 13.0839C86.4525 13.0306 86.5525 12.9672 86.6792 12.8939C86.8058 12.8206 86.9592 12.7572 87.1392 12.7039C87.3258 12.6506 87.5325 12.6239 87.7592 12.6239C87.8992 12.6239 88.0325 12.6372 88.1592 12.6639C88.2858 12.6906 88.3958 12.7339 88.4892 12.7939C88.5892 12.8539 88.6658 12.9372 88.7192 13.0439C88.7725 13.1439 88.7992 13.2739 88.7992 13.4339V16.6239H89.5992V13.3239C89.5992 13.0239 89.5225 12.7706 89.3692 12.5639C89.2225 12.3572 89.0125 12.2006 88.7392 12.0939C88.4725 11.9806 88.1592 11.9239 87.7992 11.9239C87.3725 11.9239 87.0058 11.9872 86.6992 12.1139C86.3992 12.2406 86.1625 12.3672 85.9892 12.4939L86.3792 13.0839ZM94.4036 8.8239V16.6239H95.2036V8.8239H94.4036ZM90.5536 14.3239C90.5536 14.8172 90.6569 15.2439 90.8636 15.6039C91.0703 15.9639 91.3469 16.2406 91.6936 16.4339C92.0403 16.6272 92.4203 16.7239 92.8336 16.7239C93.2203 16.7239 93.5569 16.6272 93.8436 16.4339C94.1303 16.2406 94.3536 15.9639 94.5136 15.6039C94.6803 15.2439 94.7636 14.8172 94.7636 14.3239C94.7636 13.8239 94.6803 13.3972 94.5136 13.0439C94.3536 12.6839 94.1303 12.4072 93.8436 12.2139C93.5569 12.0206 93.2203 11.9239 92.8336 11.9239C92.4203 11.9239 92.0403 12.0206 91.6936 12.2139C91.3469 12.4072 91.0703 12.6839 90.8636 13.0439C90.6569 13.3972 90.5536 13.8239 90.5536 14.3239ZM91.3636 14.3239C91.3636 13.9706 91.4336 13.6706 91.5736 13.4239C91.7203 13.1772 91.9136 12.9906 92.1536 12.8639C92.3936 12.7372 92.6536 12.6739 92.9336 12.6739C93.1669 12.6739 93.3969 12.7372 93.6236 12.8639C93.8503 12.9906 94.0369 13.1772 94.1836 13.4239C94.3303 13.6706 94.4036 13.9706 94.4036 14.3239C94.4036 14.6772 94.3303 14.9772 94.1836 15.2239C94.0369 15.4706 93.8503 15.6572 93.6236 15.7839C93.3969 15.9106 93.1669 15.9739 92.9336 15.9739C92.6536 15.9739 92.3936 15.9106 92.1536 15.7839C91.9136 15.6572 91.7203 15.4706 91.5736 15.2239C91.4336 14.9772 91.3636 14.6772 91.3636 14.3239ZM99.3048 12.0239V12.7739H101.605V12.0239H99.3048ZM101.525 9.7839L101.965 9.1239C101.918 9.05723 101.851 8.9939 101.765 8.9339C101.685 8.8739 101.588 8.8239 101.475 8.7839C101.361 8.7439 101.231 8.7239 101.085 8.7239C100.805 8.7239 100.565 8.7839 100.365 8.9039C100.171 9.01723 100.021 9.19057 99.9148 9.4239C99.8081 9.65723 99.7548 9.95723 99.7548 10.3239V16.6239H100.555V10.4239C100.555 10.2039 100.575 10.0272 100.615 9.8939C100.655 9.76057 100.708 9.66723 100.775 9.6139C100.848 9.5539 100.935 9.5239 101.035 9.5239C101.115 9.5239 101.198 9.54057 101.285 9.5739C101.378 9.60057 101.458 9.67057 101.525 9.7839ZM102.116 14.3239C102.116 14.7839 102.219 15.1972 102.426 15.5639C102.639 15.9239 102.926 16.2072 103.286 16.4139C103.646 16.6206 104.049 16.7239 104.496 16.7239C104.949 16.7239 105.353 16.6206 105.706 16.4139C106.066 16.2072 106.349 15.9239 106.556 15.5639C106.769 15.1972 106.876 14.7839 106.876 14.3239C106.876 13.8572 106.769 13.4439 106.556 13.0839C106.349 12.7239 106.066 12.4406 105.706 12.2339C105.353 12.0272 104.949 11.9239 104.496 11.9239C104.049 11.9239 103.646 12.0272 103.286 12.2339C102.926 12.4406 102.639 12.7239 102.426 13.0839C102.219 13.4439 102.116 13.8572 102.116 14.3239ZM102.926 14.3239C102.926 14.0039 102.993 13.7206 103.126 13.4739C103.266 13.2206 103.453 13.0239 103.686 12.8839C103.926 12.7439 104.196 12.6739 104.496 12.6739C104.796 12.6739 105.063 12.7439 105.296 12.8839C105.536 13.0239 105.723 13.2206 105.856 13.4739C105.996 13.7206 106.066 14.0039 106.066 14.3239C106.066 14.6439 105.996 14.9272 105.856 15.1739C105.723 15.4206 105.536 15.6172 105.296 15.7639C105.063 15.9039 104.796 15.9739 104.496 15.9739C104.196 15.9739 103.926 15.9039 103.686 15.7639C103.453 15.6172 103.266 15.4206 103.126 15.1739C102.993 14.9272 102.926 14.6439 102.926 14.3239ZM108.775 12.0239H107.975V16.6239H108.775V12.0239ZM110.165 12.9039L110.605 12.2439C110.485 12.1172 110.352 12.0339 110.205 11.9939C110.065 11.9472 109.912 11.9239 109.745 11.9239C109.532 11.9239 109.322 12.0072 109.115 12.1739C108.908 12.3406 108.738 12.5672 108.605 12.8539C108.478 13.1339 108.415 13.4572 108.415 13.8239H108.775C108.775 13.6039 108.795 13.4072 108.835 13.2339C108.882 13.0606 108.962 12.9239 109.075 12.8239C109.188 12.7239 109.345 12.6739 109.545 12.6739C109.678 12.6739 109.788 12.6939 109.875 12.7339C109.962 12.7672 110.058 12.8239 110.165 12.9039Z" fill="#303030"/>
<path d="M64.0103 30.8489L60.8903 22.5989L57.8303 30.8489L55.0403 23.1239H53.6153L57.7403 34.1489L60.8903 25.9889L64.0403 34.1489L68.1653 23.1239H66.7403L64.0103 30.8489ZM69.4438 23.8739C69.4438 24.0939 69.5238 24.2889 69.6838 24.4589C69.8538 24.6189 70.0488 24.6989 70.2688 24.6989C70.4988 24.6989 70.6938 24.6189 70.8538 24.4589C71.0138 24.2889 71.0938 24.0939 71.0938 23.8739C71.0938 23.6439 71.0138 23.4489 70.8538 23.2889C70.6938 23.1289 70.4988 23.0489 70.2688 23.0489C70.0488 23.0489 69.8538 23.1289 69.6838 23.2889C69.5238 23.4489 69.4438 23.6439 69.4438 23.8739ZM69.6688 26.7239V33.6239H70.8688V26.7239H69.6688ZM77.7653 29.4239V33.6239H78.9653V29.2739C78.9653 28.4439 78.7503 27.7889 78.3203 27.3089C77.9003 26.8189 77.3253 26.5739 76.5953 26.5739C76.1453 26.5739 75.7453 26.6739 75.3953 26.8739C75.0553 27.0739 74.7703 27.3839 74.5403 27.8039V26.7239H73.3403V33.6239H74.5403V29.4239C74.5403 29.0839 74.6103 28.7839 74.7503 28.5239C74.9003 28.2639 75.1053 28.0639 75.3653 27.9239C75.6353 27.7739 75.9453 27.6989 76.2953 27.6989C76.7753 27.6989 77.1403 27.8439 77.3903 28.1339C77.6403 28.4239 77.7653 28.8539 77.7653 29.4239ZM86.3962 21.9239V33.6239H87.5962V21.9239H86.3962ZM80.6212 30.1739C80.6212 30.9139 80.7762 31.5539 81.0862 32.0939C81.3962 32.6339 81.8112 33.0489 82.3312 33.3389C82.8512 33.6289 83.4212 33.7739 84.0412 33.7739C84.6212 33.7739 85.1262 33.6289 85.5562 33.3389C85.9862 33.0489 86.3212 32.6339 86.5612 32.0939C86.8112 31.5539 86.9362 30.9139 86.9362 30.1739C86.9362 29.4239 86.8112 28.7839 86.5612 28.2539C86.3212 27.7139 85.9862 27.2989 85.5562 27.0089C85.1262 26.7189 84.6212 26.5739 84.0412 26.5739C83.4212 26.5739 82.8512 26.7189 82.3312 27.0089C81.8112 27.2989 81.3962 27.7139 81.0862 28.2539C80.7762 28.7839 80.6212 29.4239 80.6212 30.1739ZM81.8362 30.1739C81.8362 29.6439 81.9412 29.1939 82.1512 28.8239C82.3712 28.4539 82.6612 28.1739 83.0212 27.9839C83.3812 27.7939 83.7712 27.6989 84.1912 27.6989C84.5412 27.6989 84.8862 27.7939 85.2262 27.9839C85.5662 28.1739 85.8462 28.4539 86.0662 28.8239C86.2862 29.1939 86.3962 29.6439 86.3962 30.1739C86.3962 30.7039 86.2862 31.1539 86.0662 31.5239C85.8462 31.8939 85.5662 32.1739 85.2262 32.3639C84.8862 32.5539 84.5412 32.6489 84.1912 32.6489C83.7712 32.6489 83.3812 32.5539 83.0212 32.3639C82.6612 32.1739 82.3712 31.8939 82.1512 31.5239C81.9412 31.1539 81.8362 30.7039 81.8362 30.1739ZM89.1759 30.1739C89.1759 30.8639 89.3309 31.4839 89.6409 32.0339C89.9609 32.5739 90.3909 32.9989 90.9309 33.3089C91.4709 33.6189 92.0759 33.7739 92.7459 33.7739C93.4259 33.7739 94.0309 33.6189 94.5609 33.3089C95.1009 32.9989 95.5259 32.5739 95.8359 32.0339C96.1559 31.4839 96.3159 30.8639 96.3159 30.1739C96.3159 29.4739 96.1559 28.8539 95.8359 28.3139C95.5259 27.7739 95.1009 27.3489 94.5609 27.0389C94.0309 26.7289 93.4259 26.5739 92.7459 26.5739C92.0759 26.5739 91.4709 26.7289 90.9309 27.0389C90.3909 27.3489 89.9609 27.7739 89.6409 28.3139C89.3309 28.8539 89.1759 29.4739 89.1759 30.1739ZM90.3909 30.1739C90.3909 29.6939 90.4909 29.2689 90.6909 28.8989C90.9009 28.5189 91.1809 28.2239 91.5309 28.0139C91.8909 27.8039 92.2959 27.6989 92.7459 27.6989C93.1959 27.6989 93.5959 27.8039 93.9459 28.0139C94.3059 28.2239 94.5859 28.5189 94.7859 28.8989C94.9959 29.2689 95.1009 29.6939 95.1009 30.1739C95.1009 30.6539 94.9959 31.0789 94.7859 31.4489C94.5859 31.8189 94.3059 32.1139 93.9459 32.3339C93.5959 32.5439 93.1959 32.6489 92.7459 32.6489C92.2959 32.6489 91.8909 32.5439 91.5309 32.3339C91.1809 32.1139 90.9009 31.8189 90.6909 31.4489C90.4909 31.0789 90.3909 30.6539 90.3909 30.1739ZM96.6946 26.7239L99.6946 34.1489L101.66 29.1239L103.745 34.1489L106.745 26.7239H105.395L103.655 31.2389L101.645 26.1989L99.7696 31.2089L98.0446 26.7239H96.6946ZM108.225 31.5089L107.28 32.0939C107.41 32.3639 107.6 32.6289 107.85 32.8889C108.11 33.1489 108.425 33.3639 108.795 33.5339C109.165 33.6939 109.58 33.7739 110.04 33.7739C110.75 33.7739 111.32 33.5739 111.75 33.1739C112.19 32.7739 112.41 32.2739 112.41 31.6739C112.41 31.2639 112.31 30.9289 112.11 30.6689C111.92 30.4089 111.66 30.1889 111.33 30.0089C111 29.8189 110.635 29.6439 110.235 29.4839C109.995 29.3839 109.765 29.2789 109.545 29.1689C109.325 29.0589 109.145 28.9339 109.005 28.7939C108.865 28.6539 108.795 28.4939 108.795 28.3139C108.795 28.0839 108.885 27.9139 109.065 27.8039C109.245 27.6939 109.46 27.6389 109.71 27.6389C110.07 27.6389 110.39 27.7239 110.67 27.8939C110.96 28.0639 111.2 28.2789 111.39 28.5389L112.35 27.9239C112.21 27.6639 112.015 27.4339 111.765 27.2339C111.515 27.0339 111.225 26.8739 110.895 26.7539C110.575 26.6339 110.23 26.5739 109.86 26.5739C109.49 26.5739 109.13 26.6389 108.78 26.7689C108.44 26.8989 108.16 27.0989 107.94 27.3689C107.73 27.6389 107.625 27.9789 107.625 28.3889C107.625 28.7889 107.725 29.1239 107.925 29.3939C108.135 29.6539 108.39 29.8689 108.69 30.0389C109 30.1989 109.305 30.3389 109.605 30.4589C109.875 30.5589 110.13 30.6689 110.37 30.7889C110.61 30.8989 110.805 31.0389 110.955 31.2089C111.115 31.3689 111.195 31.5689 111.195 31.8089C111.195 32.0789 111.095 32.2939 110.895 32.4539C110.705 32.6039 110.44 32.6789 110.1 32.6789C109.82 32.6789 109.56 32.6289 109.32 32.5289C109.09 32.4189 108.885 32.2739 108.705 32.0939C108.525 31.9139 108.365 31.7189 108.225 31.5089Z" fill="#303030"/>
<path d="M26.8193 14.178C30.6545 13.5912 34.497 13.0384 38.3396 12.5051C38.342 15.8728 38.3396 19.2381 38.342 22.6057C34.5019 22.6203 30.6618 22.6788 26.8193 22.691C26.8169 19.8517 26.8169 17.0148 26.8193 14.178ZM17.0791 15.5368C19.9671 15.0912 22.8675 14.7064 25.7676 14.3436C25.7701 17.1366 25.7701 19.9272 25.7725 22.7202C22.8748 22.7177 19.9768 22.7616 17.0791 22.7543V15.5368ZM17.0791 23.6333C19.9746 23.6236 22.8697 23.6698 25.7649 23.665C25.7649 26.4653 25.7722 29.2656 25.7676 32.0659C22.8748 31.6371 19.9768 31.2623 17.0791 30.8703V23.6333ZM26.8023 23.7453H38.3396C38.3444 27.1033 38.3396 30.4612 38.3396 33.8216C34.5043 33.2469 30.6618 32.7136 26.8193 32.1928C26.8144 29.3776 26.8071 26.5627 26.8023 23.7453Z" fill="#4EACEA"/>
</svg>
