<svg width="190" height="57" viewBox="0 0 190 57" fill="none" xmlns="http://www.w3.org/2000/svg">
<rect width="190" height="57" rx="8" fill="#464648"/>
<path d="M69.4182 17.0871C69.4182 18.1058 69.1151 18.9184 68.5087 19.5127C67.8295 20.2282 66.932 20.592 65.8405 20.592C64.7854 20.592 63.9001 20.2282 63.1603 19.5005C62.4205 18.7729 62.0566 17.8633 62.0566 16.796C62.0566 15.7166 62.4205 14.8192 63.1603 14.0915C63.9001 13.3638 64.7854 13 65.8405 13C66.362 13 66.8593 13.097 67.3323 13.3032C67.8052 13.5094 68.1812 13.7762 68.4723 14.1158L67.8295 14.7585C67.3444 14.1885 66.6895 13.8975 65.8405 13.8975C65.0765 13.8975 64.4094 14.1643 63.8516 14.71C63.2937 15.2437 63.0147 15.9471 63.0147 16.8081C63.0147 17.6692 63.2937 18.3726 63.8516 18.9063C64.4094 19.4399 65.0765 19.7188 65.8405 19.7188C66.6531 19.7188 67.3323 19.452 67.878 18.9063C68.2297 18.5546 68.4359 18.0573 68.4844 17.4267H65.8405V16.5413H69.3697C69.394 16.7354 69.4182 16.9173 69.4182 17.0871Z" fill="white"/>
<path d="M75.0084 14.0551H71.6975V16.3594H74.681V17.2326H71.6975V19.5369H75.0084V20.4344H70.7637V13.1577H75.0084V14.0551Z" fill="white"/>
<path d="M78.9518 20.4344H78.0179V14.0551H75.9805V13.1577H80.9771V14.0551H78.9397V20.4344H78.9518Z" fill="white"/>
<path d="M84.6016 20.4344V13.1577H85.5354V20.4344H84.6016Z" fill="white"/>
<path d="M89.6842 20.4344H88.7504V14.0551H86.7129V13.1577H91.7096V14.0551H89.6721V20.4344H89.6842Z" fill="white"/>
<path d="M101.181 19.4884C100.465 20.2282 99.58 20.592 98.5127 20.592C97.4455 20.592 96.5601 20.2282 95.8446 19.4884C95.129 18.7486 94.7773 17.8511 94.7773 16.796C94.7773 15.7409 95.129 14.8313 95.8446 14.1036C96.5601 13.3638 97.4455 13 98.5127 13C99.5678 13 100.453 13.3638 101.181 14.1036C101.896 14.8434 102.26 15.7409 102.26 16.796C102.248 17.8633 101.896 18.7607 101.181 19.4884ZM96.5359 18.882C97.0695 19.4278 97.7365 19.6946 98.5127 19.6946C99.2889 19.6946 99.9559 19.4278 100.49 18.882C101.023 18.3363 101.302 17.645 101.302 16.796C101.302 15.9471 101.035 15.2558 100.49 14.71C99.9559 14.1643 99.2889 13.8853 98.5127 13.8853C97.7365 13.8853 97.0695 14.1521 96.5359 14.6979C96.0023 15.2558 95.7233 15.9471 95.7233 16.796C95.7233 17.645 96.0023 18.3363 96.5359 18.882Z" fill="white"/>
<path d="M103.57 20.4344V13.1577H104.71L108.252 18.8214H108.288L108.252 17.4146V13.1577H109.186V20.4344H108.215L104.516 14.5039H104.48L104.516 15.9107V20.4344H103.57Z" fill="white"/>
<path d="M96.5223 31.0716C93.5287 31.0716 91.0828 33.384 91.0828 36.5619C91.0828 39.727 93.5287 42.0523 96.5223 42.0523C99.5159 42.0523 101.962 39.727 101.962 36.5619C101.962 33.384 99.5159 31.0716 96.5223 31.0716ZM96.5223 39.8949C94.879 39.8949 93.465 38.5255 93.465 36.5619C93.465 34.5854 94.879 33.229 96.5223 33.229C98.1656 33.229 99.5796 34.5854 99.5796 36.5619C99.5796 38.5255 98.1529 39.8949 96.5223 39.8949ZM84.6497 31.0716C81.656 31.0716 79.2102 33.384 79.2102 36.5619C79.2102 39.727 81.656 42.0523 84.6497 42.0523C87.6433 42.0523 90.0892 39.727 90.0892 36.5619C90.0892 33.384 87.6433 31.0716 84.6497 31.0716ZM84.6497 39.8949C83.0064 39.8949 81.5924 38.5255 81.5924 36.5619C81.5924 34.5854 83.0064 33.229 84.6497 33.229C86.293 33.229 87.707 34.5854 87.707 36.5619C87.707 38.5255 86.293 39.8949 84.6497 39.8949ZM70.535 32.7639V35.0893H76.0382C75.8726 36.394 75.4395 37.3629 74.7898 38.0217C73.9873 38.8356 72.7389 39.727 70.5478 39.727C67.1592 39.727 64.5096 36.9624 64.5096 33.5261C64.5096 30.0898 67.1592 27.3253 70.5478 27.3253C72.3694 27.3253 73.707 28.0487 74.6879 28.9918L76.3057 27.3511C74.9299 26.0206 73.1083 25 70.535 25C65.8981 25 62 28.8238 62 33.539C62 38.2413 65.8981 42.0781 70.535 42.0781C73.0446 42.0781 74.9299 41.2513 76.4076 39.6882C77.9236 38.1509 78.3949 35.9806 78.3949 34.2366C78.3949 33.6941 78.3567 33.1903 78.2675 32.7769H70.535V32.7639ZM128.255 34.5725C127.809 33.3453 126.433 31.0716 123.618 31.0716C120.828 31.0716 118.51 33.2936 118.51 36.5619C118.51 39.6365 120.803 42.0523 123.885 42.0523C126.369 42.0523 127.809 40.515 128.395 39.6236L126.548 38.3705C125.936 39.2877 125.096 39.8949 123.885 39.8949C122.675 39.8949 121.809 39.3265 121.261 38.2284L128.51 35.1926L128.255 34.5725ZM120.866 36.4069C120.803 34.2883 122.484 33.2032 123.694 33.2032C124.637 33.2032 125.439 33.6811 125.707 34.3658L120.866 36.4069ZM114.981 41.7293H117.363V25.5813H114.981V41.7293ZM111.083 32.2989H110.994C110.459 31.653 109.439 31.0716 108.14 31.0716C105.427 31.0716 102.943 33.4874 102.943 36.5878C102.943 39.6624 105.427 42.0652 108.14 42.0652C109.427 42.0652 110.459 41.4839 110.994 40.8121H111.07V41.6001C111.07 43.7058 109.962 44.8297 108.178 44.8297C106.726 44.8297 105.822 43.7704 105.452 42.879L103.376 43.7575C103.975 45.2173 105.554 47 108.178 47C110.968 47 113.325 45.3335 113.325 41.2772V31.4075H111.07V32.2989H111.083ZM108.344 39.8949C106.701 39.8949 105.325 38.4997 105.325 36.5878C105.325 34.65 106.701 33.2419 108.344 33.2419C109.962 33.2419 111.236 34.6629 111.236 36.5878C111.248 38.4997 109.975 39.8949 108.344 39.8949ZM139.414 25.5813H133.72V41.7293H136.102V35.606H139.427C142.064 35.606 144.65 33.6682 144.65 30.5937C144.65 27.5191 142.038 25.5813 139.414 25.5813ZM139.465 33.3582H136.089V27.8162H139.465C141.248 27.8162 142.255 29.3147 142.255 30.5807C142.255 31.8467 141.248 33.3582 139.465 33.3582ZM154.166 31.0458C152.446 31.0458 150.662 31.8209 149.924 33.5132L152.038 34.4046C152.484 33.5132 153.325 33.2161 154.204 33.2161C155.439 33.2161 156.688 33.9654 156.701 35.2959V35.4639C156.268 35.2184 155.35 34.8438 154.217 34.8438C151.936 34.8438 149.631 36.1098 149.631 38.4739C149.631 40.6312 151.49 42.0264 153.58 42.0264C155.172 42.0264 156.064 41.303 156.611 40.4504H156.688V41.7035H158.981V35.5156C158.994 32.6477 156.879 31.0458 154.166 31.0458ZM153.873 39.8949C153.096 39.8949 152.013 39.4944 152.013 38.5255C152.013 37.2854 153.363 36.8074 154.535 36.8074C155.58 36.8074 156.076 37.0399 156.701 37.35C156.522 38.8356 155.248 39.8949 153.873 39.8949ZM167.35 31.3946L164.624 38.3964H164.548L161.72 31.3946H159.159L163.401 41.1867L160.981 46.6254H163.465L170 31.3946H167.35ZM145.949 41.7293H148.331V25.5813H145.949V41.7293Z" fill="white"/>
<path d="M19.5696 13.8129C19.2179 14.1889 19.0117 14.771 19.0117 15.5108V42.3376C19.0117 43.0896 19.2179 43.6717 19.5696 44.0355L19.6545 44.1204L34.6809 29.1062V28.9242V28.7423L19.6545 13.728L19.5696 13.8129Z" fill="url(#paint0_linear_1067_42045)"/>
<path d="M39.6885 34.1148L34.6797 29.106V28.9241V28.7422L39.6885 23.7334L39.7976 23.794L45.7282 27.1656C47.4261 28.1237 47.4261 29.7003 45.7282 30.6705L39.7976 34.0421L39.6885 34.1148Z" fill="url(#paint1_linear_1067_42045)"/>
<path d="M39.7996 34.0544L34.6816 28.9243L19.5703 44.0356C20.1282 44.6299 21.0499 44.7027 22.0929 44.1084L39.7996 34.0544Z" fill="url(#paint2_linear_1067_42045)"/>
<path d="M39.8 23.8062L22.0812 13.7401C21.0382 13.1458 20.1165 13.2186 19.5586 13.8129L34.682 28.9242L39.8 23.8062Z" fill="url(#paint3_linear_1067_42045)"/>
<path opacity="0.2" d="M39.6904 33.9331L22.0808 43.9386C21.0984 44.4965 20.2131 44.4601 19.6552 43.9507L19.5703 44.0356L19.6552 44.1205C20.2252 44.6299 21.0984 44.6663 22.0808 44.1084L39.7996 34.0423L39.6904 33.9331Z" fill="black"/>
<path opacity="0.12" d="M19.5696 43.8658C19.2179 43.4898 19.0117 42.9077 19.0117 42.1679V42.3498C19.0117 43.1018 19.2179 43.6839 19.5696 44.0477L19.6545 43.9628L19.5696 43.8658Z" fill="black"/>
<path opacity="0.12" d="M45.7295 30.5009L39.6777 33.9331L39.7869 34.0423L45.7174 30.6707C46.5664 30.1856 46.9908 29.555 46.9908 28.9243C46.9302 29.4943 46.5057 30.0643 45.7295 30.5009Z" fill="black"/>
<path opacity="0.25" d="M22.0805 13.9098L45.7298 27.3474C46.4938 27.784 46.9305 28.3419 47.0032 28.924C47.0032 28.2934 46.5787 27.6506 45.7298 27.1776L22.0805 13.74C20.3826 12.7819 19 13.5823 19 15.5228V15.7047C19 13.7521 20.3947 12.9516 22.0805 13.9098Z" fill="#303030"/>
<defs>
<linearGradient id="paint0_linear_1067_42045" x1="33.3464" y1="15.2316" x2="12.9929" y2="35.5851" gradientUnits="userSpaceOnUse">
<stop stop-color="#00A0FF"/>
<stop offset="0.00657445" stop-color="#00A1FF"/>
<stop offset="0.2601" stop-color="#00BEFF"/>
<stop offset="0.5122" stop-color="#00D2FF"/>
<stop offset="0.7604" stop-color="#00DFFF"/>
<stop offset="1" stop-color="#00E3FF"/>
</linearGradient>
<linearGradient id="paint1_linear_1067_42045" x1="47.9406" y1="28.9259" x2="18.595" y2="28.9259" gradientUnits="userSpaceOnUse">
<stop stop-color="#FFE000"/>
<stop offset="0.4087" stop-color="#FFBD00"/>
<stop offset="0.7754" stop-color="#FFA500"/>
<stop offset="1" stop-color="#FF9C00"/>
</linearGradient>
<linearGradient id="paint2_linear_1067_42045" x1="37.0185" y1="31.7091" x2="9.4176" y2="59.3099" gradientUnits="userSpaceOnUse">
<stop stop-color="#FF3A44"/>
<stop offset="1" stop-color="#C31162"/>
</linearGradient>
<linearGradient id="paint3_linear_1067_42045" x1="15.7592" y1="4.88214" x2="28.0842" y2="17.2072" gradientUnits="userSpaceOnUse">
<stop stop-color="#32A071"/>
<stop offset="0.0685" stop-color="#2DA771"/>
<stop offset="0.4762" stop-color="#15CF74"/>
<stop offset="0.8009" stop-color="#06E775"/>
<stop offset="1" stop-color="#00F076"/>
</linearGradient>
</defs>
</svg>
