<svg width="190" height="57" viewBox="0 0 190 57" fill="none" xmlns="http://www.w3.org/2000/svg">
<rect width="190" height="57" rx="8" fill="#464648"/>
<path d="M35.6771 28.4213C35.6922 27.2528 36.0025 26.107 36.5794 25.0907C37.1562 24.0744 37.9808 23.2205 38.9763 22.6084C38.3439 21.7052 37.5095 20.9619 36.5396 20.4375C35.5696 19.9131 34.4908 19.6221 33.3887 19.5877C31.0377 19.3409 28.7586 20.9944 27.5606 20.9944C26.3395 20.9944 24.495 19.6122 22.5087 19.653C21.224 19.6945 19.9719 20.0681 18.8745 20.7374C17.7771 21.4067 16.8717 22.3488 16.2467 23.472C13.5391 28.1598 15.5587 35.0493 18.1524 38.8385C19.45 40.694 20.9666 42.7666 22.951 42.6931C24.8929 42.6126 25.6182 41.4548 27.9622 41.4548C30.2844 41.4548 30.9649 42.6931 32.9895 42.6464C35.0733 42.6126 36.3861 40.7826 37.6383 38.9096C38.5706 37.5875 39.2881 36.1263 39.764 34.5801C38.5534 34.0681 37.5204 33.211 36.7936 32.1158C36.0668 31.0206 35.6785 29.7357 35.6771 28.4213Z" fill="white"/>
<path d="M31.8538 17.0954C32.9899 15.7315 33.5496 13.9785 33.4141 12.2086C31.6783 12.3909 30.075 13.2204 28.9235 14.532C28.3605 15.1727 27.9293 15.9181 27.6546 16.7256C27.3798 17.5331 27.2669 18.3868 27.3223 19.2379C28.1905 19.2469 29.0494 19.0587 29.8343 18.6876C30.6192 18.3165 31.3097 17.7721 31.8538 17.0954Z" fill="white"/>
<path d="M60.2242 37.9957H53.5974L52.006 42.6947H49.1992L55.476 25.3096H58.3922L64.6689 42.6947H61.8142L60.2242 37.9957ZM54.2838 35.8273H59.5365L56.9471 28.2012H56.8746L54.2838 35.8273Z" fill="white"/>
<path d="M78.2248 36.3575C78.2248 40.2964 76.1166 42.827 72.9352 42.827C72.1293 42.8692 71.3278 42.6835 70.6225 42.2913C69.9172 41.8991 69.3365 41.3163 68.9471 40.6094H68.8869V46.8875H66.2852V30.0192H68.8036V32.1274H68.8514C69.2587 31.424 69.8492 30.8441 70.5598 30.4495C71.2705 30.055 72.0749 29.8604 72.8873 29.8866C76.1042 29.8866 78.2248 32.4296 78.2248 36.3575ZM75.5506 36.3575C75.5506 33.7913 74.2244 32.1042 72.201 32.1042C70.2131 32.1042 68.876 33.8268 68.876 36.3575C68.876 38.9114 70.2131 40.6218 72.201 40.6218C74.2244 40.6218 75.5506 38.9469 75.5506 36.3575Z" fill="white"/>
<path d="M92.174 36.3575C92.174 40.2964 90.0658 42.827 86.8844 42.827C86.0785 42.8692 85.277 42.6835 84.5717 42.2913C83.8664 41.8991 83.2858 41.3162 82.8963 40.6094H82.8361V46.8875H80.2344V30.0192H82.7527V32.1274H82.8006C83.2079 31.424 83.7983 30.8441 84.509 30.4495C85.2197 30.0549 86.0241 29.8604 86.8365 29.8866C90.0535 29.8866 92.174 32.4296 92.174 36.3575ZM89.4998 36.3575C89.4998 33.7913 88.1736 32.1042 86.1502 32.1042C84.1623 32.1042 82.8252 33.8268 82.8252 36.3575C82.8252 38.9114 84.1623 40.6217 86.1502 40.6217C88.1736 40.6217 89.4998 38.9469 89.4998 36.3575H89.4998Z" fill="white"/>
<path d="M101.396 37.8506C101.589 39.5746 103.263 40.7066 105.552 40.7066C107.745 40.7066 109.323 39.5746 109.323 38.0201C109.323 36.6707 108.371 35.8627 106.118 35.309L103.865 34.7662C100.673 33.9951 99.1905 32.5021 99.1905 30.0795C99.1905 27.0799 101.805 25.0195 105.516 25.0195C109.19 25.0195 111.708 27.0799 111.793 30.0795H109.167C109.01 28.3445 107.575 27.2973 105.479 27.2973C103.384 27.2973 101.949 28.3568 101.949 29.899C101.949 31.1281 102.865 31.8514 105.106 32.405L107.022 32.8753C110.589 33.7189 112.071 35.1517 112.071 37.6946C112.071 40.9472 109.48 42.9843 105.359 42.9843C101.504 42.9843 98.9006 40.995 98.7324 37.8505L101.396 37.8506Z" fill="white"/>
<path d="M117.686 27.02V30.0196H120.096V32.08H117.686V39.0676C117.686 40.1532 118.168 40.659 119.228 40.659C119.514 40.6541 119.8 40.634 120.084 40.5988V42.6469C119.607 42.7359 119.123 42.7762 118.638 42.7672C116.072 42.7672 115.071 41.8033 115.071 39.3451V32.08H113.229V30.0196H115.071V27.02H117.686Z" fill="white"/>
<path d="M121.492 36.3574C121.492 32.3693 123.841 29.8633 127.504 29.8633C131.179 29.8633 133.517 32.3693 133.517 36.3574C133.517 40.3564 131.191 42.8515 127.504 42.8515C123.818 42.8515 121.492 40.3564 121.492 36.3574ZM130.866 36.3574C130.866 33.6217 129.612 32.007 127.504 32.007C125.395 32.007 124.143 33.634 124.143 36.3574C124.143 39.1041 125.395 40.7064 127.504 40.7064C129.612 40.7064 130.866 39.1041 130.866 36.3574H130.866Z" fill="white"/>
<path d="M135.66 30.0196H138.142V32.177H138.202C138.37 31.5032 138.764 30.9077 139.32 30.4907C139.875 30.0737 140.557 29.8605 141.251 29.887C141.55 29.8859 141.849 29.9185 142.142 29.984V32.4176C141.764 32.302 141.369 32.2489 140.973 32.2604C140.595 32.2451 140.218 32.3117 139.868 32.4558C139.519 32.5998 139.204 32.8178 138.947 33.0949C138.689 33.3719 138.495 33.7014 138.376 34.0608C138.258 34.4201 138.219 34.8008 138.262 35.1766V42.6947H135.66L135.66 30.0196Z" fill="white"/>
<path d="M154.139 38.9715C153.789 41.2724 151.548 42.8515 148.681 42.8515C144.994 42.8515 142.705 40.381 142.705 36.4176C142.705 32.4418 145.006 29.8633 148.572 29.8633C152.078 29.8633 154.284 32.2723 154.284 36.1154V37.0068H145.331V37.164C145.29 37.6305 145.349 38.1004 145.503 38.5426C145.657 38.9848 145.904 39.3891 146.226 39.7287C146.549 40.0682 146.94 40.3353 147.373 40.5121C147.807 40.6889 148.273 40.7715 148.741 40.7543C149.356 40.8119 149.973 40.6695 150.5 40.3482C151.028 40.027 151.437 39.5442 151.668 38.9714L154.139 38.9715ZM145.344 35.1885H151.681C151.704 34.769 151.64 34.3493 151.494 33.9556C151.347 33.5619 151.121 33.2028 150.829 32.9007C150.537 32.5986 150.186 32.3601 149.797 32.2002C149.409 32.0403 148.992 31.9625 148.572 31.9715C148.148 31.9689 147.728 32.0504 147.336 32.211C146.944 32.3716 146.588 32.6083 146.287 32.9074C145.987 33.2065 145.749 33.5621 145.587 33.9536C145.425 34.3451 145.343 34.7648 145.344 35.1885V35.1885Z" fill="white"/>
<path d="M53.9549 12.2238C54.5003 12.1847 55.0477 12.2671 55.5574 12.4651C56.0672 12.6631 56.5266 12.9718 56.9027 13.3689C57.2787 13.7659 57.5619 14.2415 57.7318 14.7613C57.9018 15.2811 57.9543 15.8321 57.8855 16.3746C57.8855 19.0433 56.4431 20.5774 53.9549 20.5774H50.9375V12.2238H53.9549ZM52.2349 19.396H53.8099C54.1997 19.4193 54.5898 19.3554 54.9517 19.2089C55.3137 19.0625 55.6384 18.8372 55.9023 18.5494C56.1662 18.2616 56.3626 17.9186 56.4772 17.5453C56.5918 17.172 56.6217 16.7779 56.5648 16.3916C56.6176 16.0069 56.5846 15.6152 56.4683 15.2446C56.3519 14.8741 56.155 14.5339 55.8917 14.2484C55.6284 13.9629 55.3053 13.7392 54.9454 13.5933C54.5854 13.4473 54.1977 13.3828 53.8099 13.4043H52.2349V19.396Z" fill="white"/>
<path d="M59.352 17.4223C59.3123 17.008 59.3597 16.59 59.4911 16.1951C59.6225 15.8002 59.8349 15.4371 60.1148 15.1292C60.3948 14.8212 60.736 14.5751 61.1165 14.4067C61.4971 14.2383 61.9087 14.1514 62.3249 14.1514C62.7411 14.1514 63.1527 14.2383 63.5332 14.4067C63.9138 14.5751 64.255 14.8212 64.5349 15.1292C64.8149 15.4371 65.0273 15.8002 65.1587 16.1951C65.2901 16.59 65.3375 17.008 65.2978 17.4223C65.3382 17.837 65.2914 18.2556 65.1604 18.6511C65.0293 19.0466 64.817 19.4104 64.537 19.719C64.257 20.0275 63.9156 20.2741 63.5346 20.4429C63.1536 20.6116 62.7416 20.6988 62.3249 20.6988C61.9082 20.6988 61.4962 20.6116 61.1152 20.4429C60.7342 20.2741 60.3928 20.0275 60.1128 19.719C59.8328 19.4104 59.6205 19.0466 59.4894 18.6511C59.3584 18.2556 59.3116 17.837 59.352 17.4223ZM64.0181 17.4223C64.0181 16.0558 63.4043 15.2567 62.3269 15.2567C61.2455 15.2567 60.6371 16.0558 60.6371 17.4223C60.6371 18.7997 61.2455 19.5927 62.3269 19.5927C63.4043 19.5927 64.0182 18.7943 64.0182 17.4223H64.0181Z" fill="white"/>
<path d="M73.2008 20.577H71.9101L70.6072 15.9341H70.5088L69.2113 20.577H67.933L66.1953 14.2729H67.4572L68.5865 19.0833H68.6795L69.9756 14.2729H71.1691L72.4652 19.0833H72.5637L73.6875 14.2729H74.9316L73.2008 20.577Z" fill="white"/>
<path d="M76.3945 14.2729H77.5922V15.2744H77.6852C77.8429 14.9147 78.1089 14.6132 78.4461 14.4118C78.7833 14.2105 79.1749 14.1194 79.5664 14.1512C79.8731 14.1282 80.1811 14.1744 80.4676 14.2865C80.754 14.3987 81.0115 14.5738 81.2211 14.799C81.4307 15.0242 81.5869 15.2936 81.6781 15.5874C81.7694 15.8811 81.7934 16.1916 81.7484 16.4959V20.5769H80.5043V16.8084C80.5043 15.7953 80.0641 15.2915 79.1439 15.2915C78.9357 15.2818 78.7278 15.3172 78.5345 15.3954C78.3412 15.4735 78.1671 15.5926 78.0242 15.7443C77.8812 15.896 77.7727 16.0769 77.7062 16.2745C77.6396 16.4721 77.6166 16.6817 77.6387 16.889V20.577H76.3945L76.3945 14.2729Z" fill="white"/>
<path d="M83.7305 11.812H84.9746V20.577H83.7305V11.812Z" fill="white"/>
<path d="M86.7035 17.4224C86.6639 17.0081 86.7113 16.5901 86.8427 16.1952C86.9741 15.8003 87.1866 15.4372 87.4666 15.1292C87.7465 14.8212 88.0877 14.5751 88.4683 14.4067C88.849 14.2384 89.2606 14.1514 89.6768 14.1514C90.093 14.1514 90.5046 14.2384 90.8852 14.4067C91.2658 14.5751 91.607 14.8212 91.887 15.1292C92.1669 15.4372 92.3794 15.8003 92.5108 16.1952C92.6422 16.5901 92.6896 17.0081 92.65 17.4224C92.6904 17.8371 92.6435 18.2557 92.5124 18.6512C92.3814 19.0468 92.169 19.4105 91.889 19.7191C91.609 20.0276 91.2675 20.2742 90.8865 20.443C90.5055 20.6117 90.0935 20.6989 89.6768 20.6989C89.2601 20.6989 88.848 20.6117 88.467 20.443C88.086 20.2742 87.7446 20.0276 87.4645 19.7191C87.1845 19.4105 86.9722 19.0468 86.8411 18.6512C86.71 18.2557 86.6631 17.8371 86.7035 17.4224ZM91.3697 17.4224C91.3697 16.0559 90.7558 15.2568 89.6785 15.2568C88.597 15.2568 87.9887 16.0559 87.9887 17.4224C87.9887 18.7999 88.5971 19.5928 89.6785 19.5928C90.7558 19.5928 91.3697 18.7944 91.3697 17.4224H91.3697Z" fill="white"/>
<path d="M93.959 18.7943C93.959 17.6595 94.8039 17.0054 96.3037 16.9124L98.0113 16.8139V16.2698C98.0113 15.604 97.5711 15.228 96.7207 15.228C96.0262 15.228 95.5449 15.483 95.4068 15.9287H94.2023C94.3295 14.8459 95.348 14.1514 96.7781 14.1514C98.3586 14.1514 99.25 14.9382 99.25 16.2698V20.5771H98.0523V19.6912H97.9539C97.7541 20.009 97.4735 20.268 97.1409 20.4419C96.8082 20.6158 96.4353 20.6983 96.0603 20.681C95.7957 20.7085 95.5282 20.6803 95.2752 20.5981C95.0221 20.5159 94.7891 20.3816 94.5911 20.2039C94.3931 20.0261 94.2346 19.8088 94.1257 19.5661C94.0168 19.3233 93.96 19.0604 93.959 18.7943ZM98.0113 18.2556V17.7286L96.4719 17.827C95.6037 17.8851 95.2099 18.1804 95.2099 18.7362C95.2099 19.3036 95.7021 19.6337 96.3789 19.6337C96.5772 19.6538 96.7776 19.6338 96.968 19.5749C97.1584 19.5159 97.335 19.4193 97.4873 19.2907C97.6396 19.1622 97.7645 19.0043 97.8545 18.8264C97.9445 18.6486 97.9978 18.4545 98.0113 18.2556Z" fill="white"/>
<path d="M100.885 17.4223C100.885 15.4303 101.909 14.1684 103.502 14.1684C103.896 14.1502 104.287 14.2446 104.629 14.4404C104.971 14.6363 105.251 14.9255 105.435 15.2744H105.528V11.812H106.772V20.577H105.58V19.581H105.481C105.283 19.9275 104.994 20.2132 104.645 20.407C104.296 20.6009 103.9 20.6956 103.502 20.6809C101.898 20.681 100.885 19.419 100.885 17.4223ZM102.17 17.4223C102.17 18.7594 102.8 19.564 103.854 19.564C104.903 19.564 105.551 18.7478 105.551 17.4277C105.551 16.1139 104.896 15.286 103.854 15.286C102.807 15.286 102.17 16.0961 102.17 17.4223H102.17Z" fill="white"/>
<path d="M111.92 17.4223C111.881 17.008 111.928 16.59 112.059 16.1951C112.191 15.8002 112.403 15.4371 112.683 15.1292C112.963 14.8212 113.304 14.5751 113.685 14.4067C114.065 14.2383 114.477 14.1514 114.893 14.1514C115.309 14.1514 115.721 14.2383 116.102 14.4067C116.482 14.5751 116.823 14.8212 117.103 15.1292C117.383 15.4371 117.596 15.8002 117.727 16.1951C117.858 16.59 117.906 17.008 117.866 17.4223C117.907 17.837 117.86 18.2556 117.729 18.6511C117.598 19.0466 117.385 19.4104 117.105 19.719C116.825 20.0275 116.484 20.2741 116.103 20.4429C115.722 20.6116 115.31 20.6988 114.893 20.6988C114.477 20.6988 114.065 20.6116 113.684 20.4429C113.303 20.2741 112.961 20.0275 112.681 19.719C112.401 19.4104 112.189 19.0466 112.058 18.6511C111.927 18.2556 111.88 17.837 111.92 17.4223ZM116.586 17.4223C116.586 16.0558 115.973 15.2567 114.895 15.2567C113.814 15.2567 113.206 16.0558 113.206 17.4223C113.206 18.7997 113.814 19.5927 114.895 19.5927C115.973 19.5927 116.586 18.7943 116.586 17.4223Z" fill="white"/>
<path d="M119.535 14.2729H120.733V15.2744H120.826C120.984 14.9147 121.25 14.6132 121.587 14.4118C121.924 14.2105 122.316 14.1194 122.707 14.1512C123.014 14.1282 123.322 14.1744 123.608 14.2865C123.895 14.3987 124.152 14.5738 124.362 14.799C124.571 15.0242 124.727 15.2936 124.819 15.5874C124.91 15.8811 124.934 16.1916 124.889 16.4959V20.5769H123.645V16.8084C123.645 15.7953 123.205 15.2915 122.285 15.2915C122.076 15.2818 121.868 15.3172 121.675 15.3954C121.482 15.4735 121.308 15.5926 121.165 15.7443C121.022 15.896 120.913 16.0769 120.847 16.2745C120.78 16.4721 120.757 16.6817 120.779 16.889V20.577H119.535V14.2729Z" fill="white"/>
<path d="M131.918 12.7036V14.3018H133.284V15.3498H131.918V18.5914C131.918 19.2517 132.19 19.5409 132.81 19.5409C132.968 19.5404 133.127 19.5308 133.284 19.5122V20.5485C133.061 20.5885 132.834 20.6097 132.607 20.6121C131.224 20.6121 130.673 20.1254 130.673 18.9099V15.3497H129.672V14.3018H130.673V12.7036H131.918Z" fill="white"/>
<path d="M134.984 11.812H136.218V15.286H136.316C136.481 14.923 136.755 14.6198 137.099 14.4177C137.443 14.2156 137.841 14.1245 138.238 14.1567C138.543 14.1401 138.848 14.1911 139.132 14.3059C139.415 14.4208 139.669 14.5967 139.876 14.8212C140.084 15.0457 140.239 15.3132 140.331 15.6045C140.423 15.8959 140.45 16.204 140.409 16.5069V20.577H139.164V16.8138C139.164 15.8069 138.695 15.297 137.816 15.297C137.602 15.2794 137.387 15.3088 137.186 15.3831C136.984 15.4574 136.802 15.5747 136.651 15.7269C136.499 15.8792 136.383 16.0626 136.31 16.2644C136.237 16.4662 136.21 16.6815 136.229 16.8952V20.577H134.984L134.984 11.812Z" fill="white"/>
<path d="M147.665 18.8751C147.496 19.4512 147.129 19.9496 146.63 20.283C146.131 20.6164 145.53 20.7636 144.933 20.6989C144.518 20.7099 144.105 20.6303 143.724 20.4658C143.342 20.3012 143.001 20.0556 142.724 19.7461C142.447 19.4365 142.24 19.0703 142.119 18.6729C141.998 18.2756 141.964 17.8566 142.021 17.445C141.966 17.0322 142 16.6123 142.121 16.2137C142.242 15.8152 142.447 15.4473 142.723 15.135C142.998 14.8227 143.338 14.5733 143.718 14.4036C144.099 14.2339 144.511 14.1479 144.928 14.1515C146.682 14.1515 147.74 15.3499 147.74 17.3295V17.7636H143.288V17.8333C143.269 18.0646 143.298 18.2975 143.374 18.517C143.45 18.7364 143.57 18.9376 143.728 19.1076C143.886 19.2777 144.078 19.4128 144.292 19.5044C144.505 19.5959 144.735 19.6419 144.967 19.6393C145.265 19.675 145.566 19.6214 145.833 19.4854C146.101 19.3493 146.321 19.1368 146.467 18.875L147.665 18.8751ZM143.288 16.8435H146.473C146.488 16.6319 146.459 16.4194 146.388 16.2196C146.317 16.0197 146.204 15.8371 146.058 15.6833C145.912 15.5295 145.735 15.4079 145.54 15.3265C145.344 15.2451 145.133 15.2055 144.921 15.2104C144.706 15.2077 144.492 15.2481 144.293 15.3292C144.093 15.4103 143.912 15.5305 143.76 15.6827C143.608 15.8349 143.488 16.016 143.407 16.2154C143.326 16.4147 143.286 16.6283 143.288 16.8435H143.288Z" fill="white"/>
</svg>
