<svg width="781" height="88" viewBox="0 0 781 88" fill="none" xmlns="http://www.w3.org/2000/svg">
<rect x="0.831912" y="0.831912" width="779.251" height="86.3362" rx="6.8916" fill="#F1F1F5"/>
<g clip-path="url(#clip0_1974_42406)">
<rect x="24.3429" y="24.3429" width="78.6286" height="9.82857" rx="3.68571" fill="#464648"/>
<rect x="67.3643" y="24.3429" width="2.51136" height="9.82857" fill="#FBFF38"/>
<rect x="49.6576" y="24.3429" width="2.51135" height="9.82857" fill="#FBFF38"/>
<rect x="83.6964" y="24.3429" width="2.51136" height="9.82857" fill="#FBFF38"/>
<rect x="91.0457" y="24.3429" width="2.51135" height="9.82857" fill="#FBFF38"/>
</g>
<path d="M33.7265 55.7181C34.4505 55.7181 35.0593 55.1669 35.0593 54.1632V49.4244C35.1662 49.8193 35.4624 50.1566 35.956 50.4446L44.3887 55.3973C44.7425 55.6112 45.0551 55.7181 45.4171 55.7181C46.1411 55.7181 46.7499 55.1669 46.7499 54.1632V44.0193C46.7499 43.0156 46.1411 42.4644 45.4171 42.4644C45.0551 42.4644 44.7425 42.5713 44.3887 42.7852L35.956 47.7379C35.4624 48.0258 35.1662 48.3549 35.0593 48.7498V44.0193C35.0593 43.0156 34.4587 42.4644 33.7347 42.4644C33.3645 42.4644 33.0601 42.5713 32.6981 42.7852L24.2654 47.7379C23.6401 48.1081 23.3357 48.5277 23.3357 49.0871C23.3357 49.6383 23.6484 50.0826 24.2654 50.4446L32.6981 55.3973C33.0519 55.6112 33.3645 55.7181 33.7265 55.7181Z" fill="#464648"/>
<path d="M62.9314 49.1364C62.9314 49.9914 62.8676 50.7532 62.7398 51.4215C62.6218 52.0898 62.4302 52.6599 62.1648 53.1317C61.8994 53.5936 61.5505 53.9474 61.1181 54.1932C60.6954 54.4389 60.1794 54.5617 59.5701 54.5617C58.8034 54.5617 58.1695 54.3455 57.6682 53.913C57.1768 53.4806 56.8082 52.8614 56.5625 52.0554C56.3266 51.2397 56.2087 50.2666 56.2087 49.1364C56.2087 47.9962 56.3168 47.0232 56.533 46.2173C56.7591 45.4113 57.1178 44.797 57.6093 44.3744C58.1007 43.942 58.7543 43.7257 59.5701 43.7257C60.3367 43.7257 60.9657 43.942 61.4572 44.3744C61.9584 44.797 62.327 45.4113 62.5629 46.2173C62.8086 47.0232 62.9314 47.9962 62.9314 49.1364ZM57.8157 49.1364C57.8157 50.0504 57.8697 50.8121 57.9778 51.4215C58.0958 52.0309 58.2825 52.4879 58.5381 52.7926C58.7936 53.0973 59.1376 53.2496 59.5701 53.2496C59.9927 53.2496 60.3318 53.1022 60.5873 52.8073C60.8527 52.5026 61.0394 52.0456 61.1476 51.4362C61.2655 50.817 61.3245 50.0504 61.3245 49.1364C61.3245 48.2223 61.2655 47.4655 61.1476 46.866C61.0394 46.2566 60.8527 45.7996 60.5873 45.4949C60.3318 45.1902 59.9927 45.0378 59.5701 45.0378C59.1376 45.0378 58.7936 45.1902 58.5381 45.4949C58.2825 45.7996 58.0958 46.2566 57.9778 46.866C57.8697 47.4655 57.8157 48.2223 57.8157 49.1364ZM64.4509 53.5445C64.4509 53.1612 64.5442 52.8909 64.731 52.7336C64.9276 52.5764 65.1684 52.4977 65.4534 52.4977C65.7286 52.4977 65.9645 52.5764 66.161 52.7336C66.3674 52.8909 66.4706 53.1612 66.4706 53.5445C66.4706 53.9278 66.3674 54.203 66.161 54.3701C65.9645 54.5372 65.7286 54.6207 65.4534 54.6207C65.1684 54.6207 64.9276 54.5372 64.731 54.3701C64.5442 54.203 64.4509 53.9278 64.4509 53.5445ZM64.4509 47.3525C64.4509 46.9495 64.5442 46.6694 64.731 46.5121C64.9276 46.3549 65.1684 46.2762 65.4534 46.2762C65.7286 46.2762 65.9645 46.3549 66.161 46.5121C66.3674 46.6694 66.4706 46.9495 66.4706 47.3525C66.4706 47.726 66.3674 47.9962 66.161 48.1633C65.9645 48.3304 65.7286 48.414 65.4534 48.414C65.1684 48.414 64.9276 48.3304 64.731 48.1633C64.5442 47.9962 64.4509 47.726 64.4509 47.3525ZM74.6941 49.1364C74.6941 49.9914 74.6302 50.7532 74.5024 51.4215C74.3845 52.0898 74.1928 52.6599 73.9274 53.1317C73.6621 53.5936 73.3131 53.9474 72.8807 54.1932C72.4581 54.4389 71.9421 54.5617 71.3327 54.5617C70.5661 54.5617 69.9321 54.3455 69.4309 53.913C68.9394 53.4806 68.5709 52.8614 68.3251 52.0554C68.0893 51.2397 67.9713 50.2666 67.9713 49.1364C67.9713 47.9962 68.0794 47.0232 68.2957 46.2173C68.5217 45.4113 68.8805 44.797 69.3719 44.3744C69.8633 43.942 70.5169 43.7257 71.3327 43.7257C72.0993 43.7257 72.7283 43.942 73.2198 44.3744C73.721 44.797 74.0896 45.4113 74.3255 46.2173C74.5712 47.0232 74.6941 47.9962 74.6941 49.1364ZM69.5783 49.1364C69.5783 50.0504 69.6323 50.8121 69.7405 51.4215C69.8584 52.0309 70.0451 52.4879 70.3007 52.7926C70.5562 53.0973 70.9002 53.2496 71.3327 53.2496C71.7553 53.2496 72.0944 53.1022 72.3499 52.8073C72.6153 52.5026 72.8021 52.0456 72.9102 51.4362C73.0281 50.817 73.0871 50.0504 73.0871 49.1364C73.0871 48.2223 73.0281 47.4655 72.9102 46.866C72.8021 46.2566 72.6153 45.7996 72.3499 45.4949C72.0944 45.1902 71.7553 45.0378 71.3327 45.0378C70.9002 45.0378 70.5562 45.1902 70.3007 45.4949C70.0451 45.7996 69.8584 46.2566 69.7405 46.866C69.6323 47.4655 69.5783 48.2223 69.5783 49.1364ZM82.6414 49.1364C82.6414 49.9914 82.5775 50.7532 82.4497 51.4215C82.3318 52.0898 82.1401 52.6599 81.8747 53.1317C81.6094 53.5936 81.2605 53.9474 80.828 54.1932C80.4054 54.4389 79.8894 54.5617 79.28 54.5617C78.5134 54.5617 77.8794 54.3455 77.3782 53.913C76.8867 53.4806 76.5182 52.8614 76.2725 52.0554C76.0366 51.2397 75.9186 50.2666 75.9186 49.1364C75.9186 47.9962 76.0267 47.0232 76.243 46.2173C76.469 45.4113 76.8278 44.797 77.3192 44.3744C77.8106 43.942 78.4642 43.7257 79.28 43.7257C80.0466 43.7257 80.6757 43.942 81.1671 44.3744C81.6683 44.797 82.0369 45.4113 82.2728 46.2173C82.5185 47.0232 82.6414 47.9962 82.6414 49.1364ZM77.5256 49.1364C77.5256 50.0504 77.5797 50.8121 77.6878 51.4215C77.8057 52.0309 77.9925 52.4879 78.248 52.7926C78.5035 53.0973 78.8475 53.2496 79.28 53.2496C79.7026 53.2496 80.0417 53.1022 80.2973 52.8073C80.5626 52.5026 80.7494 52.0456 80.8575 51.4362C80.9754 50.817 81.0344 50.0504 81.0344 49.1364C81.0344 48.2223 80.9754 47.4655 80.8575 46.866C80.7494 46.2566 80.5626 45.7996 80.2973 45.4949C80.0417 45.1902 79.7026 45.0378 79.28 45.0378C78.8475 45.0378 78.5035 45.1902 78.248 45.4949C77.9925 45.7996 77.8057 46.2566 77.6878 46.866C77.5797 47.4655 77.5256 48.2223 77.5256 49.1364ZM84.1608 53.5445C84.1608 53.1612 84.2542 52.8909 84.4409 52.7336C84.6375 52.5764 84.8783 52.4977 85.1633 52.4977C85.4385 52.4977 85.6744 52.5764 85.871 52.7336C86.0774 52.8909 86.1806 53.1612 86.1806 53.5445C86.1806 53.9278 86.0774 54.203 85.871 54.3701C85.6744 54.5372 85.4385 54.6207 85.1633 54.6207C84.8783 54.6207 84.6375 54.5372 84.4409 54.3701C84.2542 54.203 84.1608 53.9278 84.1608 53.5445ZM84.1608 47.3525C84.1608 46.9495 84.2542 46.6694 84.4409 46.5121C84.6375 46.3549 84.8783 46.2762 85.1633 46.2762C85.4385 46.2762 85.6744 46.3549 85.871 46.5121C86.0774 46.6694 86.1806 46.9495 86.1806 47.3525C86.1806 47.726 86.0774 47.9962 85.871 48.1633C85.6744 48.3304 85.4385 48.414 85.1633 48.414C84.8783 48.414 84.6375 48.3304 84.4409 48.1633C84.2542 47.9962 84.1608 47.726 84.1608 47.3525ZM94.404 49.1364C94.404 49.9914 94.3401 50.7532 94.2123 51.4215C94.0944 52.0898 93.9027 52.6599 93.6374 53.1317C93.372 53.5936 93.0231 53.9474 92.5906 54.1932C92.168 54.4389 91.652 54.5617 91.0426 54.5617C90.276 54.5617 89.642 54.3455 89.1408 53.913C88.6494 53.4806 88.2808 52.8614 88.0351 52.0554C87.7992 51.2397 87.6812 50.2666 87.6812 49.1364C87.6812 47.9962 87.7894 47.0232 88.0056 46.2173C88.2316 45.4113 88.5904 44.797 89.0818 44.3744C89.5732 43.942 90.2268 43.7257 91.0426 43.7257C91.8092 43.7257 92.4383 43.942 92.9297 44.3744C93.431 44.797 93.7995 45.4113 94.0354 46.2173C94.2811 47.0232 94.404 47.9962 94.404 49.1364ZM89.2882 49.1364C89.2882 50.0504 89.3423 50.8121 89.4504 51.4215C89.5683 52.0309 89.7551 52.4879 90.0106 52.7926C90.2662 53.0973 90.6102 53.2496 91.0426 53.2496C91.4652 53.2496 91.8043 53.1022 92.0599 52.8073C92.3252 52.5026 92.512 52.0456 92.6201 51.4362C92.738 50.817 92.797 50.0504 92.797 49.1364C92.797 48.2223 92.738 47.4655 92.6201 46.866C92.512 46.2566 92.3252 45.7996 92.0599 45.4949C91.8043 45.1902 91.4652 45.0378 91.0426 45.0378C90.6102 45.0378 90.2662 45.1902 90.0106 45.4949C89.7551 45.7996 89.5683 46.2566 89.4504 46.866C89.3423 47.4655 89.2882 48.2223 89.2882 49.1364ZM102.351 49.1364C102.351 49.9914 102.287 50.7532 102.16 51.4215C102.042 52.0898 101.85 52.6599 101.585 53.1317C101.319 53.5936 100.97 53.9474 100.538 54.1932C100.115 54.4389 99.5993 54.5617 98.9899 54.5617C98.2233 54.5617 97.5894 54.3455 97.0881 53.913C96.5967 53.4806 96.2281 52.8614 95.9824 52.0554C95.7465 51.2397 95.6286 50.2666 95.6286 49.1364C95.6286 47.9962 95.7367 47.0232 95.9529 46.2173C96.179 45.4113 96.5377 44.797 97.0291 44.3744C97.5206 43.942 98.1742 43.7257 98.9899 43.7257C99.7566 43.7257 100.386 43.942 100.877 44.3744C101.378 44.797 101.747 45.4113 101.983 46.2173C102.228 47.0232 102.351 47.9962 102.351 49.1364ZM97.2355 49.1364C97.2355 50.0504 97.2896 50.8121 97.3977 51.4215C97.5157 52.0309 97.7024 52.4879 97.9579 52.7926C98.2135 53.0973 98.5575 53.2496 98.9899 53.2496C99.4126 53.2496 99.7517 53.1022 100.007 52.8073C100.273 52.5026 100.459 52.0456 100.567 51.4362C100.685 50.817 100.744 50.0504 100.744 49.1364C100.744 48.2223 100.685 47.4655 100.567 46.866C100.459 46.2566 100.273 45.7996 100.007 45.4949C99.7517 45.1902 99.4126 45.0378 98.9899 45.0378C98.5575 45.0378 98.2135 45.1902 97.9579 45.4949C97.7024 45.7996 97.5157 46.2566 97.3977 46.866C97.2896 47.4655 97.2355 48.2223 97.2355 49.1364Z" fill="#464648"/>
<path fill-rule="evenodd" clip-rule="evenodd" d="M134.836 17.8767C134.119 17.8767 133.432 18.1614 132.925 18.6681C132.419 19.1748 132.134 19.862 132.134 20.5786V40.3928C132.134 41.1094 132.419 41.7967 132.925 42.3034C133.432 42.8101 134.119 43.0948 134.836 43.0948H145.798C146.515 43.0941 147.202 42.809 147.708 42.3022L156.561 33.4507C157.067 32.9441 157.352 32.2574 157.352 31.5413V20.5786C157.352 19.862 157.067 19.1748 156.561 18.6681C156.054 18.1614 155.367 17.8767 154.65 17.8767H134.836ZM144.803 32.3471V40.2655C144.803 40.6672 145.289 40.869 145.572 40.5844L154.842 31.3149C154.905 31.2519 154.948 31.1716 154.965 31.0842C154.983 30.9967 154.974 30.906 154.939 30.8237C154.905 30.7413 154.847 30.6709 154.773 30.6214C154.699 30.5719 154.612 30.5456 154.523 30.5458H146.604C146.126 30.5458 145.668 30.7356 145.331 31.0734C144.993 31.4112 144.803 31.8693 144.803 32.3471Z" fill="#464648"/>
<path d="M119.164 66.9146C119.164 67.4388 119.045 67.8852 118.807 68.2538C118.57 68.6223 118.23 68.909 117.788 69.1138C117.345 69.3103 116.805 69.4086 116.166 69.4086C115.855 69.4086 115.556 69.3881 115.269 69.3472C114.991 69.3144 114.733 69.2653 114.495 69.1998C114.266 69.1342 114.049 69.0523 113.844 68.9541V67.7009C114.171 67.8483 114.544 67.9835 114.962 68.1063C115.388 68.221 115.81 68.2783 116.227 68.2783C116.588 68.2783 116.883 68.2251 117.112 68.1186C117.349 68.0121 117.525 67.8647 117.64 67.6763C117.763 67.488 117.824 67.2668 117.824 67.0129C117.824 66.7426 117.763 66.5174 117.64 66.3372C117.525 66.1488 117.333 65.9768 117.063 65.8212C116.801 65.6574 116.448 65.4895 116.006 65.3175C115.695 65.1864 115.412 65.0472 115.158 64.8998C114.905 64.7441 114.683 64.564 114.495 64.3592C114.315 64.1544 114.176 63.9169 114.077 63.6466C113.987 63.3763 113.942 63.061 113.942 62.7006C113.942 62.2174 114.057 61.8038 114.286 61.4598C114.515 61.1158 114.835 60.8537 115.244 60.6735C115.654 60.4851 116.133 60.3909 116.682 60.3909C117.141 60.3909 117.562 60.4401 117.947 60.5383C118.332 60.6284 118.697 60.7554 119.041 60.9192L118.611 62.0126C118.291 61.8734 117.968 61.7587 117.64 61.6686C117.321 61.5785 116.989 61.5335 116.645 61.5335C116.342 61.5335 116.088 61.5826 115.883 61.6809C115.687 61.7792 115.539 61.9143 115.441 62.0863C115.343 62.2583 115.294 62.459 115.294 62.6883C115.294 62.9586 115.351 63.1839 115.466 63.3641C115.58 63.5442 115.765 63.7121 116.018 63.8678C116.272 64.0152 116.608 64.179 117.026 64.3592C117.485 64.5558 117.874 64.7646 118.193 64.9858C118.512 65.1987 118.754 65.4608 118.918 65.7721C119.082 66.0751 119.164 66.456 119.164 66.9146ZM122.966 68.3521C123.138 68.3521 123.306 68.3357 123.47 68.3029C123.633 68.2701 123.777 68.2333 123.9 68.1923V69.1752C123.76 69.2407 123.576 69.294 123.347 69.3349C123.126 69.3841 122.892 69.4086 122.646 69.4086C122.302 69.4086 121.987 69.3472 121.7 69.2243C121.414 69.1015 121.184 68.8885 121.012 68.5855C120.84 68.2824 120.754 67.8606 120.754 67.3201V63.6589H119.907V63.0692L120.816 62.5778L121.27 61.1772H122.094V62.6638H123.85V63.6589H122.094V67.2955C122.094 67.6559 122.175 67.9221 122.339 68.0941C122.503 68.2661 122.712 68.3521 122.966 68.3521ZM126.47 62.6638V69.2858H125.13V62.6638H126.47ZM125.818 60.1452C126.015 60.1452 126.187 60.2025 126.334 60.3172C126.482 60.4319 126.556 60.6243 126.556 60.8946C126.556 61.1567 126.482 61.3492 126.334 61.4721C126.187 61.5867 126.015 61.6441 125.818 61.6441C125.605 61.6441 125.425 61.5867 125.278 61.4721C125.13 61.3492 125.057 61.1567 125.057 60.8946C125.057 60.6243 125.13 60.4319 125.278 60.3172C125.425 60.2025 125.605 60.1452 125.818 60.1452ZM130.902 69.4086C130.32 69.4086 129.808 69.2899 129.366 69.0523C128.932 68.8148 128.592 68.4462 128.346 67.9466C128.109 67.4388 127.99 66.7959 127.99 66.0178C127.99 65.1987 128.121 64.5353 128.383 64.0275C128.645 63.5197 129.001 63.147 129.452 62.9095C129.902 62.6638 130.418 62.5409 131 62.5409C131.344 62.5409 131.671 62.5819 131.983 62.6638C132.302 62.7375 132.564 62.8235 132.769 62.9218L132.364 63.9661C132.159 63.8841 131.938 63.8104 131.7 63.7449C131.463 63.6794 131.237 63.6466 131.024 63.6466C130.648 63.6466 130.336 63.7367 130.091 63.9169C129.853 64.0889 129.673 64.351 129.55 64.7032C129.427 65.0472 129.366 65.4813 129.366 66.0055C129.366 66.5051 129.427 66.9269 129.55 67.2709C129.673 67.6149 129.853 67.877 130.091 68.0572C130.336 68.2292 130.631 68.3152 130.975 68.3152C131.311 68.3152 131.61 68.2742 131.872 68.1923C132.142 68.1104 132.392 68.004 132.622 67.8729V69.0032C132.392 69.1424 132.142 69.2448 131.872 69.3103C131.602 69.3759 131.278 69.4086 130.902 69.4086ZM135.384 64.6172C135.384 64.7892 135.375 64.9858 135.359 65.2069C135.343 65.4281 135.326 65.6328 135.31 65.8212H135.359C135.408 65.7393 135.474 65.641 135.556 65.5263C135.646 65.4035 135.736 65.2806 135.826 65.1578C135.924 65.0349 136.014 64.9284 136.096 64.8383L137.951 62.6638H139.475L137.005 65.5018L139.634 69.2858H138.062L136.096 66.3249L135.384 66.9638V69.2858H134.057V59.9486H135.384V64.6172ZM139.71 62.6638H141.135L142.401 66.4232C142.466 66.6116 142.524 66.7959 142.573 66.9761C142.63 67.1562 142.675 67.3364 142.708 67.5166C142.749 67.6886 142.782 67.8606 142.806 68.0326H142.843C142.884 67.8197 142.941 67.5699 143.015 67.2832C143.089 66.9883 143.171 66.6976 143.261 66.4109L144.465 62.6638H145.902L143.248 70.1826C143.093 70.6085 142.904 70.973 142.683 71.2761C142.47 71.5873 142.208 71.8248 141.897 71.9886C141.594 72.1524 141.229 72.2343 140.804 72.2343C140.623 72.2343 140.46 72.2221 140.312 72.1975C140.173 72.1811 140.05 72.1606 139.944 72.1361V71.1041C140.025 71.1204 140.128 71.1368 140.251 71.1532C140.374 71.1696 140.5 71.1778 140.632 71.1778C140.869 71.1778 141.074 71.1286 141.246 71.0303C141.418 70.9321 141.561 70.7928 141.676 70.6126C141.79 70.4406 141.885 70.2359 141.958 69.9983L142.204 69.2858L139.71 62.6638ZM156.861 69.2858H155.19L151.148 62.1969H151.099C151.107 62.3607 151.116 62.5368 151.124 62.7252C151.14 62.9136 151.152 63.1142 151.161 63.3272C151.169 63.532 151.177 63.7449 151.185 63.9661C151.193 64.179 151.202 64.3961 151.21 64.6172V69.2858H149.969V60.5138H151.628L155.657 67.5658H155.706C155.698 67.4429 155.69 67.2914 155.682 67.1112C155.674 66.9228 155.665 66.7221 155.657 66.5092C155.649 66.2962 155.641 66.0792 155.633 65.8581C155.624 65.6369 155.62 65.4281 155.62 65.2315V60.5138H156.861V69.2858ZM164.446 65.9686C164.446 66.5174 164.376 67.0047 164.237 67.4306C164.097 67.8565 163.897 68.2169 163.635 68.5118C163.381 68.8066 163.07 69.0319 162.701 69.1875C162.332 69.3349 161.919 69.4086 161.46 69.4086C161.042 69.4086 160.653 69.3349 160.293 69.1875C159.933 69.0319 159.621 68.8066 159.359 68.5118C159.097 68.2169 158.892 67.8565 158.745 67.4306C158.606 67.0047 158.536 66.5133 158.536 65.9563C158.536 65.2274 158.655 64.609 158.892 64.1012C159.13 63.5934 159.47 63.2084 159.912 62.9463C160.363 62.6761 160.895 62.5409 161.509 62.5409C162.083 62.5409 162.59 62.6761 163.033 62.9463C163.475 63.2084 163.819 63.5934 164.065 64.1012C164.319 64.609 164.446 65.2315 164.446 65.9686ZM159.912 65.9686C159.912 66.4601 159.965 66.886 160.072 67.2463C160.186 67.5985 160.358 67.8688 160.588 68.0572C160.825 68.2456 161.124 68.3398 161.485 68.3398C161.853 68.3398 162.152 68.2456 162.382 68.0572C162.619 67.8688 162.791 67.5985 162.898 67.2463C163.012 66.886 163.07 66.4601 163.07 65.9686C163.07 65.4608 163.012 65.0349 162.898 64.6909C162.783 64.3469 162.611 64.0848 162.382 63.9046C162.152 63.7162 161.849 63.6221 161.472 63.6221C160.924 63.6221 160.526 63.8268 160.281 64.2363C160.035 64.6459 159.912 65.2233 159.912 65.9686ZM168.305 68.3521C168.477 68.3521 168.645 68.3357 168.809 68.3029C168.973 68.2701 169.116 68.2333 169.239 68.1923V69.1752C169.1 69.2407 168.916 69.294 168.686 69.3349C168.465 69.3841 168.232 69.4086 167.986 69.4086C167.642 69.4086 167.327 69.3472 167.04 69.2243C166.753 69.1015 166.524 68.8885 166.352 68.5855C166.18 68.2824 166.094 67.8606 166.094 67.3201V63.6589H165.246V63.0692L166.155 62.5778L166.61 61.1772H167.433V62.6638H169.19V63.6589H167.433V67.2955C167.433 67.6559 167.515 67.9221 167.679 68.0941C167.843 68.2661 168.051 68.3521 168.305 68.3521ZM172.976 62.5409C173.525 62.5409 174 62.6638 174.401 62.9095C174.803 63.147 175.11 63.491 175.323 63.9415C175.544 64.392 175.655 64.9243 175.655 65.5386V66.2512H171.49C171.506 66.931 171.67 67.4511 171.981 67.8115C172.292 68.1719 172.731 68.3521 173.296 68.3521C173.697 68.3521 174.053 68.3152 174.365 68.2415C174.684 68.1596 175.007 68.0408 175.335 67.8852V68.9663C175.024 69.1138 174.704 69.2243 174.377 69.2981C174.057 69.3718 173.668 69.4086 173.21 69.4086C172.612 69.4086 172.079 69.2817 171.613 69.0278C171.146 68.7739 170.781 68.3971 170.519 67.8975C170.257 67.3897 170.126 66.7672 170.126 66.0301C170.126 65.2847 170.245 64.6541 170.482 64.1381C170.72 63.6221 171.051 63.2289 171.477 62.9586C171.911 62.6801 172.411 62.5409 172.976 62.5409ZM172.976 63.5483C172.559 63.5483 172.223 63.6999 171.969 64.0029C171.715 64.306 171.567 64.736 171.527 65.2929H174.34C174.34 64.9489 174.291 64.6459 174.193 64.3838C174.094 64.1217 173.943 63.9169 173.738 63.7695C173.541 63.6221 173.287 63.5483 172.976 63.5483Z" fill="#464648"/>
<rect width="73.7143" height="86" transform="translate(181.6 1)" fill="#00875E"/>
<path fill-rule="evenodd" clip-rule="evenodd" d="M218.457 45.3163C226.648 45.3163 233.288 38.6764 233.288 30.4856C233.288 22.2949 226.648 15.655 218.457 15.655C210.266 15.655 203.627 22.2949 203.627 30.4856C203.627 38.6764 210.266 45.3163 218.457 45.3163ZM218.457 42.7713C225.242 42.7713 230.743 37.2708 230.743 30.4856C230.743 23.7003 225.242 18.1998 218.457 18.1998C211.672 18.1998 206.171 23.7003 206.171 30.4856C206.171 37.2708 211.672 42.7713 218.457 42.7713Z" fill="white"/>
<circle cx="218.457" cy="30.4858" r="9.00367" fill="#EA4343" stroke="white" stroke-width="0.245714"/>
<path d="M193.66 60.5138C194.365 60.5138 194.946 60.608 195.405 60.7963C195.864 60.9847 196.204 61.2673 196.425 61.6441C196.654 62.0126 196.769 62.4795 196.769 63.0446C196.769 63.4951 196.691 63.876 196.535 64.1872C196.388 64.4902 196.191 64.7401 195.946 64.9366C195.708 65.125 195.45 65.2765 195.172 65.3912L197.494 69.2858H195.946L193.992 65.7352H192.653V69.2858H191.289V60.5138H193.66ZM193.599 61.6441H192.653V64.6295H193.624C194.025 64.6295 194.353 64.5721 194.606 64.4575C194.869 64.3428 195.061 64.1708 195.184 63.9415C195.315 63.7121 195.38 63.4296 195.38 63.0938C195.38 62.7416 195.315 62.4631 195.184 62.2583C195.061 62.0454 194.864 61.8898 194.594 61.7915C194.332 61.6932 194 61.6441 193.599 61.6441ZM201.027 62.5409C201.576 62.5409 202.051 62.6638 202.452 62.9095C202.854 63.147 203.161 63.491 203.374 63.9415C203.595 64.392 203.705 64.9243 203.705 65.5386V66.2512H199.54C199.557 66.931 199.721 67.4511 200.032 67.8115C200.343 68.1719 200.781 68.3521 201.346 68.3521C201.748 68.3521 202.104 68.3152 202.415 68.2415C202.735 68.1596 203.058 68.0408 203.386 67.8852V68.9663C203.075 69.1138 202.755 69.2243 202.428 69.2981C202.108 69.3718 201.719 69.4086 201.26 69.4086C200.663 69.4086 200.13 69.2817 199.663 69.0278C199.196 68.7739 198.832 68.3971 198.57 67.8975C198.308 67.3897 198.177 66.7672 198.177 66.0301C198.177 65.2847 198.296 64.6541 198.533 64.1381C198.771 63.6221 199.102 63.2289 199.528 62.9586C199.962 62.6801 200.462 62.5409 201.027 62.5409ZM201.027 63.5483C200.609 63.5483 200.274 63.6999 200.02 64.0029C199.766 64.306 199.618 64.736 199.577 65.2929H202.391C202.391 64.9489 202.342 64.6459 202.243 64.3838C202.145 64.1217 201.994 63.9169 201.789 63.7695C201.592 63.6221 201.338 63.5483 201.027 63.5483ZM207.759 69.4086C207.178 69.4086 206.666 69.2899 206.224 69.0523C205.789 68.8148 205.45 68.4462 205.204 67.9466C204.966 67.4388 204.848 66.7959 204.848 66.0178C204.848 65.1987 204.979 64.5353 205.241 64.0275C205.503 63.5197 205.859 63.147 206.31 62.9095C206.76 62.6638 207.276 62.5409 207.858 62.5409C208.202 62.5409 208.529 62.5819 208.84 62.6638C209.16 62.7375 209.422 62.8235 209.627 62.9218L209.221 63.9661C209.016 63.8841 208.795 63.8104 208.558 63.7449C208.32 63.6794 208.095 63.6466 207.882 63.6466C207.505 63.6466 207.194 63.7367 206.948 63.9169C206.711 64.0889 206.531 64.351 206.408 64.7032C206.285 65.0472 206.224 65.4813 206.224 66.0055C206.224 66.5051 206.285 66.9269 206.408 67.2709C206.531 67.6149 206.711 67.877 206.948 68.0572C207.194 68.2292 207.489 68.3152 207.833 68.3152C208.169 68.3152 208.468 68.2742 208.73 68.1923C209 68.1104 209.25 68.004 209.479 67.8729V69.0032C209.25 69.1424 209 69.2448 208.73 69.3103C208.46 69.3759 208.136 69.4086 207.759 69.4086ZM216.48 65.9686C216.48 66.5174 216.41 67.0047 216.271 67.4306C216.132 67.8565 215.931 68.2169 215.669 68.5118C215.415 68.8066 215.104 69.0319 214.735 69.1875C214.367 69.3349 213.953 69.4086 213.494 69.4086C213.077 69.4086 212.688 69.3349 212.327 69.1875C211.967 69.0319 211.656 68.8066 211.394 68.5118C211.132 68.2169 210.927 67.8565 210.779 67.4306C210.64 67.0047 210.57 66.5133 210.57 65.9563C210.57 65.2274 210.689 64.609 210.927 64.1012C211.164 63.5934 211.504 63.2084 211.946 62.9463C212.397 62.6761 212.929 62.5409 213.544 62.5409C214.117 62.5409 214.625 62.6761 215.067 62.9463C215.509 63.2084 215.853 63.5934 216.099 64.1012C216.353 64.609 216.48 65.2315 216.48 65.9686ZM211.946 65.9686C211.946 66.4601 212 66.886 212.106 67.2463C212.221 67.5985 212.393 67.8688 212.622 68.0572C212.86 68.2456 213.159 68.3398 213.519 68.3398C213.888 68.3398 214.187 68.2456 214.416 68.0572C214.653 67.8688 214.825 67.5985 214.932 67.2463C215.047 66.886 215.104 66.4601 215.104 65.9686C215.104 65.4608 215.047 65.0349 214.932 64.6909C214.817 64.3469 214.645 64.0848 214.416 63.9046C214.187 63.7162 213.884 63.6221 213.507 63.6221C212.958 63.6221 212.561 63.8268 212.315 64.2363C212.069 64.6459 211.946 65.2233 211.946 65.9686ZM221.151 62.5409C221.257 62.5409 221.376 62.5491 221.507 62.5655C221.638 62.5737 221.748 62.586 221.839 62.6023L221.703 63.8186C221.613 63.7941 221.511 63.7736 221.396 63.7572C221.282 63.7408 221.167 63.7326 221.052 63.7326C220.831 63.7326 220.618 63.7818 220.413 63.8801C220.209 63.9701 220.024 64.1053 219.861 64.2855C219.697 64.4575 219.566 64.6704 219.467 64.9243C219.369 65.1782 219.32 65.469 219.32 65.7966V69.2858H217.993V62.6638H219.037L219.209 63.8432H219.283C219.406 63.6057 219.558 63.3886 219.738 63.1921C219.926 62.9955 220.139 62.8399 220.377 62.7252C220.614 62.6023 220.872 62.5409 221.151 62.5409ZM224.858 69.4086C224.121 69.4086 223.523 69.122 223.064 68.5486C222.613 67.9753 222.388 67.1235 222.388 65.9932C222.388 64.8547 222.618 63.9947 223.076 63.4132C223.535 62.8317 224.137 62.5409 224.882 62.5409C225.202 62.5409 225.476 62.586 225.705 62.6761C225.935 62.758 226.135 62.8726 226.307 63.0201C226.479 63.1675 226.623 63.3313 226.737 63.5115H226.811C226.795 63.3968 226.774 63.233 226.75 63.0201C226.733 62.7989 226.725 62.6023 226.725 62.4303V59.9486H228.052V69.2858H227.008L226.774 68.4012H226.725C226.61 68.5896 226.467 68.7616 226.295 68.9172C226.123 69.0646 225.918 69.1834 225.681 69.2735C225.451 69.3636 225.177 69.4086 224.858 69.4086ZM225.214 68.3398C225.787 68.3398 226.189 68.1637 226.418 67.8115C226.655 67.4511 226.774 66.9146 226.774 66.2021V66.0055C226.774 65.2274 226.664 64.6336 226.443 64.2241C226.221 63.8145 225.808 63.6098 225.202 63.6098C224.727 63.6098 224.366 63.8268 224.121 64.2609C223.875 64.6868 223.752 65.2724 223.752 66.0178C223.752 66.7631 223.875 67.3364 224.121 67.7378C224.366 68.1391 224.731 68.3398 225.214 68.3398ZM231.258 62.6638V69.2858H229.919V62.6638H231.258ZM230.607 60.1452C230.803 60.1452 230.975 60.2025 231.123 60.3172C231.27 60.4319 231.344 60.6243 231.344 60.8946C231.344 61.1567 231.27 61.3492 231.123 61.4721C230.975 61.5867 230.803 61.6441 230.607 61.6441C230.394 61.6441 230.214 61.5867 230.066 61.4721C229.919 61.3492 229.845 61.1567 229.845 60.8946C229.845 60.6243 229.919 60.4319 230.066 60.3172C230.214 60.2025 230.394 60.1452 230.607 60.1452ZM236.366 62.5409C237.087 62.5409 237.639 62.7334 238.024 63.1183C238.417 63.5033 238.614 64.1217 238.614 64.9735V69.2858H237.287V65.1578C237.287 64.6418 237.185 64.2568 236.98 64.0029C236.783 63.7408 236.476 63.6098 236.059 63.6098C235.444 63.6098 235.023 63.8104 234.793 64.2118C234.564 64.6131 234.449 65.1905 234.449 65.9441V69.2858H233.122V62.6638H234.167L234.351 63.5483H234.425C234.564 63.319 234.732 63.1306 234.928 62.9832C235.125 62.8358 235.346 62.7252 235.592 62.6515C235.837 62.5778 236.095 62.5409 236.366 62.5409ZM242.591 62.5409C242.992 62.5409 243.349 62.6228 243.66 62.7866C243.979 62.9504 244.25 63.2002 244.471 63.5361H244.52L244.667 62.6638H245.761V69.3718C245.761 69.9942 245.654 70.5184 245.441 70.9443C245.228 71.3702 244.905 71.6897 244.471 71.9026C244.037 72.1238 243.488 72.2343 242.824 72.2343C242.366 72.2343 241.948 72.2016 241.571 72.1361C241.203 72.0705 240.859 71.9681 240.539 71.8289V70.6863C240.752 70.801 240.982 70.8952 241.227 70.9689C241.473 71.0508 241.731 71.1081 242.001 71.1409C242.28 71.1819 242.566 71.2023 242.861 71.2023C243.369 71.2023 243.758 71.0467 244.028 70.7355C244.307 70.4324 244.446 70.0024 244.446 69.4455V69.2243C244.446 69.1179 244.45 68.9786 244.458 68.8066C244.467 68.6264 244.475 68.4954 244.483 68.4135H244.434C244.229 68.7575 243.971 69.0114 243.66 69.1752C243.357 69.3308 242.996 69.4086 242.579 69.4086C241.809 69.4086 241.203 69.1097 240.76 68.5118C240.318 67.9057 240.097 67.0661 240.097 65.9932C240.097 65.2724 240.195 64.6581 240.392 64.1503C240.597 63.6343 240.883 63.2371 241.252 62.9586C241.629 62.6801 242.075 62.5409 242.591 62.5409ZM242.91 63.6221C242.599 63.6221 242.337 63.7162 242.124 63.9046C241.911 64.0848 241.747 64.351 241.633 64.7032C241.526 65.0554 241.473 65.4895 241.473 66.0055C241.473 66.7754 241.596 67.361 241.842 67.7623C242.087 68.1637 242.448 68.3643 242.923 68.3643C243.201 68.3643 243.439 68.3234 243.635 68.2415C243.832 68.1596 243.992 68.0326 244.114 67.8606C244.245 67.6886 244.34 67.4716 244.397 67.2095C244.462 66.9392 244.495 66.6157 244.495 66.2389V65.9932C244.495 65.4281 244.438 64.9735 244.323 64.6295C244.217 64.2773 244.045 64.0234 243.807 63.8678C243.578 63.704 243.279 63.6221 242.91 63.6221Z" fill="white"/>
<path d="M263.532 60.5138C264.236 60.5138 264.826 60.5834 265.301 60.7226C265.776 60.8619 266.132 61.0953 266.37 61.4229C266.608 61.7423 266.726 62.1682 266.726 62.7006C266.726 63.0446 266.669 63.3518 266.554 63.6221C266.44 63.8841 266.272 64.1053 266.051 64.2855C265.829 64.4575 265.567 64.5721 265.264 64.6295V64.6909C265.576 64.7482 265.862 64.8547 266.124 65.0103C266.386 65.1578 266.591 65.3748 266.739 65.6615C266.894 65.9481 266.972 66.3208 266.972 66.7795C266.972 67.3119 266.853 67.7664 266.616 68.1432C266.378 68.5118 266.038 68.7943 265.596 68.9909C265.162 69.1875 264.642 69.2858 264.036 69.2858H261.05V60.5138H263.532ZM263.704 64.1749C264.326 64.1749 264.752 64.0643 264.982 63.8432C265.211 63.6221 265.326 63.2944 265.326 62.8603C265.326 62.4181 265.186 62.1027 264.908 61.9143C264.63 61.726 264.187 61.6318 263.581 61.6318H262.414V64.1749H263.704ZM262.414 65.2561V68.1801H263.839C264.478 68.1801 264.924 68.0408 265.178 67.7623C265.432 67.4839 265.559 67.1153 265.559 66.6566C265.559 66.3781 265.502 66.1324 265.387 65.9195C265.272 65.7065 265.084 65.5427 264.822 65.4281C264.568 65.3134 264.22 65.2561 263.778 65.2561H262.414ZM273.964 62.6638V69.2858H272.92L272.736 68.4135H272.662C272.539 68.6428 272.371 68.8312 272.158 68.9786C271.954 69.1261 271.728 69.2325 271.483 69.2981C271.237 69.3718 270.983 69.4086 270.721 69.4086C270.238 69.4086 269.828 69.3267 269.492 69.1629C269.165 68.9909 268.911 68.7288 268.731 68.3766C268.559 68.0162 268.473 67.5576 268.473 67.0006V62.6638H269.812V66.8041C269.812 67.3201 269.91 67.705 270.107 67.9589C270.303 68.2128 270.61 68.3398 271.028 68.3398C271.438 68.3398 271.757 68.2497 271.986 68.0695C272.224 67.8893 272.392 67.6272 272.49 67.2832C272.588 66.931 272.637 66.5092 272.637 66.0178V62.6638H273.964ZM278.986 62.5409C279.092 62.5409 279.211 62.5491 279.342 62.5655C279.473 62.5737 279.584 62.586 279.674 62.6023L279.539 63.8186C279.449 63.7941 279.346 63.7736 279.232 63.7572C279.117 63.7408 279.002 63.7326 278.888 63.7326C278.666 63.7326 278.453 63.7818 278.249 63.8801C278.044 63.9701 277.86 64.1053 277.696 64.2855C277.532 64.4575 277.401 64.6704 277.303 64.9243C277.204 65.1782 277.155 65.469 277.155 65.7966V69.2858H275.828V62.6638H276.873L277.045 63.8432H277.118C277.241 63.6057 277.393 63.3886 277.573 63.1921C277.761 62.9955 277.974 62.8399 278.212 62.7252C278.449 62.6023 278.707 62.5409 278.986 62.5409ZM285.009 67.4183C285.009 67.8524 284.911 68.2169 284.715 68.5118C284.518 68.8066 284.231 69.0319 283.855 69.1875C283.478 69.3349 283.015 69.4086 282.466 69.4086C282.032 69.4086 281.651 69.3718 281.324 69.2981C281.004 69.2325 280.709 69.1342 280.439 69.0032V67.8606C280.726 67.9999 281.053 68.1268 281.422 68.2415C281.791 68.348 282.143 68.4012 282.479 68.4012C282.913 68.4012 283.228 68.3234 283.425 68.1678C283.621 68.0121 283.719 67.8033 283.719 67.5412C283.719 67.3938 283.678 67.2627 283.597 67.1481C283.523 67.0252 283.38 66.9023 283.167 66.7795C282.954 66.6484 282.646 66.501 282.245 66.3372C281.852 66.1652 281.52 65.9973 281.25 65.8335C280.988 65.6615 280.783 65.4608 280.636 65.2315C280.496 64.994 280.427 64.6909 280.427 64.3223C280.427 63.749 280.648 63.3108 281.09 63.0078C281.533 62.6965 282.11 62.5409 282.823 62.5409C283.216 62.5409 283.58 62.5819 283.916 62.6638C284.252 62.7375 284.579 62.8521 284.899 63.0078L284.493 64.0029C284.305 63.9128 284.113 63.8391 283.916 63.7818C283.728 63.7162 283.539 63.663 283.351 63.6221C283.162 63.5811 282.974 63.5606 282.786 63.5606C282.434 63.5606 282.167 63.6221 281.987 63.7449C281.807 63.8678 281.717 64.0398 281.717 64.2609C281.717 64.4247 281.758 64.564 281.84 64.6786C281.93 64.7933 282.081 64.908 282.294 65.0226C282.515 65.1373 282.818 65.2724 283.203 65.4281C283.588 65.5837 283.916 65.7434 284.186 65.9072C284.457 66.071 284.661 66.2717 284.801 66.5092C284.94 66.7467 285.009 67.0498 285.009 67.4183ZM288.781 68.3521C288.953 68.3521 289.121 68.3357 289.285 68.3029C289.448 68.2701 289.592 68.2333 289.715 68.1923V69.1752C289.575 69.2407 289.391 69.294 289.162 69.3349C288.941 69.3841 288.707 69.4086 288.462 69.4086C288.118 69.4086 287.802 69.3472 287.516 69.2243C287.229 69.1015 287 68.8885 286.828 68.5855C286.656 68.2824 286.57 67.8606 286.57 67.3201V63.6589H285.722V63.0692L286.631 62.5778L287.086 61.1772H287.909V62.6638H289.666V63.6589H287.909V67.2955C287.909 67.6559 287.991 67.9221 288.154 68.0941C288.318 68.2661 288.527 68.3521 288.781 68.3521ZM300.223 60.5138L297.336 69.2858H295.886L293.011 60.5138H294.449L296.132 66.0178C296.197 66.2143 296.259 66.4273 296.316 66.6566C296.382 66.8778 296.439 67.0989 296.488 67.3201C296.545 67.5412 296.586 67.7501 296.611 67.9466C296.644 67.7501 296.685 67.5412 296.734 67.3201C296.783 67.0989 296.84 66.8778 296.906 66.6566C296.971 66.4273 297.033 66.2102 297.09 66.0055L298.773 60.5138H300.223ZM302.495 62.6638V69.2858H301.156V62.6638H302.495ZM301.844 60.1452C302.04 60.1452 302.212 60.2025 302.36 60.3172C302.507 60.4319 302.581 60.6243 302.581 60.8946C302.581 61.1567 302.507 61.3492 302.36 61.4721C302.212 61.5867 302.04 61.6441 301.844 61.6441C301.631 61.6441 301.451 61.5867 301.303 61.4721C301.156 61.3492 301.082 61.1567 301.082 60.8946C301.082 60.6243 301.156 60.4319 301.303 60.3172C301.451 60.2025 301.631 60.1452 301.844 60.1452ZM306.484 69.4086C305.747 69.4086 305.149 69.122 304.691 68.5486C304.24 67.9753 304.015 67.1235 304.015 65.9932C304.015 64.8547 304.244 63.9947 304.703 63.4132C305.162 62.8317 305.764 62.5409 306.509 62.5409C306.828 62.5409 307.103 62.586 307.332 62.6761C307.562 62.758 307.762 62.8726 307.934 63.0201C308.106 63.1675 308.25 63.3313 308.364 63.5115H308.438C308.422 63.3968 308.401 63.233 308.376 63.0201C308.36 62.7989 308.352 62.6023 308.352 62.4303V59.9486H309.679V69.2858H308.634L308.401 68.4012H308.352C308.237 68.5896 308.094 68.7616 307.922 68.9172C307.75 69.0646 307.545 69.1834 307.308 69.2735C307.078 69.3636 306.804 69.4086 306.484 69.4086ZM306.841 68.3398C307.414 68.3398 307.815 68.1637 308.045 67.8115C308.282 67.4511 308.401 66.9146 308.401 66.2021V66.0055C308.401 65.2274 308.29 64.6336 308.069 64.2241C307.848 63.8145 307.435 63.6098 306.828 63.6098C306.353 63.6098 305.993 63.8268 305.747 64.2609C305.502 64.6868 305.379 65.2724 305.379 66.0178C305.379 66.7631 305.502 67.3364 305.747 67.7378C305.993 68.1391 306.358 68.3398 306.841 68.3398ZM314.052 62.5409C314.601 62.5409 315.076 62.6638 315.477 62.9095C315.878 63.147 316.186 63.491 316.399 63.9415C316.62 64.392 316.73 64.9243 316.73 65.5386V66.2512H312.565C312.582 66.931 312.746 67.4511 313.057 67.8115C313.368 68.1719 313.806 68.3521 314.371 68.3521C314.773 68.3521 315.129 68.3152 315.44 68.2415C315.76 68.1596 316.083 68.0408 316.411 67.8852V68.9663C316.1 69.1138 315.78 69.2243 315.453 69.2981C315.133 69.3718 314.744 69.4086 314.285 69.4086C313.688 69.4086 313.155 69.2817 312.688 69.0278C312.221 68.7739 311.857 68.3971 311.595 67.8975C311.333 67.3897 311.202 66.7672 311.202 66.0301C311.202 65.2847 311.32 64.6541 311.558 64.1381C311.796 63.6221 312.127 63.2289 312.553 62.9586C312.987 62.6801 313.487 62.5409 314.052 62.5409ZM314.052 63.5483C313.634 63.5483 313.298 63.6999 313.045 64.0029C312.791 64.306 312.643 64.736 312.602 65.2929H315.416C315.416 64.9489 315.367 64.6459 315.268 64.3838C315.17 64.1217 315.018 63.9169 314.814 63.7695C314.617 63.6221 314.363 63.5483 314.052 63.5483ZM323.782 65.9686C323.782 66.5174 323.712 67.0047 323.573 67.4306C323.434 67.8565 323.233 68.2169 322.971 68.5118C322.717 68.8066 322.406 69.0319 322.037 69.1875C321.669 69.3349 321.255 69.4086 320.796 69.4086C320.379 69.4086 319.99 69.3349 319.629 69.1875C319.269 69.0319 318.958 68.8066 318.696 68.5118C318.434 68.2169 318.229 67.8565 318.081 67.4306C317.942 67.0047 317.872 66.5133 317.872 65.9563C317.872 65.2274 317.991 64.609 318.229 64.1012C318.466 63.5934 318.806 63.2084 319.248 62.9463C319.699 62.6761 320.231 62.5409 320.846 62.5409C321.419 62.5409 321.927 62.6761 322.369 62.9463C322.811 63.2084 323.155 63.5934 323.401 64.1012C323.655 64.609 323.782 65.2315 323.782 65.9686ZM319.248 65.9686C319.248 66.4601 319.302 66.886 319.408 67.2463C319.523 67.5985 319.695 67.8688 319.924 68.0572C320.162 68.2456 320.461 68.3398 320.821 68.3398C321.19 68.3398 321.489 68.2456 321.718 68.0572C321.955 67.8688 322.127 67.5985 322.234 67.2463C322.349 66.886 322.406 66.4601 322.406 65.9686C322.406 65.4608 322.349 65.0349 322.234 64.6909C322.119 64.3469 321.947 64.0848 321.718 63.9046C321.489 63.7162 321.186 63.6221 320.809 63.6221C320.26 63.6221 319.863 63.8268 319.617 64.2363C319.371 64.6459 319.248 65.2233 319.248 65.9686Z" fill="#464648"/>
<g clip-path="url(#clip1_1974_42406)">
<path d="M301.569 18.5071H282.774C281.351 18.5071 280.193 19.6651 280.193 21.0884V39.8829C280.193 41.3063 281.351 42.4642 282.774 42.4642H301.569C302.992 42.4642 304.15 41.3063 304.15 39.8829V21.0884C304.15 19.6651 302.992 18.5071 301.569 18.5071V18.5071ZM292.171 36.8259C288.675 36.8259 285.831 33.9817 285.831 30.4857C285.831 26.9896 288.675 24.1454 292.171 24.1454C295.667 24.1454 298.512 26.9896 298.512 30.4857C298.512 33.9817 295.667 36.8259 292.171 36.8259Z" fill="#464648"/>
<path d="M292.171 27.4911C290.52 27.4911 289.177 28.8345 289.177 30.4857C289.177 32.137 290.52 33.4804 292.171 33.4804C293.823 33.4804 295.166 32.137 295.166 30.4857C295.166 28.8345 293.823 27.4911 292.171 27.4911Z" fill="#464648"/>
</g>
<path d="M377.236 36.1234L373.886 32.7731C372.689 31.5765 370.655 32.0552 370.176 33.6107C369.818 34.6876 368.621 35.2859 367.544 35.0465C365.151 34.4482 361.92 31.3372 361.322 28.8245C360.963 27.7475 361.681 26.551 362.758 26.1921C364.313 25.7135 364.792 23.6793 363.595 22.4828L360.245 19.1325C359.288 18.2949 357.852 18.2949 357.014 19.1325L354.741 21.4059C352.468 23.799 354.98 30.1407 360.604 35.7644C366.228 41.3882 372.57 44.0206 374.963 41.6275L377.236 39.3541C378.074 38.3968 378.074 36.961 377.236 36.1234Z" fill="#464648"/>
<path d="M357.482 61.5335C357.088 61.5335 356.732 61.6113 356.413 61.7669C356.102 61.9143 355.835 62.1355 355.614 62.4303C355.401 62.7252 355.237 63.0815 355.123 63.4992C355.008 63.9169 354.951 64.3879 354.951 64.9121C354.951 65.6001 355.045 66.198 355.233 66.7058C355.422 67.2054 355.704 67.5903 356.081 67.8606C356.458 68.1309 356.925 68.2661 357.482 68.2661C357.842 68.2661 358.186 68.2333 358.514 68.1678C358.841 68.0941 359.173 67.9999 359.509 67.8852V69.0278C359.181 69.1588 358.845 69.253 358.501 69.3103C358.166 69.3759 357.772 69.4086 357.322 69.4086C356.47 69.4086 355.766 69.2243 355.209 68.8558C354.652 68.4872 354.234 67.963 353.956 67.2832C353.677 66.6034 353.538 65.8089 353.538 64.8998C353.538 64.2363 353.624 63.6302 353.796 63.0815C353.968 62.5245 354.222 62.0454 354.558 61.6441C354.893 61.2427 355.307 60.9356 355.798 60.7226C356.29 60.5015 356.851 60.3909 357.482 60.3909C357.908 60.3909 358.325 60.4401 358.735 60.5383C359.144 60.6284 359.509 60.7595 359.828 60.9315L359.349 62.0372C359.079 61.9061 358.784 61.7915 358.464 61.6932C358.153 61.5867 357.826 61.5335 357.482 61.5335ZM363.633 62.5409C364.411 62.5409 364.997 62.7252 365.39 63.0938C365.791 63.4541 365.992 64.0234 365.992 64.8015V69.2858H365.046L364.788 68.3643H364.739C364.55 68.6019 364.362 68.7984 364.173 68.9541C363.993 69.1097 363.78 69.2243 363.535 69.2981C363.297 69.3718 363.002 69.4086 362.65 69.4086C362.281 69.4086 361.95 69.339 361.655 69.1998C361.36 69.0523 361.127 68.8312 360.955 68.5363C360.783 68.2333 360.697 67.8565 360.697 67.4061C360.697 66.7344 360.934 66.2225 361.409 65.8703C361.892 65.5181 362.625 65.3257 363.608 65.2929L364.665 65.2561V64.8875C364.665 64.3961 364.562 64.0521 364.358 63.8555C364.161 63.6589 363.883 63.5606 363.522 63.5606C363.219 63.5606 362.92 63.6098 362.625 63.7081C362.331 63.8063 362.044 63.9251 361.765 64.0643L361.36 63.1183C361.663 62.9545 362.007 62.8194 362.392 62.7129C362.785 62.5982 363.199 62.5409 363.633 62.5409ZM363.866 66.1283C363.195 66.1611 362.728 66.2881 362.466 66.5092C362.204 66.7221 362.073 67.0252 362.073 67.4183C362.073 67.7623 362.163 68.0121 362.343 68.1678C362.531 68.3234 362.773 68.4012 363.068 68.4012C363.518 68.4012 363.895 68.2579 364.198 67.9712C364.509 67.6845 364.665 67.2545 364.665 66.6812V66.1038L363.866 66.1283ZM369.148 69.2858H367.821V59.9486H369.148V69.2858ZM372.34 69.2858H371.013V59.9486H372.34V69.2858ZM378.418 67.4183C378.418 67.8524 378.32 68.2169 378.123 68.5118C377.927 68.8066 377.64 69.0319 377.263 69.1875C376.886 69.3349 376.424 69.4086 375.875 69.4086C375.441 69.4086 375.06 69.3718 374.732 69.2981C374.413 69.2325 374.118 69.1342 373.848 69.0032V67.8606C374.134 67.9999 374.462 68.1268 374.831 68.2415C375.199 68.348 375.551 68.4012 375.887 68.4012C376.321 68.4012 376.637 68.3234 376.833 68.1678C377.03 68.0121 377.128 67.8033 377.128 67.5412C377.128 67.3938 377.087 67.2627 377.005 67.1481C376.932 67.0252 376.788 66.9023 376.575 66.7795C376.362 66.6484 376.055 66.501 375.654 66.3372C375.261 66.1652 374.929 65.9973 374.659 65.8335C374.397 65.6615 374.192 65.4608 374.044 65.2315C373.905 64.994 373.836 64.6909 373.836 64.3223C373.836 63.749 374.057 63.3108 374.499 63.0078C374.941 62.6965 375.519 62.5409 376.231 62.5409C376.624 62.5409 376.989 62.5819 377.325 62.6638C377.66 62.7375 377.988 62.8521 378.308 63.0078L377.902 64.0029C377.714 63.9128 377.521 63.8391 377.325 63.7818C377.136 63.7162 376.948 63.663 376.76 63.6221C376.571 63.5811 376.383 63.5606 376.194 63.5606C375.842 63.5606 375.576 63.6221 375.396 63.7449C375.216 63.8678 375.126 64.0398 375.126 64.2609C375.126 64.4247 375.166 64.564 375.248 64.6786C375.338 64.7933 375.49 64.908 375.703 65.0226C375.924 65.1373 376.227 65.2724 376.612 65.4281C376.997 65.5837 377.325 65.7434 377.595 65.9072C377.865 66.071 378.07 66.2717 378.209 66.5092C378.348 66.7467 378.418 67.0498 378.418 67.4183Z" fill="#464648"/>
<path d="M439.473 46.4571C447.536 46.4571 454.191 39.8735 454.191 31.8971C454.191 27.3533 451.902 23.0486 448.46 20.4883C447.692 19.8693 446.754 19.9819 446.285 20.643C445.773 21.3324 446 22.1623 446.654 22.7391C449.456 24.8633 451.233 28.1411 451.248 31.8971C451.262 38.3542 446 43.5451 439.473 43.5451C432.946 43.5451 427.727 38.3542 427.727 31.8971C427.727 26.4389 431.453 21.8951 436.544 20.6149V22.6547C436.544 23.7379 437.354 24.0333 438.236 23.4003L443.042 20.0381C443.753 19.5176 443.768 18.7298 443.042 18.2234L438.25 14.8472C437.354 14.2141 436.544 14.4955 436.544 15.5928V17.6466C429.86 19.0112 424.769 24.9196 424.769 31.8971C424.769 39.8735 431.425 46.4571 439.473 46.4571Z" fill="#464648"/>
<path fill-rule="evenodd" clip-rule="evenodd" d="M437.126 35.2649C434.612 35.3917 432.755 37.7716 432.755 40.4859V42.3078C432.755 42.6786 439.315 44.6448 439.684 44.6448L445.945 42.9792C446.314 42.9792 446.614 42.6786 446.614 42.3078V40.4859C446.614 37.7716 444.757 35.3917 442.243 35.2649C441.474 35.6532 440.605 35.8719 439.684 35.8719C438.764 35.8719 437.895 35.6532 437.126 35.2649ZM443.79 31.3422C443.286 33.1356 441.639 34.4505 439.684 34.4505C437.73 34.4505 436.083 33.1361 435.579 31.3433C435.487 30.9901 435.438 30.6195 435.438 30.2377C435.438 27.8635 437.33 25.9224 439.684 25.9224C442.039 25.9224 443.931 27.8635 443.931 30.2377C443.931 30.6191 443.882 30.9894 443.79 31.3422Z" fill="#464648"/>
<path d="M415.023 66.9146C415.023 67.4388 414.904 67.8852 414.666 68.2538C414.429 68.6223 414.089 68.909 413.647 69.1138C413.204 69.3103 412.664 69.4086 412.025 69.4086C411.714 69.4086 411.415 69.3881 411.128 69.3472C410.85 69.3144 410.592 69.2653 410.354 69.1998C410.125 69.1342 409.908 69.0523 409.703 68.9541V67.7009C410.03 67.8483 410.403 67.9835 410.821 68.1063C411.247 68.221 411.669 68.2783 412.086 68.2783C412.447 68.2783 412.742 68.2251 412.971 68.1186C413.208 68.0121 413.384 67.8647 413.499 67.6763C413.622 67.488 413.683 67.2668 413.683 67.0129C413.683 66.7426 413.622 66.5174 413.499 66.3372C413.384 66.1488 413.192 65.9768 412.922 65.8212C412.66 65.6574 412.307 65.4895 411.865 65.3175C411.554 65.1864 411.271 65.0472 411.017 64.8998C410.764 64.7441 410.542 64.564 410.354 64.3592C410.174 64.1544 410.035 63.9169 409.936 63.6466C409.846 63.3763 409.801 63.061 409.801 62.7006C409.801 62.2174 409.916 61.8038 410.145 61.4598C410.374 61.1158 410.694 60.8537 411.103 60.6735C411.513 60.4851 411.992 60.3909 412.541 60.3909C413 60.3909 413.421 60.4401 413.806 60.5383C414.191 60.6284 414.556 60.7554 414.9 60.9192L414.47 62.0126C414.15 61.8734 413.827 61.7587 413.499 61.6686C413.18 61.5785 412.848 61.5335 412.504 61.5335C412.201 61.5335 411.947 61.5826 411.742 61.6809C411.546 61.7792 411.398 61.9143 411.3 62.0863C411.202 62.2583 411.153 62.459 411.153 62.6883C411.153 62.9586 411.21 63.1839 411.325 63.3641C411.439 63.5442 411.624 63.7121 411.877 63.8678C412.131 64.0152 412.467 64.179 412.885 64.3592C413.344 64.5558 413.733 64.7646 414.052 64.9858C414.371 65.1987 414.613 65.4608 414.777 65.7721C414.941 66.0751 415.023 66.456 415.023 66.9146ZM418.985 62.5409C419.533 62.5409 420.008 62.6638 420.41 62.9095C420.811 63.147 421.118 63.491 421.331 63.9415C421.552 64.392 421.663 64.9243 421.663 65.5386V66.2512H417.498C417.514 66.931 417.678 67.4511 417.989 67.8115C418.301 68.1719 418.739 68.3521 419.304 68.3521C419.705 68.3521 420.062 68.3152 420.373 68.2415C420.692 68.1596 421.016 68.0408 421.343 67.8852V68.9663C421.032 69.1138 420.713 69.2243 420.385 69.2981C420.066 69.3718 419.677 69.4086 419.218 69.4086C418.62 69.4086 418.088 69.2817 417.621 69.0278C417.154 68.7739 416.789 68.3971 416.527 67.8975C416.265 67.3897 416.134 66.7672 416.134 66.0301C416.134 65.2847 416.253 64.6541 416.491 64.1381C416.728 63.6221 417.06 63.2289 417.486 62.9586C417.92 62.6801 418.419 62.5409 418.985 62.5409ZM418.985 63.5483C418.567 63.5483 418.231 63.6999 417.977 64.0029C417.723 64.306 417.576 64.736 417.535 65.2929H420.348C420.348 64.9489 420.299 64.6459 420.201 64.3838C420.103 64.1217 419.951 63.9169 419.746 63.7695C419.55 63.6221 419.296 63.5483 418.985 63.5483ZM424.476 69.2858H423.149V59.9486H424.476V69.2858ZM429.473 63.6589H427.962V69.2858H426.623V63.6589H425.603V63.0446L426.623 62.6392V62.2215C426.623 61.6563 426.701 61.2059 426.856 60.8701C427.02 60.5261 427.258 60.2762 427.569 60.1206C427.88 59.965 428.261 59.8872 428.712 59.8872C428.982 59.8872 429.232 59.9118 429.461 59.9609C429.69 60.0101 429.891 60.0633 430.063 60.1206L429.731 61.1158C429.608 61.0748 429.465 61.038 429.301 61.0052C429.146 60.9642 428.986 60.9438 428.822 60.9438C428.527 60.9438 428.31 61.0502 428.171 61.2632C428.032 61.4761 427.962 61.7997 427.962 62.2338V62.6638H429.473V63.6589ZM431.869 62.6638V69.2858H430.53V62.6638H431.869ZM431.218 60.1452C431.414 60.1452 431.586 60.2025 431.734 60.3172C431.881 60.4319 431.955 60.6243 431.955 60.8946C431.955 61.1567 431.881 61.3492 431.734 61.4721C431.586 61.5867 431.414 61.6441 431.218 61.6441C431.005 61.6441 430.825 61.5867 430.677 61.4721C430.53 61.3492 430.456 61.1567 430.456 60.8946C430.456 60.6243 430.53 60.4319 430.677 60.3172C430.825 60.2025 431.005 60.1452 431.218 60.1452ZM436.237 62.5409C436.786 62.5409 437.261 62.6638 437.662 62.9095C438.064 63.147 438.371 63.491 438.584 63.9415C438.805 64.392 438.916 64.9243 438.916 65.5386V66.2512H434.751C434.767 66.931 434.931 67.4511 435.242 67.8115C435.553 68.1719 435.992 68.3521 436.557 68.3521C436.958 68.3521 437.314 68.3152 437.626 68.2415C437.945 68.1596 438.269 68.0408 438.596 67.8852V68.9663C438.285 69.1138 437.965 69.2243 437.638 69.2981C437.318 69.3718 436.929 69.4086 436.471 69.4086C435.873 69.4086 435.34 69.2817 434.874 69.0278C434.407 68.7739 434.042 68.3971 433.78 67.8975C433.518 67.3897 433.387 66.7672 433.387 66.0301C433.387 65.2847 433.506 64.6541 433.743 64.1381C433.981 63.6221 434.313 63.2289 434.738 62.9586C435.173 62.6801 435.672 62.5409 436.237 62.5409ZM436.237 63.5483C435.82 63.5483 435.484 63.6999 435.23 64.0029C434.976 64.306 434.829 64.736 434.788 65.2929H437.601C437.601 64.9489 437.552 64.6459 437.454 64.3838C437.355 64.1217 437.204 63.9169 436.999 63.7695C436.802 63.6221 436.549 63.5483 436.237 63.5483ZM443.536 69.2858V60.5138H444.9V68.1432H448.389V69.2858H443.536ZM455.217 65.9686C455.217 66.5174 455.148 67.0047 455.009 67.4306C454.869 67.8565 454.669 68.2169 454.407 68.5118C454.153 68.8066 453.841 69.0319 453.473 69.1875C453.104 69.3349 452.691 69.4086 452.232 69.4086C451.814 69.4086 451.425 69.3349 451.065 69.1875C450.705 69.0319 450.393 68.8066 450.131 68.5118C449.869 68.2169 449.664 67.8565 449.517 67.4306C449.378 67.0047 449.308 66.5133 449.308 65.9563C449.308 65.2274 449.427 64.609 449.664 64.1012C449.902 63.5934 450.242 63.2084 450.684 62.9463C451.135 62.6761 451.667 62.5409 452.281 62.5409C452.855 62.5409 453.362 62.6761 453.805 62.9463C454.247 63.2084 454.591 63.5934 454.837 64.1012C455.091 64.609 455.217 65.2315 455.217 65.9686ZM450.684 65.9686C450.684 66.4601 450.737 66.886 450.844 67.2463C450.958 67.5985 451.13 67.8688 451.36 68.0572C451.597 68.2456 451.896 68.3398 452.257 68.3398C452.625 68.3398 452.924 68.2456 453.153 68.0572C453.391 67.8688 453.563 67.5985 453.669 67.2463C453.784 66.886 453.841 66.4601 453.841 65.9686C453.841 65.4608 453.784 65.0349 453.669 64.6909C453.555 64.3469 453.383 64.0848 453.153 63.9046C452.924 63.7162 452.621 63.6221 452.244 63.6221C451.696 63.6221 451.298 63.8268 451.053 64.2363C450.807 64.6459 450.684 65.2233 450.684 65.9686ZM462.296 65.9686C462.296 66.5174 462.227 67.0047 462.087 67.4306C461.948 67.8565 461.747 68.2169 461.485 68.5118C461.231 68.8066 460.92 69.0319 460.552 69.1875C460.183 69.3349 459.769 69.4086 459.311 69.4086C458.893 69.4086 458.504 69.3349 458.144 69.1875C457.783 69.0319 457.472 68.8066 457.21 68.5118C456.948 68.2169 456.743 67.8565 456.596 67.4306C456.456 67.0047 456.387 66.5133 456.387 65.9563C456.387 65.2274 456.506 64.609 456.743 64.1012C456.981 63.5934 457.32 63.2084 457.763 62.9463C458.213 62.6761 458.746 62.5409 459.36 62.5409C459.933 62.5409 460.441 62.6761 460.883 62.9463C461.326 63.2084 461.67 63.5934 461.915 64.1012C462.169 64.609 462.296 65.2315 462.296 65.9686ZM457.763 65.9686C457.763 66.4601 457.816 66.886 457.922 67.2463C458.037 67.5985 458.209 67.8688 458.438 68.0572C458.676 68.2456 458.975 68.3398 459.335 68.3398C459.704 68.3398 460.003 68.2456 460.232 68.0572C460.47 67.8688 460.642 67.5985 460.748 67.2463C460.863 66.886 460.92 66.4601 460.92 65.9686C460.92 65.4608 460.863 65.0349 460.748 64.6909C460.634 64.3469 460.462 64.0848 460.232 63.9046C460.003 63.7162 459.7 63.6221 459.323 63.6221C458.774 63.6221 458.377 63.8268 458.131 64.2363C457.886 64.6459 457.763 65.2233 457.763 65.9686ZM467.004 62.5409C467.749 62.5409 468.347 62.8276 468.797 63.4009C469.248 63.9742 469.473 64.8301 469.473 65.9686C469.473 66.714 469.367 67.3446 469.154 67.8606C468.949 68.3766 468.658 68.7657 468.281 69.0278C467.905 69.2817 467.466 69.4086 466.967 69.4086C466.664 69.4086 466.394 69.3677 466.156 69.2858C465.918 69.1957 465.718 69.081 465.554 68.9418C465.398 68.7943 465.259 68.6387 465.136 68.4749H465.063C465.079 68.6223 465.095 68.7984 465.112 69.0032C465.128 69.1998 465.136 69.3759 465.136 69.5315V72.2343H463.809V62.6638H464.891L465.075 63.5483H465.136C465.259 63.3681 465.402 63.2002 465.566 63.0446C465.738 62.889 465.939 62.7661 466.168 62.6761C466.406 62.586 466.684 62.5409 467.004 62.5409ZM466.647 63.6098C466.287 63.6098 465.996 63.6917 465.775 63.8555C465.554 64.0111 465.39 64.2486 465.284 64.5681C465.185 64.8793 465.136 65.2765 465.136 65.7598V65.9563C465.136 66.4641 465.181 66.8982 465.271 67.2586C465.37 67.6108 465.529 67.8811 465.751 68.0695C465.98 68.2497 466.287 68.3398 466.672 68.3398C467 68.3398 467.27 68.2415 467.483 68.0449C467.696 67.8401 467.851 67.5576 467.95 67.1972C468.056 66.8368 468.109 66.4191 468.109 65.9441C468.109 65.2233 467.987 64.6541 467.741 64.2363C467.503 63.8186 467.139 63.6098 466.647 63.6098Z" fill="#464648"/>
<path d="M520.179 18.5071H500.204C498.005 18.5071 496.217 20.2587 496.217 22.4118V35.6138C496.217 37.7669 498.005 39.5185 500.204 39.5185H501.769L501.799 42.9657C501.802 43.2834 501.988 43.5721 502.28 43.711C502.399 43.7674 502.527 43.7952 502.654 43.7952C502.839 43.7952 503.023 43.7361 503.176 43.6209L508.603 39.5186H520.179C522.378 39.5186 524.167 37.767 524.167 35.6139V22.4118C524.167 20.2587 522.378 18.5071 520.179 18.5071Z" fill="#464648"/>
<path d="M501.935 61.5335C501.542 61.5335 501.185 61.6113 500.866 61.7669C500.555 61.9143 500.288 62.1355 500.067 62.4303C499.854 62.7252 499.691 63.0815 499.576 63.4992C499.461 63.9169 499.404 64.3879 499.404 64.9121C499.404 65.6001 499.498 66.198 499.686 66.7058C499.875 67.2054 500.157 67.5903 500.534 67.8606C500.911 68.1309 501.378 68.2661 501.935 68.2661C502.295 68.2661 502.639 68.2333 502.967 68.1678C503.294 68.0941 503.626 67.9999 503.962 67.8852V69.0278C503.634 69.1588 503.298 69.253 502.954 69.3103C502.619 69.3759 502.225 69.4086 501.775 69.4086C500.923 69.4086 500.219 69.2243 499.662 68.8558C499.105 68.4872 498.687 67.963 498.409 67.2832C498.13 66.6034 497.991 65.8089 497.991 64.8998C497.991 64.2363 498.077 63.6302 498.249 63.0815C498.421 62.5245 498.675 62.0454 499.011 61.6441C499.347 61.2427 499.76 60.9356 500.252 60.7226C500.743 60.5015 501.304 60.3909 501.935 60.3909C502.361 60.3909 502.778 60.4401 503.188 60.5383C503.597 60.6284 503.962 60.7595 504.281 60.9315L503.802 62.0372C503.532 61.9061 503.237 61.7915 502.918 61.6932C502.606 61.5867 502.279 61.5335 501.935 61.5335ZM506.907 62.4426C506.907 62.6474 506.898 62.8521 506.882 63.0569C506.874 63.2617 506.861 63.4296 506.845 63.5606H506.919C507.05 63.3313 507.21 63.1429 507.398 62.9955C507.595 62.8481 507.812 62.7375 508.049 62.6638C508.295 62.5901 508.545 62.5532 508.799 62.5532C509.282 62.5532 509.691 62.6392 510.027 62.8112C510.371 62.975 510.629 63.2371 510.801 63.5975C510.981 63.9497 511.071 64.4083 511.071 64.9735V69.2858H509.732V65.1578C509.732 64.6418 509.634 64.2568 509.437 64.0029C509.241 63.7408 508.934 63.6098 508.516 63.6098C508.115 63.6098 507.795 63.6999 507.558 63.8801C507.32 64.0602 507.152 64.3264 507.054 64.6786C506.956 65.0226 506.907 65.4485 506.907 65.9563V69.2858H505.58V59.9486H506.907V62.4426ZM515.405 62.5409C516.183 62.5409 516.768 62.7252 517.161 63.0938C517.563 63.4541 517.763 64.0234 517.763 64.8015V69.2858H516.817L516.559 68.3643H516.51C516.322 68.6019 516.134 68.7984 515.945 68.9541C515.765 69.1097 515.552 69.2243 515.306 69.2981C515.069 69.3718 514.774 69.4086 514.422 69.4086C514.053 69.4086 513.721 69.339 513.427 69.1998C513.132 69.0523 512.898 68.8312 512.726 68.5363C512.554 68.2333 512.468 67.8565 512.468 67.4061C512.468 66.7344 512.706 66.2225 513.181 65.8703C513.664 65.5181 514.397 65.3257 515.38 65.2929L516.437 65.2561V64.8875C516.437 64.3961 516.334 64.0521 516.129 63.8555C515.933 63.6589 515.654 63.5606 515.294 63.5606C514.991 63.5606 514.692 63.6098 514.397 63.7081C514.102 63.8063 513.816 63.9251 513.537 64.0643L513.132 63.1183C513.435 62.9545 513.779 62.8194 514.164 62.7129C514.557 62.5982 514.97 62.5409 515.405 62.5409ZM515.638 66.1283C514.966 66.1611 514.5 66.2881 514.237 66.5092C513.975 66.7221 513.844 67.0252 513.844 67.4183C513.844 67.7623 513.934 68.0121 514.115 68.1678C514.303 68.3234 514.545 68.4012 514.839 68.4012C515.29 68.4012 515.667 68.2579 515.97 67.9712C516.281 67.6845 516.437 67.2545 516.437 66.6812V66.1038L515.638 66.1283ZM521.94 68.3521C522.112 68.3521 522.28 68.3357 522.443 68.3029C522.607 68.2701 522.75 68.2333 522.873 68.1923V69.1752C522.734 69.2407 522.55 69.294 522.32 69.3349C522.099 69.3841 521.866 69.4086 521.62 69.4086C521.276 69.4086 520.961 69.3472 520.674 69.2243C520.388 69.1015 520.158 68.8885 519.986 68.5855C519.814 68.2824 519.728 67.8606 519.728 67.3201V63.6589H518.88V63.0692L519.79 62.5778L520.244 61.1772H521.067V62.6638H522.824V63.6589H521.067V67.2955C521.067 67.6559 521.149 67.9221 521.313 68.0941C521.477 68.2661 521.686 68.3521 521.94 68.3521Z" fill="#464648"/>
<g clip-path="url(#clip2_1974_42406)">
<path d="M588.506 26.6592H568.351C568.038 26.6592 567.781 26.9259 567.781 27.2519V40.0935C567.781 41.4023 568.803 42.4642 570.063 42.4642H586.795C588.054 42.4642 589.076 41.4023 589.076 40.0935V27.2519C589.076 26.9259 588.82 26.6592 588.506 26.6592ZM567.781 24.486V22.7079C567.781 21.3991 568.803 20.3372 570.063 20.3372H572.344V17.7688C572.344 17.4429 572.601 17.1761 572.915 17.1761H574.816C575.13 17.1761 575.386 17.4429 575.386 17.7688V20.3372H581.471V17.7688C581.471 17.4429 581.727 17.1761 582.041 17.1761H583.943C584.256 17.1761 584.513 17.4429 584.513 17.7688V20.3372H586.795C588.054 20.3372 589.076 21.3991 589.076 22.7079V24.486C589.076 24.812 588.82 25.0787 588.506 25.0787H568.351C568.038 25.0787 567.781 24.812 567.781 24.486Z" fill="#464648"/>
</g>
<path d="M557.406 61.5335C557.013 61.5335 556.657 61.6113 556.338 61.7669C556.026 61.9143 555.76 62.1355 555.539 62.4303C555.326 62.7252 555.162 63.0815 555.048 63.4992C554.933 63.9169 554.876 64.3879 554.876 64.9121C554.876 65.6001 554.97 66.198 555.158 66.7058C555.347 67.2054 555.629 67.5903 556.006 67.8606C556.383 68.1309 556.849 68.2661 557.406 68.2661C557.767 68.2661 558.111 68.2333 558.438 68.1678C558.766 68.0941 559.098 67.9999 559.434 67.8852V69.0278C559.106 69.1588 558.77 69.253 558.426 69.3103C558.09 69.3759 557.697 69.4086 557.247 69.4086C556.395 69.4086 555.691 69.2243 555.134 68.8558C554.577 68.4872 554.159 67.963 553.88 67.2832C553.602 66.6034 553.463 65.8089 553.463 64.8998C553.463 64.2363 553.549 63.6302 553.721 63.0815C553.893 62.5245 554.147 62.0454 554.482 61.6441C554.818 61.2427 555.232 60.9356 555.723 60.7226C556.215 60.5015 556.776 60.3909 557.406 60.3909C557.832 60.3909 558.25 60.4401 558.66 60.5383C559.069 60.6284 559.434 60.7595 559.753 60.9315L559.274 62.0372C559.004 61.9061 558.709 61.7915 558.389 61.6932C558.078 61.5867 557.75 61.5335 557.406 61.5335ZM563.558 62.5409C564.336 62.5409 564.921 62.7252 565.314 63.0938C565.716 63.4541 565.916 64.0234 565.916 64.8015V69.2858H564.97L564.712 68.3643H564.663C564.475 68.6019 564.287 68.7984 564.098 68.9541C563.918 69.1097 563.705 69.2243 563.459 69.2981C563.222 69.3718 562.927 69.4086 562.575 69.4086C562.206 69.4086 561.874 69.339 561.58 69.1998C561.285 69.0523 561.051 68.8312 560.879 68.5363C560.707 68.2333 560.621 67.8565 560.621 67.4061C560.621 66.7344 560.859 66.2225 561.334 65.8703C561.817 65.5181 562.55 65.3257 563.533 65.2929L564.59 65.2561V64.8875C564.59 64.3961 564.487 64.0521 564.282 63.8555C564.086 63.6589 563.807 63.5606 563.447 63.5606C563.144 63.5606 562.845 63.6098 562.55 63.7081C562.255 63.8063 561.969 63.9251 561.69 64.0643L561.285 63.1183C561.588 62.9545 561.932 62.8194 562.317 62.7129C562.71 62.5982 563.124 62.5409 563.558 62.5409ZM563.791 66.1283C563.119 66.1611 562.653 66.2881 562.39 66.5092C562.128 66.7221 561.997 67.0252 561.997 67.4183C561.997 67.7623 562.087 68.0121 562.268 68.1678C562.456 68.3234 562.698 68.4012 562.992 68.4012C563.443 68.4012 563.82 68.2579 564.123 67.9712C564.434 67.6845 564.59 67.2545 564.59 66.6812V66.1038L563.791 66.1283ZM569.073 69.2858H567.746V59.9486H569.073V69.2858ZM573.444 62.5409C573.993 62.5409 574.468 62.6638 574.869 62.9095C575.27 63.147 575.577 63.491 575.79 63.9415C576.012 64.392 576.122 64.9243 576.122 65.5386V66.2512H571.957C571.974 66.931 572.137 67.4511 572.449 67.8115C572.76 68.1719 573.198 68.3521 573.763 68.3521C574.165 68.3521 574.521 68.3152 574.832 68.2415C575.152 68.1596 575.475 68.0408 575.803 67.8852V68.9663C575.491 69.1138 575.172 69.2243 574.844 69.2981C574.525 69.3718 574.136 69.4086 573.677 69.4086C573.079 69.4086 572.547 69.2817 572.08 69.0278C571.613 68.7739 571.249 68.3971 570.987 67.8975C570.725 67.3897 570.594 66.7672 570.594 66.0301C570.594 65.2847 570.712 64.6541 570.95 64.1381C571.187 63.6221 571.519 63.2289 571.945 62.9586C572.379 62.6801 572.879 62.5409 573.444 62.5409ZM573.444 63.5483C573.026 63.5483 572.69 63.6999 572.436 64.0029C572.182 64.306 572.035 64.736 571.994 65.2929H574.808C574.808 64.9489 574.758 64.6459 574.66 64.3838C574.562 64.1217 574.41 63.9169 574.206 63.7695C574.009 63.6221 573.755 63.5483 573.444 63.5483ZM580.852 62.5409C581.572 62.5409 582.125 62.7334 582.51 63.1183C582.903 63.5033 583.1 64.1217 583.1 64.9735V69.2858H581.773V65.1578C581.773 64.6418 581.671 64.2568 581.466 64.0029C581.269 63.7408 580.962 63.6098 580.545 63.6098C579.93 63.6098 579.508 63.8104 579.279 64.2118C579.05 64.6131 578.935 65.1905 578.935 65.9441V69.2858H577.608V62.6638H578.653L578.837 63.5483H578.911C579.05 63.319 579.218 63.1306 579.414 62.9832C579.611 62.8358 579.832 62.7252 580.078 62.6515C580.323 62.5778 580.581 62.5409 580.852 62.5409ZM587.052 69.4086C586.315 69.4086 585.717 69.122 585.259 68.5486C584.808 67.9753 584.583 67.1235 584.583 65.9932C584.583 64.8547 584.812 63.9947 585.271 63.4132C585.73 62.8317 586.332 62.5409 587.077 62.5409C587.396 62.5409 587.671 62.586 587.9 62.6761C588.129 62.758 588.33 62.8726 588.502 63.0201C588.674 63.1675 588.817 63.3313 588.932 63.5115H589.006C588.989 63.3968 588.969 63.233 588.944 63.0201C588.928 62.7989 588.92 62.6023 588.92 62.4303V59.9486H590.247V69.2858H589.202L588.969 68.4012H588.92C588.805 68.5896 588.662 68.7616 588.49 68.9172C588.318 69.0646 588.113 69.1834 587.875 69.2735C587.646 69.3636 587.372 69.4086 587.052 69.4086ZM587.409 68.3398C587.982 68.3398 588.383 68.1637 588.613 67.8115C588.85 67.4511 588.969 66.9146 588.969 66.2021V66.0055C588.969 65.2274 588.858 64.6336 588.637 64.2241C588.416 63.8145 588.002 63.6098 587.396 63.6098C586.921 63.6098 586.561 63.8268 586.315 64.2609C586.069 64.6868 585.947 65.2724 585.947 66.0178C585.947 66.7631 586.069 67.3364 586.315 67.7378C586.561 68.1391 586.925 68.3398 587.409 68.3398ZM594.62 62.5409C595.398 62.5409 595.984 62.7252 596.377 63.0938C596.778 63.4541 596.979 64.0234 596.979 64.8015V69.2858H596.033L595.775 68.3643H595.726C595.537 68.6019 595.349 68.7984 595.16 68.9541C594.98 69.1097 594.767 69.2243 594.522 69.2981C594.284 69.3718 593.989 69.4086 593.637 69.4086C593.268 69.4086 592.937 69.339 592.642 69.1998C592.347 69.0523 592.114 68.8312 591.942 68.5363C591.77 68.2333 591.684 67.8565 591.684 67.4061C591.684 66.7344 591.921 66.2225 592.396 65.8703C592.879 65.5181 593.612 65.3257 594.595 65.2929L595.652 65.2561V64.8875C595.652 64.3961 595.549 64.0521 595.345 63.8555C595.148 63.6589 594.87 63.5606 594.509 63.5606C594.206 63.5606 593.907 63.6098 593.612 63.7081C593.318 63.8063 593.031 63.9251 592.752 64.0643L592.347 63.1183C592.65 62.9545 592.994 62.8194 593.379 62.7129C593.772 62.5982 594.186 62.5409 594.62 62.5409ZM594.853 66.1283C594.182 66.1611 593.715 66.2881 593.453 66.5092C593.191 66.7221 593.06 67.0252 593.06 67.4183C593.06 67.7623 593.15 68.0121 593.33 68.1678C593.518 68.3234 593.76 68.4012 594.055 68.4012C594.505 68.4012 594.882 68.2579 595.185 67.9712C595.496 67.6845 595.652 67.2545 595.652 66.6812V66.1038L594.853 66.1283ZM601.966 62.5409C602.072 62.5409 602.191 62.5491 602.322 62.5655C602.453 62.5737 602.564 62.586 602.654 62.6023L602.519 63.8186C602.429 63.7941 602.326 63.7736 602.211 63.7572C602.097 63.7408 601.982 63.7326 601.867 63.7326C601.646 63.7326 601.433 63.7818 601.229 63.8801C601.024 63.9701 600.84 64.1053 600.676 64.2855C600.512 64.4575 600.381 64.6704 600.283 64.9243C600.184 65.1782 600.135 65.469 600.135 65.7966V69.2858H598.808V62.6638H599.853L600.025 63.8432H600.098C600.221 63.6057 600.373 63.3886 600.553 63.1921C600.741 62.9955 600.954 62.8399 601.192 62.7252C601.429 62.6023 601.687 62.5409 601.966 62.5409Z" fill="#464648"/>
<path d="M645.577 24.9524L635.353 33.3744V42.4641C635.353 42.6995 635.446 42.9252 635.613 43.0916C635.779 43.258 636.005 43.3515 636.24 43.3515L642.454 43.3354C642.689 43.3343 642.913 43.2403 643.079 43.074C643.244 42.9077 643.337 42.6826 643.337 42.448V37.1397C643.337 36.9044 643.43 36.6787 643.597 36.5122C643.763 36.3458 643.989 36.2523 644.224 36.2523H647.773C648.008 36.2523 648.234 36.3458 648.4 36.5122C648.567 36.6787 648.66 36.9044 648.66 37.1397V42.4442C648.66 42.5609 648.683 42.6766 648.727 42.7846C648.771 42.8926 648.837 42.9907 648.919 43.0734C649.002 43.1561 649.099 43.2218 649.207 43.2665C649.315 43.3113 649.431 43.3343 649.547 43.3343L655.759 43.3515C655.995 43.3515 656.22 43.258 656.387 43.0916C656.553 42.9252 656.646 42.6995 656.646 42.4641V33.3683L646.425 24.9524C646.305 24.8555 646.155 24.8027 646.001 24.8027C645.846 24.8027 645.697 24.8555 645.577 24.9524V24.9524ZM661.726 30.6767L657.09 26.8547V19.1726C657.09 18.9961 657.02 18.8268 656.895 18.702C656.77 18.5772 656.601 18.5071 656.425 18.5071H653.319C653.143 18.5071 652.974 18.5772 652.849 18.702C652.724 18.8268 652.654 18.9961 652.654 19.1726V23.1998L647.689 19.1144C647.213 18.7223 646.615 18.5079 645.998 18.5079C645.381 18.5079 644.783 18.7223 644.307 19.1144L630.27 30.6767C630.203 30.7324 630.147 30.8008 630.106 30.8781C630.065 30.9553 630.04 31.0399 630.032 31.1269C630.023 31.214 630.032 31.3018 630.058 31.3854C630.084 31.4689 630.126 31.5466 630.181 31.614L631.595 33.3333C631.651 33.4009 631.719 33.4569 631.797 33.498C631.874 33.5392 631.958 33.5647 632.046 33.5731C632.133 33.5815 632.221 33.5726 632.304 33.547C632.388 33.5213 632.466 33.4795 632.533 33.4237L645.577 22.6784C645.697 22.5815 645.846 22.5287 646.001 22.5287C646.155 22.5287 646.305 22.5815 646.425 22.6784L659.469 33.4237C659.536 33.4795 659.614 33.5214 659.698 33.5471C659.781 33.5728 659.869 33.5818 659.956 33.5736C660.043 33.5653 660.128 33.54 660.205 33.4991C660.282 33.4581 660.35 33.4024 660.406 33.335L661.82 31.6157C661.876 31.5479 661.918 31.4698 661.943 31.3859C661.968 31.3019 661.977 31.2138 661.968 31.1266C661.959 31.0393 661.933 30.9546 661.892 30.8774C661.85 30.8002 661.794 30.732 661.726 30.6767V30.6767Z" fill="#464648"/>
<path d="M636.253 69.2858H634.889V65.2806H631.105V69.2858H629.742V60.5138H631.105V64.1503H634.889V60.5138H636.253V69.2858ZM643.834 65.9686C643.834 66.5174 643.765 67.0047 643.626 67.4306C643.486 67.8565 643.286 68.2169 643.024 68.5118C642.77 68.8066 642.458 69.0319 642.09 69.1875C641.721 69.3349 641.308 69.4086 640.849 69.4086C640.431 69.4086 640.042 69.3349 639.682 69.1875C639.321 69.0319 639.01 68.8066 638.748 68.5118C638.486 68.2169 638.281 67.8565 638.134 67.4306C637.995 67.0047 637.925 66.5133 637.925 65.9563C637.925 65.2274 638.044 64.609 638.281 64.1012C638.519 63.5934 638.859 63.2084 639.301 62.9463C639.751 62.6761 640.284 62.5409 640.898 62.5409C641.471 62.5409 641.979 62.6761 642.422 62.9463C642.864 63.2084 643.208 63.5934 643.454 64.1012C643.707 64.609 643.834 65.2315 643.834 65.9686ZM639.301 65.9686C639.301 66.4601 639.354 66.886 639.461 67.2463C639.575 67.5985 639.747 67.8688 639.977 68.0572C640.214 68.2456 640.513 68.3398 640.874 68.3398C641.242 68.3398 641.541 68.2456 641.77 68.0572C642.008 67.8688 642.18 67.5985 642.286 67.2463C642.401 66.886 642.458 66.4601 642.458 65.9686C642.458 65.4608 642.401 65.0349 642.286 64.6909C642.172 64.3469 642 64.0848 641.77 63.9046C641.541 63.7162 641.238 63.6221 640.861 63.6221C640.313 63.6221 639.915 63.8268 639.67 64.2363C639.424 64.6459 639.301 65.2233 639.301 65.9686ZM652.412 62.5409C653.116 62.5409 653.645 62.7334 653.997 63.1183C654.357 63.5033 654.537 64.1217 654.537 64.9735V69.2858H653.211V65.1455C653.211 64.6377 653.116 64.2568 652.928 64.0029C652.748 63.7408 652.465 63.6098 652.08 63.6098C651.548 63.6098 651.167 63.7941 650.938 64.1626C650.717 64.523 650.606 65.0472 650.606 65.7352V69.2858H649.267V65.1455C649.267 64.8097 649.226 64.5271 649.144 64.2978C649.062 64.0684 648.939 63.8964 648.775 63.7818C648.612 63.6671 648.399 63.6098 648.137 63.6098C647.768 63.6098 647.477 63.6999 647.264 63.8801C647.051 64.0602 646.9 64.3264 646.81 64.6786C646.72 65.0226 646.675 65.4444 646.675 65.9441V69.2858H645.348V62.6638H646.392L646.589 63.5483H646.65C646.781 63.319 646.937 63.1306 647.117 62.9832C647.305 62.8358 647.518 62.7252 647.756 62.6515C647.993 62.5778 648.239 62.5409 648.493 62.5409C648.96 62.5409 649.353 62.631 649.672 62.8112C649.992 62.9832 650.229 63.2494 650.385 63.6098H650.471C650.667 63.2412 650.942 62.9709 651.294 62.7989C651.646 62.6269 652.019 62.5409 652.412 62.5409ZM658.868 62.5409C659.417 62.5409 659.892 62.6638 660.293 62.9095C660.694 63.147 661.002 63.491 661.214 63.9415C661.436 64.392 661.546 64.9243 661.546 65.5386V66.2512H657.381C657.398 66.931 657.562 67.4511 657.873 67.8115C658.184 68.1719 658.622 68.3521 659.187 68.3521C659.589 68.3521 659.945 68.3152 660.256 68.2415C660.576 68.1596 660.899 68.0408 661.227 67.8852V68.9663C660.916 69.1138 660.596 69.2243 660.268 69.2981C659.949 69.3718 659.56 69.4086 659.101 69.4086C658.503 69.4086 657.971 69.2817 657.504 69.0278C657.037 68.7739 656.673 68.3971 656.411 67.8975C656.149 67.3897 656.018 66.7672 656.018 66.0301C656.018 65.2847 656.136 64.6541 656.374 64.1381C656.611 63.6221 656.943 63.2289 657.369 62.9586C657.803 62.6801 658.303 62.5409 658.868 62.5409ZM658.868 63.5483C658.45 63.5483 658.114 63.6999 657.86 64.0029C657.607 64.306 657.459 64.736 657.418 65.2929H660.232C660.232 64.9489 660.182 64.6459 660.084 64.3838C659.986 64.1217 659.834 63.9169 659.63 63.7695C659.433 63.6221 659.179 63.5483 658.868 63.5483Z" fill="#464648"/>
<rect x="684.086" y="12.0571" width="86" height="29.4857" rx="4.91429" fill="#EA4343"/>
<path d="M699.089 30.7428H694.876V22.848H699.089V23.8653H696.104V26.1209H698.912V27.1271H696.104V29.7145H699.089V30.7428ZM701.814 27.7021L699.923 24.783H701.283L702.577 26.9281L703.849 24.783H705.22L703.318 27.7021L705.308 30.7428H703.948L702.577 28.465L701.184 30.7428H699.835L701.814 27.7021ZM707.503 24.783V30.7428H706.298V24.783H707.503ZM706.917 22.5163C707.094 22.5163 707.249 22.5679 707.381 22.6711C707.514 22.7743 707.58 22.9475 707.58 23.1908C707.58 23.4267 707.514 23.5999 707.381 23.7105C707.249 23.8137 707.094 23.8653 706.917 23.8653C706.725 23.8653 706.563 23.8137 706.43 23.7105C706.298 23.5999 706.231 23.4267 706.231 23.1908C706.231 22.9475 706.298 22.7743 706.43 22.6711C706.563 22.5679 706.725 22.5163 706.917 22.5163ZM711.293 29.9025C711.448 29.9025 711.599 29.8877 711.746 29.8582C711.893 29.8287 712.022 29.7956 712.133 29.7587V30.6433C712.008 30.7023 711.842 30.7502 711.635 30.787C711.436 30.8313 711.226 30.8534 711.005 30.8534C710.696 30.8534 710.412 30.7981 710.154 30.6875C709.896 30.5769 709.689 30.3853 709.535 30.1125C709.38 29.8398 709.302 29.4602 709.302 28.9737V25.6786H708.539V25.1479L709.358 24.7056L709.767 23.4451H710.508V24.783H712.089V25.6786H710.508V28.9515C710.508 29.2759 710.581 29.5155 710.729 29.6703C710.876 29.8251 711.064 29.9025 711.293 29.9025Z" fill="white"/>
<path d="M761.019 23.9374L755.318 29.638L749.605 23.9374" stroke="white" stroke-width="1.22857" stroke-linecap="round" stroke-linejoin="round"/>
<rect x="684.086" y="46.4572" width="86" height="29.4857" rx="4.91429" fill="white"/>
<path d="M700.737 65.1428H699.509V61.5382H696.104V65.1428H694.876V57.248H696.104V60.5209H699.509V57.248H700.737V65.1428ZM703.756 59.183V65.1428H702.551V59.183H703.756ZM703.17 56.9163C703.347 56.9163 703.502 56.9679 703.634 57.0711C703.767 57.1743 703.833 57.3475 703.833 57.5908C703.833 57.8267 703.767 57.9999 703.634 58.1105C703.502 58.2137 703.347 58.2653 703.17 58.2653C702.978 58.2653 702.816 58.2137 702.684 58.1105C702.551 57.9999 702.484 57.8267 702.484 57.5908C702.484 57.3475 702.551 57.1743 702.684 57.0711C702.816 56.9679 702.978 56.9163 703.17 56.9163ZM707.347 65.2534C706.683 65.2534 706.145 64.9954 705.732 64.4794C705.327 63.9634 705.124 63.1968 705.124 62.1795C705.124 61.1549 705.331 60.3809 705.743 59.8575C706.156 59.3341 706.698 59.0724 707.369 59.0724C707.656 59.0724 707.903 59.113 708.11 59.1941C708.316 59.2678 708.497 59.371 708.652 59.5037C708.806 59.6364 708.935 59.7838 709.039 59.946H709.105C709.09 59.8428 709.072 59.6953 709.05 59.5037C709.035 59.3046 709.027 59.1277 709.027 58.9729V56.7394H710.222V65.1428H709.282L709.072 64.3467H709.027C708.924 64.5163 708.795 64.6711 708.64 64.8111C708.486 64.9438 708.301 65.0507 708.088 65.1318C707.881 65.2129 707.634 65.2534 707.347 65.2534ZM707.667 64.2914C708.183 64.2914 708.545 64.1329 708.751 63.816C708.965 63.4916 709.072 63.0088 709.072 62.3675V62.1906C709.072 61.4903 708.972 60.9559 708.773 60.5873C708.574 60.2187 708.202 60.0344 707.656 60.0344C707.229 60.0344 706.904 60.2298 706.683 60.6205C706.462 61.0038 706.352 61.5308 706.352 62.2016C706.352 62.8724 706.462 63.3884 706.683 63.7496C706.904 64.1108 707.233 64.2914 707.667 64.2914ZM714.158 59.0724C714.651 59.0724 715.079 59.183 715.44 59.4042C715.801 59.6179 716.078 59.9275 716.269 60.333C716.468 60.7384 716.568 61.2175 716.568 61.7704V62.4117H712.82C712.834 63.0235 712.982 63.4916 713.262 63.816C713.542 64.1403 713.936 64.3025 714.445 64.3025C714.806 64.3025 715.127 64.2693 715.407 64.203C715.694 64.1293 715.986 64.0224 716.281 63.8823V64.8553C716 64.988 715.713 65.0875 715.418 65.1539C715.131 65.2202 714.78 65.2534 714.368 65.2534C713.83 65.2534 713.35 65.1391 712.93 64.9106C712.51 64.6821 712.182 64.343 711.946 63.8934C711.71 63.4363 711.592 62.8761 711.592 62.2127C711.592 61.5419 711.699 60.9743 711.913 60.5099C712.127 60.0455 712.425 59.6916 712.809 59.4484C713.199 59.1978 713.649 59.0724 714.158 59.0724ZM714.158 59.9791C713.782 59.9791 713.479 60.1155 713.251 60.3883C713.022 60.661 712.89 61.048 712.853 61.5493H715.385C715.385 61.2397 715.341 60.9669 715.252 60.731C715.164 60.4951 715.027 60.3108 714.843 60.1782C714.666 60.0455 714.438 59.9791 714.158 59.9791Z" fill="#6E7191"/>
<path d="M755.957 53.2143C755.618 53.2143 755.343 53.4894 755.343 53.8286C755.343 54.1679 755.618 54.4429 755.957 54.4429V53.2143ZM748.586 61.8143C748.586 61.4751 748.311 61.2 747.971 61.2C747.632 61.2 747.357 61.4751 747.357 61.8143H748.586ZM760.871 57.5143V63.6572H762.1V57.5143H760.871ZM757.8 66.7286H751.657V67.9572H757.8V66.7286ZM755.957 54.4429H757.8V53.2143H755.957V54.4429ZM748.586 63.6572V61.8143H747.357V63.6572H748.586ZM751.657 66.7286C749.961 66.7286 748.586 65.3535 748.586 63.6572H747.357C747.357 66.032 749.282 67.9572 751.657 67.9572V66.7286ZM760.871 63.6572C760.871 65.3535 759.496 66.7286 757.8 66.7286V67.9572C760.175 67.9572 762.1 66.032 762.1 63.6572H760.871ZM762.1 57.5143C762.1 55.1395 760.175 53.2143 757.8 53.2143V54.4429C759.496 54.4429 760.871 55.818 760.871 57.5143H762.1Z" fill="#6E7191"/>
<path d="M756.902 58.2873L756.902 62.3866L753.173 62.3866" stroke="#6E7191" stroke-width="1.22857" stroke-linecap="round" stroke-linejoin="round"/>
<path d="M756.736 61.4993C756.976 61.7392 756.976 62.1281 756.736 62.368C756.496 62.6079 756.107 62.6079 755.867 62.368L756.736 61.4993ZM748.778 55.5033C748.531 55.2701 748.521 54.8813 748.754 54.6349C748.987 54.3885 749.376 54.3778 749.622 54.6109L748.778 55.5033ZM755.867 62.368C752.256 58.7567 753.369 59.8477 748.778 55.5033L749.622 54.6109C754.217 58.9587 753.113 57.8765 756.736 61.4993L755.867 62.368Z" fill="#6E7191"/>
<path d="M1 7C1 3.68629 3.68629 1 7 1H18.2V87H7C3.68629 87 1 84.3137 1 81V7Z" fill="#CBCDDC"/>
<rect x="7.14285" y="35.4" width="1.22857" height="17.2" rx="0.614286" fill="#6E7191"/>
<rect x="10.8286" y="35.4" width="1.22857" height="17.2" rx="0.614286" fill="#6E7191"/>
<rect x="0.831912" y="0.831912" width="779.251" height="86.3362" rx="6.8916" stroke="#CBCDDC" stroke-width="0.336176"/>
<defs>
<clipPath id="clip0_1974_42406">
<rect x="24.3429" y="24.3429" width="78.6286" height="9.82857" rx="3.68571" fill="white"/>
</clipPath>
<clipPath id="clip1_1974_42406">
<rect width="23.9571" height="23.9571" fill="white" transform="translate(280.193 18.5071)"/>
</clipPath>
<clipPath id="clip2_1974_42406">
<rect width="21.2952" height="25.2881" fill="white" transform="translate(567.781 17.1761)"/>
</clipPath>
</defs>
</svg>
