<svg width="1055" height="140" viewBox="0 0 1055 140" fill="none" xmlns="http://www.w3.org/2000/svg">
<g filter="url(#filter0_d_1067_54292)">
<path d="M30 20C30 14.4772 34.4772 10 40 10H1015C1020.52 10 1025 14.4772 1025 20V80C1025 85.5229 1020.52 90 1015 90H40C34.4771 90 30 85.5229 30 80V20Z" fill="#F1F1F5"/>
<path d="M126.941 63.704C126.941 64.4 126.889 65.02 126.785 65.564C126.689 66.108 126.533 66.572 126.317 66.956C126.101 67.332 125.817 67.62 125.465 67.82C125.121 68.02 124.701 68.12 124.205 68.12C123.581 68.12 123.065 67.944 122.657 67.592C122.257 67.24 121.957 66.736 121.757 66.08C121.565 65.416 121.469 64.624 121.469 63.704C121.469 62.776 121.557 61.984 121.733 61.328C121.917 60.672 122.209 60.172 122.609 59.828C123.009 59.476 123.541 59.3 124.205 59.3C124.829 59.3 125.341 59.476 125.741 59.828C126.149 60.172 126.449 60.672 126.641 61.328C126.841 61.984 126.941 62.776 126.941 63.704ZM122.777 63.704C122.777 64.448 122.821 65.068 122.909 65.564C123.005 66.06 123.157 66.432 123.365 66.68C123.573 66.928 123.853 67.052 124.205 67.052C124.549 67.052 124.825 66.932 125.033 66.692C125.249 66.444 125.401 66.072 125.489 65.576C125.585 65.072 125.633 64.448 125.633 63.704C125.633 62.96 125.585 62.344 125.489 61.856C125.401 61.36 125.249 60.988 125.033 60.74C124.825 60.492 124.549 60.368 124.205 60.368C123.853 60.368 123.573 60.492 123.365 60.74C123.157 60.988 123.005 61.36 122.909 61.856C122.821 62.344 122.777 62.96 122.777 63.704ZM131.753 68H130.457V62.312C130.457 62.112 130.457 61.928 130.457 61.76C130.465 61.584 130.469 61.416 130.469 61.256C130.477 61.088 130.485 60.928 130.493 60.776C130.397 60.88 130.297 60.984 130.193 61.088C130.089 61.184 129.973 61.292 129.845 61.412L128.981 62.168L128.297 61.352L130.637 59.432H131.753V68ZM134.646 67.292C134.646 66.98 134.722 66.76 134.874 66.632C135.034 66.504 135.23 66.44 135.462 66.44C135.686 66.44 135.878 66.504 136.038 66.632C136.206 66.76 136.29 66.98 136.29 67.292C136.29 67.604 136.206 67.828 136.038 67.964C135.878 68.1 135.686 68.168 135.462 68.168C135.23 68.168 135.034 68.1 134.874 67.964C134.722 67.828 134.646 67.604 134.646 67.292ZM134.646 62.252C134.646 61.924 134.722 61.696 134.874 61.568C135.034 61.44 135.23 61.376 135.462 61.376C135.686 61.376 135.878 61.44 136.038 61.568C136.206 61.696 136.29 61.924 136.29 62.252C136.29 62.556 136.206 62.776 136.038 62.912C135.878 63.048 135.686 63.116 135.462 63.116C135.23 63.116 135.034 63.048 134.874 62.912C134.722 62.776 134.646 62.556 134.646 62.252ZM141.328 68H140.032V62.312C140.032 62.112 140.032 61.928 140.032 61.76C140.04 61.584 140.044 61.416 140.044 61.256C140.052 61.088 140.06 60.928 140.068 60.776C139.972 60.88 139.872 60.984 139.768 61.088C139.664 61.184 139.548 61.292 139.42 61.412L138.556 62.168L137.872 61.352L140.212 59.432H141.328V68ZM146.728 62.684C147.248 62.684 147.704 62.784 148.096 62.984C148.496 63.184 148.808 63.472 149.032 63.848C149.256 64.224 149.368 64.684 149.368 65.228C149.368 65.828 149.248 66.344 149.008 66.776C148.768 67.208 148.416 67.54 147.952 67.772C147.496 68.004 146.936 68.12 146.272 68.12C145.848 68.12 145.452 68.08 145.084 68C144.716 67.92 144.4 67.804 144.136 67.652V66.488C144.408 66.656 144.74 66.792 145.132 66.896C145.524 67 145.892 67.052 146.236 67.052C146.604 67.052 146.92 66.992 147.184 66.872C147.456 66.744 147.664 66.556 147.808 66.308C147.96 66.052 148.036 65.732 148.036 65.348C148.036 64.828 147.888 64.432 147.592 64.16C147.296 63.88 146.832 63.74 146.2 63.74C145.984 63.74 145.752 63.76 145.504 63.8C145.256 63.84 145.052 63.88 144.892 63.92L144.316 63.572L144.616 59.432H148.804V60.56H145.744L145.576 62.804C145.704 62.78 145.86 62.756 146.044 62.732C146.236 62.7 146.464 62.684 146.728 62.684ZM150.689 67.292C150.689 66.98 150.765 66.76 150.917 66.632C151.077 66.504 151.273 66.44 151.505 66.44C151.729 66.44 151.921 66.504 152.081 66.632C152.249 66.76 152.333 66.98 152.333 67.292C152.333 67.604 152.249 67.828 152.081 67.964C151.921 68.1 151.729 68.168 151.505 68.168C151.273 68.168 151.077 68.1 150.917 67.964C150.765 67.828 150.689 67.604 150.689 67.292ZM150.689 62.252C150.689 61.924 150.765 61.696 150.917 61.568C151.077 61.44 151.273 61.376 151.505 61.376C151.729 61.376 151.921 61.44 152.081 61.568C152.249 61.696 152.333 61.924 152.333 62.252C152.333 62.556 152.249 62.776 152.081 62.912C151.921 63.048 151.729 63.116 151.505 63.116C151.273 63.116 151.077 63.048 150.917 62.912C150.765 62.776 150.689 62.556 150.689 62.252ZM159.027 68H153.555V67.016L155.631 64.772C156.031 64.332 156.363 63.952 156.627 63.632C156.891 63.304 157.087 62.992 157.215 62.696C157.351 62.392 157.419 62.064 157.419 61.712C157.419 61.272 157.303 60.944 157.071 60.728C156.847 60.504 156.551 60.392 156.183 60.392C155.823 60.392 155.499 60.468 155.211 60.62C154.923 60.764 154.623 60.968 154.311 61.232L153.603 60.38C153.827 60.18 154.063 60 154.311 59.84C154.567 59.68 154.851 59.552 155.163 59.456C155.483 59.36 155.843 59.312 156.243 59.312C156.755 59.312 157.195 59.408 157.563 59.6C157.939 59.784 158.227 60.048 158.427 60.392C158.635 60.736 158.739 61.14 158.739 61.604C158.739 61.948 158.687 62.268 158.583 62.564C158.487 62.86 158.343 63.152 158.151 63.44C157.967 63.728 157.743 64.024 157.479 64.328C157.223 64.624 156.939 64.944 156.627 65.288L155.211 66.812V66.872H159.027V68ZM162.771 62.684C163.291 62.684 163.747 62.784 164.139 62.984C164.539 63.184 164.851 63.472 165.075 63.848C165.299 64.224 165.411 64.684 165.411 65.228C165.411 65.828 165.291 66.344 165.051 66.776C164.811 67.208 164.459 67.54 163.995 67.772C163.539 68.004 162.979 68.12 162.315 68.12C161.891 68.12 161.495 68.08 161.127 68C160.759 67.92 160.443 67.804 160.179 67.652V66.488C160.451 66.656 160.783 66.792 161.175 66.896C161.567 67 161.935 67.052 162.279 67.052C162.647 67.052 162.963 66.992 163.227 66.872C163.499 66.744 163.707 66.556 163.851 66.308C164.003 66.052 164.079 65.732 164.079 65.348C164.079 64.828 163.931 64.432 163.635 64.16C163.339 63.88 162.875 63.74 162.243 63.74C162.027 63.74 161.795 63.76 161.547 63.8C161.299 63.84 161.095 63.88 160.935 63.92L160.359 63.572L160.659 59.432H164.847V60.56H161.787L161.619 62.804C161.747 62.78 161.903 62.756 162.087 62.732C162.279 62.7 162.507 62.684 162.771 62.684Z" fill="#464648"/>
<path d="M59.3845 69.9224C60.1211 69.9224 60.7405 69.3616 60.7405 68.3404V63.519C60.8493 63.9208 61.1507 64.264 61.6529 64.5569L70.2327 69.596C70.5926 69.8136 70.9107 69.9224 71.279 69.9224C72.0156 69.9224 72.635 69.3616 72.635 68.3404V58.0195C72.635 56.9983 72.0156 56.4375 71.279 56.4375C70.9107 56.4375 70.5926 56.5463 70.2327 56.764L61.6529 61.803C61.1507 62.096 60.8493 62.4308 60.7405 62.8326V58.0195C60.7405 56.9983 60.1295 56.4375 59.3929 56.4375C59.0162 56.4375 58.7065 56.5463 58.3382 56.764L49.7584 61.803C49.1222 62.1797 48.8125 62.6066 48.8125 63.1758C48.8125 63.7366 49.1306 64.1886 49.7584 64.5569L58.3382 69.596C58.6981 69.8136 59.0162 69.9224 59.3845 69.9224Z" fill="#464648"/>
<rect x="88" y="57" width="4" height="14" rx="1" fill="#464648"/>
<rect x="96" y="57" width="4" height="14" rx="1" fill="#464648"/>
<rect x="46" y="30" width="120" height="14" rx="3" fill="#464648"/>
<rect x="114.684" y="30" width="3.07538" height="14" fill="#FBFF38"/>
<rect x="93" y="30" width="3.07538" height="14" fill="#FBFF38"/>
<rect x="134.684" y="30" width="3.07538" height="14" fill="#FBFF38"/>
<rect x="143.684" y="30" width="3.07538" height="14" fill="#FBFF38"/>
<path fill-rule="evenodd" clip-rule="evenodd" d="M200.075 26.3684C199.357 26.3684 198.669 26.6536 198.161 27.1612C197.654 27.6688 197.368 28.3573 197.368 29.0752V48.9248C197.368 49.6427 197.654 50.3312 198.161 50.8388C198.669 51.3464 199.357 51.6316 200.075 51.6316H211.057C211.775 51.6309 212.463 51.3453 212.97 50.8376L221.839 41.9702C222.346 41.4628 222.631 40.7748 222.632 40.0574V29.0752C222.632 28.3573 222.346 27.6688 221.839 27.1612C221.331 26.6536 220.643 26.3684 219.925 26.3684H200.075ZM210.06 40.8646V48.7973C210.06 49.1997 210.547 49.4018 210.831 49.1167L220.117 39.8307C220.18 39.7676 220.223 39.6871 220.24 39.5995C220.258 39.5119 220.249 39.421 220.215 39.3385C220.181 39.256 220.123 39.1855 220.048 39.1359C219.974 39.0863 219.887 39.06 219.797 39.0601H211.865C211.386 39.0601 210.927 39.2503 210.589 39.5887C210.25 39.9271 210.06 40.3861 210.06 40.8646Z" fill="#464648"/>
<path d="M187.098 68.877C187.098 69.3463 186.991 69.746 186.779 70.076C186.566 70.406 186.262 70.6627 185.866 70.846C185.47 71.022 184.986 71.11 184.414 71.11C184.135 71.11 183.867 71.0917 183.611 71.055C183.361 71.0257 183.13 70.9817 182.918 70.923C182.712 70.8643 182.518 70.791 182.335 70.703V69.581C182.628 69.713 182.962 69.834 183.336 69.944C183.717 70.0467 184.095 70.098 184.469 70.098C184.791 70.098 185.055 70.0503 185.261 69.955C185.473 69.8597 185.631 69.7277 185.734 69.559C185.844 69.3903 185.899 69.1923 185.899 68.965C185.899 68.723 185.844 68.5213 185.734 68.36C185.631 68.1913 185.459 68.0373 185.217 67.898C184.982 67.7513 184.667 67.601 184.271 67.447C183.992 67.3297 183.739 67.205 183.512 67.073C183.284 66.9337 183.086 66.7723 182.918 66.589C182.756 66.4057 182.632 66.193 182.544 65.951C182.463 65.709 182.423 65.4267 182.423 65.104C182.423 64.6713 182.525 64.301 182.731 63.993C182.936 63.685 183.222 63.4503 183.589 63.289C183.955 63.1203 184.384 63.036 184.876 63.036C185.286 63.036 185.664 63.08 186.009 63.168C186.353 63.2487 186.68 63.3623 186.988 63.509L186.603 64.488C186.317 64.3633 186.027 64.2607 185.734 64.18C185.448 64.0993 185.151 64.059 184.843 64.059C184.571 64.059 184.344 64.103 184.161 64.191C183.985 64.279 183.853 64.4 183.765 64.554C183.677 64.708 183.633 64.8877 183.633 65.093C183.633 65.335 183.684 65.5367 183.787 65.698C183.889 65.8593 184.054 66.0097 184.282 66.149C184.509 66.281 184.81 66.4277 185.184 66.589C185.594 66.765 185.943 66.952 186.229 67.15C186.515 67.3407 186.731 67.5753 186.878 67.854C187.024 68.1253 187.098 68.4663 187.098 68.877ZM190.502 70.164C190.656 70.164 190.806 70.1493 190.953 70.12C191.1 70.0907 191.228 70.0577 191.338 70.021V70.901C191.213 70.9597 191.048 71.0073 190.843 71.044C190.645 71.088 190.436 71.11 190.216 71.11C189.908 71.11 189.626 71.055 189.369 70.945C189.112 70.835 188.907 70.6443 188.753 70.373C188.599 70.1017 188.522 69.724 188.522 69.24V65.962H187.763V65.434L188.577 64.994L188.984 63.74H189.721V65.071H191.294V65.962H189.721V69.218C189.721 69.5407 189.794 69.779 189.941 69.933C190.088 70.087 190.275 70.164 190.502 70.164ZM193.639 65.071V71H192.44V65.071H193.639ZM193.056 62.816C193.232 62.816 193.386 62.8673 193.518 62.97C193.65 63.0727 193.716 63.245 193.716 63.487C193.716 63.7217 193.65 63.894 193.518 64.004C193.386 64.1067 193.232 64.158 193.056 64.158C192.865 64.158 192.704 64.1067 192.572 64.004C192.44 63.894 192.374 63.7217 192.374 63.487C192.374 63.245 192.44 63.0727 192.572 62.97C192.704 62.8673 192.865 62.816 193.056 62.816ZM197.607 71.11C197.087 71.11 196.628 71.0037 196.232 70.791C195.844 70.5783 195.539 70.2483 195.319 69.801C195.107 69.3463 195 68.7707 195 68.074C195 67.3407 195.118 66.7467 195.352 66.292C195.587 65.8373 195.906 65.5037 196.309 65.291C196.713 65.071 197.175 64.961 197.695 64.961C198.003 64.961 198.297 64.9977 198.575 65.071C198.861 65.137 199.096 65.214 199.279 65.302L198.916 66.237C198.733 66.1637 198.535 66.0977 198.322 66.039C198.11 65.9803 197.908 65.951 197.717 65.951C197.38 65.951 197.101 66.0317 196.881 66.193C196.669 66.347 196.507 66.5817 196.397 66.897C196.287 67.205 196.232 67.5937 196.232 68.063C196.232 68.5103 196.287 68.888 196.397 69.196C196.507 69.504 196.669 69.7387 196.881 69.9C197.101 70.054 197.365 70.131 197.673 70.131C197.974 70.131 198.242 70.0943 198.476 70.021C198.718 69.9477 198.942 69.8523 199.147 69.735V70.747C198.942 70.8717 198.718 70.9633 198.476 71.022C198.234 71.0807 197.945 71.11 197.607 71.11ZM201.62 66.82C201.62 66.974 201.613 67.15 201.598 67.348C201.584 67.546 201.569 67.7293 201.554 67.898H201.598C201.642 67.8247 201.701 67.7367 201.774 67.634C201.855 67.524 201.936 67.414 202.016 67.304C202.104 67.194 202.185 67.0987 202.258 67.018L203.919 65.071H205.283L203.072 67.612L205.426 71H204.018L202.258 68.349L201.62 68.921V71H200.432V62.64H201.62V66.82ZM205.494 65.071H206.77L207.903 68.437C207.962 68.6057 208.013 68.7707 208.057 68.932C208.108 69.0933 208.149 69.2547 208.178 69.416C208.215 69.57 208.244 69.724 208.266 69.878H208.299C208.336 69.6873 208.387 69.4637 208.453 69.207C208.519 68.943 208.592 68.6827 208.673 68.426L209.751 65.071H211.038L208.662 71.803C208.523 72.1843 208.354 72.5107 208.156 72.782C207.965 73.0607 207.731 73.2733 207.452 73.42C207.181 73.5667 206.854 73.64 206.473 73.64C206.312 73.64 206.165 73.629 206.033 73.607C205.908 73.5923 205.798 73.574 205.703 73.552V72.628C205.776 72.6427 205.868 72.6573 205.978 72.672C206.088 72.6867 206.202 72.694 206.319 72.694C206.532 72.694 206.715 72.65 206.869 72.562C207.023 72.474 207.151 72.3493 207.254 72.188C207.357 72.034 207.441 71.8507 207.507 71.638L207.727 71L205.494 65.071ZM220.85 71H219.354L215.735 64.653H215.691C215.699 64.7997 215.706 64.9573 215.713 65.126C215.728 65.2947 215.739 65.4743 215.746 65.665C215.754 65.8483 215.761 66.039 215.768 66.237C215.776 66.4277 215.783 66.622 215.79 66.82V71H214.679V63.146H216.164L219.772 69.46H219.816C219.809 69.35 219.802 69.2143 219.794 69.053C219.787 68.8843 219.78 68.7047 219.772 68.514C219.765 68.3233 219.758 68.129 219.75 67.931C219.743 67.733 219.739 67.546 219.739 67.37V63.146H220.85V71ZM227.641 68.03C227.641 68.5213 227.578 68.9577 227.454 69.339C227.329 69.7203 227.149 70.043 226.915 70.307C226.687 70.571 226.409 70.7727 226.079 70.912C225.749 71.044 225.378 71.11 224.968 71.11C224.594 71.11 224.245 71.044 223.923 70.912C223.6 70.7727 223.321 70.571 223.087 70.307C222.852 70.043 222.669 69.7203 222.537 69.339C222.412 68.9577 222.35 68.5177 222.35 68.019C222.35 67.3663 222.456 66.8127 222.669 66.358C222.881 65.9033 223.186 65.5587 223.582 65.324C223.985 65.082 224.462 64.961 225.012 64.961C225.525 64.961 225.98 65.082 226.376 65.324C226.772 65.5587 227.08 65.9033 227.3 66.358C227.527 66.8127 227.641 67.37 227.641 68.03ZM223.582 68.03C223.582 68.47 223.629 68.8513 223.725 69.174C223.827 69.4893 223.981 69.7313 224.187 69.9C224.399 70.0687 224.667 70.153 224.99 70.153C225.32 70.153 225.587 70.0687 225.793 69.9C226.005 69.7313 226.159 69.4893 226.255 69.174C226.357 68.8513 226.409 68.47 226.409 68.03C226.409 67.5753 226.357 67.194 226.255 66.886C226.152 66.578 225.998 66.3433 225.793 66.182C225.587 66.0133 225.316 65.929 224.979 65.929C224.487 65.929 224.132 66.1123 223.912 66.479C223.692 66.8457 223.582 67.3627 223.582 68.03ZM231.097 70.164C231.251 70.164 231.401 70.1493 231.548 70.12C231.694 70.0907 231.823 70.0577 231.933 70.021V70.901C231.808 70.9597 231.643 71.0073 231.438 71.044C231.24 71.088 231.031 71.11 230.811 71.11C230.503 71.11 230.22 71.055 229.964 70.945C229.707 70.835 229.502 70.6443 229.348 70.373C229.194 70.1017 229.117 69.724 229.117 69.24V65.962H228.358V65.434L229.172 64.994L229.579 63.74H230.316V65.071H231.889V65.962H230.316V69.218C230.316 69.5407 230.389 69.779 230.536 69.933C230.682 70.087 230.869 70.164 231.097 70.164ZM235.279 64.961C235.77 64.961 236.195 65.071 236.555 65.291C236.914 65.5037 237.189 65.8117 237.38 66.215C237.578 66.6183 237.677 67.095 237.677 67.645V68.283H233.948C233.962 68.8917 234.109 69.3573 234.388 69.68C234.666 70.0027 235.059 70.164 235.565 70.164C235.924 70.164 236.243 70.131 236.522 70.065C236.808 69.9917 237.097 69.8853 237.391 69.746V70.714C237.112 70.846 236.826 70.945 236.533 71.011C236.247 71.077 235.898 71.11 235.488 71.11C234.952 71.11 234.476 70.9963 234.058 70.769C233.64 70.5417 233.313 70.2043 233.079 69.757C232.844 69.3023 232.727 68.745 232.727 68.085C232.727 67.4177 232.833 66.853 233.046 66.391C233.258 65.929 233.555 65.577 233.937 65.335C234.325 65.0857 234.773 64.961 235.279 64.961ZM235.279 65.863C234.905 65.863 234.604 65.9987 234.377 66.27C234.149 66.5413 234.017 66.9263 233.981 67.425H236.5C236.5 67.117 236.456 66.8457 236.368 66.611C236.28 66.3763 236.144 66.193 235.961 66.061C235.785 65.929 235.557 65.863 235.279 65.863Z" fill="#464648"/>
<path fill-rule="evenodd" clip-rule="evenodd" d="M286 53.8572C294.205 53.8572 300.857 47.2054 300.857 39C300.857 30.7947 294.205 24.1429 286 24.1429C277.795 24.1429 271.143 30.7947 271.143 39C271.143 47.2054 277.795 53.8572 286 53.8572ZM286 49.8952C292.017 49.8952 296.895 45.0173 296.895 39C296.895 32.9827 292.017 28.1048 286 28.1048C279.983 28.1048 275.105 32.9827 275.105 39C275.105 45.0173 279.983 49.8952 286 49.8952Z" fill="#EA4343"/>
<circle cx="286" cy="39" r="9.14286" fill="#EA4343"/>
<path d="M317.62 19.67L312.98 24.31L308.33 19.67" stroke="#303030" stroke-linecap="round" stroke-linejoin="round"/>
<path d="M263.798 63.146C264.429 63.146 264.95 63.2303 265.36 63.399C265.771 63.5677 266.075 63.8207 266.273 64.158C266.479 64.488 266.581 64.906 266.581 65.412C266.581 65.8153 266.512 66.1563 266.372 66.435C266.24 66.7063 266.064 66.93 265.844 67.106C265.632 67.2747 265.401 67.4103 265.151 67.513L267.23 71H265.844L264.095 67.821H262.896V71H261.675V63.146H263.798ZM263.743 64.158H262.896V66.831H263.765C264.125 66.831 264.418 66.7797 264.645 66.677C264.88 66.5743 265.052 66.4203 265.162 66.215C265.28 66.0097 265.338 65.7567 265.338 65.456C265.338 65.1407 265.28 64.8913 265.162 64.708C265.052 64.5173 264.876 64.378 264.634 64.29C264.4 64.202 264.103 64.158 263.743 64.158ZM270.394 64.961C270.885 64.961 271.311 65.071 271.67 65.291C272.029 65.5037 272.304 65.8117 272.495 66.215C272.693 66.6183 272.792 67.095 272.792 67.645V68.283H269.063C269.078 68.8917 269.224 69.3573 269.503 69.68C269.782 70.0027 270.174 70.164 270.68 70.164C271.039 70.164 271.358 70.131 271.637 70.065C271.923 69.9917 272.213 69.8853 272.506 69.746V70.714C272.227 70.846 271.941 70.945 271.648 71.011C271.362 71.077 271.014 71.11 270.603 71.11C270.068 71.11 269.591 70.9963 269.173 70.769C268.755 70.5417 268.429 70.2043 268.194 69.757C267.959 69.3023 267.842 68.745 267.842 68.085C267.842 67.4177 267.948 66.853 268.161 66.391C268.374 65.929 268.671 65.577 269.052 65.335C269.441 65.0857 269.888 64.961 270.394 64.961ZM270.394 65.863C270.02 65.863 269.719 65.9987 269.492 66.27C269.265 66.5413 269.133 66.9263 269.096 67.425H271.615C271.615 67.117 271.571 66.8457 271.483 66.611C271.395 66.3763 271.259 66.193 271.076 66.061C270.9 65.929 270.673 65.863 270.394 65.863ZM276.422 71.11C275.901 71.11 275.443 71.0037 275.047 70.791C274.658 70.5783 274.354 70.2483 274.134 69.801C273.921 69.3463 273.815 68.7707 273.815 68.074C273.815 67.3407 273.932 66.7467 274.167 66.292C274.401 65.8373 274.72 65.5037 275.124 65.291C275.527 65.071 275.989 64.961 276.51 64.961C276.818 64.961 277.111 64.9977 277.39 65.071C277.676 65.137 277.91 65.214 278.094 65.302L277.731 66.237C277.547 66.1637 277.349 66.0977 277.137 66.039C276.924 65.9803 276.722 65.951 276.532 65.951C276.194 65.951 275.916 66.0317 275.696 66.193C275.483 66.347 275.322 66.5817 275.212 66.897C275.102 67.205 275.047 67.5937 275.047 68.063C275.047 68.5103 275.102 68.888 275.212 69.196C275.322 69.504 275.483 69.7387 275.696 69.9C275.916 70.054 276.18 70.131 276.488 70.131C276.788 70.131 277.056 70.0943 277.291 70.021C277.533 69.9477 277.756 69.8523 277.962 69.735V70.747C277.756 70.8717 277.533 70.9633 277.291 71.022C277.049 71.0807 276.759 71.11 276.422 71.11ZM284.23 68.03C284.23 68.5213 284.167 68.9577 284.043 69.339C283.918 69.7203 283.738 70.043 283.504 70.307C283.276 70.571 282.998 70.7727 282.668 70.912C282.338 71.044 281.967 71.11 281.557 71.11C281.183 71.11 280.834 71.044 280.512 70.912C280.189 70.7727 279.91 70.571 279.676 70.307C279.441 70.043 279.258 69.7203 279.126 69.339C279.001 68.9577 278.939 68.5177 278.939 68.019C278.939 67.3663 279.045 66.8127 279.258 66.358C279.47 65.9033 279.775 65.5587 280.171 65.324C280.574 65.082 281.051 64.961 281.601 64.961C282.114 64.961 282.569 65.082 282.965 65.324C283.361 65.5587 283.669 65.9033 283.889 66.358C284.116 66.8127 284.23 67.37 284.23 68.03ZM280.171 68.03C280.171 68.47 280.218 68.8513 280.314 69.174C280.416 69.4893 280.57 69.7313 280.776 69.9C280.988 70.0687 281.256 70.153 281.579 70.153C281.909 70.153 282.176 70.0687 282.382 69.9C282.594 69.7313 282.748 69.4893 282.844 69.174C282.946 68.8513 282.998 68.47 282.998 68.03C282.998 67.5753 282.946 67.194 282.844 66.886C282.741 66.578 282.587 66.3433 282.382 66.182C282.176 66.0133 281.905 65.929 281.568 65.929C281.076 65.929 280.721 66.1123 280.501 66.479C280.281 66.8457 280.171 67.3627 280.171 68.03ZM288.412 64.961C288.507 64.961 288.613 64.9683 288.731 64.983C288.848 64.9903 288.947 65.0013 289.028 65.016L288.907 66.105C288.826 66.083 288.734 66.0647 288.632 66.05C288.529 66.0353 288.426 66.028 288.324 66.028C288.126 66.028 287.935 66.072 287.752 66.16C287.568 66.2407 287.403 66.3617 287.257 66.523C287.11 66.677 286.993 66.8677 286.905 67.095C286.817 67.3223 286.773 67.5827 286.773 67.876V71H285.585V65.071H286.52L286.674 66.127H286.74C286.85 65.9143 286.985 65.72 287.147 65.544C287.315 65.368 287.506 65.2287 287.719 65.126C287.931 65.016 288.162 64.961 288.412 64.961ZM291.731 71.11C291.071 71.11 290.535 70.8533 290.125 70.34C289.721 69.8267 289.52 69.064 289.52 68.052C289.52 67.0327 289.725 66.2627 290.136 65.742C290.546 65.2213 291.085 64.961 291.753 64.961C292.039 64.961 292.284 65.0013 292.49 65.082C292.695 65.1553 292.875 65.258 293.029 65.39C293.183 65.522 293.311 65.6687 293.414 65.83H293.48C293.465 65.7273 293.447 65.5807 293.425 65.39C293.41 65.192 293.403 65.016 293.403 64.862V62.64H294.591V71H293.656L293.447 70.208H293.403C293.3 70.3767 293.172 70.5307 293.018 70.67C292.864 70.802 292.68 70.9083 292.468 70.989C292.262 71.0697 292.017 71.11 291.731 71.11ZM292.05 70.153C292.563 70.153 292.922 69.9953 293.128 69.68C293.34 69.3573 293.447 68.877 293.447 68.239V68.063C293.447 67.3663 293.348 66.8347 293.15 66.468C292.952 66.1013 292.581 65.918 292.039 65.918C291.613 65.918 291.291 66.1123 291.071 66.501C290.851 66.8823 290.741 67.4067 290.741 68.074C290.741 68.7413 290.851 69.2547 291.071 69.614C291.291 69.9733 291.617 70.153 292.05 70.153ZM297.461 65.071V71H296.262V65.071H297.461ZM296.878 62.816C297.054 62.816 297.208 62.8673 297.34 62.97C297.472 63.0727 297.538 63.245 297.538 63.487C297.538 63.7217 297.472 63.894 297.34 64.004C297.208 64.1067 297.054 64.158 296.878 64.158C296.688 64.158 296.526 64.1067 296.394 64.004C296.262 63.894 296.196 63.7217 296.196 63.487C296.196 63.245 296.262 63.0727 296.394 62.97C296.526 62.8673 296.688 62.816 296.878 62.816ZM302.034 64.961C302.68 64.961 303.175 65.1333 303.519 65.478C303.871 65.8227 304.047 66.3763 304.047 67.139V71H302.859V67.304C302.859 66.842 302.768 66.4973 302.584 66.27C302.408 66.0353 302.133 65.918 301.759 65.918C301.209 65.918 300.832 66.0977 300.626 66.457C300.421 66.8163 300.318 67.3333 300.318 68.008V71H299.13V65.071H300.065L300.23 65.863H300.296C300.421 65.6577 300.571 65.489 300.747 65.357C300.923 65.225 301.121 65.126 301.341 65.06C301.561 64.994 301.792 64.961 302.034 64.961ZM307.608 64.961C307.968 64.961 308.287 65.0343 308.565 65.181C308.851 65.3277 309.093 65.5513 309.291 65.852H309.335L309.467 65.071H310.446V71.077C310.446 71.6343 310.351 72.1037 310.16 72.485C309.97 72.8663 309.68 73.1523 309.291 73.343C308.903 73.541 308.411 73.64 307.817 73.64C307.407 73.64 307.033 73.6107 306.695 73.552C306.365 73.4933 306.057 73.4017 305.771 73.277V72.254C305.962 72.3567 306.167 72.441 306.387 72.507C306.607 72.5803 306.838 72.6317 307.08 72.661C307.33 72.6977 307.586 72.716 307.85 72.716C308.305 72.716 308.653 72.5767 308.895 72.298C309.145 72.0267 309.269 71.6417 309.269 71.143V70.945C309.269 70.8497 309.273 70.725 309.28 70.571C309.288 70.4097 309.295 70.2923 309.302 70.219H309.258C309.075 70.527 308.844 70.7543 308.565 70.901C308.294 71.0403 307.971 71.11 307.597 71.11C306.908 71.11 306.365 70.8423 305.969 70.307C305.573 69.7643 305.375 69.0127 305.375 68.052C305.375 67.4067 305.463 66.8567 305.639 66.402C305.823 65.94 306.079 65.5843 306.409 65.335C306.747 65.0857 307.146 64.961 307.608 64.961ZM307.894 65.929C307.616 65.929 307.381 66.0133 307.19 66.182C307 66.3433 306.853 66.5817 306.75 66.897C306.655 67.2123 306.607 67.601 306.607 68.063C306.607 68.7523 306.717 69.2767 306.937 69.636C307.157 69.9953 307.48 70.175 307.905 70.175C308.155 70.175 308.367 70.1383 308.543 70.065C308.719 69.9917 308.862 69.878 308.972 69.724C309.09 69.57 309.174 69.3757 309.225 69.141C309.284 68.899 309.313 68.6093 309.313 68.272V68.052C309.313 67.546 309.262 67.139 309.159 66.831C309.064 66.5157 308.91 66.2883 308.697 66.149C308.492 66.0023 308.224 65.929 307.894 65.929Z" fill="#464648"/>
<line opacity="0.2" x1="330.5" y1="22" x2="330.5" y2="78" stroke="#464648"/>
<path d="M383.414 27H364.586C363.16 27 362 28.1601 362 29.586V48.4141C362 49.84 363.16 51 364.586 51H383.414C384.84 51 386 49.84 386 48.4141V29.586C386 28.1601 384.84 27 383.414 27V27ZM374 45.3516C370.498 45.3516 367.648 42.5023 367.648 39C367.648 35.4977 370.498 32.6484 374 32.6484C377.502 32.6484 380.352 35.4977 380.352 39C380.352 42.5023 377.502 45.3516 374 45.3516Z" fill="#464648"/>
<path d="M374 36C372.346 36 371 37.3458 371 39C371 40.6542 372.346 42 374 42C375.654 42 377 40.6542 377 39C377 37.3458 375.654 36 374 36Z" fill="#464648"/>
<path d="M347.368 64.961C347.368 65.313 347.302 65.621 347.17 65.885C347.038 66.1417 346.855 66.3507 346.62 66.512C346.393 66.6733 346.121 66.7907 345.806 66.864V66.908C346.407 66.9813 346.855 67.1793 347.148 67.502C347.449 67.8173 347.599 68.2353 347.599 68.756C347.599 69.2107 347.496 69.6177 347.291 69.977C347.086 70.329 346.767 70.6077 346.334 70.813C345.909 71.011 345.362 71.11 344.695 71.11C344.292 71.11 343.921 71.077 343.584 71.011C343.254 70.945 342.935 70.835 342.627 70.681V69.625C342.935 69.7937 343.265 69.922 343.617 70.01C343.976 70.098 344.314 70.142 344.629 70.142C345.238 70.142 345.674 70.0173 345.938 69.768C346.202 69.5113 346.334 69.1557 346.334 68.701C346.334 68.4077 346.264 68.1693 346.125 67.986C345.986 67.7953 345.773 67.656 345.487 67.568C345.201 67.4727 344.838 67.425 344.398 67.425H343.76V66.468H344.409C344.82 66.468 345.153 66.413 345.41 66.303C345.674 66.1857 345.865 66.0243 345.982 65.819C346.107 65.6137 346.169 65.379 346.169 65.115C346.169 64.763 346.063 64.4917 345.85 64.301C345.645 64.103 345.348 64.004 344.959 64.004C344.71 64.004 344.479 64.0333 344.266 64.092C344.061 64.1507 343.87 64.2277 343.694 64.323C343.525 64.4183 343.368 64.5247 343.221 64.642L342.66 63.839C342.843 63.6923 343.052 63.5567 343.287 63.432C343.522 63.3073 343.782 63.212 344.068 63.146C344.354 63.0727 344.673 63.036 345.025 63.036C345.795 63.036 346.378 63.2157 346.774 63.575C347.17 63.927 347.368 64.389 347.368 64.961ZM353.584 67.062C353.584 67.7 353.54 68.2683 353.452 68.767C353.364 69.2657 353.217 69.691 353.012 70.043C352.814 70.3877 352.553 70.6517 352.231 70.835C351.915 71.0183 351.527 71.11 351.065 71.11C350.5 71.11 350.031 70.9487 349.657 70.626C349.29 70.3033 349.015 69.8413 348.832 69.24C348.656 68.6313 348.568 67.9053 348.568 67.062C348.568 66.2113 348.648 65.4853 348.81 64.884C348.978 64.2827 349.246 63.8243 349.613 63.509C349.979 63.1863 350.467 63.025 351.076 63.025C351.648 63.025 352.117 63.1863 352.484 63.509C352.858 63.8243 353.133 64.2827 353.309 64.884C353.492 65.4853 353.584 66.2113 353.584 67.062ZM349.767 67.062C349.767 67.744 349.807 68.3123 349.888 68.767C349.976 69.2217 350.115 69.5627 350.306 69.79C350.504 70.0173 350.76 70.131 351.076 70.131C351.398 70.131 351.651 70.021 351.835 69.801C352.025 69.5737 352.165 69.2327 352.253 68.778C352.341 68.316 352.385 67.744 352.385 67.062C352.385 66.38 352.341 65.8153 352.253 65.368C352.165 64.9133 352.025 64.5723 351.835 64.345C351.651 64.1177 351.398 64.004 351.076 64.004C350.76 64.004 350.504 64.1177 350.306 64.345C350.115 64.5723 349.976 64.9133 349.888 65.368C349.807 65.8153 349.767 66.38 349.767 67.062ZM358.655 69.328C358.655 69.7167 358.567 70.043 358.391 70.307C358.215 70.571 357.959 70.7727 357.621 70.912C357.284 71.044 356.87 71.11 356.378 71.11C355.99 71.11 355.649 71.077 355.355 71.011C355.069 70.9523 354.805 70.8643 354.563 70.747V69.724C354.82 69.8487 355.113 69.9623 355.443 70.065C355.773 70.1603 356.089 70.208 356.389 70.208C356.778 70.208 357.06 70.1383 357.236 69.999C357.412 69.8597 357.5 69.6727 357.5 69.438C357.5 69.306 357.464 69.1887 357.39 69.086C357.324 68.976 357.196 68.866 357.005 68.756C356.815 68.6387 356.54 68.5067 356.18 68.36C355.828 68.206 355.531 68.0557 355.289 67.909C355.055 67.755 354.871 67.5753 354.739 67.37C354.615 67.1573 354.552 66.886 354.552 66.556C354.552 66.0427 354.75 65.6503 355.146 65.379C355.542 65.1003 356.059 64.961 356.697 64.961C357.049 64.961 357.376 64.9977 357.676 65.071C357.977 65.137 358.27 65.2397 358.556 65.379L358.193 66.27C358.025 66.1893 357.852 66.1233 357.676 66.072C357.508 66.0133 357.339 65.9657 357.17 65.929C357.002 65.8923 356.833 65.874 356.664 65.874C356.349 65.874 356.111 65.929 355.949 66.039C355.788 66.149 355.707 66.303 355.707 66.501C355.707 66.6477 355.744 66.7723 355.817 66.875C355.898 66.9777 356.034 67.0803 356.224 67.183C356.422 67.2857 356.694 67.4067 357.038 67.546C357.383 67.6853 357.676 67.8283 357.918 67.975C358.16 68.1217 358.344 68.3013 358.468 68.514C358.593 68.7267 358.655 68.998 358.655 69.328ZM365.961 71L363.805 64.323H363.761C363.775 64.4697 363.786 64.6677 363.794 64.917C363.808 65.1663 363.819 65.434 363.827 65.72C363.841 66.006 363.849 66.2883 363.849 66.567V71H362.738V63.146H364.454L366.522 69.449H366.555L368.656 63.146H370.372V71H369.206V66.501C369.206 66.2443 369.209 65.9803 369.217 65.709C369.224 65.4303 369.235 65.17 369.25 64.928C369.264 64.686 369.275 64.488 369.283 64.334H369.239L367.028 71H365.961ZM374.421 64.961C374.913 64.961 375.338 65.071 375.697 65.291C376.057 65.5037 376.332 65.8117 376.522 66.215C376.72 66.6183 376.819 67.095 376.819 67.645V68.283H373.09C373.105 68.8917 373.252 69.3573 373.53 69.68C373.809 70.0027 374.201 70.164 374.707 70.164C375.067 70.164 375.386 70.131 375.664 70.065C375.95 69.9917 376.24 69.8853 376.533 69.746V70.714C376.255 70.846 375.969 70.945 375.675 71.011C375.389 71.077 375.041 71.11 374.63 71.11C374.095 71.11 373.618 70.9963 373.2 70.769C372.782 70.5417 372.456 70.2043 372.221 69.757C371.987 69.3023 371.869 68.745 371.869 68.085C371.869 67.4177 371.976 66.853 372.188 66.391C372.401 65.929 372.698 65.577 373.079 65.335C373.468 65.0857 373.915 64.961 374.421 64.961ZM374.421 65.863C374.047 65.863 373.747 65.9987 373.519 66.27C373.292 66.5413 373.16 66.9263 373.123 67.425H375.642C375.642 67.117 375.598 66.8457 375.51 66.611C375.422 66.3763 375.287 66.193 375.103 66.061C374.927 65.929 374.7 65.863 374.421 65.863ZM381.923 69.328C381.923 69.7167 381.835 70.043 381.659 70.307C381.483 70.571 381.226 70.7727 380.889 70.912C380.552 71.044 380.137 71.11 379.646 71.11C379.257 71.11 378.916 71.077 378.623 71.011C378.337 70.9523 378.073 70.8643 377.831 70.747V69.724C378.088 69.8487 378.381 69.9623 378.711 70.065C379.041 70.1603 379.356 70.208 379.657 70.208C380.046 70.208 380.328 70.1383 380.504 69.999C380.68 69.8597 380.768 69.6727 380.768 69.438C380.768 69.306 380.731 69.1887 380.658 69.086C380.592 68.976 380.464 68.866 380.273 68.756C380.082 68.6387 379.807 68.5067 379.448 68.36C379.096 68.206 378.799 68.0557 378.557 67.909C378.322 67.755 378.139 67.5753 378.007 67.37C377.882 67.1573 377.82 66.886 377.82 66.556C377.82 66.0427 378.018 65.6503 378.414 65.379C378.81 65.1003 379.327 64.961 379.965 64.961C380.317 64.961 380.643 64.9977 380.944 65.071C381.245 65.137 381.538 65.2397 381.824 65.379L381.461 66.27C381.292 66.1893 381.12 66.1233 380.944 66.072C380.775 66.0133 380.607 65.9657 380.438 65.929C380.269 65.8923 380.101 65.874 379.932 65.874C379.617 65.874 379.378 65.929 379.217 66.039C379.056 66.149 378.975 66.303 378.975 66.501C378.975 66.6477 379.012 66.7723 379.085 66.875C379.166 66.9777 379.301 67.0803 379.492 67.183C379.69 67.2857 379.961 67.4067 380.306 67.546C380.651 67.6853 380.944 67.8283 381.186 67.975C381.428 68.1217 381.611 68.3013 381.736 68.514C381.861 68.7267 381.923 68.998 381.923 69.328ZM386.972 69.328C386.972 69.7167 386.884 70.043 386.708 70.307C386.532 70.571 386.275 70.7727 385.938 70.912C385.6 71.044 385.186 71.11 384.695 71.11C384.306 71.11 383.965 71.077 383.672 71.011C383.386 70.9523 383.122 70.8643 382.88 70.747V69.724C383.136 69.8487 383.43 69.9623 383.76 70.065C384.09 70.1603 384.405 70.208 384.706 70.208C385.094 70.208 385.377 70.1383 385.553 69.999C385.729 69.8597 385.817 69.6727 385.817 69.438C385.817 69.306 385.78 69.1887 385.707 69.086C385.641 68.976 385.512 68.866 385.322 68.756C385.131 68.6387 384.856 68.5067 384.497 68.36C384.145 68.206 383.848 68.0557 383.606 67.909C383.371 67.755 383.188 67.5753 383.056 67.37C382.931 67.1573 382.869 66.886 382.869 66.556C382.869 66.0427 383.067 65.6503 383.463 65.379C383.859 65.1003 384.376 64.961 385.014 64.961C385.366 64.961 385.692 64.9977 385.993 65.071C386.293 65.137 386.587 65.2397 386.873 65.379L386.51 66.27C386.341 66.1893 386.169 66.1233 385.993 66.072C385.824 66.0133 385.655 65.9657 385.487 65.929C385.318 65.8923 385.149 65.874 384.981 65.874C384.665 65.874 384.427 65.929 384.266 66.039C384.104 66.149 384.024 66.303 384.024 66.501C384.024 66.6477 384.06 66.7723 384.134 66.875C384.214 66.9777 384.35 67.0803 384.541 67.183C384.739 67.2857 385.01 67.4067 385.355 67.546C385.699 67.6853 385.993 67.8283 386.235 67.975C386.477 68.1217 386.66 68.3013 386.785 68.514C386.909 68.7267 386.972 68.998 386.972 69.328ZM390.492 64.961C391.188 64.961 391.713 65.126 392.065 65.456C392.424 65.7787 392.604 66.2883 392.604 66.985V71H391.757L391.526 70.175H391.482C391.313 70.3877 391.144 70.5637 390.976 70.703C390.814 70.8423 390.624 70.945 390.404 71.011C390.191 71.077 389.927 71.11 389.612 71.11C389.282 71.11 388.985 71.0477 388.721 70.923C388.457 70.791 388.248 70.593 388.094 70.329C387.94 70.0577 387.863 69.7203 387.863 69.317C387.863 68.7157 388.075 68.2573 388.501 67.942C388.933 67.6267 389.59 67.4543 390.47 67.425L391.416 67.392V67.062C391.416 66.622 391.324 66.314 391.141 66.138C390.965 65.962 390.715 65.874 390.393 65.874C390.121 65.874 389.854 65.918 389.59 66.006C389.326 66.094 389.069 66.2003 388.82 66.325L388.457 65.478C388.728 65.3313 389.036 65.2103 389.381 65.115C389.733 65.0123 390.103 64.961 390.492 64.961ZM390.701 68.173C390.099 68.2023 389.681 68.316 389.447 68.514C389.212 68.7047 389.095 68.976 389.095 69.328C389.095 69.636 389.175 69.8597 389.337 69.999C389.505 70.1383 389.722 70.208 389.986 70.208C390.389 70.208 390.726 70.0797 390.998 69.823C391.276 69.5663 391.416 69.1813 391.416 68.668V68.151L390.701 68.173ZM396.167 64.961C396.526 64.961 396.845 65.0343 397.124 65.181C397.41 65.3277 397.652 65.5513 397.85 65.852H397.894L398.026 65.071H399.005V71.077C399.005 71.6343 398.909 72.1037 398.719 72.485C398.528 72.8663 398.238 73.1523 397.85 73.343C397.461 73.541 396.97 73.64 396.376 73.64C395.965 73.64 395.591 73.6107 395.254 73.552C394.924 73.4933 394.616 73.4017 394.33 73.277V72.254C394.52 72.3567 394.726 72.441 394.946 72.507C395.166 72.5803 395.397 72.6317 395.639 72.661C395.888 72.6977 396.145 72.716 396.409 72.716C396.863 72.716 397.212 72.5767 397.454 72.298C397.703 72.0267 397.828 71.6417 397.828 71.143V70.945C397.828 70.8497 397.831 70.725 397.839 70.571C397.846 70.4097 397.853 70.2923 397.861 70.219H397.817C397.633 70.527 397.402 70.7543 397.124 70.901C396.852 71.0403 396.53 71.11 396.156 71.11C395.466 71.11 394.924 70.8423 394.528 70.307C394.132 69.7643 393.934 69.0127 393.934 68.052C393.934 67.4067 394.022 66.8567 394.198 66.402C394.381 65.94 394.638 65.5843 394.968 65.335C395.305 65.0857 395.705 64.961 396.167 64.961ZM396.453 65.929C396.174 65.929 395.939 66.0133 395.749 66.182C395.558 66.3433 395.411 66.5817 395.309 66.897C395.213 67.2123 395.166 67.601 395.166 68.063C395.166 68.7523 395.276 69.2767 395.496 69.636C395.716 69.9953 396.038 70.175 396.464 70.175C396.713 70.175 396.926 70.1383 397.102 70.065C397.278 69.9917 397.421 69.878 397.531 69.724C397.648 69.57 397.732 69.3757 397.784 69.141C397.842 68.899 397.872 68.6093 397.872 68.272V68.052C397.872 67.546 397.82 67.139 397.718 66.831C397.622 66.5157 397.468 66.2883 397.256 66.149C397.05 66.0023 396.783 65.929 396.453 65.929ZM402.92 64.961C403.412 64.961 403.837 65.071 404.196 65.291C404.556 65.5037 404.831 65.8117 405.021 66.215C405.219 66.6183 405.318 67.095 405.318 67.645V68.283H401.589C401.604 68.8917 401.751 69.3573 402.029 69.68C402.308 70.0027 402.7 70.164 403.206 70.164C403.566 70.164 403.885 70.131 404.163 70.065C404.449 69.9917 404.739 69.8853 405.032 69.746V70.714C404.754 70.846 404.468 70.945 404.174 71.011C403.888 71.077 403.54 71.11 403.129 71.11C402.594 71.11 402.117 70.9963 401.699 70.769C401.281 70.5417 400.955 70.2043 400.72 69.757C400.486 69.3023 400.368 68.745 400.368 68.085C400.368 67.4177 400.475 66.853 400.687 66.391C400.9 65.929 401.197 65.577 401.578 65.335C401.967 65.0857 402.414 64.961 402.92 64.961ZM402.92 65.863C402.546 65.863 402.246 65.9987 402.018 66.27C401.791 66.5413 401.659 66.9263 401.622 67.425H404.141C404.141 67.117 404.097 66.8457 404.009 66.611C403.921 66.3763 403.786 66.193 403.602 66.061C403.426 65.929 403.199 65.863 402.92 65.863Z" fill="#464648"/>
<path d="M451.793 45.8571H440.207C438.679 45.8571 437.428 44.6121 437.428 43.0905V33.7667C437.428 32.245 438.679 31 440.207 31H451.793C453.321 31 454.571 32.245 454.571 33.7667V43.0905C454.571 44.6398 453.321 45.8571 451.793 45.8571Z" fill="#464648"/>
<path d="M460.536 44.3294C460.371 44.3017 460.206 44.2183 460.068 44.135L455.777 41.6354V35.1918L460.096 32.6922C460.893 32.22 461.884 32.4978 462.351 33.3032C462.489 33.5532 462.571 33.8309 462.571 34.1364V42.7185C462.571 43.7462 461.609 44.5794 460.536 44.3294Z" fill="#464648"/>
<path d="M426.141 71H421.125V70.098L423.028 68.041C423.394 67.6377 423.699 67.2893 423.941 66.996C424.183 66.6953 424.362 66.4093 424.48 66.138C424.604 65.8593 424.667 65.5587 424.667 65.236C424.667 64.8327 424.56 64.532 424.348 64.334C424.142 64.1287 423.871 64.026 423.534 64.026C423.204 64.026 422.907 64.0957 422.643 64.235C422.379 64.367 422.104 64.554 421.818 64.796L421.169 64.015C421.374 63.8317 421.59 63.6667 421.818 63.52C422.052 63.3733 422.313 63.256 422.599 63.168C422.892 63.08 423.222 63.036 423.589 63.036C424.058 63.036 424.461 63.124 424.799 63.3C425.143 63.4687 425.407 63.7107 425.591 64.026C425.781 64.3413 425.877 64.7117 425.877 65.137C425.877 65.4523 425.829 65.7457 425.734 66.017C425.646 66.2883 425.514 66.556 425.338 66.82C425.169 67.084 424.964 67.3553 424.722 67.634C424.487 67.9053 424.227 68.1987 423.941 68.514L422.643 69.911V69.966H426.141V71ZM436.45 64.961C437.081 64.961 437.554 65.1333 437.869 65.478C438.192 65.8227 438.353 66.3763 438.353 67.139V71H437.165V67.293C437.165 66.8383 437.081 66.4973 436.912 66.27C436.751 66.0353 436.498 65.918 436.153 65.918C435.676 65.918 435.335 66.083 435.13 66.413C434.932 66.7357 434.833 67.205 434.833 67.821V71H433.634V67.293C433.634 66.9923 433.597 66.7393 433.524 66.534C433.451 66.3287 433.341 66.1747 433.194 66.072C433.047 65.9693 432.857 65.918 432.622 65.918C432.292 65.918 432.032 65.9987 431.841 66.16C431.65 66.3213 431.515 66.5597 431.434 66.875C431.353 67.183 431.313 67.5607 431.313 68.008V71H430.125V65.071H431.06L431.236 65.863H431.291C431.408 65.6577 431.548 65.489 431.709 65.357C431.878 65.225 432.068 65.126 432.281 65.06C432.494 64.994 432.714 64.961 432.941 64.961C433.359 64.961 433.711 65.0417 433.997 65.203C434.283 65.357 434.496 65.5953 434.635 65.918H434.712C434.888 65.588 435.134 65.346 435.449 65.192C435.764 65.038 436.098 64.961 436.45 64.961ZM441.185 65.071V71H439.986V65.071H441.185ZM440.602 62.816C440.778 62.816 440.932 62.8673 441.064 62.97C441.196 63.0727 441.262 63.245 441.262 63.487C441.262 63.7217 441.196 63.894 441.064 64.004C440.932 64.1067 440.778 64.158 440.602 64.158C440.412 64.158 440.25 64.1067 440.118 64.004C439.986 63.894 439.92 63.7217 439.92 63.487C439.92 63.245 439.986 63.0727 440.118 62.97C440.25 62.8673 440.412 62.816 440.602 62.816ZM445.759 64.961C446.404 64.961 446.899 65.1333 447.244 65.478C447.596 65.8227 447.772 66.3763 447.772 67.139V71H446.584V67.304C446.584 66.842 446.492 66.4973 446.309 66.27C446.133 66.0353 445.858 65.918 445.484 65.918C444.934 65.918 444.556 66.0977 444.351 66.457C444.145 66.8163 444.043 67.3333 444.043 68.008V71H442.855V65.071H443.79L443.955 65.863H444.021C444.145 65.6577 444.296 65.489 444.472 65.357C444.648 65.225 444.846 65.126 445.066 65.06C445.286 64.994 445.517 64.961 445.759 64.961ZM457.714 63.146L455.129 71H453.831L451.257 63.146H452.544L454.051 68.074C454.11 68.25 454.165 68.4407 454.216 68.646C454.275 68.844 454.326 69.042 454.37 69.24C454.421 69.438 454.458 69.625 454.48 69.801C454.509 69.625 454.546 69.438 454.59 69.24C454.634 69.042 454.685 68.844 454.744 68.646C454.803 68.4407 454.858 68.2463 454.909 68.063L456.416 63.146H457.714ZM459.748 65.071V71H458.549V65.071H459.748ZM459.165 62.816C459.341 62.816 459.495 62.8673 459.627 62.97C459.759 63.0727 459.825 63.245 459.825 63.487C459.825 63.7217 459.759 63.894 459.627 64.004C459.495 64.1067 459.341 64.158 459.165 64.158C458.974 64.158 458.813 64.1067 458.681 64.004C458.549 63.894 458.483 63.7217 458.483 63.487C458.483 63.245 458.549 63.0727 458.681 62.97C458.813 62.8673 458.974 62.816 459.165 62.816ZM463.32 71.11C462.66 71.11 462.125 70.8533 461.714 70.34C461.311 69.8267 461.109 69.064 461.109 68.052C461.109 67.0327 461.314 66.2627 461.725 65.742C462.136 65.2213 462.675 64.961 463.342 64.961C463.628 64.961 463.874 65.0013 464.079 65.082C464.284 65.1553 464.464 65.258 464.618 65.39C464.772 65.522 464.9 65.6687 465.003 65.83H465.069C465.054 65.7273 465.036 65.5807 465.014 65.39C464.999 65.192 464.992 65.016 464.992 64.862V62.64H466.18V71H465.245L465.036 70.208H464.992C464.889 70.3767 464.761 70.5307 464.607 70.67C464.453 70.802 464.27 70.9083 464.057 70.989C463.852 71.0697 463.606 71.11 463.32 71.11ZM463.639 70.153C464.152 70.153 464.512 69.9953 464.717 69.68C464.93 69.3573 465.036 68.877 465.036 68.239V68.063C465.036 67.3663 464.937 66.8347 464.739 66.468C464.541 66.1013 464.171 65.918 463.628 65.918C463.203 65.918 462.88 66.1123 462.66 66.501C462.44 66.8823 462.33 67.4067 462.33 68.074C462.33 68.7413 462.44 69.2547 462.66 69.614C462.88 69.9733 463.206 70.153 463.639 70.153ZM470.096 64.961C470.587 64.961 471.012 65.071 471.372 65.291C471.731 65.5037 472.006 65.8117 472.197 66.215C472.395 66.6183 472.494 67.095 472.494 67.645V68.283H468.765C468.779 68.8917 468.926 69.3573 469.205 69.68C469.483 70.0027 469.876 70.164 470.382 70.164C470.741 70.164 471.06 70.131 471.339 70.065C471.625 69.9917 471.914 69.8853 472.208 69.746V70.714C471.929 70.846 471.643 70.945 471.35 71.011C471.064 71.077 470.715 71.11 470.305 71.11C469.769 71.11 469.293 70.9963 468.875 70.769C468.457 70.5417 468.13 70.2043 467.896 69.757C467.661 69.3023 467.544 68.745 467.544 68.085C467.544 67.4177 467.65 66.853 467.863 66.391C468.075 65.929 468.372 65.577 468.754 65.335C469.142 65.0857 469.59 64.961 470.096 64.961ZM470.096 65.863C469.722 65.863 469.421 65.9987 469.194 66.27C468.966 66.5413 468.834 66.9263 468.798 67.425H471.317C471.317 67.117 471.273 66.8457 471.185 66.611C471.097 66.3763 470.961 66.193 470.778 66.061C470.602 65.929 470.374 65.863 470.096 65.863ZM478.807 68.03C478.807 68.5213 478.745 68.9577 478.62 69.339C478.496 69.7203 478.316 70.043 478.081 70.307C477.854 70.571 477.575 70.7727 477.245 70.912C476.915 71.044 476.545 71.11 476.134 71.11C475.76 71.11 475.412 71.044 475.089 70.912C474.767 70.7727 474.488 70.571 474.253 70.307C474.019 70.043 473.835 69.7203 473.703 69.339C473.579 68.9577 473.516 68.5177 473.516 68.019C473.516 67.3663 473.623 66.8127 473.835 66.358C474.048 65.9033 474.352 65.5587 474.748 65.324C475.152 65.082 475.628 64.961 476.178 64.961C476.692 64.961 477.146 65.082 477.542 65.324C477.938 65.5587 478.246 65.9033 478.466 66.358C478.694 66.8127 478.807 67.37 478.807 68.03ZM474.748 68.03C474.748 68.47 474.796 68.8513 474.891 69.174C474.994 69.4893 475.148 69.7313 475.353 69.9C475.566 70.0687 475.834 70.153 476.156 70.153C476.486 70.153 476.754 70.0687 476.959 69.9C477.172 69.7313 477.326 69.4893 477.421 69.174C477.524 68.8513 477.575 68.47 477.575 68.03C477.575 67.5753 477.524 67.194 477.421 66.886C477.319 66.578 477.165 66.3433 476.959 66.182C476.754 66.0133 476.483 65.929 476.145 65.929C475.654 65.929 475.298 66.1123 475.078 66.479C474.858 66.8457 474.748 67.3627 474.748 68.03Z" fill="#464648"/>
<path d="M537.371 44.6478L534.014 41.2915C532.816 40.0928 530.778 40.5724 530.298 42.1306C529.939 43.2095 528.74 43.8088 527.661 43.569C525.264 42.9697 522.027 39.8531 521.428 37.3359C521.069 36.257 521.788 35.0583 522.867 34.6987C524.425 34.2193 524.904 32.1815 523.706 30.9828L520.349 27.6265C519.39 26.7874 517.952 26.7874 517.113 27.6265L514.835 29.904C512.558 32.3014 515.075 38.6544 520.709 44.2882C526.343 49.9221 532.696 52.5592 535.093 50.1618L537.371 47.8843C538.21 46.9253 538.21 45.4869 537.371 44.6478Z" fill="#464648"/>
<path d="M508.701 63.146L506.116 71H504.818L502.244 63.146H503.531L505.038 68.074C505.096 68.25 505.151 68.4407 505.203 68.646C505.261 68.844 505.313 69.042 505.357 69.24C505.408 69.438 505.445 69.625 505.467 69.801C505.496 69.625 505.533 69.438 505.577 69.24C505.621 69.042 505.672 68.844 505.731 68.646C505.789 68.4407 505.844 68.2463 505.896 68.063L507.403 63.146H508.701ZM514.315 68.03C514.315 68.5213 514.252 68.9577 514.128 69.339C514.003 69.7203 513.823 70.043 513.589 70.307C513.361 70.571 513.083 70.7727 512.753 70.912C512.423 71.044 512.052 71.11 511.642 71.11C511.268 71.11 510.919 71.044 510.597 70.912C510.274 70.7727 509.995 70.571 509.761 70.307C509.526 70.043 509.343 69.7203 509.211 69.339C509.086 68.9577 509.024 68.5177 509.024 68.019C509.024 67.3663 509.13 66.8127 509.343 66.358C509.555 65.9033 509.86 65.5587 510.256 65.324C510.659 65.082 511.136 64.961 511.686 64.961C512.199 64.961 512.654 65.082 513.05 65.324C513.446 65.5587 513.754 65.9033 513.974 66.358C514.201 66.8127 514.315 67.37 514.315 68.03ZM510.256 68.03C510.256 68.47 510.303 68.8513 510.399 69.174C510.501 69.4893 510.655 69.7313 510.861 69.9C511.073 70.0687 511.341 70.153 511.664 70.153C511.994 70.153 512.261 70.0687 512.467 69.9C512.679 69.7313 512.833 69.4893 512.929 69.174C513.031 68.8513 513.083 68.47 513.083 68.03C513.083 67.5753 513.031 67.194 512.929 66.886C512.826 66.578 512.672 66.3433 512.467 66.182C512.261 66.0133 511.99 65.929 511.653 65.929C511.161 65.929 510.806 66.1123 510.586 66.479C510.366 66.8457 510.256 67.3627 510.256 68.03ZM516.868 65.071V71H515.669V65.071H516.868ZM516.285 62.816C516.461 62.816 516.615 62.8673 516.747 62.97C516.879 63.0727 516.945 63.245 516.945 63.487C516.945 63.7217 516.879 63.894 516.747 64.004C516.615 64.1067 516.461 64.158 516.285 64.158C516.095 64.158 515.933 64.1067 515.801 64.004C515.669 63.894 515.603 63.7217 515.603 63.487C515.603 63.245 515.669 63.0727 515.801 62.97C515.933 62.8673 516.095 62.816 516.285 62.816ZM520.837 71.11C520.316 71.11 519.858 71.0037 519.462 70.791C519.073 70.5783 518.769 70.2483 518.549 69.801C518.336 69.3463 518.23 68.7707 518.23 68.074C518.23 67.3407 518.347 66.7467 518.582 66.292C518.816 65.8373 519.135 65.5037 519.539 65.291C519.942 65.071 520.404 64.961 520.925 64.961C521.233 64.961 521.526 64.9977 521.805 65.071C522.091 65.137 522.325 65.214 522.509 65.302L522.146 66.237C521.962 66.1637 521.764 66.0977 521.552 66.039C521.339 65.9803 521.137 65.951 520.947 65.951C520.609 65.951 520.331 66.0317 520.111 66.193C519.898 66.347 519.737 66.5817 519.627 66.897C519.517 67.205 519.462 67.5937 519.462 68.063C519.462 68.5103 519.517 68.888 519.627 69.196C519.737 69.504 519.898 69.7387 520.111 69.9C520.331 70.054 520.595 70.131 520.903 70.131C521.203 70.131 521.471 70.0943 521.706 70.021C521.948 69.9477 522.171 69.8523 522.377 69.735V70.747C522.171 70.8717 521.948 70.9633 521.706 71.022C521.464 71.0807 521.174 71.11 520.837 71.11ZM525.906 64.961C526.397 64.961 526.822 65.071 527.182 65.291C527.541 65.5037 527.816 65.8117 528.007 66.215C528.205 66.6183 528.304 67.095 528.304 67.645V68.283H524.575C524.589 68.8917 524.736 69.3573 525.015 69.68C525.293 70.0027 525.686 70.164 526.192 70.164C526.551 70.164 526.87 70.131 527.149 70.065C527.435 69.9917 527.724 69.8853 528.018 69.746V70.714C527.739 70.846 527.453 70.945 527.16 71.011C526.874 71.077 526.525 71.11 526.115 71.11C525.579 71.11 525.103 70.9963 524.685 70.769C524.267 70.5417 523.94 70.2043 523.706 69.757C523.471 69.3023 523.354 68.745 523.354 68.085C523.354 67.4177 523.46 66.853 523.673 66.391C523.885 65.929 524.182 65.577 524.564 65.335C524.952 65.0857 525.4 64.961 525.906 64.961ZM525.906 65.863C525.532 65.863 525.231 65.9987 525.004 66.27C524.776 66.5413 524.644 66.9263 524.608 67.425H527.127C527.127 67.117 527.083 66.8457 526.995 66.611C526.907 66.3763 526.771 66.193 526.588 66.061C526.412 65.929 526.184 65.863 525.906 65.863ZM535.62 64.059C535.268 64.059 534.949 64.1287 534.663 64.268C534.384 64.4 534.146 64.598 533.948 64.862C533.757 65.126 533.611 65.445 533.508 65.819C533.405 66.193 533.354 66.6147 533.354 67.084C533.354 67.7 533.438 68.2353 533.607 68.69C533.776 69.1373 534.029 69.482 534.366 69.724C534.703 69.966 535.121 70.087 535.62 70.087C535.943 70.087 536.251 70.0577 536.544 69.999C536.837 69.933 537.134 69.8487 537.435 69.746V70.769C537.142 70.8863 536.841 70.9707 536.533 71.022C536.232 71.0807 535.88 71.11 535.477 71.11C534.714 71.11 534.084 70.945 533.585 70.615C533.086 70.285 532.712 69.8157 532.463 69.207C532.214 68.5983 532.089 67.887 532.089 67.073C532.089 66.479 532.166 65.9363 532.32 65.445C532.474 64.9463 532.701 64.5173 533.002 64.158C533.303 63.7987 533.673 63.5237 534.113 63.333C534.553 63.135 535.055 63.036 535.62 63.036C536.001 63.036 536.375 63.08 536.742 63.168C537.109 63.2487 537.435 63.366 537.721 63.52L537.292 64.51C537.05 64.3927 536.786 64.29 536.5 64.202C536.221 64.1067 535.928 64.059 535.62 64.059ZM541.127 64.961C541.824 64.961 542.348 65.126 542.7 65.456C543.06 65.7787 543.239 66.2883 543.239 66.985V71H542.392L542.161 70.175H542.117C541.949 70.3877 541.78 70.5637 541.611 70.703C541.45 70.8423 541.259 70.945 541.039 71.011C540.827 71.077 540.563 71.11 540.247 71.11C539.917 71.11 539.62 71.0477 539.356 70.923C539.092 70.791 538.883 70.593 538.729 70.329C538.575 70.0577 538.498 69.7203 538.498 69.317C538.498 68.7157 538.711 68.2573 539.136 67.942C539.569 67.6267 540.225 67.4543 541.105 67.425L542.051 67.392V67.062C542.051 66.622 541.96 66.314 541.776 66.138C541.6 65.962 541.351 65.874 541.028 65.874C540.757 65.874 540.489 65.918 540.225 66.006C539.961 66.094 539.705 66.2003 539.455 66.325L539.092 65.478C539.364 65.3313 539.672 65.2103 540.016 65.115C540.368 65.0123 540.739 64.961 541.127 64.961ZM541.336 68.173C540.735 68.2023 540.317 68.316 540.082 68.514C539.848 68.7047 539.73 68.976 539.73 69.328C539.73 69.636 539.811 69.8597 539.972 69.999C540.141 70.1383 540.357 70.208 540.621 70.208C541.025 70.208 541.362 70.0797 541.633 69.823C541.912 69.5663 542.051 69.1813 542.051 68.668V68.151L541.336 68.173ZM546.066 71H544.878V62.64H546.066V71ZM548.923 71H547.735V62.64H548.923V71Z" fill="#464648"/>
<path d="M601.873 55C609.95 55 616.617 48.4046 616.617 40.414C616.617 35.862 614.324 31.5496 610.876 28.9847C610.107 28.3646 609.167 28.4774 608.697 29.1397C608.184 29.8303 608.412 30.6617 609.067 31.2396C611.873 33.3676 613.654 36.6512 613.668 40.414C613.683 46.8826 608.412 52.0828 601.873 52.0828C595.334 52.0828 590.106 46.8826 590.106 40.414C590.106 34.946 593.838 30.394 598.938 29.1115V31.155C598.938 32.2401 599.75 32.5361 600.633 31.9019L605.449 28.5337C606.161 28.0123 606.175 27.2231 605.449 26.7158L600.648 23.3335C599.75 22.6993 598.938 22.9812 598.938 24.0804V26.138C592.243 27.505 587.143 33.4239 587.143 40.414C587.143 48.4046 593.81 55 601.873 55Z" fill="#464648"/>
<path fill-rule="evenodd" clip-rule="evenodd" d="M599.521 43.7878C597.003 43.9148 595.143 46.299 595.143 49.0181V50.8433C595.143 51.2148 601.715 53.1845 602.085 53.1845L608.356 51.516C608.726 51.516 609.026 51.2148 609.026 50.8433V49.0181C609.026 46.299 607.166 43.9148 604.648 43.7878C603.877 44.1768 603.007 44.3959 602.085 44.3959C601.163 44.3959 600.292 44.1768 599.521 43.7878ZM606.198 39.8577C605.693 41.6545 604.043 42.9719 602.085 42.9719C600.127 42.9719 598.477 41.6551 597.972 39.8588C597.88 39.5052 597.831 39.134 597.831 38.7516C597.831 36.3732 599.726 34.4286 602.085 34.4286C604.443 34.4286 606.338 36.3732 606.338 38.7516C606.338 39.1336 606.29 39.5044 606.198 39.8577Z" fill="#464648"/>
<path d="M579.995 68.877C579.995 69.3463 579.888 69.746 579.676 70.076C579.463 70.406 579.159 70.6627 578.763 70.846C578.367 71.022 577.883 71.11 577.311 71.11C577.032 71.11 576.764 71.0917 576.508 71.055C576.258 71.0257 576.027 70.9817 575.815 70.923C575.609 70.8643 575.415 70.791 575.232 70.703V69.581C575.525 69.713 575.859 69.834 576.233 69.944C576.614 70.0467 576.992 70.098 577.366 70.098C577.688 70.098 577.952 70.0503 578.158 69.955C578.37 69.8597 578.528 69.7277 578.631 69.559C578.741 69.3903 578.796 69.1923 578.796 68.965C578.796 68.723 578.741 68.5213 578.631 68.36C578.528 68.1913 578.356 68.0373 578.114 67.898C577.879 67.7513 577.564 67.601 577.168 67.447C576.889 67.3297 576.636 67.205 576.409 67.073C576.181 66.9337 575.983 66.7723 575.815 66.589C575.653 66.4057 575.529 66.193 575.441 65.951C575.36 65.709 575.32 65.4267 575.32 65.104C575.32 64.6713 575.422 64.301 575.628 63.993C575.833 63.685 576.119 63.4503 576.486 63.289C576.852 63.1203 577.281 63.036 577.773 63.036C578.183 63.036 578.561 63.08 578.906 63.168C579.25 63.2487 579.577 63.3623 579.885 63.509L579.5 64.488C579.214 64.3633 578.924 64.2607 578.631 64.18C578.345 64.0993 578.048 64.059 577.74 64.059C577.468 64.059 577.241 64.103 577.058 64.191C576.882 64.279 576.75 64.4 576.662 64.554C576.574 64.708 576.53 64.8877 576.53 65.093C576.53 65.335 576.581 65.5367 576.684 65.698C576.786 65.8593 576.951 66.0097 577.179 66.149C577.406 66.281 577.707 66.4277 578.081 66.589C578.491 66.765 578.84 66.952 579.126 67.15C579.412 67.3407 579.628 67.5753 579.775 67.854C579.921 68.1253 579.995 68.4663 579.995 68.877ZM583.542 64.961C584.033 64.961 584.459 65.071 584.818 65.291C585.177 65.5037 585.452 65.8117 585.643 66.215C585.841 66.6183 585.94 67.095 585.94 67.645V68.283H582.211C582.226 68.8917 582.372 69.3573 582.651 69.68C582.93 70.0027 583.322 70.164 583.828 70.164C584.187 70.164 584.506 70.131 584.785 70.065C585.071 69.9917 585.361 69.8853 585.654 69.746V70.714C585.375 70.846 585.089 70.945 584.796 71.011C584.51 71.077 584.162 71.11 583.751 71.11C583.216 71.11 582.739 70.9963 582.321 70.769C581.903 70.5417 581.577 70.2043 581.342 69.757C581.107 69.3023 580.99 68.745 580.99 68.085C580.99 67.4177 581.096 66.853 581.309 66.391C581.522 65.929 581.819 65.577 582.2 65.335C582.589 65.0857 583.036 64.961 583.542 64.961ZM583.542 65.863C583.168 65.863 582.867 65.9987 582.64 66.27C582.413 66.5413 582.281 66.9263 582.244 67.425H584.763C584.763 67.117 584.719 66.8457 584.631 66.611C584.543 66.3763 584.407 66.193 584.224 66.061C584.048 65.929 583.821 65.863 583.542 65.863ZM588.459 71H587.271V62.64H588.459V71ZM592.933 65.962H591.58V71H590.381V65.962H589.468V65.412L590.381 65.049V64.675C590.381 64.169 590.451 63.7657 590.59 63.465C590.737 63.157 590.949 62.9333 591.228 62.794C591.507 62.6547 591.848 62.585 592.251 62.585C592.493 62.585 592.717 62.607 592.922 62.651C593.127 62.695 593.307 62.7427 593.461 62.794L593.164 63.685C593.054 63.6483 592.926 63.6153 592.779 63.586C592.64 63.5493 592.497 63.531 592.35 63.531C592.086 63.531 591.892 63.6263 591.767 63.817C591.642 64.0077 591.58 64.2973 591.58 64.686V65.071H592.933V65.962ZM595.078 65.071V71H593.879V65.071H595.078ZM594.495 62.816C594.671 62.816 594.825 62.8673 594.957 62.97C595.089 63.0727 595.155 63.245 595.155 63.487C595.155 63.7217 595.089 63.894 594.957 64.004C594.825 64.1067 594.671 64.158 594.495 64.158C594.304 64.158 594.143 64.1067 594.011 64.004C593.879 63.894 593.813 63.7217 593.813 63.487C593.813 63.245 593.879 63.0727 594.011 62.97C594.143 62.8673 594.304 62.816 594.495 62.816ZM598.989 64.961C599.481 64.961 599.906 65.071 600.265 65.291C600.625 65.5037 600.9 65.8117 601.09 66.215C601.288 66.6183 601.387 67.095 601.387 67.645V68.283H597.658C597.673 68.8917 597.82 69.3573 598.098 69.68C598.377 70.0027 598.769 70.164 599.275 70.164C599.635 70.164 599.954 70.131 600.232 70.065C600.518 69.9917 600.808 69.8853 601.101 69.746V70.714C600.823 70.846 600.537 70.945 600.243 71.011C599.957 71.077 599.609 71.11 599.198 71.11C598.663 71.11 598.186 70.9963 597.768 70.769C597.35 70.5417 597.024 70.2043 596.789 69.757C596.555 69.3023 596.437 68.745 596.437 68.085C596.437 67.4177 596.544 66.853 596.756 66.391C596.969 65.929 597.266 65.577 597.647 65.335C598.036 65.0857 598.483 64.961 598.989 64.961ZM598.989 65.863C598.615 65.863 598.315 65.9987 598.087 66.27C597.86 66.5413 597.728 66.9263 597.691 67.425H600.21C600.21 67.117 600.166 66.8457 600.078 66.611C599.99 66.3763 599.855 66.193 599.671 66.061C599.495 65.929 599.268 65.863 598.989 65.863ZM605.524 71V63.146H606.745V69.977H609.869V71H605.524ZM615.983 68.03C615.983 68.5213 615.921 68.9577 615.796 69.339C615.671 69.7203 615.492 70.043 615.257 70.307C615.03 70.571 614.751 70.7727 614.421 70.912C614.091 71.044 613.721 71.11 613.31 71.11C612.936 71.11 612.588 71.044 612.265 70.912C611.942 70.7727 611.664 70.571 611.429 70.307C611.194 70.043 611.011 69.7203 610.879 69.339C610.754 68.9577 610.692 68.5177 610.692 68.019C610.692 67.3663 610.798 66.8127 611.011 66.358C611.224 65.9033 611.528 65.5587 611.924 65.324C612.327 65.082 612.804 64.961 613.354 64.961C613.867 64.961 614.322 65.082 614.718 65.324C615.114 65.5587 615.422 65.9033 615.642 66.358C615.869 66.8127 615.983 67.37 615.983 68.03ZM611.924 68.03C611.924 68.47 611.972 68.8513 612.067 69.174C612.17 69.4893 612.324 69.7313 612.529 69.9C612.742 70.0687 613.009 70.153 613.332 70.153C613.662 70.153 613.93 70.0687 614.135 69.9C614.348 69.7313 614.502 69.4893 614.597 69.174C614.7 68.8513 614.751 68.47 614.751 68.03C614.751 67.5753 614.7 67.194 614.597 66.886C614.494 66.578 614.34 66.3433 614.135 66.182C613.93 66.0133 613.658 65.929 613.321 65.929C612.83 65.929 612.474 66.1123 612.254 66.479C612.034 66.8457 611.924 67.3627 611.924 68.03ZM622.321 68.03C622.321 68.5213 622.259 68.9577 622.134 69.339C622.009 69.7203 621.83 70.043 621.595 70.307C621.368 70.571 621.089 70.7727 620.759 70.912C620.429 71.044 620.059 71.11 619.648 71.11C619.274 71.11 618.926 71.044 618.603 70.912C618.28 70.7727 618.002 70.571 617.767 70.307C617.532 70.043 617.349 69.7203 617.217 69.339C617.092 68.9577 617.03 68.5177 617.03 68.019C617.03 67.3663 617.136 66.8127 617.349 66.358C617.562 65.9033 617.866 65.5587 618.262 65.324C618.665 65.082 619.142 64.961 619.692 64.961C620.205 64.961 620.66 65.082 621.056 65.324C621.452 65.5587 621.76 65.9033 621.98 66.358C622.207 66.8127 622.321 67.37 622.321 68.03ZM618.262 68.03C618.262 68.47 618.31 68.8513 618.405 69.174C618.508 69.4893 618.662 69.7313 618.867 69.9C619.08 70.0687 619.347 70.153 619.67 70.153C620 70.153 620.268 70.0687 620.473 69.9C620.686 69.7313 620.84 69.4893 620.935 69.174C621.038 68.8513 621.089 68.47 621.089 68.03C621.089 67.5753 621.038 67.194 620.935 66.886C620.832 66.578 620.678 66.3433 620.473 66.182C620.268 66.0133 619.996 65.929 619.659 65.929C619.168 65.929 618.812 66.1123 618.592 66.479C618.372 66.8457 618.262 67.3627 618.262 68.03ZM626.536 64.961C627.203 64.961 627.739 65.2177 628.142 65.731C628.545 66.2443 628.747 67.0107 628.747 68.03C628.747 68.6973 628.652 69.262 628.461 69.724C628.278 70.186 628.017 70.5343 627.68 70.769C627.343 70.9963 626.95 71.11 626.503 71.11C626.232 71.11 625.99 71.0733 625.777 71C625.564 70.9193 625.385 70.8167 625.238 70.692C625.099 70.56 624.974 70.4207 624.864 70.274H624.798C624.813 70.406 624.827 70.5637 624.842 70.747C624.857 70.923 624.864 71.0807 624.864 71.22V73.64H623.676V65.071H624.644L624.809 65.863H624.864C624.974 65.7017 625.102 65.5513 625.249 65.412C625.403 65.2727 625.583 65.1627 625.788 65.082C626.001 65.0013 626.25 64.961 626.536 64.961ZM626.217 65.918C625.894 65.918 625.634 65.9913 625.436 66.138C625.238 66.2773 625.091 66.49 624.996 66.776C624.908 67.0547 624.864 67.4103 624.864 67.843V68.019C624.864 68.4737 624.904 68.8623 624.985 69.185C625.073 69.5003 625.216 69.7423 625.414 69.911C625.619 70.0723 625.894 70.153 626.239 70.153C626.532 70.153 626.774 70.065 626.965 69.889C627.156 69.7057 627.295 69.4527 627.383 69.13C627.478 68.8073 627.526 68.4333 627.526 68.008C627.526 67.3627 627.416 66.853 627.196 66.479C626.983 66.105 626.657 65.918 626.217 65.918Z" fill="#464648"/>
<line opacity="0.2" x1="646.5" y1="22" x2="646.5" y2="78" stroke="#464648"/>
<path d="M699.339 27H679.328C677.125 27 675.333 28.7548 675.333 30.9117V44.1373C675.333 46.2942 677.125 48.049 679.328 48.049H680.895L680.926 51.5023C680.929 51.8206 681.115 52.1099 681.408 52.249C681.527 52.3055 681.654 52.3333 681.782 52.3333C681.968 52.3333 682.152 52.2741 682.305 52.1587L687.742 48.0491H699.339C701.541 48.0491 703.333 46.2943 703.333 44.1374V30.9117C703.333 28.7548 701.541 27 699.339 27Z" fill="#464648"/>
<path d="M682.561 64.059C682.209 64.059 681.89 64.1287 681.604 64.268C681.326 64.4 681.087 64.598 680.889 64.862C680.699 65.126 680.552 65.445 680.449 65.819C680.347 66.193 680.295 66.6147 680.295 67.084C680.295 67.7 680.38 68.2353 680.548 68.69C680.717 69.1373 680.97 69.482 681.307 69.724C681.645 69.966 682.063 70.087 682.561 70.087C682.884 70.087 683.192 70.0577 683.485 69.999C683.779 69.933 684.076 69.8487 684.376 69.746V70.769C684.083 70.8863 683.782 70.9707 683.474 71.022C683.174 71.0807 682.822 71.11 682.418 71.11C681.656 71.11 681.025 70.945 680.526 70.615C680.028 70.285 679.654 69.8157 679.404 69.207C679.155 68.5983 679.03 67.887 679.03 67.073C679.03 66.479 679.107 65.9363 679.261 65.445C679.415 64.9463 679.643 64.5173 679.943 64.158C680.244 63.7987 680.614 63.5237 681.054 63.333C681.494 63.135 681.997 63.036 682.561 63.036C682.943 63.036 683.317 63.08 683.683 63.168C684.05 63.2487 684.376 63.366 684.662 63.52L684.233 64.51C683.991 64.3927 683.727 64.29 683.441 64.202C683.163 64.1067 682.869 64.059 682.561 64.059ZM687.013 64.873C687.013 65.0563 687.005 65.2397 686.991 65.423C686.983 65.6063 686.972 65.7567 686.958 65.874H687.024C687.141 65.6687 687.284 65.5 687.453 65.368C687.629 65.236 687.823 65.137 688.036 65.071C688.256 65.005 688.479 64.972 688.707 64.972C689.139 64.972 689.506 65.049 689.807 65.203C690.115 65.3497 690.346 65.5843 690.5 65.907C690.661 66.2223 690.742 66.633 690.742 67.139V71H689.543V67.304C689.543 66.842 689.455 66.4973 689.279 66.27C689.103 66.0353 688.828 65.918 688.454 65.918C688.094 65.918 687.808 65.9987 687.596 66.16C687.383 66.3213 687.233 66.5597 687.145 66.875C687.057 67.183 687.013 67.5643 687.013 68.019V71H685.825V62.64H687.013V64.873ZM694.622 64.961C695.318 64.961 695.843 65.126 696.195 65.456C696.554 65.7787 696.734 66.2883 696.734 66.985V71H695.887L695.656 70.175H695.612C695.443 70.3877 695.274 70.5637 695.106 70.703C694.944 70.8423 694.754 70.945 694.534 71.011C694.321 71.077 694.057 71.11 693.742 71.11C693.412 71.11 693.115 71.0477 692.851 70.923C692.587 70.791 692.378 70.593 692.224 70.329C692.07 70.0577 691.993 69.7203 691.993 69.317C691.993 68.7157 692.205 68.2573 692.631 67.942C693.063 67.6267 693.72 67.4543 694.6 67.425L695.546 67.392V67.062C695.546 66.622 695.454 66.314 695.271 66.138C695.095 65.962 694.845 65.874 694.523 65.874C694.251 65.874 693.984 65.918 693.72 66.006C693.456 66.094 693.199 66.2003 692.95 66.325L692.587 65.478C692.858 65.3313 693.166 65.2103 693.511 65.115C693.863 65.0123 694.233 64.961 694.622 64.961ZM694.831 68.173C694.229 68.2023 693.811 68.316 693.577 68.514C693.342 68.7047 693.225 68.976 693.225 69.328C693.225 69.636 693.305 69.8597 693.467 69.999C693.635 70.1383 693.852 70.208 694.116 70.208C694.519 70.208 694.856 70.0797 695.128 69.823C695.406 69.5663 695.546 69.1813 695.546 68.668V68.151L694.831 68.173ZM700.473 70.164C700.627 70.164 700.777 70.1493 700.924 70.12C701.07 70.0907 701.199 70.0577 701.309 70.021V70.901C701.184 70.9597 701.019 71.0073 700.814 71.044C700.616 71.088 700.407 71.11 700.187 71.11C699.879 71.11 699.596 71.055 699.34 70.945C699.083 70.835 698.878 70.6443 698.724 70.373C698.57 70.1017 698.493 69.724 698.493 69.24V65.962H697.734V65.434L698.548 64.994L698.955 63.74H699.692V65.071H701.265V65.962H699.692V69.218C699.692 69.5407 699.765 69.779 699.912 69.933C700.058 70.087 700.245 70.164 700.473 70.164Z" fill="#464648"/>
<g clip-path="url(#clip0_1067_54292)">
<path d="M776.095 35.1667H755.905C755.59 35.1667 755.333 35.4339 755.333 35.7604V48.625C755.333 49.9362 756.357 51 757.619 51H774.381C775.643 51 776.667 49.9362 776.667 48.625V35.7604C776.667 35.4339 776.409 35.1667 776.095 35.1667ZM755.333 32.9896V31.2084C755.333 29.8972 756.357 28.8334 757.619 28.8334H759.905V26.2604C759.905 25.9339 760.162 25.6667 760.476 25.6667H762.381C762.695 25.6667 762.952 25.9339 762.952 26.2604V28.8334H769.047V26.2604C769.047 25.9339 769.305 25.6667 769.619 25.6667H771.524C771.838 25.6667 772.095 25.9339 772.095 26.2604V28.8334H774.381C775.643 28.8334 776.667 29.8972 776.667 31.2084V32.9896C776.667 33.3162 776.409 33.5834 776.095 33.5834H755.905C755.59 33.5834 755.333 33.3162 755.333 32.9896Z" fill="#464648"/>
</g>
<path d="M747.728 64.059C747.376 64.059 747.057 64.1287 746.771 64.268C746.492 64.4 746.254 64.598 746.056 64.862C745.865 65.126 745.718 65.445 745.616 65.819C745.513 66.193 745.462 66.6147 745.462 67.084C745.462 67.7 745.546 68.2353 745.715 68.69C745.883 69.1373 746.136 69.482 746.474 69.724C746.811 69.966 747.229 70.087 747.728 70.087C748.05 70.087 748.358 70.0577 748.652 69.999C748.945 69.933 749.242 69.8487 749.543 69.746V70.769C749.249 70.8863 748.949 70.9707 748.641 71.022C748.34 71.0807 747.988 71.11 747.585 71.11C746.822 71.11 746.191 70.945 745.693 70.615C745.194 70.285 744.82 69.8157 744.571 69.207C744.321 68.5983 744.197 67.887 744.197 67.073C744.197 66.479 744.274 65.9363 744.428 65.445C744.582 64.9463 744.809 64.5173 745.11 64.158C745.41 63.7987 745.781 63.5237 746.221 63.333C746.661 63.135 747.163 63.036 747.728 63.036C748.109 63.036 748.483 63.08 748.85 63.168C749.216 63.2487 749.543 63.366 749.829 63.52L749.4 64.51C749.158 64.3927 748.894 64.29 748.608 64.202C748.329 64.1067 748.036 64.059 747.728 64.059ZM753.235 64.961C753.932 64.961 754.456 65.126 754.808 65.456C755.168 65.7787 755.347 66.2883 755.347 66.985V71H754.5L754.269 70.175H754.225C754.057 70.3877 753.888 70.5637 753.719 70.703C753.558 70.8423 753.367 70.945 753.147 71.011C752.935 71.077 752.671 71.11 752.355 71.11C752.025 71.11 751.728 71.0477 751.464 70.923C751.2 70.791 750.991 70.593 750.837 70.329C750.683 70.0577 750.606 69.7203 750.606 69.317C750.606 68.7157 750.819 68.2573 751.244 67.942C751.677 67.6267 752.333 67.4543 753.213 67.425L754.159 67.392V67.062C754.159 66.622 754.068 66.314 753.884 66.138C753.708 65.962 753.459 65.874 753.136 65.874C752.865 65.874 752.597 65.918 752.333 66.006C752.069 66.094 751.813 66.2003 751.563 66.325L751.2 65.478C751.472 65.3313 751.78 65.2103 752.124 65.115C752.476 65.0123 752.847 64.961 753.235 64.961ZM753.444 68.173C752.843 68.2023 752.425 68.316 752.19 68.514C751.956 68.7047 751.838 68.976 751.838 69.328C751.838 69.636 751.919 69.8597 752.08 69.999C752.249 70.1383 752.465 70.208 752.729 70.208C753.133 70.208 753.47 70.0797 753.741 69.823C754.02 69.5663 754.159 69.1813 754.159 68.668V68.151L753.444 68.173ZM758.173 71H756.985V62.64H758.173V71ZM762.087 64.961C762.578 64.961 763.004 65.071 763.363 65.291C763.722 65.5037 763.997 65.8117 764.188 66.215C764.386 66.6183 764.485 67.095 764.485 67.645V68.283H760.756C760.771 68.8917 760.917 69.3573 761.196 69.68C761.475 70.0027 761.867 70.164 762.373 70.164C762.732 70.164 763.051 70.131 763.33 70.065C763.616 69.9917 763.906 69.8853 764.199 69.746V70.714C763.92 70.846 763.634 70.945 763.341 71.011C763.055 71.077 762.707 71.11 762.296 71.11C761.761 71.11 761.284 70.9963 760.866 70.769C760.448 70.5417 760.122 70.2043 759.887 69.757C759.652 69.3023 759.535 68.745 759.535 68.085C759.535 67.4177 759.641 66.853 759.854 66.391C760.067 65.929 760.364 65.577 760.745 65.335C761.134 65.0857 761.581 64.961 762.087 64.961ZM762.087 65.863C761.713 65.863 761.412 65.9987 761.185 66.27C760.958 66.5413 760.826 66.9263 760.789 67.425H763.308C763.308 67.117 763.264 66.8457 763.176 66.611C763.088 66.3763 762.952 66.193 762.769 66.061C762.593 65.929 762.366 65.863 762.087 65.863ZM768.719 64.961C769.365 64.961 769.86 65.1333 770.204 65.478C770.556 65.8227 770.732 66.3763 770.732 67.139V71H769.544V67.304C769.544 66.842 769.453 66.4973 769.269 66.27C769.093 66.0353 768.818 65.918 768.444 65.918C767.894 65.918 767.517 66.0977 767.311 66.457C767.106 66.8163 767.003 67.3333 767.003 68.008V71H765.815V65.071H766.75L766.915 65.863H766.981C767.106 65.6577 767.256 65.489 767.432 65.357C767.608 65.225 767.806 65.126 768.026 65.06C768.246 64.994 768.477 64.961 768.719 64.961ZM774.271 71.11C773.611 71.11 773.076 70.8533 772.665 70.34C772.262 69.8267 772.06 69.064 772.06 68.052C772.06 67.0327 772.266 66.2627 772.676 65.742C773.087 65.2213 773.626 64.961 774.293 64.961C774.579 64.961 774.825 65.0013 775.03 65.082C775.236 65.1553 775.415 65.258 775.569 65.39C775.723 65.522 775.852 65.6687 775.954 65.83H776.02C776.006 65.7273 775.987 65.5807 775.965 65.39C775.951 65.192 775.943 65.016 775.943 64.862V62.64H777.131V71H776.196L775.987 70.208H775.943C775.841 70.3767 775.712 70.5307 775.558 70.67C775.404 70.802 775.221 70.9083 775.008 70.989C774.803 71.0697 774.557 71.11 774.271 71.11ZM774.59 70.153C775.104 70.153 775.463 69.9953 775.668 69.68C775.881 69.3573 775.987 68.877 775.987 68.239V68.063C775.987 67.3663 775.888 66.8347 775.69 66.468C775.492 66.1013 775.122 65.918 774.579 65.918C774.154 65.918 773.831 66.1123 773.611 66.501C773.391 66.8823 773.281 67.4067 773.281 68.074C773.281 68.7413 773.391 69.2547 773.611 69.614C773.831 69.9733 774.158 70.153 774.59 70.153ZM781.047 64.961C781.743 64.961 782.268 65.126 782.62 65.456C782.979 65.7787 783.159 66.2883 783.159 66.985V71H782.312L782.081 70.175H782.037C781.868 70.3877 781.699 70.5637 781.531 70.703C781.369 70.8423 781.179 70.945 780.959 71.011C780.746 71.077 780.482 71.11 780.167 71.11C779.837 71.11 779.54 71.0477 779.276 70.923C779.012 70.791 778.803 70.593 778.649 70.329C778.495 70.0577 778.418 69.7203 778.418 69.317C778.418 68.7157 778.63 68.2573 779.056 67.942C779.488 67.6267 780.145 67.4543 781.025 67.425L781.971 67.392V67.062C781.971 66.622 781.879 66.314 781.696 66.138C781.52 65.962 781.27 65.874 780.948 65.874C780.676 65.874 780.409 65.918 780.145 66.006C779.881 66.094 779.624 66.2003 779.375 66.325L779.012 65.478C779.283 65.3313 779.591 65.2103 779.936 65.115C780.288 65.0123 780.658 64.961 781.047 64.961ZM781.256 68.173C780.654 68.2023 780.236 68.316 780.002 68.514C779.767 68.7047 779.65 68.976 779.65 69.328C779.65 69.636 779.73 69.8597 779.892 69.999C780.06 70.1383 780.277 70.208 780.541 70.208C780.944 70.208 781.281 70.0797 781.553 69.823C781.831 69.5663 781.971 69.1813 781.971 68.668V68.151L781.256 68.173ZM787.624 64.961C787.719 64.961 787.826 64.9683 787.943 64.983C788.06 64.9903 788.159 65.0013 788.24 65.016L788.119 66.105C788.038 66.083 787.947 66.0647 787.844 66.05C787.741 66.0353 787.639 66.028 787.536 66.028C787.338 66.028 787.147 66.072 786.964 66.16C786.781 66.2407 786.616 66.3617 786.469 66.523C786.322 66.677 786.205 66.8677 786.117 67.095C786.029 67.3223 785.985 67.5827 785.985 67.876V71H784.797V65.071H785.732L785.886 66.127H785.952C786.062 65.9143 786.198 65.72 786.359 65.544C786.528 65.368 786.718 65.2287 786.931 65.126C787.144 65.016 787.375 64.961 787.624 64.961Z" fill="#464648"/>
<path d="M841.576 33.4568L831.334 41.8939V50.9999C831.334 51.2357 831.427 51.4618 831.594 51.6285C831.761 51.7952 831.987 51.8889 832.223 51.8889L838.448 51.8728C838.683 51.8716 838.908 51.7774 839.073 51.6108C839.239 51.4442 839.332 51.2188 839.332 50.9838V45.666C839.332 45.4302 839.426 45.2041 839.592 45.0374C839.759 44.8706 839.985 44.777 840.221 44.777H843.776C844.012 44.777 844.238 44.8706 844.405 45.0374C844.571 45.2041 844.665 45.4302 844.665 45.666V50.9799C844.665 51.0969 844.687 51.2128 844.732 51.321C844.776 51.4291 844.842 51.5275 844.924 51.6103C845.007 51.6932 845.105 51.7589 845.213 51.8037C845.321 51.8486 845.437 51.8717 845.554 51.8717L851.777 51.8889C852.012 51.8889 852.238 51.7952 852.405 51.6285C852.572 51.4618 852.665 51.2357 852.665 50.9999V41.8878L842.426 33.4568C842.305 33.3598 842.155 33.3069 842.001 33.3069C841.846 33.3069 841.696 33.3598 841.576 33.4568ZM857.754 39.1914L853.11 35.3626V27.6667C853.11 27.4899 853.04 27.3203 852.915 27.1953C852.79 27.0702 852.62 27 852.443 27H849.332C849.156 27 848.986 27.0702 848.861 27.1953C848.736 27.3203 848.666 27.4899 848.666 27.6667V31.7011L843.692 27.6084C843.215 27.2156 842.616 27.0008 841.998 27.0008C841.38 27.0008 840.781 27.2156 840.304 27.6084L826.242 39.1914C826.174 39.2472 826.119 39.3157 826.078 39.3931C826.037 39.4705 826.011 39.5552 826.003 39.6424C825.995 39.7296 826.004 39.8176 826.029 39.9013C826.055 39.9851 826.097 40.0629 826.153 40.1304L827.57 41.8528C827.625 41.9205 827.694 41.9766 827.771 42.0178C827.849 42.059 827.933 42.0845 828.021 42.0929C828.108 42.1013 828.196 42.0925 828.28 42.0668C828.363 42.0411 828.441 41.9992 828.509 41.9433L841.576 31.1788C841.696 31.0817 841.846 31.0288 842.001 31.0288C842.155 31.0288 842.305 31.0817 842.426 31.1788L855.493 41.9433C855.56 41.9992 855.638 42.0412 855.722 42.0669C855.806 42.0927 855.894 42.1017 855.981 42.0934C856.068 42.0852 856.153 42.0598 856.23 42.0188C856.307 41.9778 856.376 41.922 856.432 41.8544L857.848 40.132C857.904 40.0642 857.946 39.9859 857.971 39.9018C857.997 39.8178 858.005 39.7295 857.997 39.6421C857.988 39.5546 857.962 39.4698 857.92 39.3925C857.879 39.3151 857.822 39.2468 857.754 39.1914Z" fill="#464648"/>
<path d="M833.823 71H832.602V67.414H829.214V71H827.993V63.146H829.214V66.402H832.602V63.146H833.823V71ZM840.611 68.03C840.611 68.5213 840.549 68.9577 840.424 69.339C840.299 69.7203 840.12 70.043 839.885 70.307C839.658 70.571 839.379 70.7727 839.049 70.912C838.719 71.044 838.349 71.11 837.938 71.11C837.564 71.11 837.216 71.044 836.893 70.912C836.57 70.7727 836.292 70.571 836.057 70.307C835.822 70.043 835.639 69.7203 835.507 69.339C835.382 68.9577 835.32 68.5177 835.32 68.019C835.32 67.3663 835.426 66.8127 835.639 66.358C835.852 65.9033 836.156 65.5587 836.552 65.324C836.955 65.082 837.432 64.961 837.982 64.961C838.495 64.961 838.95 65.082 839.346 65.324C839.742 65.5587 840.05 65.9033 840.27 66.358C840.497 66.8127 840.611 67.37 840.611 68.03ZM836.552 68.03C836.552 68.47 836.6 68.8513 836.695 69.174C836.798 69.4893 836.952 69.7313 837.157 69.9C837.37 70.0687 837.637 70.153 837.96 70.153C838.29 70.153 838.558 70.0687 838.763 69.9C838.976 69.7313 839.13 69.4893 839.225 69.174C839.328 68.8513 839.379 68.47 839.379 68.03C839.379 67.5753 839.328 67.194 839.225 66.886C839.122 66.578 838.968 66.3433 838.763 66.182C838.558 66.0133 838.286 65.929 837.949 65.929C837.458 65.929 837.102 66.1123 836.882 66.479C836.662 66.8457 836.552 67.3627 836.552 68.03ZM848.291 64.961C848.922 64.961 849.395 65.1333 849.71 65.478C850.033 65.8227 850.194 66.3763 850.194 67.139V71H849.006V67.293C849.006 66.8383 848.922 66.4973 848.753 66.27C848.592 66.0353 848.339 65.918 847.994 65.918C847.517 65.918 847.176 66.083 846.971 66.413C846.773 66.7357 846.674 67.205 846.674 67.821V71H845.475V67.293C845.475 66.9923 845.438 66.7393 845.365 66.534C845.292 66.3287 845.182 66.1747 845.035 66.072C844.888 65.9693 844.698 65.918 844.463 65.918C844.133 65.918 843.873 65.9987 843.682 66.16C843.491 66.3213 843.356 66.5597 843.275 66.875C843.194 67.183 843.154 67.5607 843.154 68.008V71H841.966V65.071H842.901L843.077 65.863H843.132C843.249 65.6577 843.389 65.489 843.55 65.357C843.719 65.225 843.909 65.126 844.122 65.06C844.335 64.994 844.555 64.961 844.782 64.961C845.2 64.961 845.552 65.0417 845.838 65.203C846.124 65.357 846.337 65.5953 846.476 65.918H846.553C846.729 65.588 846.975 65.346 847.29 65.192C847.605 65.038 847.939 64.961 848.291 64.961ZM854.071 64.961C854.563 64.961 854.988 65.071 855.347 65.291C855.707 65.5037 855.982 65.8117 856.172 66.215C856.37 66.6183 856.469 67.095 856.469 67.645V68.283H852.74C852.755 68.8917 852.902 69.3573 853.18 69.68C853.459 70.0027 853.851 70.164 854.357 70.164C854.717 70.164 855.036 70.131 855.314 70.065C855.6 69.9917 855.89 69.8853 856.183 69.746V70.714C855.905 70.846 855.619 70.945 855.325 71.011C855.039 71.077 854.691 71.11 854.28 71.11C853.745 71.11 853.268 70.9963 852.85 70.769C852.432 70.5417 852.106 70.2043 851.871 69.757C851.637 69.3023 851.519 68.745 851.519 68.085C851.519 67.4177 851.626 66.853 851.838 66.391C852.051 65.929 852.348 65.577 852.729 65.335C853.118 65.0857 853.565 64.961 854.071 64.961ZM854.071 65.863C853.697 65.863 853.397 65.9987 853.169 66.27C852.942 66.5413 852.81 66.9263 852.773 67.425H855.292C855.292 67.117 855.248 66.8457 855.16 66.611C855.072 66.3763 854.937 66.193 854.753 66.061C854.577 65.929 854.35 65.863 854.071 65.863Z" fill="#464648"/>
<line opacity="0.2" x1="886.5" y1="22" x2="886.5" y2="78" stroke="#464648"/>
<path d="M906.732 37.4289L903.833 39.4474C904.269 40.3632 904.875 41.2136 905.652 41.9986C906.429 42.7836 907.338 43.4097 908.381 43.8769C909.442 44.3255 910.578 44.5498 911.791 44.5498C912.701 44.5498 913.563 44.4096 914.377 44.1292C915.211 43.8676 915.959 43.4844 916.623 42.9798C917.286 42.4565 917.807 41.821 918.186 41.0734C918.565 40.3259 918.754 39.4755 918.754 38.5223C918.754 37.6812 918.612 36.943 918.328 36.3075C918.063 35.6534 917.684 35.0927 917.191 34.6254C916.717 34.1395 916.177 33.7283 915.571 33.3919C914.984 33.0555 914.368 32.7751 913.724 32.5509C912.719 32.2144 911.886 31.8874 911.223 31.5696C910.559 31.2332 910.067 30.8875 909.745 30.5324C909.423 30.1586 909.262 29.7287 909.262 29.2428C909.262 28.7568 909.461 28.3363 909.858 27.9812C910.256 27.6074 910.853 27.4205 911.649 27.4205C912.255 27.4205 912.795 27.542 913.269 27.7849C913.743 28.0092 914.159 28.3176 914.519 28.7101C914.898 29.0839 915.22 29.5044 915.486 29.9717L918.669 28.2335C918.328 27.542 917.845 26.8785 917.219 26.243C916.613 25.5889 915.846 25.0562 914.917 24.645C914.008 24.2152 912.918 24.0002 911.649 24.0002C910.417 24.0002 909.3 24.2245 908.295 24.6731C907.31 25.1029 906.524 25.7291 905.936 26.5514C905.368 27.3551 905.084 28.3176 905.084 29.439C905.084 30.3735 905.264 31.1772 905.624 31.85C905.984 32.5041 906.438 33.0648 906.988 33.5321C907.537 33.9806 908.115 34.3544 908.722 34.6535C909.347 34.9338 909.896 35.1581 910.37 35.3263C911.261 35.6627 912.009 35.9805 912.615 36.2795C913.241 36.5598 913.705 36.8869 914.008 37.2607C914.33 37.6345 914.491 38.1298 914.491 38.7466C914.491 39.4568 914.235 40.0175 913.724 40.4286C913.212 40.8398 912.549 41.0454 911.734 41.0454C911.033 41.0454 910.379 40.8959 909.773 40.5969C909.167 40.2978 908.608 39.8773 908.096 39.3353C907.604 38.7933 907.149 38.1578 906.732 37.4289Z" fill="#464648"/>
<path d="M963.779 24.5016L959.68 32.3763L955.609 24.5016H951.185L957.726 35.9785V44.0487H961.662V35.9506L968.202 24.5016H963.779Z" fill="#464648"/>
<path d="M939.495 44.0487H948.473V40.6698H939.495V44.0487ZM939.495 27.8804H948.473V24.5016H939.495V27.8804ZM939.495 35.3363H946.72V32.0133H939.495V35.3363ZM936.881 24.5016V44.0487H940.803V24.5016H936.881Z" fill="#464648"/>
<path d="M924.473 44.0487H933.058V40.6698H924.473V44.0487ZM924.473 27.8804H933.058V24.5016H924.473V27.8804ZM924.473 35.3363H931.374V32.0133H924.473V35.3363ZM921.96 24.5016V44.0487H925.73V24.5016H921.96Z" fill="#464648"/>
<path d="M991.139 24.5016V37.2086C991.139 38.326 991.323 39.3084 991.691 40.1555C992.059 41.0026 992.574 41.7146 993.237 42.2913C993.9 42.8681 994.682 43.3007 995.584 43.5891C996.486 43.8955 997.47 44.0487 998.538 44.0487C999.587 44.0487 1000.56 43.8955 1001.46 43.5891C1002.37 43.3007 1003.15 42.8681 1003.81 42.2913C1004.49 41.7146 1005.02 41.0026 1005.38 40.1555C1005.75 39.3084 1005.94 38.326 1005.94 37.2086V24.5016H1001.99V36.9652C1001.99 38.0467 1001.69 38.9208 1001.11 39.5877C1000.53 40.2366 999.679 40.561 998.538 40.561C997.397 40.561 996.532 40.2366 995.943 39.5877C995.372 38.9208 995.087 38.0467 995.087 36.9652V24.5016H991.139Z" fill="#464648"/>
<path fill-rule="evenodd" clip-rule="evenodd" d="M982.787 29.9565C983.795 31.0959 984.403 32.6185 984.403 34.2749C984.403 37.7466 981.731 40.6303 978.314 40.6303C974.898 40.6303 972.225 37.7466 972.225 34.2749C972.225 30.8269 974.862 27.9588 978.245 27.92V24.0003C972.684 24.0381 968.203 28.6151 968.203 34.2749C968.203 39.9583 972.721 44.5498 978.314 44.5498C983.908 44.5498 988.426 39.9583 988.426 34.2749C988.426 31.8726 987.619 29.6654 986.264 27.9176L982.787 29.9565Z" fill="#464648"/>
<rect x="902" y="52" width="107" height="24" rx="4" fill="#EA4343"/>
<path d="M951.453 68H947.262V60.146H951.453V61.158H948.483V63.402H951.277V64.403H948.483V66.977H951.453V68ZM954.164 64.975L952.283 62.071H953.636L954.923 64.205L956.188 62.071H957.552L955.66 64.975L957.64 68H956.287L954.923 65.734L953.537 68H952.195L954.164 64.975ZM959.823 62.071V68H958.624V62.071H959.823ZM959.24 59.816C959.416 59.816 959.57 59.8673 959.702 59.97C959.834 60.0727 959.9 60.245 959.9 60.487C959.9 60.7217 959.834 60.894 959.702 61.004C959.57 61.1067 959.416 61.158 959.24 61.158C959.049 61.158 958.888 61.1067 958.756 61.004C958.624 60.894 958.558 60.7217 958.558 60.487C958.558 60.245 958.624 60.0727 958.756 59.97C958.888 59.8673 959.049 59.816 959.24 59.816ZM963.593 67.164C963.747 67.164 963.898 67.1493 964.044 67.12C964.191 67.0907 964.319 67.0577 964.429 67.021V67.901C964.305 67.9597 964.14 68.0073 963.934 68.044C963.736 68.088 963.527 68.11 963.307 68.11C962.999 68.11 962.717 68.055 962.46 67.945C962.204 67.835 961.998 67.6443 961.844 67.373C961.69 67.1017 961.613 66.724 961.613 66.24V62.962H960.854V62.434L961.668 61.994L962.075 60.74H962.812V62.071H964.385V62.962H962.812V66.218C962.812 66.5407 962.886 66.779 963.032 66.933C963.179 67.087 963.366 67.164 963.593 67.164Z" fill="white"/>
<path d="M1001.62 62.67L996.98 67.31L992.33 62.67" stroke="white" stroke-linecap="round" stroke-linejoin="round"/>
</g>
<defs>
<filter id="filter0_d_1067_54292" x="0" y="0" width="1055" height="140" filterUnits="userSpaceOnUse" color-interpolation-filters="sRGB">
<feFlood flood-opacity="0" result="BackgroundImageFix"/>
<feColorMatrix in="SourceAlpha" type="matrix" values="0 0 0 0 0 0 0 0 0 0 0 0 0 0 0 0 0 0 127 0" result="hardAlpha"/>
<feOffset dy="20"/>
<feGaussianBlur stdDeviation="15"/>
<feColorMatrix type="matrix" values="0 0 0 0 0 0 0 0 0 0 0 0 0 0 0 0 0 0 0.2 0"/>
<feBlend mode="normal" in2="BackgroundImageFix" result="effect1_dropShadow_1067_54292"/>
<feBlend mode="normal" in="SourceGraphic" in2="effect1_dropShadow_1067_54292" result="shape"/>
</filter>
<clipPath id="clip0_1067_54292">
<rect width="21.3333" height="25.3333" fill="white" transform="translate(755.333 25.6667)"/>
</clipPath>
</defs>
</svg>
