<svg width="853" height="161" viewBox="0 0 853 161" fill="none" xmlns="http://www.w3.org/2000/svg">
<g filter="url(#filter0_bd_1701_6969)">
<rect x="37" y="8" width="778.914" height="86" rx="11.9752" fill="#F1F1F5"/>
<g clip-path="url(#clip0_1701_6969)">
<rect x="46.8286" y="31.3428" width="87.2286" height="9.82857" rx="3.68571" fill="#464648"/>
<rect x="94.5555" y="31.3428" width="2.78604" height="9.82857" fill="#FBFF38"/>
<rect x="74.912" y="31.3428" width="2.78603" height="9.82857" fill="#FBFF38"/>
<rect x="112.674" y="31.3428" width="2.78604" height="9.82857" fill="#FBFF38"/>
<rect x="120.827" y="31.3428" width="2.78603" height="9.82857" fill="#FBFF38"/>
</g>
<path d="M59.898 62.718C60.6219 62.718 61.2307 62.1668 61.2307 61.1631V56.4243C61.3377 56.8192 61.6339 57.1565 62.1275 57.4445L70.5602 62.3971C70.914 62.611 71.2266 62.718 71.5886 62.718C72.3126 62.718 72.9214 62.1668 72.9214 61.1631V51.0191C72.9214 50.0154 72.3126 49.4642 71.5886 49.4642C71.2266 49.4642 70.914 49.5712 70.5602 49.7851L62.1275 54.7378C61.6339 55.0257 61.3377 55.3548 61.2307 55.7497V51.0191C61.2307 50.0154 60.6302 49.4642 59.9062 49.4642C59.536 49.4642 59.2316 49.5712 58.8696 49.7851L50.4369 54.7378C49.8116 55.108 49.5072 55.5276 49.5072 56.087C49.5072 56.6382 49.8198 57.0825 50.4369 57.4445L58.8696 62.3971C59.2233 62.611 59.536 62.718 59.898 62.718Z" fill="#464648"/>
<path d="M94.0173 56.1363C94.0173 56.9914 93.9534 57.7531 93.8256 58.4214C93.7077 59.0898 93.516 59.6598 93.2506 60.1316C92.9853 60.5936 92.6363 60.9474 92.2039 61.1931C91.7813 61.4388 91.2653 61.5617 90.6559 61.5617C89.8893 61.5617 89.2553 61.3454 88.7541 60.913C88.2626 60.4805 87.8941 59.8613 87.6483 59.0554C87.4125 58.2396 87.2945 57.2666 87.2945 56.1363C87.2945 54.9962 87.4026 54.0232 87.6189 53.2172C87.8449 52.4113 88.2037 51.797 88.6951 51.3744C89.1865 50.9419 89.8401 50.7257 90.6559 50.7257C91.4225 50.7257 92.0515 50.9419 92.543 51.3744C93.0442 51.797 93.4128 52.4113 93.6487 53.2172C93.8944 54.0232 94.0173 54.9962 94.0173 56.1363ZM88.9015 56.1363C88.9015 57.0504 88.9555 57.8121 89.0637 58.4214C89.1816 59.0308 89.3683 59.4878 89.6239 59.7925C89.8794 60.0972 90.2234 60.2496 90.6559 60.2496C91.0785 60.2496 91.4176 60.1021 91.6731 59.8073C91.9385 59.5026 92.1253 59.0456 92.2334 58.4362C92.3513 57.817 92.4103 57.0504 92.4103 56.1363C92.4103 55.2222 92.3513 54.4654 92.2334 53.8659C92.1253 53.2565 91.9385 52.7995 91.6731 52.4948C91.4176 52.1901 91.0785 52.0378 90.6559 52.0378C90.2234 52.0378 89.8794 52.1901 89.6239 52.4948C89.3683 52.7995 89.1816 53.2565 89.0637 53.8659C88.9555 54.4654 88.9015 55.2222 88.9015 56.1363ZM95.5367 60.5444C95.5367 60.1611 95.6301 59.8908 95.8168 59.7336C96.0134 59.5763 96.2542 59.4977 96.5392 59.4977C96.8144 59.4977 97.0503 59.5763 97.2469 59.7336C97.4533 59.8908 97.5565 60.1611 97.5565 60.5444C97.5565 60.9277 97.4533 61.2029 97.2469 61.37C97.0503 61.5371 96.8144 61.6206 96.5392 61.6206C96.2542 61.6206 96.0134 61.5371 95.8168 61.37C95.6301 61.2029 95.5367 60.9277 95.5367 60.5444ZM95.5367 54.3524C95.5367 53.9494 95.6301 53.6693 95.8168 53.5121C96.0134 53.3548 96.2542 53.2762 96.5392 53.2762C96.8144 53.2762 97.0503 53.3548 97.2469 53.5121C97.4533 53.6693 97.5565 53.9494 97.5565 54.3524C97.5565 54.7259 97.4533 54.9962 97.2469 55.1633C97.0503 55.3304 96.8144 55.4139 96.5392 55.4139C96.2542 55.4139 96.0134 55.3304 95.8168 55.1633C95.6301 54.9962 95.5367 54.7259 95.5367 54.3524ZM105.78 56.1363C105.78 56.9914 105.716 57.7531 105.588 58.4214C105.47 59.0898 105.279 59.6598 105.013 60.1316C104.748 60.5936 104.399 60.9474 103.967 61.1931C103.544 61.4388 103.028 61.5617 102.419 61.5617C101.652 61.5617 101.018 61.3454 100.517 60.913C100.025 60.4805 99.6567 59.8613 99.411 59.0554C99.1751 58.2396 99.0571 57.2666 99.0571 56.1363C99.0571 54.9962 99.1652 54.0232 99.3815 53.2172C99.6075 52.4113 99.9663 51.797 100.458 51.3744C100.949 50.9419 101.603 50.7257 102.419 50.7257C103.185 50.7257 103.814 50.9419 104.306 51.3744C104.807 51.797 105.175 52.4113 105.411 53.2172C105.657 54.0232 105.78 54.9962 105.78 56.1363ZM100.664 56.1363C100.664 57.0504 100.718 57.8121 100.826 58.4214C100.944 59.0308 101.131 59.4878 101.387 59.7925C101.642 60.0972 101.986 60.2496 102.419 60.2496C102.841 60.2496 103.18 60.1021 103.436 59.8073C103.701 59.5026 103.888 59.0456 103.996 58.4362C104.114 57.817 104.173 57.0504 104.173 56.1363C104.173 55.2222 104.114 54.4654 103.996 53.8659C103.888 53.2565 103.701 52.7995 103.436 52.4948C103.18 52.1901 102.841 52.0378 102.419 52.0378C101.986 52.0378 101.642 52.1901 101.387 52.4948C101.131 52.7995 100.944 53.2565 100.826 53.8659C100.718 54.4654 100.664 55.2222 100.664 56.1363ZM113.727 56.1363C113.727 56.9914 113.663 57.7531 113.536 58.4214C113.418 59.0898 113.226 59.6598 112.961 60.1316C112.695 60.5936 112.346 60.9474 111.914 61.1931C111.491 61.4388 110.975 61.5617 110.366 61.5617C109.599 61.5617 108.965 61.3454 108.464 60.913C107.973 60.4805 107.604 59.8613 107.358 59.0554C107.122 58.2396 107.004 57.2666 107.004 56.1363C107.004 54.9962 107.113 54.0232 107.329 53.2172C107.555 52.4113 107.914 51.797 108.405 51.3744C108.896 50.9419 109.55 50.7257 110.366 50.7257C111.132 50.7257 111.761 50.9419 112.253 51.3744C112.754 51.797 113.123 52.4113 113.359 53.2172C113.604 54.0232 113.727 54.9962 113.727 56.1363ZM108.611 56.1363C108.611 57.0504 108.665 57.8121 108.774 58.4214C108.892 59.0308 109.078 59.4878 109.334 59.7925C109.589 60.0972 109.933 60.2496 110.366 60.2496C110.788 60.2496 111.128 60.1021 111.383 59.8073C111.648 59.5026 111.835 59.0456 111.943 58.4362C112.061 57.817 112.12 57.0504 112.12 56.1363C112.12 55.2222 112.061 54.4654 111.943 53.8659C111.835 53.2565 111.648 52.7995 111.383 52.4948C111.128 52.1901 110.788 52.0378 110.366 52.0378C109.933 52.0378 109.589 52.1901 109.334 52.4948C109.078 52.7995 108.892 53.2565 108.774 53.8659C108.665 54.4654 108.611 55.2222 108.611 56.1363ZM115.247 60.5444C115.247 60.1611 115.34 59.8908 115.527 59.7336C115.723 59.5763 115.964 59.4977 116.249 59.4977C116.524 59.4977 116.76 59.5763 116.957 59.7336C117.163 59.8908 117.266 60.1611 117.266 60.5444C117.266 60.9277 117.163 61.2029 116.957 61.37C116.76 61.5371 116.524 61.6206 116.249 61.6206C115.964 61.6206 115.723 61.5371 115.527 61.37C115.34 61.2029 115.247 60.9277 115.247 60.5444ZM115.247 54.3524C115.247 53.9494 115.34 53.6693 115.527 53.5121C115.723 53.3548 115.964 53.2762 116.249 53.2762C116.524 53.2762 116.76 53.3548 116.957 53.5121C117.163 53.6693 117.266 53.9494 117.266 54.3524C117.266 54.7259 117.163 54.9962 116.957 55.1633C116.76 55.3304 116.524 55.4139 116.249 55.4139C115.964 55.4139 115.723 55.3304 115.527 55.1633C115.34 54.9962 115.247 54.7259 115.247 54.3524ZM125.49 56.1363C125.49 56.9914 125.426 57.7531 125.298 58.4214C125.18 59.0898 124.989 59.6598 124.723 60.1316C124.458 60.5936 124.109 60.9474 123.676 61.1931C123.254 61.4388 122.738 61.5617 122.128 61.5617C121.362 61.5617 120.728 61.3454 120.227 60.913C119.735 60.4805 119.367 59.8613 119.121 59.0554C118.885 58.2396 118.767 57.2666 118.767 56.1363C118.767 54.9962 118.875 54.0232 119.091 53.2172C119.317 52.4113 119.676 51.797 120.168 51.3744C120.659 50.9419 121.313 50.7257 122.128 50.7257C122.895 50.7257 123.524 50.9419 124.016 51.3744C124.517 51.797 124.885 52.4113 125.121 53.2172C125.367 54.0232 125.49 54.9962 125.49 56.1363ZM120.374 56.1363C120.374 57.0504 120.428 57.8121 120.536 58.4214C120.654 59.0308 120.841 59.4878 121.096 59.7925C121.352 60.0972 121.696 60.2496 122.128 60.2496C122.551 60.2496 122.89 60.1021 123.146 59.8073C123.411 59.5026 123.598 59.0456 123.706 58.4362C123.824 57.817 123.883 57.0504 123.883 56.1363C123.883 55.2222 123.824 54.4654 123.706 53.8659C123.598 53.2565 123.411 52.7995 123.146 52.4948C122.89 52.1901 122.551 52.0378 122.128 52.0378C121.696 52.0378 121.352 52.1901 121.096 52.4948C120.841 52.7995 120.654 53.2565 120.536 53.8659C120.428 54.4654 120.374 55.2222 120.374 56.1363ZM133.437 56.1363C133.437 56.9914 133.373 57.7531 133.245 58.4214C133.128 59.0898 132.936 59.6598 132.67 60.1316C132.405 60.5936 132.056 60.9474 131.624 61.1931C131.201 61.4388 130.685 61.5617 130.076 61.5617C129.309 61.5617 128.675 61.3454 128.174 60.913C127.682 60.4805 127.314 59.8613 127.068 59.0554C126.832 58.2396 126.714 57.2666 126.714 56.1363C126.714 54.9962 126.822 54.0232 127.039 53.2172C127.265 52.4113 127.624 51.797 128.115 51.3744C128.606 50.9419 129.26 50.7257 130.076 50.7257C130.842 50.7257 131.471 50.9419 131.963 51.3744C132.464 51.797 132.833 52.4113 133.069 53.2172C133.314 54.0232 133.437 54.9962 133.437 56.1363ZM128.321 56.1363C128.321 57.0504 128.375 57.8121 128.484 58.4214C128.601 59.0308 128.788 59.4878 129.044 59.7925C129.299 60.0972 129.643 60.2496 130.076 60.2496C130.498 60.2496 130.837 60.1021 131.093 59.8073C131.358 59.5026 131.545 59.0456 131.653 58.4362C131.771 57.817 131.83 57.0504 131.83 56.1363C131.83 55.2222 131.771 54.4654 131.653 53.8659C131.545 53.2565 131.358 52.7995 131.093 52.4948C130.837 52.1901 130.498 52.0378 130.076 52.0378C129.643 52.0378 129.299 52.1901 129.044 52.4948C128.788 52.7995 128.601 53.2565 128.484 53.8659C128.375 54.4654 128.321 55.2222 128.321 56.1363Z" fill="#464648"/>
<path fill-rule="evenodd" clip-rule="evenodd" d="M170.836 24.8766C170.119 24.8766 169.432 25.1613 168.925 25.668C168.419 26.1747 168.134 26.862 168.134 27.5786V47.3928C168.134 48.1094 168.419 48.7966 168.925 49.3033C169.432 49.81 170.119 50.0947 170.836 50.0947H181.798C182.515 50.0941 183.202 49.809 183.708 49.3021L192.561 40.4506C193.067 39.9441 193.352 39.2573 193.352 38.5412V27.5786C193.352 26.862 193.067 26.1747 192.561 25.668C192.054 25.1613 191.367 24.8766 190.65 24.8766H170.836ZM180.803 39.347V47.2655C180.803 47.6672 181.289 47.8689 181.572 47.5843L190.842 38.3149C190.905 38.2519 190.948 38.1716 190.965 38.0841C190.983 37.9967 190.974 37.906 190.94 37.8236C190.905 37.7412 190.848 37.6708 190.773 37.6213C190.699 37.5719 190.612 37.5456 190.523 37.5457H182.604C182.127 37.5457 181.668 37.7355 181.331 38.0733C180.993 38.4111 180.803 38.8693 180.803 39.347Z" fill="#464648"/>
<path d="M155.164 73.9146C155.164 74.4388 155.045 74.8851 154.807 75.2537C154.57 75.6223 154.23 75.9089 153.788 76.1137C153.345 76.3103 152.805 76.4086 152.166 76.4086C151.855 76.4086 151.556 76.3881 151.269 76.3471C150.991 76.3144 150.733 76.2652 150.495 76.1997C150.266 76.1342 150.049 76.0523 149.844 75.954V74.7008C150.172 74.8483 150.544 74.9834 150.962 75.1063C151.388 75.2209 151.81 75.2783 152.227 75.2783C152.588 75.2783 152.883 75.225 153.112 75.1186C153.349 75.0121 153.526 74.8647 153.64 74.6763C153.763 74.4879 153.824 74.2668 153.824 74.0128C153.824 73.7426 153.763 73.5173 153.64 73.3371C153.526 73.1488 153.333 72.9768 153.063 72.8211C152.801 72.6573 152.448 72.4894 152.006 72.3174C151.695 72.1864 151.412 72.0471 151.158 71.8997C150.905 71.7441 150.683 71.5639 150.495 71.3591C150.315 71.1544 150.176 70.9168 150.077 70.6466C149.987 70.3763 149.942 70.0609 149.942 69.7006C149.942 69.2173 150.057 68.8037 150.286 68.4597C150.516 68.1157 150.835 67.8536 151.244 67.6734C151.654 67.485 152.133 67.3908 152.682 67.3908C153.141 67.3908 153.562 67.44 153.947 67.5383C154.332 67.6284 154.697 67.7553 155.041 67.9191L154.611 69.0126C154.291 68.8733 153.968 68.7587 153.64 68.6686C153.321 68.5785 152.989 68.5334 152.645 68.5334C152.342 68.5334 152.088 68.5826 151.883 68.6808C151.687 68.7791 151.539 68.9143 151.441 69.0863C151.343 69.2583 151.294 69.4589 151.294 69.6883C151.294 69.9586 151.351 70.1838 151.466 70.364C151.58 70.5442 151.765 70.7121 152.018 70.8677C152.272 71.0151 152.608 71.1789 153.026 71.3591C153.485 71.5557 153.874 71.7646 154.193 71.9857C154.512 72.1987 154.754 72.4608 154.918 72.772C155.082 73.075 155.164 73.4559 155.164 73.9146ZM158.966 75.352C159.138 75.352 159.306 75.3356 159.47 75.3028C159.633 75.2701 159.777 75.2332 159.9 75.1923V76.1751C159.76 76.2407 159.576 76.2939 159.347 76.3348C159.126 76.384 158.892 76.4086 158.646 76.4086C158.302 76.4086 157.987 76.3471 157.7 76.2243C157.414 76.1014 157.184 75.8885 157.012 75.5854C156.84 75.2824 156.754 74.8606 156.754 74.32V70.6588H155.907V70.0691L156.816 69.5777L157.27 68.1771H158.094V69.6637H159.85V70.6588H158.094V74.2954C158.094 74.6558 158.175 74.922 158.339 75.094C158.503 75.266 158.712 75.352 158.966 75.352ZM162.47 69.6637V76.2857H161.13V69.6637H162.47ZM161.818 67.1451C162.015 67.1451 162.187 67.2025 162.334 67.3171C162.482 67.4318 162.556 67.6243 162.556 67.8946C162.556 68.1567 162.482 68.3491 162.334 68.472C162.187 68.5867 162.015 68.644 161.818 68.644C161.605 68.644 161.425 68.5867 161.278 68.472C161.13 68.3491 161.057 68.1567 161.057 67.8946C161.057 67.6243 161.13 67.4318 161.278 67.3171C161.425 67.2025 161.605 67.1451 161.818 67.1451ZM166.902 76.4086C166.32 76.4086 165.808 76.2898 165.366 76.0523C164.932 75.8148 164.592 75.4462 164.346 74.9466C164.109 74.4388 163.99 73.7958 163.99 73.0177C163.99 72.1987 164.121 71.5352 164.383 71.0274C164.645 70.5196 165.001 70.1469 165.452 69.9094C165.902 69.6637 166.418 69.5408 167 69.5408C167.344 69.5408 167.671 69.5818 167.983 69.6637C168.302 69.7374 168.564 69.8234 168.769 69.9217L168.364 70.966C168.159 70.8841 167.938 70.8104 167.7 70.7448C167.463 70.6793 167.237 70.6466 167.024 70.6466C166.648 70.6466 166.336 70.7367 166.091 70.9168C165.853 71.0888 165.673 71.3509 165.55 71.7031C165.427 72.0471 165.366 72.4812 165.366 73.0054C165.366 73.505 165.427 73.9268 165.55 74.2708C165.673 74.6148 165.853 74.8769 166.091 75.0571C166.336 75.2291 166.631 75.3151 166.975 75.3151C167.311 75.3151 167.61 75.2742 167.872 75.1923C168.142 75.1104 168.392 75.0039 168.622 74.8728V76.0031C168.392 76.1424 168.142 76.2448 167.872 76.3103C167.602 76.3758 167.278 76.4086 166.902 76.4086ZM171.384 71.6171C171.384 71.7891 171.375 71.9857 171.359 72.2068C171.343 72.428 171.326 72.6328 171.31 72.8211H171.359C171.408 72.7392 171.474 72.6409 171.556 72.5263C171.646 72.4034 171.736 72.2806 171.826 72.1577C171.924 72.0348 172.014 71.9284 172.096 71.8383L173.951 69.6637H175.475L173.005 72.5017L175.634 76.2857H174.062L172.096 73.3248L171.384 73.9637V76.2857H170.057V66.9486H171.384V71.6171ZM175.71 69.6637H177.135L178.401 73.4231C178.466 73.6115 178.524 73.7958 178.573 73.976C178.63 74.1562 178.675 74.3364 178.708 74.5166C178.749 74.6886 178.782 74.8606 178.806 75.0326H178.843C178.884 74.8196 178.941 74.5698 179.015 74.2831C179.089 73.9883 179.171 73.6975 179.261 73.4108L180.465 69.6637H181.902L179.248 77.1826C179.093 77.6085 178.904 77.9729 178.683 78.276C178.47 78.5872 178.208 78.8248 177.897 78.9886C177.594 79.1524 177.229 79.2343 176.804 79.2343C176.623 79.2343 176.46 79.222 176.312 79.1974C176.173 79.181 176.05 79.1606 175.944 79.136V78.104C176.025 78.1204 176.128 78.1368 176.251 78.1531C176.374 78.1695 176.5 78.1777 176.632 78.1777C176.869 78.1777 177.074 78.1286 177.246 78.0303C177.418 77.932 177.561 77.7928 177.676 77.6126C177.79 77.4406 177.885 77.2358 177.958 76.9983L178.204 76.2857L175.71 69.6637ZM192.861 76.2857H191.19L187.148 69.1968H187.099C187.107 69.3607 187.116 69.5368 187.124 69.7251C187.14 69.9135 187.152 70.1142 187.161 70.3271C187.169 70.5319 187.177 70.7448 187.185 70.966C187.193 71.1789 187.202 71.396 187.21 71.6171V76.2857H185.969V67.5137H187.628L191.657 74.5657H191.706C191.698 74.4428 191.69 74.2913 191.682 74.1111C191.674 73.9228 191.665 73.7221 191.657 73.5091C191.649 73.2962 191.641 73.0791 191.633 72.858C191.624 72.6368 191.62 72.428 191.62 72.2314V67.5137H192.861V76.2857ZM200.446 72.9686C200.446 73.5173 200.376 74.0047 200.237 74.4306C200.097 74.8565 199.897 75.2168 199.635 75.5117C199.381 75.8066 199.07 76.0318 198.701 76.1874C198.332 76.3348 197.919 76.4086 197.46 76.4086C197.042 76.4086 196.653 76.3348 196.293 76.1874C195.933 76.0318 195.621 75.8066 195.359 75.5117C195.097 75.2168 194.892 74.8565 194.745 74.4306C194.606 74.0047 194.536 73.5132 194.536 72.9563C194.536 72.2273 194.655 71.6089 194.892 71.1011C195.13 70.5933 195.47 70.2084 195.912 69.9463C196.363 69.676 196.895 69.5408 197.509 69.5408C198.083 69.5408 198.59 69.676 199.033 69.9463C199.475 70.2084 199.819 70.5933 200.065 71.1011C200.319 71.6089 200.446 72.2314 200.446 72.9686ZM195.912 72.9686C195.912 73.46 195.965 73.8859 196.072 74.2463C196.187 74.5985 196.359 74.8688 196.588 75.0571C196.825 75.2455 197.124 75.3397 197.485 75.3397C197.853 75.3397 198.152 75.2455 198.382 75.0571C198.619 74.8688 198.791 74.5985 198.898 74.2463C199.012 73.8859 199.07 73.46 199.07 72.9686C199.07 72.4608 199.012 72.0348 198.898 71.6908C198.783 71.3468 198.611 71.0848 198.382 70.9046C198.152 70.7162 197.849 70.622 197.472 70.622C196.924 70.622 196.526 70.8268 196.281 71.2363C196.035 71.6458 195.912 72.2232 195.912 72.9686ZM204.305 75.352C204.477 75.352 204.645 75.3356 204.809 75.3028C204.973 75.2701 205.116 75.2332 205.239 75.1923V76.1751C205.1 76.2407 204.916 76.2939 204.686 76.3348C204.465 76.384 204.232 76.4086 203.986 76.4086C203.642 76.4086 203.327 76.3471 203.04 76.2243C202.753 76.1014 202.524 75.8885 202.352 75.5854C202.18 75.2824 202.094 74.8606 202.094 74.32V70.6588H201.246V70.0691L202.155 69.5777L202.61 68.1771H203.433V69.6637H205.19V70.6588H203.433V74.2954C203.433 74.6558 203.515 74.922 203.679 75.094C203.843 75.266 204.051 75.352 204.305 75.352ZM208.976 69.5408C209.525 69.5408 210 69.6637 210.401 69.9094C210.803 70.1469 211.11 70.4909 211.323 70.9414C211.544 71.3919 211.655 71.9243 211.655 72.5386V73.2511H207.49C207.506 73.9309 207.67 74.451 207.981 74.8114C208.292 75.1718 208.731 75.352 209.296 75.352C209.697 75.352 210.053 75.3151 210.365 75.2414C210.684 75.1595 211.008 75.0408 211.335 74.8851V75.9663C211.024 76.1137 210.704 76.2243 210.377 76.298C210.057 76.3717 209.668 76.4086 209.21 76.4086C208.612 76.4086 208.079 76.2816 207.613 76.0277C207.146 75.7738 206.781 75.397 206.519 74.8974C206.257 74.3896 206.126 73.7671 206.126 73.03C206.126 72.2847 206.245 71.654 206.482 71.138C206.72 70.622 207.052 70.2288 207.477 69.9586C207.912 69.6801 208.411 69.5408 208.976 69.5408ZM208.976 70.5483C208.559 70.5483 208.223 70.6998 207.969 71.0028C207.715 71.3059 207.568 71.7359 207.527 72.2928H210.34C210.34 71.9488 210.291 71.6458 210.193 71.3837C210.094 71.1216 209.943 70.9168 209.738 70.7694C209.541 70.622 209.288 70.5483 208.976 70.5483Z" fill="#464648"/>
<rect width="73.7143" height="86" transform="translate(217.6 8)" fill="#00875E"/>
<path fill-rule="evenodd" clip-rule="evenodd" d="M254.457 52.3162C262.648 52.3162 269.288 45.6763 269.288 37.4856C269.288 29.2949 262.648 22.655 254.457 22.655C246.266 22.655 239.627 29.2949 239.627 37.4856C239.627 45.6763 246.266 52.3162 254.457 52.3162ZM254.457 49.7713C261.242 49.7713 266.743 44.2708 266.743 37.4856C266.743 30.7003 261.242 25.1998 254.457 25.1998C247.672 25.1998 242.171 30.7003 242.171 37.4856C242.171 44.2708 247.672 49.7713 254.457 49.7713Z" fill="white"/>
<circle cx="254.457" cy="37.4858" r="9.00367" fill="#EA4343" stroke="white" stroke-width="0.245714"/>
<path d="M229.66 67.5137C230.365 67.5137 230.946 67.6079 231.405 67.7963C231.864 67.9847 232.204 68.2672 232.425 68.644C232.654 69.0126 232.769 69.4794 232.769 70.0446C232.769 70.495 232.691 70.8759 232.535 71.1871C232.388 71.4902 232.191 71.74 231.946 71.9366C231.708 72.1249 231.45 72.2765 231.172 72.3911L233.494 76.2857H231.946L229.992 72.7351H228.653V76.2857H227.289V67.5137H229.66ZM229.599 68.644H228.653V71.6294H229.624C230.025 71.6294 230.352 71.5721 230.606 71.4574C230.868 71.3428 231.061 71.1708 231.184 70.9414C231.315 70.7121 231.38 70.4295 231.38 70.0937C231.38 69.7415 231.315 69.463 231.184 69.2583C231.061 69.0453 230.864 68.8897 230.594 68.7914C230.332 68.6931 230 68.644 229.599 68.644ZM237.027 69.5408C237.576 69.5408 238.051 69.6637 238.452 69.9094C238.853 70.1469 239.161 70.4909 239.374 70.9414C239.595 71.3919 239.705 71.9243 239.705 72.5386V73.2511H235.54C235.557 73.9309 235.721 74.451 236.032 74.8114C236.343 75.1718 236.781 75.352 237.346 75.352C237.748 75.352 238.104 75.3151 238.415 75.2414C238.735 75.1595 239.058 75.0408 239.386 74.8851V75.9663C239.075 76.1137 238.755 76.2243 238.428 76.298C238.108 76.3717 237.719 76.4086 237.26 76.4086C236.663 76.4086 236.13 76.2816 235.663 76.0277C235.196 75.7738 234.832 75.397 234.57 74.8974C234.308 74.3896 234.177 73.7671 234.177 73.03C234.177 72.2847 234.295 71.654 234.533 71.138C234.771 70.622 235.102 70.2288 235.528 69.9586C235.962 69.6801 236.462 69.5408 237.027 69.5408ZM237.027 70.5483C236.609 70.5483 236.273 70.6998 236.02 71.0028C235.766 71.3059 235.618 71.7359 235.577 72.2928H238.391C238.391 71.9488 238.342 71.6458 238.243 71.3837C238.145 71.1216 237.993 70.9168 237.789 70.7694C237.592 70.622 237.338 70.5483 237.027 70.5483ZM243.759 76.4086C243.178 76.4086 242.666 76.2898 242.223 76.0523C241.789 75.8148 241.449 75.4462 241.204 74.9466C240.966 74.4388 240.847 73.7958 240.847 73.0177C240.847 72.1987 240.979 71.5352 241.241 71.0274C241.503 70.5196 241.859 70.1469 242.309 69.9094C242.76 69.6637 243.276 69.5408 243.857 69.5408C244.201 69.5408 244.529 69.5818 244.84 69.6637C245.16 69.7374 245.422 69.8234 245.627 69.9217L245.221 70.966C245.016 70.8841 244.795 70.8104 244.558 70.7448C244.32 70.6793 244.095 70.6466 243.882 70.6466C243.505 70.6466 243.194 70.7367 242.948 70.9168C242.711 71.0888 242.531 71.3509 242.408 71.7031C242.285 72.0471 242.223 72.4812 242.223 73.0054C242.223 73.505 242.285 73.9268 242.408 74.2708C242.531 74.6148 242.711 74.8769 242.948 75.0571C243.194 75.2291 243.489 75.3151 243.833 75.3151C244.169 75.3151 244.468 75.2742 244.73 75.1923C245 75.1104 245.25 75.0039 245.479 74.8728V76.0031C245.25 76.1424 245 76.2448 244.73 76.3103C244.459 76.3758 244.136 76.4086 243.759 76.4086ZM252.48 72.9686C252.48 73.5173 252.41 74.0047 252.271 74.4306C252.132 74.8565 251.931 75.2168 251.669 75.5117C251.415 75.8066 251.104 76.0318 250.735 76.1874C250.367 76.3348 249.953 76.4086 249.494 76.4086C249.077 76.4086 248.688 76.3348 248.327 76.1874C247.967 76.0318 247.656 75.8066 247.394 75.5117C247.131 75.2168 246.927 74.8565 246.779 74.4306C246.64 74.0047 246.57 73.5132 246.57 72.9563C246.57 72.2273 246.689 71.6089 246.927 71.1011C247.164 70.5933 247.504 70.2084 247.946 69.9463C248.397 69.676 248.929 69.5408 249.544 69.5408C250.117 69.5408 250.625 69.676 251.067 69.9463C251.509 70.2084 251.853 70.5933 252.099 71.1011C252.353 71.6089 252.48 72.2314 252.48 72.9686ZM247.946 72.9686C247.946 73.46 248 73.8859 248.106 74.2463C248.221 74.5985 248.393 74.8688 248.622 75.0571C248.86 75.2455 249.159 75.3397 249.519 75.3397C249.888 75.3397 250.187 75.2455 250.416 75.0571C250.653 74.8688 250.825 74.5985 250.932 74.2463C251.047 73.8859 251.104 73.46 251.104 72.9686C251.104 72.4608 251.047 72.0348 250.932 71.6908C250.817 71.3468 250.645 71.0848 250.416 70.9046C250.187 70.7162 249.883 70.622 249.507 70.622C248.958 70.622 248.561 70.8268 248.315 71.2363C248.069 71.6458 247.946 72.2232 247.946 72.9686ZM257.151 69.5408C257.257 69.5408 257.376 69.549 257.507 69.5654C257.638 69.5736 257.748 69.5859 257.839 69.6023L257.703 70.8186C257.613 70.794 257.511 70.7735 257.396 70.7571C257.282 70.7408 257.167 70.7326 257.052 70.7326C256.831 70.7326 256.618 70.7817 256.413 70.88C256.209 70.9701 256.024 71.1052 255.861 71.2854C255.697 71.4574 255.566 71.6704 255.467 71.9243C255.369 72.1782 255.32 72.4689 255.32 72.7966V76.2857H253.993V69.6637H255.037L255.209 70.8431H255.283C255.406 70.6056 255.557 70.3886 255.738 70.192C255.926 69.9954 256.139 69.8398 256.377 69.7251C256.614 69.6023 256.872 69.5408 257.151 69.5408ZM260.858 76.4086C260.121 76.4086 259.523 76.1219 259.064 75.5486C258.613 74.9752 258.388 74.1234 258.388 72.9931C258.388 71.8547 258.618 70.9947 259.076 70.4131C259.535 69.8316 260.137 69.5408 260.882 69.5408C261.202 69.5408 261.476 69.5859 261.705 69.676C261.935 69.7579 262.135 69.8726 262.307 70.02C262.479 70.1674 262.623 70.3312 262.737 70.5114H262.811C262.795 70.3968 262.774 70.2329 262.75 70.02C262.733 69.7988 262.725 69.6023 262.725 69.4303V66.9486H264.052V76.2857H263.008L262.774 75.4011H262.725C262.61 75.5895 262.467 75.7615 262.295 75.9171C262.123 76.0646 261.918 76.1833 261.681 76.2734C261.451 76.3635 261.177 76.4086 260.858 76.4086ZM261.214 75.3397C261.787 75.3397 262.189 75.1636 262.418 74.8114C262.655 74.451 262.774 73.9146 262.774 73.202V73.0054C262.774 72.2273 262.664 71.6335 262.443 71.224C262.221 70.8145 261.808 70.6097 261.202 70.6097C260.727 70.6097 260.366 70.8268 260.121 71.2608C259.875 71.6868 259.752 72.2724 259.752 73.0177C259.752 73.763 259.875 74.3364 260.121 74.7377C260.366 75.139 260.731 75.3397 261.214 75.3397ZM267.258 69.6637V76.2857H265.919V69.6637H267.258ZM266.607 67.1451C266.803 67.1451 266.975 67.2025 267.123 67.3171C267.27 67.4318 267.344 67.6243 267.344 67.8946C267.344 68.1567 267.27 68.3491 267.123 68.472C266.975 68.5867 266.803 68.644 266.607 68.644C266.394 68.644 266.214 68.5867 266.066 68.472C265.919 68.3491 265.845 68.1567 265.845 67.8946C265.845 67.6243 265.919 67.4318 266.066 67.3171C266.214 67.2025 266.394 67.1451 266.607 67.1451ZM272.366 69.5408C273.086 69.5408 273.639 69.7333 274.024 70.1183C274.417 70.5032 274.614 71.1216 274.614 71.9734V76.2857H273.287V72.1577C273.287 71.6417 273.185 71.2568 272.98 71.0028C272.783 70.7408 272.476 70.6097 272.059 70.6097C271.444 70.6097 271.022 70.8104 270.793 71.2117C270.564 71.613 270.449 72.1905 270.449 72.944V76.2857H269.122V69.6637H270.167L270.351 70.5483H270.425C270.564 70.3189 270.732 70.1306 270.928 69.9831C271.125 69.8357 271.346 69.7251 271.592 69.6514C271.837 69.5777 272.095 69.5408 272.366 69.5408ZM278.591 69.5408C278.992 69.5408 279.349 69.6228 279.66 69.7866C279.979 69.9504 280.249 70.2002 280.471 70.536H280.52L280.667 69.6637H281.761V76.3717C281.761 76.9942 281.654 77.5184 281.441 77.9443C281.228 78.3702 280.905 78.6896 280.471 78.9026C280.037 79.1237 279.488 79.2343 278.824 79.2343C278.366 79.2343 277.948 79.2015 277.571 79.136C277.203 79.0705 276.859 78.9681 276.539 78.8288V77.6863C276.752 77.8009 276.981 77.8951 277.227 77.9688C277.473 78.0508 277.731 78.1081 278.001 78.1408C278.28 78.1818 278.566 78.2023 278.861 78.2023C279.369 78.2023 279.758 78.0467 280.028 77.7354C280.307 77.4324 280.446 77.0024 280.446 76.4454V76.2243C280.446 76.1178 280.45 75.9786 280.458 75.8066C280.467 75.6264 280.475 75.4953 280.483 75.4134H280.434C280.229 75.7574 279.971 76.0113 279.66 76.1751C279.357 76.3308 278.996 76.4086 278.579 76.4086C277.809 76.4086 277.203 76.1096 276.76 75.5117C276.318 74.9056 276.097 74.0661 276.097 72.9931C276.097 72.2724 276.195 71.6581 276.392 71.1503C276.597 70.6343 276.883 70.237 277.252 69.9586C277.629 69.6801 278.075 69.5408 278.591 69.5408ZM278.91 70.622C278.599 70.622 278.337 70.7162 278.124 70.9046C277.911 71.0848 277.747 71.3509 277.633 71.7031C277.526 72.0553 277.473 72.4894 277.473 73.0054C277.473 73.7753 277.596 74.3609 277.841 74.7623C278.087 75.1636 278.448 75.3643 278.923 75.3643C279.201 75.3643 279.439 75.3233 279.635 75.2414C279.832 75.1595 279.991 75.0326 280.114 74.8606C280.245 74.6886 280.34 74.4715 280.397 74.2094C280.462 73.9391 280.495 73.6156 280.495 73.2388V72.9931C280.495 72.428 280.438 71.9734 280.323 71.6294C280.217 71.2772 280.045 71.0233 279.807 70.8677C279.578 70.7039 279.279 70.622 278.91 70.622Z" fill="white"/>
<path d="M299.532 67.5137C300.236 67.5137 300.826 67.5833 301.301 67.7226C301.776 67.8618 302.133 68.0952 302.37 68.4228C302.608 68.7423 302.726 69.1682 302.726 69.7006C302.726 70.0446 302.669 70.3517 302.554 70.622C302.44 70.8841 302.272 71.1052 302.051 71.2854C301.829 71.4574 301.567 71.5721 301.264 71.6294V71.6908C301.576 71.7482 301.862 71.8547 302.124 72.0103C302.386 72.1577 302.591 72.3748 302.739 72.6614C302.894 72.9481 302.972 73.3208 302.972 73.7794C302.972 74.3118 302.853 74.7664 302.616 75.1431C302.378 75.5117 302.038 75.7943 301.596 75.9908C301.162 76.1874 300.642 76.2857 300.036 76.2857H297.05V67.5137H299.532ZM299.704 71.1748C300.327 71.1748 300.752 71.0643 300.982 70.8431C301.211 70.622 301.326 70.2944 301.326 69.8603C301.326 69.418 301.187 69.1027 300.908 68.9143C300.63 68.7259 300.187 68.6317 299.581 68.6317H298.414V71.1748H299.704ZM298.414 72.256V75.18H299.839C300.478 75.18 300.924 75.0408 301.178 74.7623C301.432 74.4838 301.559 74.1152 301.559 73.6566C301.559 73.3781 301.502 73.1324 301.387 72.9194C301.273 72.7065 301.084 72.5427 300.822 72.428C300.568 72.3133 300.22 72.256 299.778 72.256H298.414ZM309.964 69.6637V76.2857H308.92L308.736 75.4134H308.662C308.539 75.6428 308.371 75.8311 308.158 75.9786C307.954 76.126 307.728 76.2325 307.483 76.298C307.237 76.3717 306.983 76.4086 306.721 76.4086C306.238 76.4086 305.828 76.3267 305.492 76.1628C305.165 75.9908 304.911 75.7288 304.731 75.3766C304.559 75.0162 304.473 74.5575 304.473 74.0006V69.6637H305.812V73.804C305.812 74.32 305.91 74.7049 306.107 74.9588C306.303 75.2128 306.61 75.3397 307.028 75.3397C307.438 75.3397 307.757 75.2496 307.986 75.0694C308.224 74.8892 308.392 74.6271 308.49 74.2831C308.588 73.9309 308.637 73.5091 308.637 73.0177V69.6637H309.964ZM314.986 69.5408C315.092 69.5408 315.211 69.549 315.342 69.5654C315.473 69.5736 315.584 69.5859 315.674 69.6023L315.539 70.8186C315.449 70.794 315.346 70.7735 315.232 70.7571C315.117 70.7408 315.002 70.7326 314.888 70.7326C314.666 70.7326 314.453 70.7817 314.249 70.88C314.044 70.9701 313.86 71.1052 313.696 71.2854C313.532 71.4574 313.401 71.6704 313.303 71.9243C313.204 72.1782 313.155 72.4689 313.155 72.7966V76.2857H311.828V69.6637H312.873L313.045 70.8431H313.118C313.241 70.6056 313.393 70.3886 313.573 70.192C313.761 69.9954 313.974 69.8398 314.212 69.7251C314.449 69.6023 314.707 69.5408 314.986 69.5408ZM321.009 74.4183C321.009 74.8524 320.911 75.2168 320.715 75.5117C320.518 75.8066 320.231 76.0318 319.855 76.1874C319.478 76.3348 319.015 76.4086 318.466 76.4086C318.032 76.4086 317.651 76.3717 317.324 76.298C317.004 76.2325 316.709 76.1342 316.439 76.0031V74.8606C316.726 74.9998 317.053 75.1268 317.422 75.2414C317.791 75.3479 318.143 75.4011 318.479 75.4011C318.913 75.4011 319.228 75.3233 319.425 75.1677C319.621 75.0121 319.719 74.8032 319.719 74.5411C319.719 74.3937 319.679 74.2627 319.597 74.148C319.523 74.0251 319.38 73.9023 319.167 73.7794C318.954 73.6484 318.647 73.5009 318.245 73.3371C317.852 73.1651 317.52 72.9972 317.25 72.8334C316.988 72.6614 316.783 72.4608 316.636 72.2314C316.497 71.9939 316.427 71.6908 316.427 71.3223C316.427 70.7489 316.648 70.3108 317.09 70.0077C317.533 69.6965 318.11 69.5408 318.823 69.5408C319.216 69.5408 319.58 69.5818 319.916 69.6637C320.252 69.7374 320.579 69.8521 320.899 70.0077L320.493 71.0028C320.305 70.9128 320.113 70.839 319.916 70.7817C319.728 70.7162 319.539 70.6629 319.351 70.622C319.163 70.581 318.974 70.5606 318.786 70.5606C318.434 70.5606 318.167 70.622 317.987 70.7448C317.807 70.8677 317.717 71.0397 317.717 71.2608C317.717 71.4247 317.758 71.5639 317.84 71.6786C317.93 71.7932 318.081 71.9079 318.294 72.0226C318.515 72.1372 318.819 72.2724 319.203 72.428C319.588 72.5836 319.916 72.7433 320.186 72.9071C320.457 73.0709 320.661 73.2716 320.801 73.5091C320.94 73.7467 321.009 74.0497 321.009 74.4183ZM324.781 75.352C324.953 75.352 325.121 75.3356 325.285 75.3028C325.449 75.2701 325.592 75.2332 325.715 75.1923V76.1751C325.575 76.2407 325.391 76.2939 325.162 76.3348C324.941 76.384 324.707 76.4086 324.462 76.4086C324.118 76.4086 323.802 76.3471 323.516 76.2243C323.229 76.1014 323 75.8885 322.828 75.5854C322.656 75.2824 322.57 74.8606 322.57 74.32V70.6588H321.722V70.0691L322.631 69.5777L323.086 68.1771H323.909V69.6637H325.666V70.6588H323.909V74.2954C323.909 74.6558 323.991 74.922 324.154 75.094C324.318 75.266 324.527 75.352 324.781 75.352ZM336.223 67.5137L333.336 76.2857H331.886L329.011 67.5137H330.449L332.132 73.0177C332.197 73.2143 332.259 73.4272 332.316 73.6566C332.382 73.8777 332.439 74.0988 332.488 74.32C332.546 74.5411 332.586 74.75 332.611 74.9466C332.644 74.75 332.685 74.5411 332.734 74.32C332.783 74.0988 332.84 73.8777 332.906 73.6566C332.971 73.4272 333.033 73.2102 333.09 73.0054L334.773 67.5137H336.223ZM338.495 69.6637V76.2857H337.156V69.6637H338.495ZM337.844 67.1451C338.04 67.1451 338.212 67.2025 338.36 67.3171C338.507 67.4318 338.581 67.6243 338.581 67.8946C338.581 68.1567 338.507 68.3491 338.36 68.472C338.212 68.5867 338.04 68.644 337.844 68.644C337.631 68.644 337.451 68.5867 337.303 68.472C337.156 68.3491 337.082 68.1567 337.082 67.8946C337.082 67.6243 337.156 67.4318 337.303 67.3171C337.451 67.2025 337.631 67.1451 337.844 67.1451ZM342.485 76.4086C341.747 76.4086 341.149 76.1219 340.691 75.5486C340.24 74.9752 340.015 74.1234 340.015 72.9931C340.015 71.8547 340.244 70.9947 340.703 70.4131C341.162 69.8316 341.764 69.5408 342.509 69.5408C342.829 69.5408 343.103 69.5859 343.332 69.676C343.562 69.7579 343.762 69.8726 343.934 70.02C344.106 70.1674 344.25 70.3312 344.364 70.5114H344.438C344.422 70.3968 344.401 70.2329 344.377 70.02C344.36 69.7988 344.352 69.6023 344.352 69.4303V66.9486H345.679V76.2857H344.635L344.401 75.4011H344.352C344.237 75.5895 344.094 75.7615 343.922 75.9171C343.75 76.0646 343.545 76.1833 343.308 76.2734C343.078 76.3635 342.804 76.4086 342.485 76.4086ZM342.841 75.3397C343.414 75.3397 343.815 75.1636 344.045 74.8114C344.282 74.451 344.401 73.9146 344.401 73.202V73.0054C344.401 72.2273 344.291 71.6335 344.069 71.224C343.848 70.8145 343.435 70.6097 342.829 70.6097C342.353 70.6097 341.993 70.8268 341.747 71.2608C341.502 71.6868 341.379 72.2724 341.379 73.0177C341.379 73.763 341.502 74.3364 341.747 74.7377C341.993 75.139 342.358 75.3397 342.841 75.3397ZM350.052 69.5408C350.601 69.5408 351.076 69.6637 351.477 69.9094C351.879 70.1469 352.186 70.4909 352.399 70.9414C352.62 71.3919 352.73 71.9243 352.73 72.5386V73.2511H348.565C348.582 73.9309 348.746 74.451 349.057 74.8114C349.368 75.1718 349.806 75.352 350.371 75.352C350.773 75.352 351.129 75.3151 351.44 75.2414C351.76 75.1595 352.083 75.0408 352.411 74.8851V75.9663C352.1 76.1137 351.78 76.2243 351.453 76.298C351.133 76.3717 350.744 76.4086 350.285 76.4086C349.688 76.4086 349.155 76.2816 348.688 76.0277C348.221 75.7738 347.857 75.397 347.595 74.8974C347.333 74.3896 347.202 73.7671 347.202 73.03C347.202 72.2847 347.321 71.654 347.558 71.138C347.796 70.622 348.127 70.2288 348.553 69.9586C348.987 69.6801 349.487 69.5408 350.052 69.5408ZM350.052 70.5483C349.634 70.5483 349.299 70.6998 349.045 71.0028C348.791 71.3059 348.643 71.7359 348.602 72.2928H351.416C351.416 71.9488 351.367 71.6458 351.268 71.3837C351.17 71.1216 351.019 70.9168 350.814 70.7694C350.617 70.622 350.363 70.5483 350.052 70.5483ZM359.782 72.9686C359.782 73.5173 359.712 74.0047 359.573 74.4306C359.434 74.8565 359.233 75.2168 358.971 75.5117C358.717 75.8066 358.406 76.0318 358.037 76.1874C357.669 76.3348 357.255 76.4086 356.797 76.4086C356.379 76.4086 355.99 76.3348 355.629 76.1874C355.269 76.0318 354.958 75.8066 354.696 75.5117C354.434 75.2168 354.229 74.8565 354.081 74.4306C353.942 74.0047 353.873 73.5132 353.873 72.9563C353.873 72.2273 353.991 71.6089 354.229 71.1011C354.466 70.5933 354.806 70.2084 355.249 69.9463C355.699 69.676 356.231 69.5408 356.846 69.5408C357.419 69.5408 357.927 69.676 358.369 69.9463C358.811 70.2084 359.155 70.5933 359.401 71.1011C359.655 71.6089 359.782 72.2314 359.782 72.9686ZM355.249 72.9686C355.249 73.46 355.302 73.8859 355.408 74.2463C355.523 74.5985 355.695 74.8688 355.924 75.0571C356.162 75.2455 356.461 75.3397 356.821 75.3397C357.19 75.3397 357.489 75.2455 357.718 75.0571C357.955 74.8688 358.127 74.5985 358.234 74.2463C358.349 73.8859 358.406 73.46 358.406 72.9686C358.406 72.4608 358.349 72.0348 358.234 71.6908C358.119 71.3468 357.947 71.0848 357.718 70.9046C357.489 70.7162 357.186 70.622 356.809 70.622C356.26 70.622 355.863 70.8268 355.617 71.2363C355.371 71.6458 355.249 72.2232 355.249 72.9686Z" fill="#464648"/>
<g clip-path="url(#clip1_1701_6969)">
<path d="M337.569 25.5071H318.774C317.351 25.5071 316.193 26.6651 316.193 28.0885V46.883C316.193 48.3063 317.351 49.4643 318.774 49.4643H337.569C338.992 49.4643 340.15 48.3063 340.15 46.883V28.0885C340.15 26.6651 338.992 25.5071 337.569 25.5071V25.5071ZM328.171 43.8259C324.675 43.8259 321.831 40.9817 321.831 37.4857C321.831 33.9897 324.675 31.1455 328.171 31.1455C331.667 31.1455 334.512 33.9897 334.512 37.4857C334.512 40.9817 331.667 43.8259 328.171 43.8259Z" fill="#464648"/>
<path d="M328.171 34.4911C326.52 34.4911 325.177 35.8345 325.177 37.4857C325.177 39.137 326.52 40.4804 328.171 40.4804C329.823 40.4804 331.166 39.137 331.166 37.4857C331.166 35.8345 329.823 34.4911 328.171 34.4911Z" fill="#464648"/>
</g>
<path d="M413.236 43.1235L409.886 39.7732C408.689 38.5766 406.655 39.0553 406.176 40.6108C405.817 41.6877 404.621 42.286 403.544 42.0466C401.151 41.4484 397.92 38.3373 397.322 35.8246C396.963 34.7477 397.681 33.5511 398.758 33.1922C400.313 32.7136 400.792 30.6795 399.595 29.4829L396.245 26.1326C395.288 25.295 393.852 25.295 393.014 26.1326L390.741 28.406C388.468 30.7991 390.98 37.1408 396.604 42.7646C402.228 48.3883 408.569 51.0208 410.963 48.6276L413.236 46.3542C414.074 45.397 414.074 43.9611 413.236 43.1235Z" fill="#464648"/>
<path d="M393.482 68.5334C393.088 68.5334 392.732 68.6112 392.413 68.7668C392.101 68.9143 391.835 69.1354 391.614 69.4303C391.401 69.7251 391.237 70.0814 391.123 70.4991C391.008 70.9168 390.951 71.3878 390.951 71.912C390.951 72.6 391.045 73.1979 391.233 73.7057C391.422 74.2053 391.704 74.5903 392.081 74.8606C392.458 75.1308 392.925 75.266 393.482 75.266C393.842 75.266 394.186 75.2332 394.514 75.1677C394.841 75.094 395.173 74.9998 395.509 74.8851V76.0277C395.181 76.1588 394.845 76.2529 394.501 76.3103C394.165 76.3758 393.772 76.4086 393.322 76.4086C392.47 76.4086 391.766 76.2243 391.209 75.8557C390.652 75.4871 390.234 74.9629 389.956 74.2831C389.677 73.6033 389.538 72.8088 389.538 71.8997C389.538 71.2363 389.624 70.6302 389.796 70.0814C389.968 69.5245 390.222 69.0453 390.558 68.644C390.893 68.2427 391.307 67.9355 391.798 67.7226C392.29 67.5014 392.851 67.3908 393.482 67.3908C393.907 67.3908 394.325 67.44 394.735 67.5383C395.144 67.6284 395.509 67.7594 395.828 67.9314L395.349 69.0371C395.079 68.9061 394.784 68.7914 394.464 68.6931C394.153 68.5867 393.826 68.5334 393.482 68.5334ZM399.633 69.5408C400.411 69.5408 400.996 69.7251 401.39 70.0937C401.791 70.4541 401.992 71.0233 401.992 71.8014V76.2857H401.046L400.788 75.3643H400.738C400.55 75.6018 400.362 75.7984 400.173 75.954C399.993 76.1096 399.78 76.2243 399.534 76.298C399.297 76.3717 399.002 76.4086 398.65 76.4086C398.281 76.4086 397.95 76.3389 397.655 76.1997C397.36 76.0523 397.126 75.8311 396.954 75.5363C396.782 75.2332 396.696 74.8565 396.696 74.406C396.696 73.7344 396.934 73.2225 397.409 72.8703C397.892 72.5181 398.625 72.3256 399.608 72.2928L400.665 72.256V71.8874C400.665 71.396 400.562 71.052 400.358 70.8554C400.161 70.6588 399.883 70.5606 399.522 70.5606C399.219 70.5606 398.92 70.6097 398.625 70.708C398.33 70.8063 398.044 70.925 397.765 71.0643L397.36 70.1183C397.663 69.9545 398.007 69.8193 398.392 69.7128C398.785 69.5982 399.199 69.5408 399.633 69.5408ZM399.866 73.1283C399.195 73.161 398.728 73.288 398.466 73.5091C398.204 73.7221 398.072 74.0251 398.072 74.4183C398.072 74.7623 398.163 75.0121 398.343 75.1677C398.531 75.3233 398.773 75.4011 399.068 75.4011C399.518 75.4011 399.895 75.2578 400.198 74.9711C400.509 74.6845 400.665 74.2545 400.665 73.6811V73.1037L399.866 73.1283ZM405.148 76.2857H403.821V66.9486H405.148V76.2857ZM408.339 76.2857H407.013V66.9486H408.339V76.2857ZM414.418 74.4183C414.418 74.8524 414.32 75.2168 414.123 75.5117C413.927 75.8066 413.64 76.0318 413.263 76.1874C412.886 76.3348 412.424 76.4086 411.875 76.4086C411.441 76.4086 411.06 76.3717 410.732 76.298C410.413 76.2325 410.118 76.1342 409.848 76.0031V74.8606C410.134 74.9998 410.462 75.1268 410.831 75.2414C411.199 75.3479 411.551 75.4011 411.887 75.4011C412.321 75.4011 412.637 75.3233 412.833 75.1677C413.03 75.0121 413.128 74.8032 413.128 74.5411C413.128 74.3937 413.087 74.2627 413.005 74.148C412.931 74.0251 412.788 73.9023 412.575 73.7794C412.362 73.6484 412.055 73.5009 411.654 73.3371C411.261 73.1651 410.929 72.9972 410.659 72.8334C410.397 72.6614 410.192 72.4608 410.044 72.2314C409.905 71.9939 409.835 71.6908 409.835 71.3223C409.835 70.7489 410.057 70.3108 410.499 70.0077C410.941 69.6965 411.519 69.5408 412.231 69.5408C412.624 69.5408 412.989 69.5818 413.325 69.6637C413.66 69.7374 413.988 69.8521 414.307 70.0077L413.902 71.0028C413.714 70.9128 413.521 70.839 413.325 70.7817C413.136 70.7162 412.948 70.6629 412.759 70.622C412.571 70.581 412.383 70.5606 412.194 70.5606C411.842 70.5606 411.576 70.622 411.396 70.7448C411.216 70.8677 411.125 71.0397 411.125 71.2608C411.125 71.4247 411.166 71.5639 411.248 71.6786C411.338 71.7932 411.49 71.9079 411.703 72.0226C411.924 72.1372 412.227 72.2724 412.612 72.428C412.997 72.5836 413.325 72.7433 413.595 72.9071C413.865 73.0709 414.07 73.2716 414.209 73.5091C414.348 73.7467 414.418 74.0497 414.418 74.4183Z" fill="#464648"/>
<path d="M475.473 53.4571C483.536 53.4571 490.191 46.8735 490.191 38.8971C490.191 34.3533 487.902 30.0486 484.46 27.4883C483.692 26.8693 482.754 26.9819 482.285 27.643C481.773 28.3324 482 29.1623 482.654 29.7391C485.456 31.8633 487.233 35.1411 487.247 38.8971C487.262 45.3542 482 50.5451 475.473 50.5451C468.946 50.5451 463.727 45.3542 463.727 38.8971C463.727 33.4389 467.453 28.8951 472.544 27.6149V29.6547C472.544 30.7379 473.354 31.0333 474.236 30.4003L479.042 27.0381C479.753 26.5176 479.768 25.7298 479.042 25.2234L474.25 21.8472C473.354 21.2141 472.544 21.4955 472.544 22.5928V24.6466C465.86 26.0112 460.769 31.9196 460.769 38.8971C460.769 46.8735 467.424 53.4571 475.473 53.4571Z" fill="#464648"/>
<path fill-rule="evenodd" clip-rule="evenodd" d="M473.126 42.2649C470.612 42.3917 468.755 44.7716 468.755 47.4858V49.3077C468.755 49.6786 475.315 51.6448 475.684 51.6448L481.945 49.9792C482.314 49.9792 482.614 49.6786 482.614 49.3077V47.4858C482.614 44.7716 480.757 42.3916 478.243 42.2649C477.474 42.6532 476.605 42.8719 475.684 42.8719C474.764 42.8719 473.895 42.6532 473.126 42.2649ZM479.79 38.3414C479.287 40.1352 477.639 41.4505 475.684 41.4505C473.731 41.4505 472.084 40.1365 471.579 38.3441C471.487 37.9907 471.438 37.6198 471.438 37.2377C471.438 34.8635 473.33 32.9224 475.684 32.9224C478.039 32.9224 479.931 34.8635 479.931 37.2377C479.931 37.6188 479.882 37.9888 479.79 38.3414Z" fill="#464648"/>
<path d="M451.023 73.9146C451.023 74.4388 450.904 74.8851 450.666 75.2537C450.429 75.6223 450.089 75.9089 449.647 76.1137C449.204 76.3103 448.664 76.4086 448.025 76.4086C447.714 76.4086 447.415 76.3881 447.128 76.3471C446.85 76.3144 446.592 76.2652 446.354 76.1997C446.125 76.1342 445.908 76.0523 445.703 75.954V74.7008C446.03 74.8483 446.403 74.9834 446.821 75.1063C447.247 75.2209 447.669 75.2783 448.086 75.2783C448.447 75.2783 448.742 75.225 448.971 75.1186C449.208 75.0121 449.384 74.8647 449.499 74.6763C449.622 74.4879 449.683 74.2668 449.683 74.0128C449.683 73.7426 449.622 73.5173 449.499 73.3371C449.384 73.1488 449.192 72.9768 448.922 72.8211C448.66 72.6573 448.307 72.4894 447.865 72.3174C447.554 72.1864 447.271 72.0471 447.017 71.8997C446.764 71.7441 446.542 71.5639 446.354 71.3591C446.174 71.1544 446.035 70.9168 445.936 70.6466C445.846 70.3763 445.801 70.0609 445.801 69.7006C445.801 69.2173 445.916 68.8037 446.145 68.4597C446.374 68.1157 446.694 67.8536 447.103 67.6734C447.513 67.485 447.992 67.3908 448.541 67.3908C449 67.3908 449.421 67.44 449.806 67.5383C450.191 67.6284 450.556 67.7553 450.9 67.9191L450.47 69.0126C450.15 68.8733 449.827 68.7587 449.499 68.6686C449.18 68.5785 448.848 68.5334 448.504 68.5334C448.201 68.5334 447.947 68.5826 447.742 68.6808C447.546 68.7791 447.398 68.9143 447.3 69.0863C447.202 69.2583 447.153 69.4589 447.153 69.6883C447.153 69.9586 447.21 70.1838 447.325 70.364C447.439 70.5442 447.624 70.7121 447.877 70.8677C448.131 71.0151 448.467 71.1789 448.885 71.3591C449.344 71.5557 449.733 71.7646 450.052 71.9857C450.371 72.1987 450.613 72.4608 450.777 72.772C450.941 73.075 451.023 73.4559 451.023 73.9146ZM454.985 69.5408C455.533 69.5408 456.008 69.6637 456.41 69.9094C456.811 70.1469 457.118 70.4909 457.331 70.9414C457.552 71.3919 457.663 71.9243 457.663 72.5386V73.2511H453.498C453.514 73.9309 453.678 74.451 453.989 74.8114C454.301 75.1718 454.739 75.352 455.304 75.352C455.705 75.352 456.062 75.3151 456.373 75.2414C456.692 75.1595 457.016 75.0408 457.343 74.8851V75.9663C457.032 76.1137 456.713 76.2243 456.385 76.298C456.066 76.3717 455.677 76.4086 455.218 76.4086C454.62 76.4086 454.088 76.2816 453.621 76.0277C453.154 75.7738 452.789 75.397 452.527 74.8974C452.265 74.3896 452.134 73.7671 452.134 73.03C452.134 72.2847 452.253 71.654 452.491 71.138C452.728 70.622 453.06 70.2288 453.486 69.9586C453.92 69.6801 454.419 69.5408 454.985 69.5408ZM454.985 70.5483C454.567 70.5483 454.231 70.6998 453.977 71.0028C453.723 71.3059 453.576 71.7359 453.535 72.2928H456.348C456.348 71.9488 456.299 71.6458 456.201 71.3837C456.103 71.1216 455.951 70.9168 455.746 70.7694C455.55 70.622 455.296 70.5483 454.985 70.5483ZM460.476 76.2857H459.149V66.9486H460.476V76.2857ZM465.473 70.6588H463.962V76.2857H462.623V70.6588H461.603V70.0446L462.623 69.6391V69.2214C462.623 68.6563 462.701 68.2058 462.856 67.87C463.02 67.526 463.258 67.2762 463.569 67.1206C463.88 66.9649 464.261 66.8871 464.712 66.8871C464.982 66.8871 465.232 66.9117 465.461 66.9608C465.69 67.01 465.891 67.0632 466.063 67.1206L465.731 68.1157C465.608 68.0748 465.465 68.0379 465.301 68.0051C465.146 67.9642 464.986 67.9437 464.822 67.9437C464.527 67.9437 464.31 68.0502 464.171 68.2631C464.032 68.4761 463.962 68.7996 463.962 69.2337V69.6637H465.473V70.6588ZM467.869 69.6637V76.2857H466.53V69.6637H467.869ZM467.218 67.1451C467.414 67.1451 467.586 67.2025 467.734 67.3171C467.881 67.4318 467.955 67.6243 467.955 67.8946C467.955 68.1567 467.881 68.3491 467.734 68.472C467.586 68.5867 467.414 68.644 467.218 68.644C467.005 68.644 466.825 68.5867 466.677 68.472C466.53 68.3491 466.456 68.1567 466.456 67.8946C466.456 67.6243 466.53 67.4318 466.677 67.3171C466.825 67.2025 467.005 67.1451 467.218 67.1451ZM472.237 69.5408C472.786 69.5408 473.261 69.6637 473.662 69.9094C474.064 70.1469 474.371 70.4909 474.584 70.9414C474.805 71.3919 474.916 71.9243 474.916 72.5386V73.2511H470.751C470.767 73.9309 470.931 74.451 471.242 74.8114C471.553 75.1718 471.992 75.352 472.557 75.352C472.958 75.352 473.314 75.3151 473.626 75.2414C473.945 75.1595 474.269 75.0408 474.596 74.8851V75.9663C474.285 76.1137 473.965 76.2243 473.638 76.298C473.318 76.3717 472.929 76.4086 472.471 76.4086C471.873 76.4086 471.34 76.2816 470.874 76.0277C470.407 75.7738 470.042 75.397 469.78 74.8974C469.518 74.3896 469.387 73.7671 469.387 73.03C469.387 72.2847 469.506 71.654 469.743 71.138C469.981 70.622 470.313 70.2288 470.738 69.9586C471.173 69.6801 471.672 69.5408 472.237 69.5408ZM472.237 70.5483C471.82 70.5483 471.484 70.6998 471.23 71.0028C470.976 71.3059 470.829 71.7359 470.788 72.2928H473.601C473.601 71.9488 473.552 71.6458 473.454 71.3837C473.355 71.1216 473.204 70.9168 472.999 70.7694C472.802 70.622 472.549 70.5483 472.237 70.5483ZM479.536 76.2857V67.5137H480.9V75.1431H484.389V76.2857H479.536ZM491.217 72.9686C491.217 73.5173 491.148 74.0047 491.009 74.4306C490.869 74.8565 490.669 75.2168 490.407 75.5117C490.153 75.8066 489.841 76.0318 489.473 76.1874C489.104 76.3348 488.691 76.4086 488.232 76.4086C487.814 76.4086 487.425 76.3348 487.065 76.1874C486.705 76.0318 486.393 75.8066 486.131 75.5117C485.869 75.2168 485.664 74.8565 485.517 74.4306C485.378 74.0047 485.308 73.5132 485.308 72.9563C485.308 72.2273 485.427 71.6089 485.664 71.1011C485.902 70.5933 486.242 70.2084 486.684 69.9463C487.135 69.676 487.667 69.5408 488.281 69.5408C488.855 69.5408 489.362 69.676 489.805 69.9463C490.247 70.2084 490.591 70.5933 490.837 71.1011C491.091 71.6089 491.217 72.2314 491.217 72.9686ZM486.684 72.9686C486.684 73.46 486.737 73.8859 486.844 74.2463C486.958 74.5985 487.13 74.8688 487.36 75.0571C487.597 75.2455 487.896 75.3397 488.257 75.3397C488.625 75.3397 488.924 75.2455 489.153 75.0571C489.391 74.8688 489.563 74.5985 489.669 74.2463C489.784 73.8859 489.841 73.46 489.841 72.9686C489.841 72.4608 489.784 72.0348 489.669 71.6908C489.555 71.3468 489.383 71.0848 489.153 70.9046C488.924 70.7162 488.621 70.622 488.244 70.622C487.696 70.622 487.298 70.8268 487.053 71.2363C486.807 71.6458 486.684 72.2232 486.684 72.9686ZM498.296 72.9686C498.296 73.5173 498.227 74.0047 498.087 74.4306C497.948 74.8565 497.747 75.2168 497.485 75.5117C497.231 75.8066 496.92 76.0318 496.552 76.1874C496.183 76.3348 495.769 76.4086 495.311 76.4086C494.893 76.4086 494.504 76.3348 494.144 76.1874C493.783 76.0318 493.472 75.8066 493.21 75.5117C492.948 75.2168 492.743 74.8565 492.596 74.4306C492.456 74.0047 492.387 73.5132 492.387 72.9563C492.387 72.2273 492.505 71.6089 492.743 71.1011C492.981 70.5933 493.32 70.2084 493.763 69.9463C494.213 69.676 494.746 69.5408 495.36 69.5408C495.933 69.5408 496.441 69.676 496.883 69.9463C497.326 70.2084 497.67 70.5933 497.915 71.1011C498.169 71.6089 498.296 72.2314 498.296 72.9686ZM493.763 72.9686C493.763 73.46 493.816 73.8859 493.922 74.2463C494.037 74.5985 494.209 74.8688 494.438 75.0571C494.676 75.2455 494.975 75.3397 495.335 75.3397C495.704 75.3397 496.003 75.2455 496.232 75.0571C496.47 74.8688 496.642 74.5985 496.748 74.2463C496.863 73.8859 496.92 73.46 496.92 72.9686C496.92 72.4608 496.863 72.0348 496.748 71.6908C496.633 71.3468 496.461 71.0848 496.232 70.9046C496.003 70.7162 495.7 70.622 495.323 70.622C494.774 70.622 494.377 70.8268 494.131 71.2363C493.886 71.6458 493.763 72.2232 493.763 72.9686ZM503.004 69.5408C503.749 69.5408 504.347 69.8275 504.797 70.4008C505.248 70.9742 505.473 71.8301 505.473 72.9686C505.473 73.7139 505.367 74.3446 505.154 74.8606C504.949 75.3766 504.658 75.7656 504.281 76.0277C503.905 76.2816 503.466 76.4086 502.967 76.4086C502.664 76.4086 502.394 76.3676 502.156 76.2857C501.918 76.1956 501.718 76.0809 501.554 75.9417C501.398 75.7943 501.259 75.6387 501.136 75.4748H501.063C501.079 75.6223 501.095 75.7984 501.112 76.0031C501.128 76.1997 501.136 76.3758 501.136 76.5314V79.2343H499.809V69.6637H500.891L501.075 70.5483H501.136C501.259 70.3681 501.402 70.2002 501.566 70.0446C501.738 69.8889 501.939 69.7661 502.168 69.676C502.406 69.5859 502.684 69.5408 503.004 69.5408ZM502.647 70.6097C502.287 70.6097 501.996 70.6916 501.775 70.8554C501.554 71.011 501.39 71.2486 501.284 71.568C501.185 71.8792 501.136 72.2765 501.136 72.7597V72.9563C501.136 73.4641 501.181 73.8982 501.271 74.2586C501.37 74.6108 501.529 74.881 501.751 75.0694C501.98 75.2496 502.287 75.3397 502.672 75.3397C503 75.3397 503.27 75.2414 503.483 75.0448C503.696 74.8401 503.851 74.5575 503.95 74.1971C504.056 73.8368 504.109 73.419 504.109 72.944C504.109 72.2232 503.987 71.654 503.741 71.2363C503.503 70.8186 503.139 70.6097 502.647 70.6097Z" fill="#464648"/>
<path d="M556.179 25.5071H536.204C534.005 25.5071 532.217 27.2588 532.217 29.4119V42.6138C532.217 44.7669 534.005 46.5186 536.204 46.5186H537.769L537.8 49.9657C537.802 50.2834 537.989 50.5722 538.28 50.711C538.399 50.7675 538.527 50.7952 538.654 50.7952C538.839 50.7952 539.024 50.7361 539.176 50.6209L544.604 46.5187H556.179C558.378 46.5187 560.167 44.767 560.167 42.614V29.4119C560.167 27.2588 558.378 25.5071 556.179 25.5071Z" fill="#464648"/>
<path d="M537.935 68.5334C537.542 68.5334 537.185 68.6112 536.866 68.7668C536.555 68.9143 536.288 69.1354 536.067 69.4303C535.854 69.7251 535.691 70.0814 535.576 70.4991C535.461 70.9168 535.404 71.3878 535.404 71.912C535.404 72.6 535.498 73.1979 535.686 73.7057C535.875 74.2053 536.157 74.5903 536.534 74.8606C536.911 75.1308 537.378 75.266 537.935 75.266C538.295 75.266 538.639 75.2332 538.967 75.1677C539.294 75.094 539.626 74.9998 539.962 74.8851V76.0277C539.634 76.1588 539.298 76.2529 538.954 76.3103C538.619 76.3758 538.225 76.4086 537.775 76.4086C536.923 76.4086 536.219 76.2243 535.662 75.8557C535.105 75.4871 534.687 74.9629 534.409 74.2831C534.13 73.6033 533.991 72.8088 533.991 71.8997C533.991 71.2363 534.077 70.6302 534.249 70.0814C534.421 69.5245 534.675 69.0453 535.011 68.644C535.347 68.2427 535.76 67.9355 536.252 67.7226C536.743 67.5014 537.304 67.3908 537.935 67.3908C538.361 67.3908 538.778 67.44 539.188 67.5383C539.597 67.6284 539.962 67.7594 540.281 67.9314L539.802 69.0371C539.532 68.9061 539.237 68.7914 538.918 68.6931C538.606 68.5867 538.279 68.5334 537.935 68.5334ZM542.906 69.4426C542.906 69.6473 542.898 69.8521 542.882 70.0568C542.874 70.2616 542.861 70.4295 542.845 70.5606H542.919C543.05 70.3312 543.21 70.1428 543.398 69.9954C543.594 69.848 543.812 69.7374 544.049 69.6637C544.295 69.59 544.545 69.5531 544.798 69.5531C545.282 69.5531 545.691 69.6391 546.027 69.8111C546.371 69.9749 546.629 70.237 546.801 70.5974C546.981 70.9496 547.071 71.4083 547.071 71.9734V76.2857H545.732V72.1577C545.732 71.6417 545.634 71.2568 545.437 71.0028C545.241 70.7408 544.934 70.6097 544.516 70.6097C544.115 70.6097 543.795 70.6998 543.558 70.88C543.32 71.0602 543.152 71.3264 543.054 71.6786C542.956 72.0226 542.906 72.4485 542.906 72.9563V76.2857H541.58V66.9486H542.906V69.4426ZM551.405 69.5408C552.183 69.5408 552.768 69.7251 553.161 70.0937C553.563 70.4541 553.763 71.0233 553.763 71.8014V76.2857H552.817L552.559 75.3643H552.51C552.322 75.6018 552.133 75.7984 551.945 75.954C551.765 76.1096 551.552 76.2243 551.306 76.298C551.069 76.3717 550.774 76.4086 550.422 76.4086C550.053 76.4086 549.721 76.3389 549.427 76.1997C549.132 76.0523 548.898 75.8311 548.726 75.5363C548.554 75.2332 548.468 74.8565 548.468 74.406C548.468 73.7344 548.706 73.2225 549.181 72.8703C549.664 72.5181 550.397 72.3256 551.38 72.2928L552.437 72.256V71.8874C552.437 71.396 552.334 71.052 552.129 70.8554C551.933 70.6588 551.654 70.5606 551.294 70.5606C550.991 70.5606 550.692 70.6097 550.397 70.708C550.102 70.8063 549.816 70.925 549.537 71.0643L549.132 70.1183C549.435 69.9545 549.779 69.8193 550.164 69.7128C550.557 69.5982 550.97 69.5408 551.405 69.5408ZM551.638 73.1283C550.966 73.161 550.499 73.288 550.237 73.5091C549.975 73.7221 549.844 74.0251 549.844 74.4183C549.844 74.7623 549.934 75.0121 550.115 75.1677C550.303 75.3233 550.545 75.4011 550.839 75.4011C551.29 75.4011 551.667 75.2578 551.97 74.9711C552.281 74.6845 552.437 74.2545 552.437 73.6811V73.1037L551.638 73.1283ZM557.94 75.352C558.112 75.352 558.279 75.3356 558.443 75.3028C558.607 75.2701 558.75 75.2332 558.873 75.1923V76.1751C558.734 76.2407 558.55 76.2939 558.32 76.3348C558.099 76.384 557.866 76.4086 557.62 76.4086C557.276 76.4086 556.961 76.3471 556.674 76.2243C556.387 76.1014 556.158 75.8885 555.986 75.5854C555.814 75.2824 555.728 74.8606 555.728 74.32V70.6588H554.88V70.0691L555.79 69.5777L556.244 68.1771H557.067V69.6637H558.824V70.6588H557.067V74.2954C557.067 74.6558 557.149 74.922 557.313 75.094C557.477 75.266 557.686 75.352 557.94 75.352Z" fill="#464648"/>
<g clip-path="url(#clip2_1701_6969)">
<path d="M624.506 33.6592H604.351C604.038 33.6592 603.781 33.926 603.781 34.2519V47.0935C603.781 48.4024 604.803 49.4643 606.063 49.4643H622.795C624.054 49.4643 625.076 48.4024 625.076 47.0935V34.2519C625.076 33.926 624.82 33.6592 624.506 33.6592ZM603.781 31.486V29.708C603.781 28.3991 604.803 27.3372 606.063 27.3372H608.344V24.7689C608.344 24.4429 608.601 24.1762 608.915 24.1762H610.816C611.13 24.1762 611.386 24.4429 611.386 24.7689V27.3372H617.471V24.7689C617.471 24.4429 617.728 24.1762 618.041 24.1762H619.943C620.256 24.1762 620.513 24.4429 620.513 24.7689V27.3372H622.795C624.054 27.3372 625.076 28.3991 625.076 29.708V31.486C625.076 31.812 624.82 32.0787 624.506 32.0787H604.351C604.038 32.0787 603.781 31.812 603.781 31.486Z" fill="#464648"/>
</g>
<path d="M593.406 68.5334C593.013 68.5334 592.657 68.6112 592.338 68.7668C592.026 68.9143 591.76 69.1354 591.539 69.4303C591.326 69.7251 591.162 70.0814 591.048 70.4991C590.933 70.9168 590.876 71.3878 590.876 71.912C590.876 72.6 590.97 73.1979 591.158 73.7057C591.346 74.2053 591.629 74.5903 592.006 74.8606C592.383 75.1308 592.849 75.266 593.406 75.266C593.767 75.266 594.111 75.2332 594.438 75.1677C594.766 75.094 595.098 74.9998 595.434 74.8851V76.0277C595.106 76.1588 594.77 76.2529 594.426 76.3103C594.09 76.3758 593.697 76.4086 593.247 76.4086C592.395 76.4086 591.69 76.2243 591.134 75.8557C590.577 75.4871 590.159 74.9629 589.88 74.2831C589.602 73.6033 589.463 72.8088 589.463 71.8997C589.463 71.2363 589.549 70.6302 589.721 70.0814C589.893 69.5245 590.147 69.0453 590.482 68.644C590.818 68.2427 591.232 67.9355 591.723 67.7226C592.215 67.5014 592.776 67.3908 593.406 67.3908C593.832 67.3908 594.25 67.44 594.66 67.5383C595.069 67.6284 595.434 67.7594 595.753 67.9314L595.274 69.0371C595.004 68.9061 594.709 68.7914 594.389 68.6931C594.078 68.5867 593.75 68.5334 593.406 68.5334ZM599.558 69.5408C600.336 69.5408 600.921 69.7251 601.314 70.0937C601.716 70.4541 601.916 71.0233 601.916 71.8014V76.2857H600.97L600.712 75.3643H600.663C600.475 75.6018 600.287 75.7984 600.098 75.954C599.918 76.1096 599.705 76.2243 599.459 76.298C599.222 76.3717 598.927 76.4086 598.575 76.4086C598.206 76.4086 597.874 76.3389 597.58 76.1997C597.285 76.0523 597.051 75.8311 596.879 75.5363C596.707 75.2332 596.621 74.8565 596.621 74.406C596.621 73.7344 596.859 73.2225 597.334 72.8703C597.817 72.5181 598.55 72.3256 599.533 72.2928L600.59 72.256V71.8874C600.59 71.396 600.487 71.052 600.282 70.8554C600.086 70.6588 599.807 70.5606 599.447 70.5606C599.144 70.5606 598.845 70.6097 598.55 70.708C598.255 70.8063 597.969 70.925 597.69 71.0643L597.285 70.1183C597.588 69.9545 597.932 69.8193 598.317 69.7128C598.71 69.5982 599.123 69.5408 599.558 69.5408ZM599.791 73.1283C599.119 73.161 598.653 73.288 598.39 73.5091C598.128 73.7221 597.997 74.0251 597.997 74.4183C597.997 74.7623 598.087 75.0121 598.268 75.1677C598.456 75.3233 598.698 75.4011 598.992 75.4011C599.443 75.4011 599.82 75.2578 600.123 74.9711C600.434 74.6845 600.59 74.2545 600.59 73.6811V73.1037L599.791 73.1283ZM605.073 76.2857H603.746V66.9486H605.073V76.2857ZM609.444 69.5408C609.992 69.5408 610.468 69.6637 610.869 69.9094C611.27 70.1469 611.577 70.4909 611.79 70.9414C612.011 71.3919 612.122 71.9243 612.122 72.5386V73.2511H607.957C607.974 73.9309 608.137 74.451 608.449 74.8114C608.76 75.1718 609.198 75.352 609.763 75.352C610.164 75.352 610.521 75.3151 610.832 75.2414C611.151 75.1595 611.475 75.0408 611.803 74.8851V75.9663C611.491 76.1137 611.172 76.2243 610.844 76.298C610.525 76.3717 610.136 76.4086 609.677 76.4086C609.079 76.4086 608.547 76.2816 608.08 76.0277C607.613 75.7738 607.249 75.397 606.987 74.8974C606.724 74.3896 606.593 73.7671 606.593 73.03C606.593 72.2847 606.712 71.654 606.95 71.138C607.187 70.622 607.519 70.2288 607.945 69.9586C608.379 69.6801 608.879 69.5408 609.444 69.5408ZM609.444 70.5483C609.026 70.5483 608.69 70.6998 608.436 71.0028C608.182 71.3059 608.035 71.7359 607.994 72.2928H610.807C610.807 71.9488 610.758 71.6458 610.66 71.3837C610.562 71.1216 610.41 70.9168 610.205 70.7694C610.009 70.622 609.755 70.5483 609.444 70.5483ZM616.852 69.5408C617.572 69.5408 618.125 69.7333 618.51 70.1183C618.903 70.5032 619.1 71.1216 619.1 71.9734V76.2857H617.773V72.1577C617.773 71.6417 617.671 71.2568 617.466 71.0028C617.269 70.7408 616.962 70.6097 616.544 70.6097C615.93 70.6097 615.508 70.8104 615.279 71.2117C615.05 71.613 614.935 72.1905 614.935 72.944V76.2857H613.608V69.6637H614.652L614.837 70.5483H614.91C615.05 70.3189 615.218 70.1306 615.414 69.9831C615.611 69.8357 615.832 69.7251 616.078 69.6514C616.323 69.5777 616.581 69.5408 616.852 69.5408ZM623.052 76.4086C622.315 76.4086 621.717 76.1219 621.259 75.5486C620.808 74.9752 620.583 74.1234 620.583 72.9931C620.583 71.8547 620.812 70.9947 621.271 70.4131C621.73 69.8316 622.332 69.5408 623.077 69.5408C623.396 69.5408 623.671 69.5859 623.9 69.676C624.129 69.7579 624.33 69.8726 624.502 70.02C624.674 70.1674 624.817 70.3312 624.932 70.5114H625.006C624.989 70.3968 624.969 70.2329 624.944 70.02C624.928 69.7988 624.92 69.6023 624.92 69.4303V66.9486H626.247V76.2857H625.202L624.969 75.4011H624.92C624.805 75.5895 624.662 75.7615 624.49 75.9171C624.318 76.0646 624.113 76.1833 623.875 76.2734C623.646 76.3635 623.372 76.4086 623.052 76.4086ZM623.409 75.3397C623.982 75.3397 624.383 75.1636 624.613 74.8114C624.85 74.451 624.969 73.9146 624.969 73.202V73.0054C624.969 72.2273 624.858 71.6335 624.637 71.224C624.416 70.8145 624.002 70.6097 623.396 70.6097C622.921 70.6097 622.561 70.8268 622.315 71.2608C622.069 71.6868 621.947 72.2724 621.947 73.0177C621.947 73.763 622.069 74.3364 622.315 74.7377C622.561 75.139 622.925 75.3397 623.409 75.3397ZM630.62 69.5408C631.398 69.5408 631.984 69.7251 632.377 70.0937C632.778 70.4541 632.979 71.0233 632.979 71.8014V76.2857H632.033L631.775 75.3643H631.726C631.537 75.6018 631.349 75.7984 631.16 75.954C630.98 76.1096 630.767 76.2243 630.522 76.298C630.284 76.3717 629.989 76.4086 629.637 76.4086C629.268 76.4086 628.937 76.3389 628.642 76.1997C628.347 76.0523 628.114 75.8311 627.942 75.5363C627.77 75.2332 627.684 74.8565 627.684 74.406C627.684 73.7344 627.921 73.2225 628.396 72.8703C628.879 72.5181 629.612 72.3256 630.595 72.2928L631.652 72.256V71.8874C631.652 71.396 631.549 71.052 631.345 70.8554C631.148 70.6588 630.87 70.5606 630.509 70.5606C630.206 70.5606 629.907 70.6097 629.612 70.708C629.318 70.8063 629.031 70.925 628.752 71.0643L628.347 70.1183C628.65 69.9545 628.994 69.8193 629.379 69.7128C629.772 69.5982 630.186 69.5408 630.62 69.5408ZM630.853 73.1283C630.182 73.161 629.715 73.288 629.453 73.5091C629.191 73.7221 629.06 74.0251 629.06 74.4183C629.06 74.7623 629.15 75.0121 629.33 75.1677C629.518 75.3233 629.76 75.4011 630.055 75.4011C630.505 75.4011 630.882 75.2578 631.185 74.9711C631.496 74.6845 631.652 74.2545 631.652 73.6811V73.1037L630.853 73.1283ZM637.966 69.5408C638.072 69.5408 638.191 69.549 638.322 69.5654C638.453 69.5736 638.564 69.5859 638.654 69.6023L638.519 70.8186C638.428 70.794 638.326 70.7735 638.211 70.7571C638.097 70.7408 637.982 70.7326 637.867 70.7326C637.646 70.7326 637.433 70.7817 637.229 70.88C637.024 70.9701 636.839 71.1052 636.676 71.2854C636.512 71.4574 636.381 71.6704 636.283 71.9243C636.184 72.1782 636.135 72.4689 636.135 72.7966V76.2857H634.808V69.6637H635.853L636.025 70.8431H636.098C636.221 70.6056 636.373 70.3886 636.553 70.192C636.741 69.9954 636.954 69.8398 637.192 69.7251C637.429 69.6023 637.687 69.5408 637.966 69.5408Z" fill="#464648"/>
<path d="M681.576 31.9524L671.353 40.3744V49.4642C671.353 49.6995 671.446 49.9253 671.613 50.0917C671.779 50.2581 672.005 50.3516 672.24 50.3516L678.454 50.3355C678.689 50.3343 678.913 50.2403 679.078 50.074C679.244 49.9077 679.337 49.6827 679.337 49.4481V44.1398C679.337 43.9044 679.43 43.6787 679.597 43.5123C679.763 43.3459 679.989 43.2524 680.224 43.2524H683.773C684.008 43.2524 684.234 43.3459 684.4 43.5123C684.567 43.6787 684.66 43.9044 684.66 44.1398V49.4442C684.66 49.561 684.682 49.6767 684.727 49.7847C684.771 49.8927 684.837 49.9908 684.919 50.0735C685.001 50.1562 685.099 50.2218 685.207 50.2666C685.315 50.3114 685.431 50.3344 685.547 50.3344L691.759 50.3516C691.994 50.3516 692.22 50.2581 692.387 50.0917C692.553 49.9253 692.646 49.6995 692.646 49.4642V40.3683L682.425 31.9524C682.305 31.8556 682.155 31.8027 682.001 31.8027C681.846 31.8027 681.697 31.8556 681.576 31.9524V31.9524ZM697.726 37.6767L693.09 33.8548V26.1727C693.09 25.9962 693.02 25.8269 692.895 25.7021C692.77 25.5773 692.601 25.5071 692.425 25.5071H689.319C689.143 25.5071 688.974 25.5773 688.849 25.7021C688.724 25.8269 688.654 25.9962 688.654 26.1727V30.1998L683.689 26.1145C683.213 25.7223 682.615 25.5079 681.998 25.5079C681.381 25.5079 680.783 25.7223 680.307 26.1145L666.27 37.6767C666.203 37.7324 666.147 37.8009 666.106 37.8781C666.065 37.9554 666.04 38.04 666.032 38.127C666.023 38.214 666.032 38.3019 666.058 38.3854C666.084 38.469 666.126 38.5467 666.181 38.614L667.595 40.3334C667.651 40.401 667.719 40.457 667.797 40.4981C667.874 40.5392 667.958 40.5647 668.045 40.5731C668.133 40.5815 668.22 40.5726 668.304 40.547C668.388 40.5214 668.466 40.4795 668.533 40.4238L681.576 29.6785C681.697 29.5816 681.846 29.5288 682.001 29.5288C682.155 29.5288 682.305 29.5816 682.425 29.6785L695.469 40.4238C695.536 40.4795 695.614 40.5215 695.697 40.5472C695.781 40.5729 695.869 40.5819 695.956 40.5736C696.043 40.5654 696.127 40.5401 696.205 40.4991C696.282 40.4582 696.35 40.4024 696.406 40.3351L697.82 38.6157C697.876 38.548 697.917 38.4699 697.943 38.3859C697.968 38.302 697.977 38.2139 697.968 38.1266C697.959 38.0394 697.933 37.9547 697.892 37.8775C697.85 37.8003 697.794 37.7321 697.726 37.6767V37.6767Z" fill="#464648"/>
<path d="M672.253 76.2857H670.889V72.2806H667.105V76.2857H665.742V67.5137H667.105V71.1503H670.889V67.5137H672.253V76.2857ZM679.834 72.9686C679.834 73.5173 679.765 74.0047 679.625 74.4306C679.486 74.8565 679.286 75.2168 679.023 75.5117C678.77 75.8066 678.458 76.0318 678.09 76.1874C677.721 76.3348 677.308 76.4086 676.849 76.4086C676.431 76.4086 676.042 76.3348 675.682 76.1874C675.321 76.0318 675.01 75.8066 674.748 75.5117C674.486 75.2168 674.281 74.8565 674.134 74.4306C673.995 74.0047 673.925 73.5132 673.925 72.9563C673.925 72.2273 674.044 71.6089 674.281 71.1011C674.519 70.5933 674.859 70.2084 675.301 69.9463C675.751 69.676 676.284 69.5408 676.898 69.5408C677.471 69.5408 677.979 69.676 678.421 69.9463C678.864 70.2084 679.208 70.5933 679.453 71.1011C679.707 71.6089 679.834 72.2314 679.834 72.9686ZM675.301 72.9686C675.301 73.46 675.354 73.8859 675.461 74.2463C675.575 74.5985 675.747 74.8688 675.977 75.0571C676.214 75.2455 676.513 75.3397 676.873 75.3397C677.242 75.3397 677.541 75.2455 677.77 75.0571C678.008 74.8688 678.18 74.5985 678.286 74.2463C678.401 73.8859 678.458 73.46 678.458 72.9686C678.458 72.4608 678.401 72.0348 678.286 71.6908C678.172 71.3468 678 71.0848 677.77 70.9046C677.541 70.7162 677.238 70.622 676.861 70.622C676.312 70.622 675.915 70.8268 675.669 71.2363C675.424 71.6458 675.301 72.2232 675.301 72.9686ZM688.412 69.5408C689.116 69.5408 689.645 69.7333 689.997 70.1183C690.357 70.5032 690.537 71.1216 690.537 71.9734V76.2857H689.21V72.1454C689.21 71.6376 689.116 71.2568 688.928 71.0028C688.748 70.7408 688.465 70.6097 688.08 70.6097C687.548 70.6097 687.167 70.794 686.938 71.1626C686.716 71.5229 686.606 72.0471 686.606 72.7351V76.2857H685.267V72.1454C685.267 71.8096 685.226 71.527 685.144 71.2977C685.062 71.0684 684.939 70.8964 684.775 70.7817C684.611 70.667 684.399 70.6097 684.136 70.6097C683.768 70.6097 683.477 70.6998 683.264 70.88C683.051 71.0602 682.9 71.3264 682.81 71.6786C682.719 72.0226 682.674 72.4444 682.674 72.944V76.2857H681.348V69.6637H682.392L682.588 70.5483H682.65C682.781 70.3189 682.937 70.1306 683.117 69.9831C683.305 69.8357 683.518 69.7251 683.756 69.6514C683.993 69.5777 684.239 69.5408 684.493 69.5408C684.96 69.5408 685.353 69.6309 685.672 69.8111C685.992 69.9831 686.229 70.2493 686.385 70.6097H686.471C686.667 70.2411 686.942 69.9708 687.294 69.7988C687.646 69.6268 688.019 69.5408 688.412 69.5408ZM694.868 69.5408C695.417 69.5408 695.892 69.6637 696.293 69.9094C696.694 70.1469 697.001 70.4909 697.214 70.9414C697.436 71.3919 697.546 71.9243 697.546 72.5386V73.2511H693.381C693.398 73.9309 693.561 74.451 693.873 74.8114C694.184 75.1718 694.622 75.352 695.187 75.352C695.589 75.352 695.945 75.3151 696.256 75.2414C696.576 75.1595 696.899 75.0408 697.227 74.8851V75.9663C696.915 76.1137 696.596 76.2243 696.268 76.298C695.949 76.3717 695.56 76.4086 695.101 76.4086C694.503 76.4086 693.971 76.2816 693.504 76.0277C693.037 75.7738 692.673 75.397 692.411 74.8974C692.149 74.3896 692.018 73.7671 692.018 73.03C692.018 72.2847 692.136 71.654 692.374 71.138C692.611 70.622 692.943 70.2288 693.369 69.9586C693.803 69.6801 694.303 69.5408 694.868 69.5408ZM694.868 70.5483C694.45 70.5483 694.114 70.6998 693.86 71.0028C693.606 71.3059 693.459 71.7359 693.418 72.2928H696.232C696.232 71.9488 696.182 71.6458 696.084 71.3837C695.986 71.1216 695.834 70.9168 695.63 70.7694C695.433 70.622 695.179 70.5483 694.868 70.5483Z" fill="#464648"/>
<rect x="720.086" y="19.0571" width="86" height="29.4857" rx="4.91429" fill="#EA4343"/>
<path d="M735.089 37.7429H730.876V29.8481H735.089V30.8653H732.104V33.121H734.912V34.1272H732.104V36.7145H735.089V37.7429ZM737.814 34.7021L735.923 31.7831H737.283L738.577 33.9281L739.849 31.7831H741.22L739.318 34.7021L741.308 37.7429H739.948L738.577 35.4651L737.184 37.7429H735.835L737.814 34.7021ZM743.503 31.7831V37.7429H742.298V31.7831H743.503ZM742.917 29.5163C743.094 29.5163 743.249 29.5679 743.381 29.6711C743.514 29.7743 743.58 29.9476 743.58 30.1908C743.58 30.4267 743.514 30.5999 743.381 30.7105C743.249 30.8137 743.094 30.8653 742.917 30.8653C742.725 30.8653 742.563 30.8137 742.43 30.7105C742.298 30.5999 742.231 30.4267 742.231 30.1908C742.231 29.9476 742.298 29.7743 742.43 29.6711C742.563 29.5679 742.725 29.5163 742.917 29.5163ZM747.293 36.9025C747.447 36.9025 747.599 36.8878 747.746 36.8583C747.893 36.8288 748.022 36.7956 748.133 36.7588V37.6433C748.008 37.7023 747.842 37.7502 747.635 37.7871C747.436 37.8313 747.226 37.8534 747.005 37.8534C746.696 37.8534 746.412 37.7981 746.154 37.6876C745.896 37.577 745.689 37.3853 745.535 37.1126C745.38 36.8399 745.302 36.4602 745.302 35.9737V32.6787H744.539V32.1479L745.358 31.7057L745.767 30.4451H746.508V31.7831H748.089V32.6787H746.508V35.9516C746.508 36.2759 746.581 36.5155 746.729 36.6703C746.876 36.8251 747.064 36.9025 747.293 36.9025Z" fill="white"/>
<path d="M797.019 30.9374L791.318 36.638L785.605 30.9374" stroke="white" stroke-width="1.22857" stroke-linecap="round" stroke-linejoin="round"/>
<rect x="720.086" y="53.4572" width="86" height="29.4857" rx="4.91429" fill="white"/>
<path d="M736.737 72.1429H735.509V68.5383H732.104V72.1429H730.876V64.2481H732.104V67.521H735.509V64.2481H736.737V72.1429ZM739.756 66.1831V72.1429H738.551V66.1831H739.756ZM739.17 63.9164C739.347 63.9164 739.502 63.968 739.634 64.0712C739.767 64.1744 739.833 64.3476 739.833 64.5909C739.833 64.8267 739.767 65 739.634 65.1105C739.502 65.2137 739.347 65.2653 739.17 65.2653C738.978 65.2653 738.816 65.2137 738.683 65.1105C738.551 65 738.484 64.8267 738.484 64.5909C738.484 64.3476 738.551 64.1744 738.683 64.0712C738.816 63.968 738.978 63.9164 739.17 63.9164ZM743.347 72.2535C742.683 72.2535 742.145 71.9955 741.732 71.4795C741.327 70.9635 741.124 70.1968 741.124 69.1796C741.124 68.1549 741.331 67.3809 741.743 66.8576C742.156 66.3342 742.698 66.0725 743.369 66.0725C743.656 66.0725 743.903 66.1131 744.11 66.1941C744.316 66.2679 744.497 66.3711 744.651 66.5037C744.806 66.6364 744.935 66.7839 745.038 66.946H745.105C745.09 66.8428 745.072 66.6954 745.05 66.5037C745.035 66.3047 745.027 66.1278 745.027 65.973V63.7395H746.222V72.1429H745.282L745.072 71.3468H745.027C744.924 71.5163 744.795 71.6711 744.64 71.8112C744.486 71.9439 744.301 72.0507 744.088 72.1318C743.881 72.2129 743.634 72.2535 743.347 72.2535ZM743.667 71.2915C744.183 71.2915 744.545 71.133 744.751 70.816C744.965 70.4917 745.072 70.0089 745.072 69.3675V69.1906C745.072 68.4903 744.972 67.9559 744.773 67.5873C744.574 67.2188 744.202 67.0345 743.656 67.0345C743.229 67.0345 742.904 67.2298 742.683 67.6205C742.462 68.0038 742.352 68.5309 742.352 69.2017C742.352 69.8725 742.462 70.3885 742.683 70.7497C742.904 71.1109 743.232 71.2915 743.667 71.2915ZM750.158 66.0725C750.651 66.0725 751.079 66.1831 751.44 66.4042C751.801 66.618 752.078 66.9276 752.269 67.333C752.468 67.7385 752.568 68.2176 752.568 68.7705V69.4118H748.82C748.834 70.0236 748.982 70.4917 749.262 70.816C749.542 71.1404 749.936 71.3025 750.445 71.3025C750.806 71.3025 751.127 71.2694 751.407 71.203C751.694 71.1293 751.986 71.0224 752.28 70.8824V71.8554C752 71.9881 751.713 72.0876 751.418 72.1539C751.131 72.2203 750.78 72.2535 750.368 72.2535C749.829 72.2535 749.35 72.1392 748.93 71.9107C748.51 71.6822 748.182 71.3431 747.946 70.8934C747.71 70.4364 747.592 69.8762 747.592 69.2127C747.592 68.5419 747.699 67.9743 747.913 67.5099C748.127 67.0455 748.425 66.6917 748.809 66.4485C749.199 66.1978 749.649 66.0725 750.158 66.0725ZM750.158 66.9792C749.782 66.9792 749.479 67.1156 749.251 67.3883C749.022 67.6611 748.89 68.0481 748.853 68.5493H751.385C751.385 68.2397 751.341 67.967 751.252 67.7311C751.164 67.4952 751.027 67.3109 750.843 67.1782C750.666 67.0455 750.438 66.9792 750.158 66.9792Z" fill="#6E7191"/>
<path d="M791.957 60.2143C791.618 60.2143 791.343 60.4893 791.343 60.8286C791.343 61.1678 791.618 61.4428 791.957 61.4428V60.2143ZM784.586 68.8143C784.586 68.475 784.311 68.2 783.971 68.2C783.632 68.2 783.357 68.475 783.357 68.8143H784.586ZM796.871 64.5143V70.6571H798.1V64.5143H796.871ZM793.8 73.7286H787.657V74.9571H793.8V73.7286ZM791.957 61.4428H793.8V60.2143H791.957V61.4428ZM784.586 70.6571V68.8143H783.357V70.6571H784.586ZM787.657 73.7286C785.961 73.7286 784.586 72.3534 784.586 70.6571H783.357C783.357 73.0319 785.282 74.9571 787.657 74.9571V73.7286ZM796.871 70.6571C796.871 72.3534 795.496 73.7286 793.8 73.7286V74.9571C796.175 74.9571 798.1 73.0319 798.1 70.6571H796.871ZM798.1 64.5143C798.1 62.1394 796.175 60.2143 793.8 60.2143V61.4428C795.496 61.4428 796.871 62.818 796.871 64.5143H798.1Z" fill="#6E7191"/>
<path d="M792.902 65.2874L792.902 69.3867L789.173 69.3867" stroke="#6E7191" stroke-width="1.22857" stroke-linecap="round" stroke-linejoin="round"/>
<path d="M792.736 68.4993C792.976 68.7392 792.976 69.1281 792.736 69.368C792.496 69.6079 792.107 69.6079 791.867 69.368L792.736 68.4993ZM784.778 62.5033C784.531 62.2701 784.521 61.8813 784.754 61.6349C784.987 61.3885 785.376 61.3778 785.622 61.6109L784.778 62.5033ZM791.867 69.368C788.256 65.7567 789.369 66.8477 784.778 62.5033L785.622 61.6109C790.217 65.9587 789.113 64.8765 792.736 68.4993L791.867 69.368Z" fill="#6E7191"/>
</g>
<defs>
<filter id="filter0_bd_1701_6969" x="-104.239" y="-133.239" width="1061.39" height="368.479" filterUnits="userSpaceOnUse" color-interpolation-filters="sRGB">
<feFlood flood-opacity="0" result="BackgroundImageFix"/>
<feGaussianBlur in="BackgroundImage" stdDeviation="70.6197"/>
<feComposite in2="SourceAlpha" operator="in" result="effect1_backgroundBlur_1701_6969"/>
<feColorMatrix in="SourceAlpha" type="matrix" values="0 0 0 0 0 0 0 0 0 0 0 0 0 0 0 0 0 0 127 0" result="hardAlpha"/>
<feOffset dy="29.4249"/>
<feGaussianBlur stdDeviation="18.3905"/>
<feComposite in2="hardAlpha" operator="out"/>
<feColorMatrix type="matrix" values="0 0 0 0 0 0 0 0 0 0 0 0 0 0 0 0 0 0 0.25 0"/>
<feBlend mode="normal" in2="effect1_backgroundBlur_1701_6969" result="effect2_dropShadow_1701_6969"/>
<feBlend mode="normal" in="SourceGraphic" in2="effect2_dropShadow_1701_6969" result="shape"/>
</filter>
<clipPath id="clip0_1701_6969">
<rect x="46.8286" y="31.3428" width="87.2286" height="9.82857" rx="3.68571" fill="white"/>
</clipPath>
<clipPath id="clip1_1701_6969">
<rect width="23.9571" height="23.9571" fill="white" transform="translate(316.193 25.5071)"/>
</clipPath>
<clipPath id="clip2_1701_6969">
<rect width="21.2952" height="25.2881" fill="white" transform="translate(603.781 24.1762)"/>
</clipPath>
</defs>
</svg>
