<svg width="839" height="146" viewBox="0 0 839 146" fill="none" xmlns="http://www.w3.org/2000/svg">
<g filter="url(#filter0_bd_1615_6192)">
<path d="M30 17.9752C30 11.3615 35.3615 6 41.9752 6H796.939C803.553 6 808.914 11.3615 808.914 17.9752V80.0248C808.914 86.6385 803.553 92 796.939 92H41.9752C35.3615 92 30 86.6385 30 80.0248V17.9752Z" fill="#F1F1F5"/>
<g clip-path="url(#clip0_1615_6192)">
<rect x="39.8286" y="29.3428" width="87.2286" height="9.82857" rx="3.68571" fill="#464648"/>
<rect x="87.5557" y="29.3428" width="2.78604" height="9.82857" fill="#FBFF38"/>
<rect x="67.9116" y="29.3428" width="2.78603" height="9.82857" fill="#FBFF38"/>
<rect x="105.673" y="29.3428" width="2.78604" height="9.82857" fill="#FBFF38"/>
<rect x="113.827" y="29.3428" width="2.78603" height="9.82857" fill="#FBFF38"/>
</g>
<path d="M52.8976 60.718C53.6216 60.718 54.2304 60.1668 54.2304 59.1631V54.4243C54.3373 54.8192 54.6335 55.1565 55.1271 55.4445L63.5598 60.3971C63.9136 60.611 64.2262 60.718 64.5882 60.718C65.3122 60.718 65.921 60.1668 65.921 59.1631V49.0191C65.921 48.0154 65.3122 47.4642 64.5882 47.4642C64.2262 47.4642 63.9136 47.5712 63.5598 47.7851L55.1271 52.7378C54.6335 53.0257 54.3373 53.3548 54.2304 53.7497V49.0191C54.2304 48.0154 53.6298 47.4642 52.9058 47.4642C52.5356 47.4642 52.2312 47.5712 51.8692 47.7851L43.4365 52.7378C42.8112 53.108 42.5068 53.5276 42.5068 54.087C42.5068 54.6382 42.8195 55.0825 43.4365 55.4445L51.8692 60.3971C52.223 60.611 52.5356 60.718 52.8976 60.718Z" fill="#464648"/>
<path d="M87.0171 54.1363C87.0171 54.9914 86.9533 55.7531 86.8255 56.4214C86.7075 57.0898 86.5159 57.6598 86.2505 58.1316C85.9851 58.5936 85.6362 58.9474 85.2038 59.1931C84.7811 59.4388 84.2651 59.5617 83.6558 59.5617C82.8891 59.5617 82.2552 59.3454 81.7539 58.913C81.2625 58.4805 80.8939 57.8613 80.6482 57.0554C80.4123 56.2396 80.2944 55.2666 80.2944 54.1363C80.2944 52.9962 80.4025 52.0232 80.6187 51.2172C80.8448 50.4113 81.2035 49.797 81.695 49.3744C82.1864 48.9419 82.84 48.7257 83.6558 48.7257C84.4224 48.7257 85.0514 48.9419 85.5429 49.3744C86.0441 49.797 86.4127 50.4113 86.6486 51.2172C86.8943 52.0232 87.0171 52.9962 87.0171 54.1363ZM81.9014 54.1363C81.9014 55.0504 81.9554 55.8121 82.0635 56.4214C82.1815 57.0308 82.3682 57.4878 82.6238 57.7925C82.8793 58.0972 83.2233 58.2496 83.6558 58.2496C84.0784 58.2496 84.4175 58.1021 84.673 57.8073C84.9384 57.5026 85.1251 57.0456 85.2333 56.4362C85.3512 55.817 85.4102 55.0504 85.4102 54.1363C85.4102 53.2222 85.3512 52.4654 85.2333 51.8659C85.1251 51.2565 84.9384 50.7995 84.673 50.4948C84.4175 50.1901 84.0784 50.0378 83.6558 50.0378C83.2233 50.0378 82.8793 50.1901 82.6238 50.4948C82.3682 50.7995 82.1815 51.2565 82.0635 51.8659C81.9554 52.4654 81.9014 53.2222 81.9014 54.1363ZM88.5366 58.5444C88.5366 58.1611 88.6299 57.8908 88.8167 57.7336C89.0133 57.5763 89.2541 57.4977 89.5391 57.4977C89.8143 57.4977 90.0502 57.5763 90.2467 57.7336C90.4531 57.8908 90.5563 58.1611 90.5563 58.5444C90.5563 58.9277 90.4531 59.2029 90.2467 59.37C90.0502 59.5371 89.8143 59.6206 89.5391 59.6206C89.2541 59.6206 89.0133 59.5371 88.8167 59.37C88.6299 59.2029 88.5366 58.9277 88.5366 58.5444ZM88.5366 52.3524C88.5366 51.9494 88.6299 51.6693 88.8167 51.5121C89.0133 51.3548 89.2541 51.2762 89.5391 51.2762C89.8143 51.2762 90.0502 51.3548 90.2467 51.5121C90.4531 51.6693 90.5563 51.9494 90.5563 52.3524C90.5563 52.7259 90.4531 52.9962 90.2467 53.1633C90.0502 53.3304 89.8143 53.4139 89.5391 53.4139C89.2541 53.4139 89.0133 53.3304 88.8167 53.1633C88.6299 52.9962 88.5366 52.7259 88.5366 52.3524ZM98.7798 54.1363C98.7798 54.9914 98.7159 55.7531 98.5881 56.4214C98.4702 57.0898 98.2785 57.6598 98.0131 58.1316C97.7478 58.5936 97.3988 58.9474 96.9664 59.1931C96.5438 59.4388 96.0278 59.5617 95.4184 59.5617C94.6518 59.5617 94.0178 59.3454 93.5166 58.913C93.0251 58.4805 92.6566 57.8613 92.4108 57.0554C92.175 56.2396 92.057 55.2666 92.057 54.1363C92.057 52.9962 92.1651 52.0232 92.3814 51.2172C92.6074 50.4113 92.9662 49.797 93.4576 49.3744C93.949 48.9419 94.6026 48.7257 95.4184 48.7257C96.185 48.7257 96.814 48.9419 97.3055 49.3744C97.8067 49.797 98.1753 50.4113 98.4112 51.2172C98.6569 52.0232 98.7798 52.9962 98.7798 54.1363ZM93.664 54.1363C93.664 55.0504 93.718 55.8121 93.8262 56.4214C93.9441 57.0308 94.1308 57.4878 94.3864 57.7925C94.6419 58.0972 94.9859 58.2496 95.4184 58.2496C95.841 58.2496 96.1801 58.1021 96.4356 57.8073C96.701 57.5026 96.8878 57.0456 96.9959 56.4362C97.1138 55.817 97.1728 55.0504 97.1728 54.1363C97.1728 53.2222 97.1138 52.4654 96.9959 51.8659C96.8878 51.2565 96.701 50.7995 96.4356 50.4948C96.1801 50.1901 95.841 50.0378 95.4184 50.0378C94.9859 50.0378 94.6419 50.1901 94.3864 50.4948C94.1308 50.7995 93.9441 51.2565 93.8262 51.8659C93.718 52.4654 93.664 53.2222 93.664 54.1363ZM106.727 54.1363C106.727 54.9914 106.663 55.7531 106.535 56.4214C106.417 57.0898 106.226 57.6598 105.96 58.1316C105.695 58.5936 105.346 58.9474 104.914 59.1931C104.491 59.4388 103.975 59.5617 103.366 59.5617C102.599 59.5617 101.965 59.3454 101.464 58.913C100.972 58.4805 100.604 57.8613 100.358 57.0554C100.122 56.2396 100.004 55.2666 100.004 54.1363C100.004 52.9962 100.112 52.0232 100.329 51.2172C100.555 50.4113 100.913 49.797 101.405 49.3744C101.896 48.9419 102.55 48.7257 103.366 48.7257C104.132 48.7257 104.761 48.9419 105.253 49.3744C105.754 49.797 106.123 50.4113 106.359 51.2172C106.604 52.0232 106.727 52.9962 106.727 54.1363ZM101.611 54.1363C101.611 55.0504 101.665 55.8121 101.773 56.4214C101.891 57.0308 102.078 57.4878 102.334 57.7925C102.589 58.0972 102.933 58.2496 103.366 58.2496C103.788 58.2496 104.127 58.1021 104.383 57.8073C104.648 57.5026 104.835 57.0456 104.943 56.4362C105.061 55.817 105.12 55.0504 105.12 54.1363C105.12 53.2222 105.061 52.4654 104.943 51.8659C104.835 51.2565 104.648 50.7995 104.383 50.4948C104.127 50.1901 103.788 50.0378 103.366 50.0378C102.933 50.0378 102.589 50.1901 102.334 50.4948C102.078 50.7995 101.891 51.2565 101.773 51.8659C101.665 52.4654 101.611 53.2222 101.611 54.1363ZM108.247 58.5444C108.247 58.1611 108.34 57.8908 108.527 57.7336C108.723 57.5763 108.964 57.4977 109.249 57.4977C109.524 57.4977 109.76 57.5763 109.957 57.7336C110.163 57.8908 110.266 58.1611 110.266 58.5444C110.266 58.9277 110.163 59.2029 109.957 59.37C109.76 59.5371 109.524 59.6206 109.249 59.6206C108.964 59.6206 108.723 59.5371 108.527 59.37C108.34 59.2029 108.247 58.9277 108.247 58.5444ZM108.247 52.3524C108.247 51.9494 108.34 51.6693 108.527 51.5121C108.723 51.3548 108.964 51.2762 109.249 51.2762C109.524 51.2762 109.76 51.3548 109.957 51.5121C110.163 51.6693 110.266 51.9494 110.266 52.3524C110.266 52.7259 110.163 52.9962 109.957 53.1633C109.76 53.3304 109.524 53.4139 109.249 53.4139C108.964 53.4139 108.723 53.3304 108.527 53.1633C108.34 52.9962 108.247 52.7259 108.247 52.3524ZM118.49 54.1363C118.49 54.9914 118.426 55.7531 118.298 56.4214C118.18 57.0898 117.988 57.6598 117.723 58.1316C117.458 58.5936 117.109 58.9474 116.676 59.1931C116.254 59.4388 115.738 59.5617 115.128 59.5617C114.362 59.5617 113.728 59.3454 113.226 58.913C112.735 58.4805 112.366 57.8613 112.121 57.0554C111.885 56.2396 111.767 55.2666 111.767 54.1363C111.767 52.9962 111.875 52.0232 112.091 51.2172C112.317 50.4113 112.676 49.797 113.168 49.3744C113.659 48.9419 114.313 48.7257 115.128 48.7257C115.895 48.7257 116.524 48.9419 117.015 49.3744C117.517 49.797 117.885 50.4113 118.121 51.2172C118.367 52.0232 118.49 52.9962 118.49 54.1363ZM113.374 54.1363C113.374 55.0504 113.428 55.8121 113.536 56.4214C113.654 57.0308 113.841 57.4878 114.096 57.7925C114.352 58.0972 114.696 58.2496 115.128 58.2496C115.551 58.2496 115.89 58.1021 116.146 57.8073C116.411 57.5026 116.598 57.0456 116.706 56.4362C116.824 55.817 116.883 55.0504 116.883 54.1363C116.883 53.2222 116.824 52.4654 116.706 51.8659C116.598 51.2565 116.411 50.7995 116.146 50.4948C115.89 50.1901 115.551 50.0378 115.128 50.0378C114.696 50.0378 114.352 50.1901 114.096 50.4948C113.841 50.7995 113.654 51.2565 113.536 51.8659C113.428 52.4654 113.374 53.2222 113.374 54.1363ZM126.437 54.1363C126.437 54.9914 126.373 55.7531 126.245 56.4214C126.127 57.0898 125.936 57.6598 125.67 58.1316C125.405 58.5936 125.056 58.9474 124.624 59.1931C124.201 59.4388 123.685 59.5617 123.076 59.5617C122.309 59.5617 121.675 59.3454 121.174 58.913C120.682 58.4805 120.314 57.8613 120.068 57.0554C119.832 56.2396 119.714 55.2666 119.714 54.1363C119.714 52.9962 119.822 52.0232 120.039 51.2172C120.265 50.4113 120.623 49.797 121.115 49.3744C121.606 48.9419 122.26 48.7257 123.076 48.7257C123.842 48.7257 124.471 48.9419 124.963 49.3744C125.464 49.797 125.833 50.4113 126.068 51.2172C126.314 52.0232 126.437 52.9962 126.437 54.1363ZM121.321 54.1363C121.321 55.0504 121.375 55.8121 121.483 56.4214C121.601 57.0308 121.788 57.4878 122.044 57.7925C122.299 58.0972 122.643 58.2496 123.076 58.2496C123.498 58.2496 123.837 58.1021 124.093 57.8073C124.358 57.5026 124.545 57.0456 124.653 56.4362C124.771 55.817 124.83 55.0504 124.83 54.1363C124.83 53.2222 124.771 52.4654 124.653 51.8659C124.545 51.2565 124.358 50.7995 124.093 50.4948C123.837 50.1901 123.498 50.0378 123.076 50.0378C122.643 50.0378 122.299 50.1901 122.044 50.4948C121.788 50.7995 121.601 51.2565 121.483 51.8659C121.375 52.4654 121.321 53.2222 121.321 54.1363Z" fill="#464648"/>
<path fill-rule="evenodd" clip-rule="evenodd" d="M163.836 22.8766C163.119 22.8766 162.432 23.1613 161.925 23.668C161.418 24.1747 161.134 24.862 161.134 25.5786V45.3928C161.134 46.1094 161.418 46.7966 161.925 47.3033C162.432 47.81 163.119 48.0947 163.836 48.0947H174.798C175.515 48.0941 176.202 47.809 176.708 47.3021L185.561 38.4506C186.067 37.9441 186.352 37.2573 186.352 36.5412V25.5786C186.352 24.862 186.067 24.1747 185.56 23.668C185.054 23.1613 184.366 22.8766 183.65 22.8766H163.836ZM173.803 37.347V45.2655C173.803 45.6672 174.289 45.8689 174.572 45.5843L183.841 36.3149C183.905 36.2519 183.948 36.1716 183.965 36.0841C183.982 35.9967 183.974 35.906 183.939 35.8236C183.905 35.7412 183.847 35.6708 183.773 35.6214C183.699 35.5719 183.612 35.5456 183.523 35.5457H175.604C175.126 35.5457 174.668 35.7355 174.33 36.0733C173.993 36.4111 173.803 36.8693 173.803 37.347Z" fill="#464648"/>
<path d="M148.164 71.9146C148.164 72.4388 148.045 72.8851 147.807 73.2537C147.57 73.6223 147.23 73.9089 146.788 74.1137C146.345 74.3103 145.805 74.4086 145.166 74.4086C144.855 74.4086 144.556 74.3881 144.269 74.3471C143.991 74.3144 143.733 74.2652 143.495 74.1997C143.266 74.1342 143.049 74.0523 142.844 73.954V72.7008C143.172 72.8483 143.544 72.9834 143.962 73.1063C144.388 73.2209 144.81 73.2783 145.227 73.2783C145.588 73.2783 145.883 73.225 146.112 73.1186C146.349 73.0121 146.526 72.8647 146.64 72.6763C146.763 72.4879 146.824 72.2668 146.824 72.0128C146.824 71.7426 146.763 71.5173 146.64 71.3371C146.526 71.1488 146.333 70.9768 146.063 70.8211C145.801 70.6573 145.448 70.4894 145.006 70.3174C144.695 70.1864 144.412 70.0471 144.158 69.8997C143.905 69.7441 143.683 69.5639 143.495 69.3591C143.315 69.1544 143.176 68.9168 143.077 68.6466C142.987 68.3763 142.942 68.0609 142.942 67.7006C142.942 67.2173 143.057 66.8037 143.286 66.4597C143.516 66.1157 143.835 65.8536 144.244 65.6734C144.654 65.485 145.133 65.3908 145.682 65.3908C146.141 65.3908 146.562 65.44 146.947 65.5383C147.332 65.6284 147.697 65.7553 148.041 65.9191L147.611 67.0126C147.291 66.8733 146.968 66.7587 146.64 66.6686C146.321 66.5785 145.989 66.5334 145.645 66.5334C145.342 66.5334 145.088 66.5826 144.883 66.6808C144.687 66.7791 144.539 66.9143 144.441 67.0863C144.343 67.2583 144.294 67.4589 144.294 67.6883C144.294 67.9586 144.351 68.1838 144.466 68.364C144.58 68.5442 144.765 68.7121 145.018 68.8677C145.272 69.0151 145.608 69.1789 146.026 69.3591C146.485 69.5557 146.874 69.7646 147.193 69.9857C147.512 70.1987 147.754 70.4608 147.918 70.772C148.082 71.075 148.164 71.4559 148.164 71.9146ZM151.966 73.352C152.138 73.352 152.306 73.3356 152.47 73.3028C152.633 73.2701 152.777 73.2332 152.9 73.1923V74.1751C152.76 74.2407 152.576 74.2939 152.347 74.3348C152.126 74.384 151.892 74.4086 151.646 74.4086C151.302 74.4086 150.987 74.3471 150.7 74.2243C150.414 74.1014 150.184 73.8885 150.012 73.5854C149.84 73.2824 149.754 72.8606 149.754 72.32V68.6588H148.907V68.0691L149.816 67.5777L150.27 66.1771H151.094V67.6637H152.85V68.6588H151.094V72.2954C151.094 72.6558 151.175 72.922 151.339 73.094C151.503 73.266 151.712 73.352 151.966 73.352ZM155.47 67.6637V74.2857H154.13V67.6637H155.47ZM154.818 65.1451C155.015 65.1451 155.187 65.2025 155.334 65.3171C155.482 65.4318 155.556 65.6243 155.556 65.8946C155.556 66.1567 155.482 66.3491 155.334 66.472C155.187 66.5867 155.015 66.644 154.818 66.644C154.605 66.644 154.425 66.5867 154.278 66.472C154.13 66.3491 154.057 66.1567 154.057 65.8946C154.057 65.6243 154.13 65.4318 154.278 65.3171C154.425 65.2025 154.605 65.1451 154.818 65.1451ZM159.902 74.4086C159.32 74.4086 158.808 74.2898 158.366 74.0523C157.932 73.8148 157.592 73.4462 157.346 72.9466C157.109 72.4388 156.99 71.7958 156.99 71.0177C156.99 70.1987 157.121 69.5352 157.383 69.0274C157.645 68.5196 158.001 68.1469 158.452 67.9094C158.902 67.6637 159.418 67.5408 160 67.5408C160.344 67.5408 160.671 67.5818 160.983 67.6637C161.302 67.7374 161.564 67.8234 161.769 67.9217L161.364 68.966C161.159 68.8841 160.938 68.8104 160.7 68.7448C160.463 68.6793 160.237 68.6466 160.024 68.6466C159.648 68.6466 159.336 68.7367 159.091 68.9168C158.853 69.0888 158.673 69.3509 158.55 69.7031C158.427 70.0471 158.366 70.4812 158.366 71.0054C158.366 71.505 158.427 71.9268 158.55 72.2708C158.673 72.6148 158.853 72.8769 159.091 73.0571C159.336 73.2291 159.631 73.3151 159.975 73.3151C160.311 73.3151 160.61 73.2742 160.872 73.1923C161.142 73.1104 161.392 73.0039 161.622 72.8728V74.0031C161.392 74.1424 161.142 74.2448 160.872 74.3103C160.602 74.3758 160.278 74.4086 159.902 74.4086ZM164.384 69.6171C164.384 69.7891 164.375 69.9857 164.359 70.2068C164.343 70.428 164.326 70.6328 164.31 70.8211H164.359C164.408 70.7392 164.474 70.6409 164.556 70.5263C164.646 70.4034 164.736 70.2806 164.826 70.1577C164.924 70.0348 165.014 69.9284 165.096 69.8383L166.951 67.6637H168.475L166.005 70.5017L168.634 74.2857H167.062L165.096 71.3248L164.384 71.9637V74.2857H163.057V64.9486H164.384V69.6171ZM168.71 67.6637H170.135L171.401 71.4231C171.466 71.6115 171.524 71.7958 171.573 71.976C171.63 72.1562 171.675 72.3364 171.708 72.5166C171.749 72.6886 171.782 72.8606 171.806 73.0326H171.843C171.884 72.8196 171.941 72.5698 172.015 72.2831C172.089 71.9883 172.171 71.6975 172.261 71.4108L173.465 67.6637H174.902L172.248 75.1826C172.093 75.6085 171.904 75.9729 171.683 76.276C171.47 76.5872 171.208 76.8248 170.897 76.9886C170.594 77.1524 170.229 77.2343 169.804 77.2343C169.623 77.2343 169.46 77.222 169.312 77.1974C169.173 77.181 169.05 77.1606 168.944 77.136V76.104C169.025 76.1204 169.128 76.1368 169.251 76.1531C169.374 76.1695 169.5 76.1777 169.632 76.1777C169.869 76.1777 170.074 76.1286 170.246 76.0303C170.418 75.932 170.561 75.7928 170.676 75.6126C170.79 75.4406 170.885 75.2358 170.958 74.9983L171.204 74.2857L168.71 67.6637ZM185.861 74.2857H184.19L180.148 67.1968H180.099C180.107 67.3607 180.116 67.5368 180.124 67.7251C180.14 67.9135 180.152 68.1142 180.161 68.3271C180.169 68.5319 180.177 68.7448 180.185 68.966C180.193 69.1789 180.202 69.396 180.21 69.6171V74.2857H178.969V65.5137H180.628L184.657 72.5657H184.706C184.698 72.4428 184.69 72.2913 184.682 72.1111C184.674 71.9228 184.665 71.7221 184.657 71.5091C184.649 71.2962 184.641 71.0791 184.633 70.858C184.624 70.6368 184.62 70.428 184.62 70.2314V65.5137H185.861V74.2857ZM193.446 70.9686C193.446 71.5173 193.376 72.0047 193.237 72.4306C193.097 72.8565 192.897 73.2168 192.635 73.5117C192.381 73.8066 192.07 74.0318 191.701 74.1874C191.332 74.3348 190.919 74.4086 190.46 74.4086C190.042 74.4086 189.653 74.3348 189.293 74.1874C188.933 74.0318 188.621 73.8066 188.359 73.5117C188.097 73.2168 187.892 72.8565 187.745 72.4306C187.606 72.0047 187.536 71.5132 187.536 70.9563C187.536 70.2273 187.655 69.6089 187.892 69.1011C188.13 68.5933 188.47 68.2084 188.912 67.9463C189.363 67.676 189.895 67.5408 190.509 67.5408C191.083 67.5408 191.59 67.676 192.033 67.9463C192.475 68.2084 192.819 68.5933 193.065 69.1011C193.319 69.6089 193.446 70.2314 193.446 70.9686ZM188.912 70.9686C188.912 71.46 188.965 71.8859 189.072 72.2463C189.187 72.5985 189.359 72.8688 189.588 73.0571C189.825 73.2455 190.124 73.3397 190.485 73.3397C190.853 73.3397 191.152 73.2455 191.382 73.0571C191.619 72.8688 191.791 72.5985 191.898 72.2463C192.012 71.8859 192.07 71.46 192.07 70.9686C192.07 70.4608 192.012 70.0348 191.898 69.6908C191.783 69.3468 191.611 69.0848 191.382 68.9046C191.152 68.7162 190.849 68.622 190.472 68.622C189.924 68.622 189.526 68.8268 189.281 69.2363C189.035 69.6458 188.912 70.2232 188.912 70.9686ZM197.305 73.352C197.477 73.352 197.645 73.3356 197.809 73.3028C197.973 73.2701 198.116 73.2332 198.239 73.1923V74.1751C198.1 74.2407 197.916 74.2939 197.686 74.3348C197.465 74.384 197.232 74.4086 196.986 74.4086C196.642 74.4086 196.327 74.3471 196.04 74.2243C195.753 74.1014 195.524 73.8885 195.352 73.5854C195.18 73.2824 195.094 72.8606 195.094 72.32V68.6588H194.246V68.0691L195.155 67.5777L195.61 66.1771H196.433V67.6637H198.19V68.6588H196.433V72.2954C196.433 72.6558 196.515 72.922 196.679 73.094C196.843 73.266 197.051 73.352 197.305 73.352ZM201.976 67.5408C202.525 67.5408 203 67.6637 203.401 67.9094C203.803 68.1469 204.11 68.4909 204.323 68.9414C204.544 69.3919 204.655 69.9243 204.655 70.5386V71.2511H200.49C200.506 71.9309 200.67 72.451 200.981 72.8114C201.292 73.1718 201.731 73.352 202.296 73.352C202.697 73.352 203.053 73.3151 203.365 73.2414C203.684 73.1595 204.008 73.0408 204.335 72.8851V73.9663C204.024 74.1137 203.704 74.2243 203.377 74.298C203.057 74.3717 202.668 74.4086 202.21 74.4086C201.612 74.4086 201.079 74.2816 200.613 74.0277C200.146 73.7738 199.781 73.397 199.519 72.8974C199.257 72.3896 199.126 71.7671 199.126 71.03C199.126 70.2847 199.245 69.654 199.482 69.138C199.72 68.622 200.052 68.2288 200.477 67.9586C200.912 67.6801 201.411 67.5408 201.976 67.5408ZM201.976 68.5483C201.559 68.5483 201.223 68.6998 200.969 69.0028C200.715 69.3059 200.568 69.7359 200.527 70.2928H203.34C203.34 69.9488 203.291 69.6458 203.193 69.3837C203.094 69.1216 202.943 68.9168 202.738 68.7694C202.541 68.622 202.288 68.5483 201.976 68.5483Z" fill="#464648"/>
<path fill-rule="evenodd" clip-rule="evenodd" d="M247.457 50.3162C255.648 50.3162 262.288 43.6763 262.288 35.4856C262.288 27.2949 255.648 20.655 247.457 20.655C239.266 20.655 232.626 27.2949 232.626 35.4856C232.626 43.6763 239.266 50.3162 247.457 50.3162ZM247.457 47.7713C254.242 47.7713 259.743 42.2708 259.743 35.4856C259.743 28.7004 254.242 23.1998 247.457 23.1998C240.672 23.1998 235.171 28.7004 235.171 35.4856C235.171 42.2708 240.672 47.7713 247.457 47.7713Z" fill="#EA4343"/>
<circle cx="247.457" cy="35.4858" r="9.12653" fill="#EA4343"/>
<path d="M222.66 65.5137C223.365 65.5137 223.946 65.6079 224.405 65.7963C224.864 65.9847 225.204 66.2672 225.425 66.644C225.654 67.0126 225.769 67.4794 225.769 68.0446C225.769 68.495 225.691 68.8759 225.535 69.1871C225.388 69.4902 225.191 69.74 224.946 69.9366C224.708 70.1249 224.45 70.2765 224.172 70.3911L226.494 74.2857H224.946L222.992 70.7351H221.653V74.2857H220.289V65.5137H222.66ZM222.599 66.644H221.653V69.6294H222.624C223.025 69.6294 223.353 69.5721 223.606 69.4574C223.869 69.3428 224.061 69.1708 224.184 68.9414C224.315 68.7121 224.38 68.4295 224.38 68.0937C224.38 67.7415 224.315 67.463 224.184 67.2583C224.061 67.0453 223.864 66.8897 223.594 66.7914C223.332 66.6931 223 66.644 222.599 66.644ZM230.027 67.5408C230.576 67.5408 231.051 67.6637 231.452 67.9094C231.854 68.1469 232.161 68.4909 232.374 68.9414C232.595 69.3919 232.705 69.9243 232.705 70.5386V71.2511H228.541C228.557 71.9309 228.721 72.451 229.032 72.8114C229.343 73.1718 229.781 73.352 230.347 73.352C230.748 73.352 231.104 73.3151 231.415 73.2414C231.735 73.1595 232.058 73.0408 232.386 72.8851V73.9663C232.075 74.1137 231.755 74.2243 231.428 74.298C231.108 74.3717 230.719 74.4086 230.261 74.4086C229.663 74.4086 229.13 74.2816 228.663 74.0277C228.197 73.7738 227.832 73.397 227.57 72.8974C227.308 72.3896 227.177 71.7671 227.177 71.03C227.177 70.2847 227.296 69.654 227.533 69.138C227.771 68.622 228.102 68.2288 228.528 67.9586C228.962 67.6801 229.462 67.5408 230.027 67.5408ZM230.027 68.5483C229.609 68.5483 229.274 68.6998 229.02 69.0028C228.766 69.3059 228.618 69.7359 228.577 70.2928H231.391C231.391 69.9488 231.342 69.6458 231.243 69.3837C231.145 69.1216 230.994 68.9168 230.789 68.7694C230.592 68.622 230.338 68.5483 230.027 68.5483ZM236.759 74.4086C236.178 74.4086 235.666 74.2898 235.224 74.0523C234.79 73.8148 234.45 73.4462 234.204 72.9466C233.966 72.4388 233.848 71.7958 233.848 71.0177C233.848 70.1987 233.979 69.5352 234.241 69.0274C234.503 68.5196 234.859 68.1469 235.31 67.9094C235.76 67.6637 236.276 67.5408 236.858 67.5408C237.202 67.5408 237.529 67.5818 237.84 67.6637C238.16 67.7374 238.422 67.8234 238.627 67.9217L238.221 68.966C238.017 68.8841 237.795 68.8104 237.558 68.7448C237.32 68.6793 237.095 68.6466 236.882 68.6466C236.505 68.6466 236.194 68.7367 235.948 68.9168C235.711 69.0888 235.531 69.3509 235.408 69.7031C235.285 70.0471 235.224 70.4812 235.224 71.0054C235.224 71.505 235.285 71.9268 235.408 72.2708C235.531 72.6148 235.711 72.8769 235.948 73.0571C236.194 73.2291 236.489 73.3151 236.833 73.3151C237.169 73.3151 237.468 73.2742 237.73 73.1923C238 73.1104 238.25 73.0039 238.479 72.8728V74.0031C238.25 74.1424 238 74.2448 237.73 74.3103C237.46 74.3758 237.136 74.4086 236.759 74.4086ZM245.48 70.9686C245.48 71.5173 245.41 72.0047 245.271 72.4306C245.132 72.8565 244.931 73.2168 244.669 73.5117C244.415 73.8066 244.104 74.0318 243.735 74.1874C243.367 74.3348 242.953 74.4086 242.495 74.4086C242.077 74.4086 241.688 74.3348 241.327 74.1874C240.967 74.0318 240.656 73.8066 240.394 73.5117C240.132 73.2168 239.927 72.8565 239.779 72.4306C239.64 72.0047 239.571 71.5132 239.571 70.9563C239.571 70.2273 239.689 69.6089 239.927 69.1011C240.164 68.5933 240.504 68.2084 240.947 67.9463C241.397 67.676 241.929 67.5408 242.544 67.5408C243.117 67.5408 243.625 67.676 244.067 67.9463C244.509 68.2084 244.853 68.5933 245.099 69.1011C245.353 69.6089 245.48 70.2314 245.48 70.9686ZM240.947 70.9686C240.947 71.46 241 71.8859 241.106 72.2463C241.221 72.5985 241.393 72.8688 241.622 73.0571C241.86 73.2455 242.159 73.3397 242.519 73.3397C242.888 73.3397 243.187 73.2455 243.416 73.0571C243.653 72.8688 243.825 72.5985 243.932 72.2463C244.047 71.8859 244.104 71.46 244.104 70.9686C244.104 70.4608 244.047 70.0348 243.932 69.6908C243.817 69.3468 243.645 69.0848 243.416 68.9046C243.187 68.7162 242.884 68.622 242.507 68.622C241.958 68.622 241.561 68.8268 241.315 69.2363C241.069 69.6458 240.947 70.2232 240.947 70.9686ZM250.151 67.5408C250.257 67.5408 250.376 67.549 250.507 67.5654C250.638 67.5736 250.749 67.5859 250.839 67.6023L250.704 68.8186C250.613 68.794 250.511 68.7735 250.396 68.7571C250.282 68.7408 250.167 68.7326 250.052 68.7326C249.831 68.7326 249.618 68.7817 249.414 68.88C249.209 68.9701 249.024 69.1052 248.861 69.2854C248.697 69.4574 248.566 69.6704 248.468 69.9243C248.369 70.1782 248.32 70.4689 248.32 70.7966V74.2857H246.993V67.6637H248.038L248.21 68.8431H248.283C248.406 68.6056 248.558 68.3886 248.738 68.192C248.926 67.9954 249.139 67.8398 249.377 67.7251C249.614 67.6023 249.872 67.5408 250.151 67.5408ZM253.858 74.4086C253.121 74.4086 252.523 74.1219 252.064 73.5486C251.614 72.9752 251.388 72.1234 251.388 70.9931C251.388 69.8547 251.618 68.9947 252.076 68.4131C252.535 67.8316 253.137 67.5408 253.882 67.5408C254.202 67.5408 254.476 67.5859 254.705 67.676C254.935 67.7579 255.135 67.8726 255.307 68.02C255.479 68.1674 255.623 68.3312 255.737 68.5114H255.811C255.795 68.3968 255.774 68.2329 255.75 68.02C255.733 67.7988 255.725 67.6023 255.725 67.4303V64.9486H257.052V74.2857H256.008L255.774 73.4011H255.725C255.611 73.5895 255.467 73.7615 255.295 73.9171C255.123 74.0646 254.918 74.1833 254.681 74.2734C254.452 74.3635 254.177 74.4086 253.858 74.4086ZM254.214 73.3397C254.787 73.3397 255.189 73.1636 255.418 72.8114C255.656 72.451 255.774 71.9146 255.774 71.202V71.0054C255.774 70.2273 255.664 69.6335 255.443 69.224C255.221 68.8145 254.808 68.6097 254.202 68.6097C253.727 68.6097 253.366 68.8268 253.121 69.2608C252.875 69.6868 252.752 70.2724 252.752 71.0177C252.752 71.763 252.875 72.3364 253.121 72.7377C253.366 73.139 253.731 73.3397 254.214 73.3397ZM260.258 67.6637V74.2857H258.919V67.6637H260.258ZM259.607 65.1451C259.804 65.1451 259.976 65.2025 260.123 65.3171C260.27 65.4318 260.344 65.6243 260.344 65.8946C260.344 66.1567 260.27 66.3491 260.123 66.472C259.976 66.5867 259.804 66.644 259.607 66.644C259.394 66.644 259.214 66.5867 259.066 66.472C258.919 66.3491 258.845 66.1567 258.845 65.8946C258.845 65.6243 258.919 65.4318 259.066 65.3171C259.214 65.2025 259.394 65.1451 259.607 65.1451ZM265.366 67.5408C266.087 67.5408 266.639 67.7333 267.024 68.1183C267.418 68.5032 267.614 69.1216 267.614 69.9734V74.2857H266.287V70.1577C266.287 69.6417 266.185 69.2568 265.98 69.0028C265.784 68.7408 265.476 68.6097 265.059 68.6097C264.444 68.6097 264.023 68.8104 263.793 69.2117C263.564 69.613 263.449 70.1905 263.449 70.944V74.2857H262.122V67.6637H263.167L263.351 68.5483H263.425C263.564 68.3189 263.732 68.1306 263.928 67.9831C264.125 67.8357 264.346 67.7251 264.592 67.6514C264.838 67.5777 265.096 67.5408 265.366 67.5408ZM271.591 67.5408C271.992 67.5408 272.349 67.6228 272.66 67.7866C272.979 67.9504 273.25 68.2002 273.471 68.536H273.52L273.667 67.6637H274.761V74.3717C274.761 74.9942 274.654 75.5184 274.441 75.9443C274.228 76.3702 273.905 76.6896 273.471 76.9026C273.037 77.1237 272.488 77.2343 271.824 77.2343C271.366 77.2343 270.948 77.2015 270.571 77.136C270.203 77.0705 269.859 76.9681 269.539 76.8288V75.6863C269.752 75.8009 269.982 75.8951 270.227 75.9688C270.473 76.0508 270.731 76.1081 271.001 76.1408C271.28 76.1818 271.566 76.2023 271.861 76.2023C272.369 76.2023 272.758 76.0467 273.028 75.7354C273.307 75.4324 273.446 75.0024 273.446 74.4454V74.2243C273.446 74.1178 273.45 73.9786 273.458 73.8066C273.467 73.6264 273.475 73.4953 273.483 73.4134H273.434C273.229 73.7574 272.971 74.0113 272.66 74.1751C272.357 74.3308 271.996 74.4086 271.579 74.4086C270.809 74.4086 270.203 74.1096 269.76 73.5117C269.318 72.9056 269.097 72.0661 269.097 70.9931C269.097 70.2724 269.195 69.6581 269.392 69.1503C269.597 68.6343 269.883 68.237 270.252 67.9586C270.629 67.6801 271.075 67.5408 271.591 67.5408ZM271.91 68.622C271.599 68.622 271.337 68.7162 271.124 68.9046C270.911 69.0848 270.747 69.3509 270.633 69.7031C270.526 70.0553 270.473 70.4894 270.473 71.0054C270.473 71.7753 270.596 72.3609 270.842 72.7623C271.087 73.1636 271.448 73.3643 271.923 73.3643C272.201 73.3643 272.439 73.3233 272.635 73.2414C272.832 73.1595 272.992 73.0326 273.114 72.8606C273.246 72.6886 273.34 72.4715 273.397 72.2094C273.463 71.9391 273.495 71.6156 273.495 71.2388V70.9931C273.495 70.428 273.438 69.9734 273.323 69.6294C273.217 69.2772 273.045 69.0233 272.807 68.8677C272.578 68.7039 272.279 68.622 271.91 68.622Z" fill="#464648"/>
<path d="M276.476 16.6517L270.775 22.3522L265.062 16.6517" stroke="#464648" stroke-width="1.22857" stroke-linecap="round" stroke-linejoin="round"/>
<g clip-path="url(#clip1_1615_6192)">
<path d="M330.569 23.5071H311.774C310.351 23.5071 309.193 24.6651 309.193 26.0885V44.883C309.193 46.3063 310.351 47.4643 311.774 47.4643H330.569C331.992 47.4643 333.15 46.3063 333.15 44.883V26.0885C333.15 24.6651 331.992 23.5071 330.569 23.5071V23.5071ZM321.171 41.8259C317.675 41.8259 314.831 38.9817 314.831 35.4857C314.831 31.9897 317.675 29.1455 321.171 29.1455C324.667 29.1455 327.512 31.9897 327.512 35.4857C327.512 38.9817 324.667 41.8259 321.171 41.8259Z" fill="#464648"/>
<path d="M321.171 32.4911C319.52 32.4911 318.177 33.8345 318.177 35.4857C318.177 37.137 319.52 38.4804 321.171 38.4804C322.823 38.4804 324.166 37.137 324.166 35.4857C324.166 33.8345 322.823 32.4911 321.171 32.4911Z" fill="#464648"/>
</g>
<path d="M292.532 65.5137C293.237 65.5137 293.826 65.5833 294.301 65.7226C294.776 65.8618 295.133 66.0952 295.37 66.4228C295.608 66.7423 295.726 67.1682 295.726 67.7006C295.726 68.0446 295.669 68.3517 295.554 68.622C295.44 68.8841 295.272 69.1052 295.051 69.2854C294.83 69.4574 294.567 69.5721 294.264 69.6294V69.6908C294.576 69.7482 294.862 69.8547 295.124 70.0103C295.387 70.1577 295.591 70.3748 295.739 70.6614C295.894 70.9481 295.972 71.3208 295.972 71.7794C295.972 72.3118 295.853 72.7664 295.616 73.1431C295.378 73.5117 295.038 73.7943 294.596 73.9908C294.162 74.1874 293.642 74.2857 293.036 74.2857H290.05V65.5137H292.532ZM292.704 69.1748C293.327 69.1748 293.753 69.0643 293.982 68.8431C294.211 68.622 294.326 68.2944 294.326 67.8603C294.326 67.418 294.187 67.1027 293.908 66.9143C293.63 66.7259 293.187 66.6317 292.581 66.6317H291.414V69.1748H292.704ZM291.414 70.256V73.18H292.839C293.478 73.18 293.925 73.0408 294.178 72.7623C294.432 72.4838 294.559 72.1152 294.559 71.6566C294.559 71.3781 294.502 71.1324 294.387 70.9194C294.273 70.7065 294.084 70.5427 293.822 70.428C293.568 70.3133 293.22 70.256 292.778 70.256H291.414ZM302.964 67.6637V74.2857H301.92L301.736 73.4134H301.662C301.539 73.6428 301.371 73.8311 301.158 73.9786C300.954 74.126 300.728 74.2325 300.483 74.298C300.237 74.3717 299.983 74.4086 299.721 74.4086C299.238 74.4086 298.828 74.3267 298.492 74.1628C298.165 73.9908 297.911 73.7288 297.731 73.3766C297.559 73.0162 297.473 72.5575 297.473 72.0006V67.6637H298.812V71.804C298.812 72.32 298.91 72.7049 299.107 72.9588C299.303 73.2128 299.61 73.3397 300.028 73.3397C300.438 73.3397 300.757 73.2496 300.986 73.0694C301.224 72.8892 301.392 72.6271 301.49 72.2831C301.588 71.9309 301.638 71.5091 301.638 71.0177V67.6637H302.964ZM307.986 67.5408C308.092 67.5408 308.211 67.549 308.342 67.5654C308.473 67.5736 308.584 67.5859 308.674 67.6023L308.539 68.8186C308.449 68.794 308.346 68.7735 308.232 68.7571C308.117 68.7408 308.002 68.7326 307.888 68.7326C307.667 68.7326 307.454 68.7817 307.249 68.88C307.044 68.9701 306.86 69.1052 306.696 69.2854C306.532 69.4574 306.401 69.6704 306.303 69.9243C306.205 70.1782 306.155 70.4689 306.155 70.7966V74.2857H304.829V67.6637H305.873L306.045 68.8431H306.119C306.241 68.6056 306.393 68.3886 306.573 68.192C306.761 67.9954 306.974 67.8398 307.212 67.7251C307.449 67.6023 307.707 67.5408 307.986 67.5408ZM314.01 72.4183C314.01 72.8524 313.911 73.2168 313.715 73.5117C313.518 73.8066 313.232 74.0318 312.855 74.1874C312.478 74.3348 312.015 74.4086 311.466 74.4086C311.032 74.4086 310.652 74.3717 310.324 74.298C310.004 74.2325 309.71 74.1342 309.439 74.0031V72.8606C309.726 72.9998 310.054 73.1268 310.422 73.2414C310.791 73.3479 311.143 73.4011 311.479 73.4011C311.913 73.4011 312.228 73.3233 312.425 73.1677C312.621 73.0121 312.72 72.8032 312.72 72.5411C312.72 72.3937 312.679 72.2627 312.597 72.148C312.523 72.0251 312.38 71.9023 312.167 71.7794C311.954 71.6484 311.647 71.5009 311.245 71.3371C310.852 71.1651 310.52 70.9972 310.25 70.8334C309.988 70.6614 309.783 70.4608 309.636 70.2314C309.497 69.9939 309.427 69.6908 309.427 69.3223C309.427 68.7489 309.648 68.3108 310.09 68.0077C310.533 67.6965 311.11 67.5408 311.823 67.5408C312.216 67.5408 312.58 67.5818 312.916 67.6637C313.252 67.7374 313.58 67.8521 313.899 68.0077L313.494 69.0028C313.305 68.9128 313.113 68.839 312.916 68.7817C312.728 68.7162 312.539 68.6629 312.351 68.622C312.163 68.581 311.974 68.5606 311.786 68.5606C311.434 68.5606 311.168 68.622 310.987 68.7448C310.807 68.8677 310.717 69.0397 310.717 69.2608C310.717 69.4247 310.758 69.5639 310.84 69.6786C310.93 69.7932 311.082 69.9079 311.294 70.0226C311.516 70.1372 311.819 70.2724 312.204 70.428C312.589 70.5836 312.916 70.7433 313.186 70.9071C313.457 71.0709 313.662 71.2716 313.801 71.5091C313.94 71.7467 314.01 72.0497 314.01 72.4183ZM317.781 73.352C317.953 73.352 318.121 73.3356 318.285 73.3028C318.449 73.2701 318.592 73.2332 318.715 73.1923V74.1751C318.576 74.2407 318.391 74.2939 318.162 74.3348C317.941 74.384 317.707 74.4086 317.462 74.4086C317.118 74.4086 316.802 74.3471 316.516 74.2243C316.229 74.1014 316 73.8885 315.828 73.5854C315.656 73.2824 315.57 72.8606 315.57 72.32V68.6588H314.722V68.0691L315.631 67.5777L316.086 66.1771H316.909V67.6637H318.666V68.6588H316.909V72.2954C316.909 72.6558 316.991 72.922 317.155 73.094C317.318 73.266 317.527 73.352 317.781 73.352ZM329.223 65.5137L326.336 74.2857H324.886L322.011 65.5137H323.449L325.132 71.0177C325.198 71.2143 325.259 71.4272 325.316 71.6566C325.382 71.8777 325.439 72.0988 325.488 72.32C325.546 72.5411 325.587 72.75 325.611 72.9466C325.644 72.75 325.685 72.5411 325.734 72.32C325.783 72.0988 325.84 71.8777 325.906 71.6566C325.972 71.4272 326.033 71.2102 326.09 71.0054L327.773 65.5137H329.223ZM331.495 67.6637V74.2857H330.156V67.6637H331.495ZM330.844 65.1451C331.04 65.1451 331.212 65.2025 331.36 65.3171C331.507 65.4318 331.581 65.6243 331.581 65.8946C331.581 66.1567 331.507 66.3491 331.36 66.472C331.212 66.5867 331.04 66.644 330.844 66.644C330.631 66.644 330.451 66.5867 330.303 66.472C330.156 66.3491 330.082 66.1567 330.082 65.8946C330.082 65.6243 330.156 65.4318 330.303 65.3171C330.451 65.2025 330.631 65.1451 330.844 65.1451ZM335.485 74.4086C334.748 74.4086 334.15 74.1219 333.691 73.5486C333.24 72.9752 333.015 72.1234 333.015 70.9931C333.015 69.8547 333.245 68.9947 333.703 68.4131C334.162 67.8316 334.764 67.5408 335.509 67.5408C335.829 67.5408 336.103 67.5859 336.332 67.676C336.562 67.7579 336.762 67.8726 336.934 68.02C337.106 68.1674 337.25 68.3312 337.364 68.5114H337.438C337.422 68.3968 337.401 68.2329 337.377 68.02C337.36 67.7988 337.352 67.6023 337.352 67.4303V64.9486H338.679V74.2857H337.635L337.401 73.4011H337.352C337.237 73.5895 337.094 73.7615 336.922 73.9171C336.75 74.0646 336.545 74.1833 336.308 74.2734C336.078 74.3635 335.804 74.4086 335.485 74.4086ZM335.841 73.3397C336.414 73.3397 336.816 73.1636 337.045 72.8114C337.282 72.451 337.401 71.9146 337.401 71.202V71.0054C337.401 70.2273 337.291 69.6335 337.07 69.224C336.848 68.8145 336.435 68.6097 335.829 68.6097C335.354 68.6097 334.993 68.8268 334.748 69.2608C334.502 69.6868 334.379 70.2724 334.379 71.0177C334.379 71.763 334.502 72.3364 334.748 72.7377C334.993 73.139 335.358 73.3397 335.841 73.3397ZM343.052 67.5408C343.601 67.5408 344.076 67.6637 344.477 67.9094C344.879 68.1469 345.186 68.4909 345.399 68.9414C345.62 69.3919 345.73 69.9243 345.73 70.5386V71.2511H341.566C341.582 71.9309 341.746 72.451 342.057 72.8114C342.368 73.1718 342.806 73.352 343.372 73.352C343.773 73.352 344.129 73.3151 344.44 73.2414C344.76 73.1595 345.083 73.0408 345.411 72.8851V73.9663C345.1 74.1137 344.78 74.2243 344.453 74.298C344.133 74.3717 343.744 74.4086 343.286 74.4086C342.688 74.4086 342.155 74.2816 341.688 74.0277C341.222 73.7738 340.857 73.397 340.595 72.8974C340.333 72.3896 340.202 71.7671 340.202 71.03C340.202 70.2847 340.321 69.654 340.558 69.138C340.796 68.622 341.127 68.2288 341.553 67.9586C341.987 67.6801 342.487 67.5408 343.052 67.5408ZM343.052 68.5483C342.634 68.5483 342.299 68.6998 342.045 69.0028C341.791 69.3059 341.643 69.7359 341.602 70.2928H344.416C344.416 69.9488 344.367 69.6458 344.268 69.3837C344.17 69.1216 344.019 68.9168 343.814 68.7694C343.617 68.622 343.363 68.5483 343.052 68.5483ZM352.782 70.9686C352.782 71.5173 352.712 72.0047 352.573 72.4306C352.434 72.8565 352.233 73.2168 351.971 73.5117C351.717 73.8066 351.406 74.0318 351.037 74.1874C350.669 74.3348 350.255 74.4086 349.797 74.4086C349.379 74.4086 348.99 74.3348 348.629 74.1874C348.269 74.0318 347.958 73.8066 347.696 73.5117C347.434 73.2168 347.229 72.8565 347.081 72.4306C346.942 72.0047 346.873 71.5132 346.873 70.9563C346.873 70.2273 346.991 69.6089 347.229 69.1011C347.466 68.5933 347.806 68.2084 348.249 67.9463C348.699 67.676 349.231 67.5408 349.846 67.5408C350.419 67.5408 350.927 67.676 351.369 67.9463C351.811 68.2084 352.155 68.5933 352.401 69.1011C352.655 69.6089 352.782 70.2314 352.782 70.9686ZM348.249 70.9686C348.249 71.46 348.302 71.8859 348.408 72.2463C348.523 72.5985 348.695 72.8688 348.924 73.0571C349.162 73.2455 349.461 73.3397 349.821 73.3397C350.19 73.3397 350.489 73.2455 350.718 73.0571C350.956 72.8688 351.128 72.5985 351.234 72.2463C351.349 71.8859 351.406 71.46 351.406 70.9686C351.406 70.4608 351.349 70.0348 351.234 69.6908C351.119 69.3468 350.947 69.0848 350.718 68.9046C350.489 68.7162 350.186 68.622 349.809 68.622C349.26 68.622 348.863 68.8268 348.617 69.2363C348.371 69.6458 348.249 70.2232 348.249 70.9686Z" fill="#464648"/>
<path d="M406.236 41.1235L402.886 37.7732C401.689 36.5766 399.655 37.0553 399.177 38.6108C398.818 39.6877 397.621 40.286 396.544 40.0466C394.151 39.4484 390.92 36.3373 390.322 33.8246C389.963 32.7477 390.681 31.5511 391.758 31.1922C393.313 30.7136 393.792 28.6795 392.596 27.4829L389.245 24.1326C388.288 23.295 386.852 23.295 386.015 24.1326L383.741 26.406C381.468 28.7991 383.98 35.1408 389.604 40.7646C395.228 46.3883 401.57 49.0208 403.963 46.6276L406.236 44.3542C407.074 43.397 407.074 41.9611 406.236 41.1235Z" fill="#464648"/>
<path d="M386.482 66.5334C386.089 66.5334 385.732 66.6112 385.413 66.7668C385.102 66.9143 384.836 67.1354 384.614 67.4303C384.401 67.7251 384.238 68.0814 384.123 68.4991C384.008 68.9168 383.951 69.3878 383.951 69.912C383.951 70.6 384.045 71.1979 384.234 71.7057C384.422 72.2053 384.704 72.5903 385.081 72.8606C385.458 73.1308 385.925 73.266 386.482 73.266C386.842 73.266 387.186 73.2332 387.514 73.1677C387.841 73.094 388.173 72.9998 388.509 72.8851V74.0277C388.181 74.1588 387.846 74.2529 387.502 74.3103C387.166 74.3758 386.773 74.4086 386.322 74.4086C385.47 74.4086 384.766 74.2243 384.209 73.8557C383.652 73.4871 383.234 72.9629 382.956 72.2831C382.677 71.6033 382.538 70.8088 382.538 69.8997C382.538 69.2363 382.624 68.6302 382.796 68.0814C382.968 67.5245 383.222 67.0453 383.558 66.644C383.894 66.2427 384.307 65.9355 384.799 65.7226C385.29 65.5014 385.851 65.3908 386.482 65.3908C386.908 65.3908 387.325 65.44 387.735 65.5383C388.144 65.6284 388.509 65.7594 388.828 65.9314L388.349 67.0371C388.079 66.9061 387.784 66.7914 387.465 66.6931C387.153 66.5867 386.826 66.5334 386.482 66.5334ZM392.633 67.5408C393.411 67.5408 393.997 67.7251 394.39 68.0937C394.791 68.4541 394.992 69.0233 394.992 69.8014V74.2857H394.046L393.788 73.3643H393.739C393.55 73.6018 393.362 73.7984 393.174 73.954C392.993 74.1096 392.78 74.2243 392.535 74.298C392.297 74.3717 392.002 74.4086 391.65 74.4086C391.282 74.4086 390.95 74.3389 390.655 74.1997C390.36 74.0523 390.127 73.8311 389.955 73.5363C389.783 73.2332 389.697 72.8565 389.697 72.406C389.697 71.7344 389.934 71.2225 390.409 70.8703C390.893 70.5181 391.626 70.3256 392.608 70.2928L393.665 70.256V69.8874C393.665 69.396 393.563 69.052 393.358 68.8554C393.161 68.6588 392.883 68.5606 392.522 68.5606C392.219 68.5606 391.92 68.6097 391.626 68.708C391.331 68.8063 391.044 68.925 390.766 69.0643L390.36 68.1183C390.663 67.9545 391.007 67.8193 391.392 67.7128C391.785 67.5982 392.199 67.5408 392.633 67.5408ZM392.866 71.1283C392.195 71.161 391.728 71.288 391.466 71.5091C391.204 71.7221 391.073 72.0251 391.073 72.4183C391.073 72.7623 391.163 73.0121 391.343 73.1677C391.531 73.3233 391.773 73.4011 392.068 73.4011C392.518 73.4011 392.895 73.2578 393.198 72.9711C393.509 72.6845 393.665 72.2545 393.665 71.6811V71.1037L392.866 71.1283ZM398.148 74.2857H396.821V64.9486H398.148V74.2857ZM401.34 74.2857H400.013V64.9486H401.34V74.2857ZM407.418 72.4183C407.418 72.8524 407.32 73.2168 407.123 73.5117C406.927 73.8066 406.64 74.0318 406.263 74.1874C405.887 74.3348 405.424 74.4086 404.875 74.4086C404.441 74.4086 404.06 74.3717 403.733 74.298C403.413 74.2325 403.118 74.1342 402.848 74.0031V72.8606C403.135 72.9998 403.462 73.1268 403.831 73.2414C404.199 73.3479 404.552 73.4011 404.887 73.4011C405.322 73.4011 405.637 73.3233 405.833 73.1677C406.03 73.0121 406.128 72.8032 406.128 72.5411C406.128 72.3937 406.087 72.2627 406.005 72.148C405.932 72.0251 405.788 71.9023 405.575 71.7794C405.362 71.6484 405.055 71.5009 404.654 71.3371C404.261 71.1651 403.929 70.9972 403.659 70.8334C403.397 70.6614 403.192 70.4608 403.045 70.2314C402.905 69.9939 402.836 69.6908 402.836 69.3223C402.836 68.7489 403.057 68.3108 403.499 68.0077C403.941 67.6965 404.519 67.5408 405.231 67.5408C405.625 67.5408 405.989 67.5818 406.325 67.6637C406.661 67.7374 406.988 67.8521 407.308 68.0077L406.902 69.0028C406.714 68.9128 406.521 68.839 406.325 68.7817C406.136 68.7162 405.948 68.6629 405.76 68.622C405.571 68.581 405.383 68.5606 405.195 68.5606C404.842 68.5606 404.576 68.622 404.396 68.7448C404.216 68.8677 404.126 69.0397 404.126 69.2608C404.126 69.4247 404.167 69.5639 404.249 69.6786C404.339 69.7932 404.49 69.9079 404.703 70.0226C404.924 70.1372 405.227 70.2724 405.612 70.428C405.997 70.5836 406.325 70.7433 406.595 70.9071C406.865 71.0709 407.07 71.2716 407.209 71.5091C407.349 71.7467 407.418 72.0497 407.418 72.4183Z" fill="#464648"/>
<path d="M468.473 51.4571C476.536 51.4571 483.191 44.8735 483.191 36.8971C483.191 32.3533 480.902 28.0486 477.46 25.4883C476.693 24.8693 475.754 24.9819 475.285 25.643C474.773 26.3324 475 27.1623 475.654 27.7391C478.456 29.8633 480.233 33.1411 480.248 36.8971C480.262 43.3542 475 48.5451 468.473 48.5451C461.946 48.5451 456.727 43.3542 456.727 36.8971C456.727 31.4389 460.453 26.8951 465.544 25.6149V27.6547C465.544 28.7379 466.354 29.0333 467.236 28.4003L472.043 25.0381C472.754 24.5176 472.768 23.7298 472.043 23.2234L467.25 19.8472C466.354 19.2141 465.544 19.4955 465.544 20.5928V22.6466C458.86 24.0112 453.77 29.9196 453.77 36.8971C453.77 44.8735 460.425 51.4571 468.473 51.4571Z" fill="#464648"/>
<path fill-rule="evenodd" clip-rule="evenodd" d="M466.126 40.2649C463.612 40.3918 461.755 42.7717 461.755 45.4858V47.3077C461.755 47.6786 468.315 49.6448 468.685 49.6448L474.945 47.9792C475.315 47.9792 475.614 47.6786 475.614 47.3077V45.4858C475.614 42.7715 473.757 40.3915 471.243 40.2649C470.474 40.6532 469.605 40.8719 468.684 40.8719C467.764 40.8719 466.895 40.6532 466.126 40.2649ZM472.793 36.3311C472.293 38.1301 470.643 39.4505 468.684 39.4505C466.734 39.4505 465.09 38.1416 464.582 36.3544C464.488 35.9979 464.438 35.6235 464.438 35.2377C464.438 32.8635 466.331 30.9224 468.685 30.9224C471.039 30.9224 472.931 32.8635 472.931 35.2377C472.931 35.6151 472.883 35.9816 472.793 36.3311Z" fill="#464648"/>
<path d="M444.023 71.9146C444.023 72.4388 443.904 72.8851 443.666 73.2537C443.429 73.6223 443.089 73.9089 442.647 74.1137C442.204 74.3103 441.664 74.4086 441.025 74.4086C440.714 74.4086 440.415 74.3881 440.128 74.3471C439.85 74.3144 439.592 74.2652 439.354 74.1997C439.125 74.1342 438.908 74.0523 438.703 73.954V72.7008C439.03 72.8483 439.403 72.9834 439.821 73.1063C440.247 73.2209 440.669 73.2783 441.086 73.2783C441.447 73.2783 441.742 73.225 441.971 73.1186C442.208 73.0121 442.384 72.8647 442.499 72.6763C442.622 72.4879 442.683 72.2668 442.683 72.0128C442.683 71.7426 442.622 71.5173 442.499 71.3371C442.384 71.1488 442.192 70.9768 441.922 70.8211C441.66 70.6573 441.307 70.4894 440.865 70.3174C440.554 70.1864 440.271 70.0471 440.017 69.8997C439.764 69.7441 439.542 69.5639 439.354 69.3591C439.174 69.1544 439.035 68.9168 438.936 68.6466C438.846 68.3763 438.801 68.0609 438.801 67.7006C438.801 67.2173 438.916 66.8037 439.145 66.4597C439.374 66.1157 439.694 65.8536 440.103 65.6734C440.513 65.485 440.992 65.3908 441.541 65.3908C442 65.3908 442.421 65.44 442.806 65.5383C443.191 65.6284 443.556 65.7553 443.9 65.9191L443.47 67.0126C443.15 66.8733 442.827 66.7587 442.499 66.6686C442.18 66.5785 441.848 66.5334 441.504 66.5334C441.201 66.5334 440.947 66.5826 440.742 66.6808C440.546 66.7791 440.398 66.9143 440.3 67.0863C440.202 67.2583 440.153 67.4589 440.153 67.6883C440.153 67.9586 440.21 68.1838 440.325 68.364C440.439 68.5442 440.624 68.7121 440.877 68.8677C441.131 69.0151 441.467 69.1789 441.885 69.3591C442.344 69.5557 442.733 69.7646 443.052 69.9857C443.371 70.1987 443.613 70.4608 443.777 70.772C443.941 71.075 444.023 71.4559 444.023 71.9146ZM447.985 67.5408C448.533 67.5408 449.008 67.6637 449.41 67.9094C449.811 68.1469 450.118 68.4909 450.331 68.9414C450.552 69.3919 450.663 69.9243 450.663 70.5386V71.2511H446.498C446.514 71.9309 446.678 72.451 446.989 72.8114C447.301 73.1718 447.739 73.352 448.304 73.352C448.705 73.352 449.062 73.3151 449.373 73.2414C449.692 73.1595 450.016 73.0408 450.343 72.8851V73.9663C450.032 74.1137 449.713 74.2243 449.385 74.298C449.066 74.3717 448.677 74.4086 448.218 74.4086C447.62 74.4086 447.088 74.2816 446.621 74.0277C446.154 73.7738 445.789 73.397 445.527 72.8974C445.265 72.3896 445.134 71.7671 445.134 71.03C445.134 70.2847 445.253 69.654 445.491 69.138C445.728 68.622 446.06 68.2288 446.486 67.9586C446.92 67.6801 447.419 67.5408 447.985 67.5408ZM447.985 68.5483C447.567 68.5483 447.231 68.6998 446.977 69.0028C446.723 69.3059 446.576 69.7359 446.535 70.2928H449.348C449.348 69.9488 449.299 69.6458 449.201 69.3837C449.103 69.1216 448.951 68.9168 448.746 68.7694C448.55 68.622 448.296 68.5483 447.985 68.5483ZM453.476 74.2857H452.149V64.9486H453.476V74.2857ZM458.473 68.6588H456.962V74.2857H455.623V68.6588H454.603V68.0446L455.623 67.6391V67.2214C455.623 66.6563 455.701 66.2058 455.856 65.87C456.02 65.526 456.258 65.2762 456.569 65.1206C456.88 64.9649 457.261 64.8871 457.712 64.8871C457.982 64.8871 458.232 64.9117 458.461 64.9608C458.69 65.01 458.891 65.0632 459.063 65.1206L458.731 66.1157C458.608 66.0748 458.465 66.0379 458.301 66.0051C458.146 65.9642 457.986 65.9437 457.822 65.9437C457.527 65.9437 457.31 66.0502 457.171 66.2631C457.032 66.4761 456.962 66.7996 456.962 67.2337V67.6637H458.473V68.6588ZM460.869 67.6637V74.2857H459.53V67.6637H460.869ZM460.218 65.1451C460.414 65.1451 460.586 65.2025 460.734 65.3171C460.881 65.4318 460.955 65.6243 460.955 65.8946C460.955 66.1567 460.881 66.3491 460.734 66.472C460.586 66.5867 460.414 66.644 460.218 66.644C460.005 66.644 459.825 66.5867 459.677 66.472C459.53 66.3491 459.456 66.1567 459.456 65.8946C459.456 65.6243 459.53 65.4318 459.677 65.3171C459.825 65.2025 460.005 65.1451 460.218 65.1451ZM465.237 67.5408C465.786 67.5408 466.261 67.6637 466.662 67.9094C467.064 68.1469 467.371 68.4909 467.584 68.9414C467.805 69.3919 467.916 69.9243 467.916 70.5386V71.2511H463.751C463.767 71.9309 463.931 72.451 464.242 72.8114C464.553 73.1718 464.992 73.352 465.557 73.352C465.958 73.352 466.314 73.3151 466.626 73.2414C466.945 73.1595 467.269 73.0408 467.596 72.8851V73.9663C467.285 74.1137 466.965 74.2243 466.638 74.298C466.318 74.3717 465.929 74.4086 465.471 74.4086C464.873 74.4086 464.34 74.2816 463.874 74.0277C463.407 73.7738 463.042 73.397 462.78 72.8974C462.518 72.3896 462.387 71.7671 462.387 71.03C462.387 70.2847 462.506 69.654 462.743 69.138C462.981 68.622 463.313 68.2288 463.738 67.9586C464.173 67.6801 464.672 67.5408 465.237 67.5408ZM465.237 68.5483C464.82 68.5483 464.484 68.6998 464.23 69.0028C463.976 69.3059 463.829 69.7359 463.788 70.2928H466.601C466.601 69.9488 466.552 69.6458 466.454 69.3837C466.355 69.1216 466.204 68.9168 465.999 68.7694C465.802 68.622 465.549 68.5483 465.237 68.5483ZM472.536 74.2857V65.5137H473.9V73.1431H477.389V74.2857H472.536ZM484.217 70.9686C484.217 71.5173 484.148 72.0047 484.009 72.4306C483.869 72.8565 483.669 73.2168 483.407 73.5117C483.153 73.8066 482.841 74.0318 482.473 74.1874C482.104 74.3348 481.691 74.4086 481.232 74.4086C480.814 74.4086 480.425 74.3348 480.065 74.1874C479.705 74.0318 479.393 73.8066 479.131 73.5117C478.869 73.2168 478.664 72.8565 478.517 72.4306C478.378 72.0047 478.308 71.5132 478.308 70.9563C478.308 70.2273 478.427 69.6089 478.664 69.1011C478.902 68.5933 479.242 68.2084 479.684 67.9463C480.135 67.676 480.667 67.5408 481.281 67.5408C481.855 67.5408 482.362 67.676 482.805 67.9463C483.247 68.2084 483.591 68.5933 483.837 69.1011C484.091 69.6089 484.217 70.2314 484.217 70.9686ZM479.684 70.9686C479.684 71.46 479.737 71.8859 479.844 72.2463C479.958 72.5985 480.13 72.8688 480.36 73.0571C480.597 73.2455 480.896 73.3397 481.257 73.3397C481.625 73.3397 481.924 73.2455 482.153 73.0571C482.391 72.8688 482.563 72.5985 482.669 72.2463C482.784 71.8859 482.841 71.46 482.841 70.9686C482.841 70.4608 482.784 70.0348 482.669 69.6908C482.555 69.3468 482.383 69.0848 482.153 68.9046C481.924 68.7162 481.621 68.622 481.244 68.622C480.696 68.622 480.298 68.8268 480.053 69.2363C479.807 69.6458 479.684 70.2232 479.684 70.9686ZM491.296 70.9686C491.296 71.5173 491.227 72.0047 491.087 72.4306C490.948 72.8565 490.747 73.2168 490.485 73.5117C490.231 73.8066 489.92 74.0318 489.552 74.1874C489.183 74.3348 488.769 74.4086 488.311 74.4086C487.893 74.4086 487.504 74.3348 487.144 74.1874C486.783 74.0318 486.472 73.8066 486.21 73.5117C485.948 73.2168 485.743 72.8565 485.596 72.4306C485.456 72.0047 485.387 71.5132 485.387 70.9563C485.387 70.2273 485.505 69.6089 485.743 69.1011C485.981 68.5933 486.32 68.2084 486.763 67.9463C487.213 67.676 487.746 67.5408 488.36 67.5408C488.933 67.5408 489.441 67.676 489.883 67.9463C490.326 68.2084 490.67 68.5933 490.915 69.1011C491.169 69.6089 491.296 70.2314 491.296 70.9686ZM486.763 70.9686C486.763 71.46 486.816 71.8859 486.922 72.2463C487.037 72.5985 487.209 72.8688 487.438 73.0571C487.676 73.2455 487.975 73.3397 488.335 73.3397C488.704 73.3397 489.003 73.2455 489.232 73.0571C489.47 72.8688 489.642 72.5985 489.748 72.2463C489.863 71.8859 489.92 71.46 489.92 70.9686C489.92 70.4608 489.863 70.0348 489.748 69.6908C489.633 69.3468 489.461 69.0848 489.232 68.9046C489.003 68.7162 488.7 68.622 488.323 68.622C487.774 68.622 487.377 68.8268 487.131 69.2363C486.886 69.6458 486.763 70.2232 486.763 70.9686ZM496.004 67.5408C496.749 67.5408 497.347 67.8275 497.797 68.4008C498.248 68.9742 498.473 69.8301 498.473 70.9686C498.473 71.7139 498.367 72.3446 498.154 72.8606C497.949 73.3766 497.658 73.7656 497.281 74.0277C496.905 74.2816 496.466 74.4086 495.967 74.4086C495.664 74.4086 495.394 74.3676 495.156 74.2857C494.918 74.1956 494.718 74.0809 494.554 73.9417C494.398 73.7943 494.259 73.6387 494.136 73.4748H494.063C494.079 73.6223 494.095 73.7984 494.112 74.0031C494.128 74.1997 494.136 74.3758 494.136 74.5314V77.2343H492.809V67.6637H493.891L494.075 68.5483H494.136C494.259 68.3681 494.402 68.2002 494.566 68.0446C494.738 67.8889 494.939 67.7661 495.168 67.676C495.406 67.5859 495.684 67.5408 496.004 67.5408ZM495.647 68.6097C495.287 68.6097 494.996 68.6916 494.775 68.8554C494.554 69.011 494.39 69.2486 494.284 69.568C494.185 69.8792 494.136 70.2765 494.136 70.7597V70.9563C494.136 71.4641 494.181 71.8982 494.271 72.2586C494.37 72.6108 494.529 72.881 494.751 73.0694C494.98 73.2496 495.287 73.3397 495.672 73.3397C496 73.3397 496.27 73.2414 496.483 73.0448C496.696 72.8401 496.851 72.5575 496.95 72.1971C497.056 71.8368 497.109 71.419 497.109 70.944C497.109 70.2232 496.987 69.654 496.741 69.2363C496.503 68.8186 496.139 68.6097 495.647 68.6097Z" fill="#464648"/>
<path d="M549.179 23.5071H529.204C527.005 23.5071 525.217 25.2588 525.217 27.4119V40.6138C525.217 42.7669 527.005 44.5186 529.204 44.5186H530.769L530.8 47.9657C530.802 48.2834 530.989 48.5722 531.28 48.711C531.399 48.7675 531.527 48.7952 531.654 48.7952C531.839 48.7952 532.024 48.7361 532.176 48.6209L537.604 44.5187H549.179C551.378 44.5187 553.167 42.767 553.167 40.614V27.4119C553.167 25.2588 551.378 23.5071 549.179 23.5071Z" fill="#464648"/>
<path d="M530.935 66.5334C530.541 66.5334 530.185 66.6112 529.866 66.7668C529.554 66.9143 529.288 67.1354 529.067 67.4303C528.854 67.7251 528.69 68.0814 528.576 68.4991C528.461 68.9168 528.404 69.3878 528.404 69.912C528.404 70.6 528.498 71.1979 528.686 71.7057C528.875 72.2053 529.157 72.5903 529.534 72.8606C529.911 73.1308 530.378 73.266 530.935 73.266C531.295 73.266 531.639 73.2332 531.967 73.1677C532.294 73.094 532.626 72.9998 532.962 72.8851V74.0277C532.634 74.1588 532.298 74.2529 531.954 74.3103C531.618 74.3758 531.225 74.4086 530.775 74.4086C529.923 74.4086 529.219 74.2243 528.662 73.8557C528.105 73.4871 527.687 72.9629 527.409 72.2831C527.13 71.6033 526.991 70.8088 526.991 69.8997C526.991 69.2363 527.077 68.6302 527.249 68.0814C527.421 67.5245 527.675 67.0453 528.011 66.644C528.346 66.2427 528.76 65.9355 529.251 65.7226C529.743 65.5014 530.304 65.3908 530.935 65.3908C531.36 65.3908 531.778 65.44 532.188 65.5383C532.597 65.6284 532.962 65.7594 533.281 65.9314L532.802 67.0371C532.532 66.9061 532.237 66.7914 531.917 66.6931C531.606 66.5867 531.279 66.5334 530.935 66.5334ZM535.906 67.4426C535.906 67.6473 535.898 67.8521 535.882 68.0568C535.874 68.2616 535.861 68.4295 535.845 68.5606H535.919C536.05 68.3312 536.209 68.1428 536.398 67.9954C536.594 67.848 536.811 67.7374 537.049 67.6637C537.295 67.59 537.544 67.5531 537.798 67.5531C538.282 67.5531 538.691 67.6391 539.027 67.8111C539.371 67.9749 539.629 68.237 539.801 68.5974C539.981 68.9496 540.071 69.4083 540.071 69.9734V74.2857H538.732V70.1577C538.732 69.6417 538.634 69.2568 538.437 69.0028C538.241 68.7408 537.934 68.6097 537.516 68.6097C537.114 68.6097 536.795 68.6998 536.558 68.88C536.32 69.0602 536.152 69.3264 536.054 69.6786C535.956 70.0226 535.906 70.4485 535.906 70.9563V74.2857H534.58V64.9486H535.906V67.4426ZM544.404 67.5408C545.183 67.5408 545.768 67.7251 546.161 68.0937C546.563 68.4541 546.763 69.0233 546.763 69.8014V74.2857H545.817L545.559 73.3643H545.51C545.322 73.6018 545.133 73.7984 544.945 73.954C544.765 74.1096 544.552 74.2243 544.306 74.298C544.069 74.3717 543.774 74.4086 543.422 74.4086C543.053 74.4086 542.721 74.3389 542.426 74.1997C542.132 74.0523 541.898 73.8311 541.726 73.5363C541.554 73.2332 541.468 72.8565 541.468 72.406C541.468 71.7344 541.706 71.2225 542.181 70.8703C542.664 70.5181 543.397 70.3256 544.38 70.2928L545.436 70.256V69.8874C545.436 69.396 545.334 69.052 545.129 68.8554C544.933 68.6588 544.654 68.5606 544.294 68.5606C543.991 68.5606 543.692 68.6097 543.397 68.708C543.102 68.8063 542.815 68.925 542.537 69.0643L542.132 68.1183C542.435 67.9545 542.779 67.8193 543.164 67.7128C543.557 67.5982 543.97 67.5408 544.404 67.5408ZM544.638 71.1283C543.966 71.161 543.499 71.288 543.237 71.5091C542.975 71.7221 542.844 72.0251 542.844 72.4183C542.844 72.7623 542.934 73.0121 543.114 73.1677C543.303 73.3233 543.544 73.4011 543.839 73.4011C544.29 73.4011 544.667 73.2578 544.97 72.9711C545.281 72.6845 545.436 72.2545 545.436 71.6811V71.1037L544.638 71.1283ZM550.939 73.352C551.111 73.352 551.279 73.3356 551.443 73.3028C551.607 73.2701 551.75 73.2332 551.873 73.1923V74.1751C551.734 74.2407 551.55 74.2939 551.32 74.3348C551.099 74.384 550.866 74.4086 550.62 74.4086C550.276 74.4086 549.961 74.3471 549.674 74.2243C549.387 74.1014 549.158 73.8885 548.986 73.5854C548.814 73.2824 548.728 72.8606 548.728 72.32V68.6588H547.88V68.0691L548.789 67.5777L549.244 66.1771H550.067V67.6637H551.824V68.6588H550.067V72.2954C550.067 72.6558 550.149 72.922 550.313 73.094C550.477 73.266 550.686 73.352 550.939 73.352Z" fill="#464648"/>
<g clip-path="url(#clip2_1615_6192)">
<path d="M617.506 31.6592H597.352C597.038 31.6592 596.781 31.926 596.781 32.2519V45.0935C596.781 46.4024 597.803 47.4643 599.063 47.4643H615.795C617.055 47.4643 618.077 46.4024 618.077 45.0935V32.2519C618.077 31.926 617.82 31.6592 617.506 31.6592ZM596.781 29.486V27.708C596.781 26.3991 597.803 25.3372 599.063 25.3372H601.345V22.7689C601.345 22.4429 601.601 22.1762 601.915 22.1762H603.816C604.13 22.1762 604.387 22.4429 604.387 22.7689V25.3372H610.471V22.7689C610.471 22.4429 610.728 22.1762 611.042 22.1762H612.943C613.257 22.1762 613.513 22.4429 613.513 22.7689V25.3372H615.795C617.055 25.3372 618.077 26.3991 618.077 27.708V29.486C618.077 29.812 617.82 30.0787 617.506 30.0787H597.352C597.038 30.0787 596.781 29.812 596.781 29.486Z" fill="#464648"/>
</g>
<path d="M586.407 66.5334C586.013 66.5334 585.657 66.6112 585.338 66.7668C585.027 66.9143 584.76 67.1354 584.539 67.4303C584.326 67.7251 584.162 68.0814 584.048 68.4991C583.933 68.9168 583.876 69.3878 583.876 69.912C583.876 70.6 583.97 71.1979 584.158 71.7057C584.347 72.2053 584.629 72.5903 585.006 72.8606C585.383 73.1308 585.85 73.266 586.407 73.266C586.767 73.266 587.111 73.2332 587.439 73.1677C587.766 73.094 588.098 72.9998 588.434 72.8851V74.0277C588.106 74.1588 587.77 74.2529 587.426 74.3103C587.091 74.3758 586.697 74.4086 586.247 74.4086C585.395 74.4086 584.691 74.2243 584.134 73.8557C583.577 73.4871 583.159 72.9629 582.881 72.2831C582.602 71.6033 582.463 70.8088 582.463 69.8997C582.463 69.2363 582.549 68.6302 582.721 68.0814C582.893 67.5245 583.147 67.0453 583.483 66.644C583.818 66.2427 584.232 65.9355 584.723 65.7226C585.215 65.5014 585.776 65.3908 586.407 65.3908C586.833 65.3908 587.25 65.44 587.66 65.5383C588.069 65.6284 588.434 65.7594 588.753 65.9314L588.274 67.0371C588.004 66.9061 587.709 66.7914 587.389 66.6931C587.078 66.5867 586.751 66.5334 586.407 66.5334ZM592.558 67.5408C593.336 67.5408 593.922 67.7251 594.315 68.0937C594.716 68.4541 594.917 69.0233 594.917 69.8014V74.2857H593.971L593.713 73.3643H593.664C593.475 73.6018 593.287 73.7984 593.098 73.954C592.918 74.1096 592.705 74.2243 592.46 74.298C592.222 74.3717 591.927 74.4086 591.575 74.4086C591.206 74.4086 590.875 74.3389 590.58 74.1997C590.285 74.0523 590.052 73.8311 589.88 73.5363C589.708 73.2332 589.622 72.8565 589.622 72.406C589.622 71.7344 589.859 71.2225 590.334 70.8703C590.817 70.5181 591.55 70.3256 592.533 70.2928L593.59 70.256V69.8874C593.59 69.396 593.487 69.052 593.283 68.8554C593.086 68.6588 592.808 68.5606 592.447 68.5606C592.144 68.5606 591.845 68.6097 591.55 68.708C591.256 68.8063 590.969 68.925 590.69 69.0643L590.285 68.1183C590.588 67.9545 590.932 67.8193 591.317 67.7128C591.71 67.5982 592.124 67.5408 592.558 67.5408ZM592.791 71.1283C592.12 71.161 591.653 71.288 591.391 71.5091C591.129 71.7221 590.998 72.0251 590.998 72.4183C590.998 72.7623 591.088 73.0121 591.268 73.1677C591.456 73.3233 591.698 73.4011 591.993 73.4011C592.443 73.4011 592.82 73.2578 593.123 72.9711C593.434 72.6845 593.59 72.2545 593.59 71.6811V71.1037L592.791 71.1283ZM598.073 74.2857H596.746V64.9486H598.073V74.2857ZM602.444 67.5408C602.993 67.5408 603.468 67.6637 603.869 67.9094C604.27 68.1469 604.578 68.4909 604.791 68.9414C605.012 69.3919 605.122 69.9243 605.122 70.5386V71.2511H600.957C600.974 71.9309 601.138 72.451 601.449 72.8114C601.76 73.1718 602.198 73.352 602.763 73.352C603.165 73.352 603.521 73.3151 603.832 73.2414C604.152 73.1595 604.475 73.0408 604.803 72.8851V73.9663C604.492 74.1137 604.172 74.2243 603.845 74.298C603.525 74.3717 603.136 74.4086 602.677 74.4086C602.079 74.4086 601.547 74.2816 601.08 74.0277C600.613 73.7738 600.249 73.397 599.987 72.8974C599.725 72.3896 599.594 71.7671 599.594 71.03C599.594 70.2847 599.712 69.654 599.95 69.138C600.187 68.622 600.519 68.2288 600.945 67.9586C601.379 67.6801 601.879 67.5408 602.444 67.5408ZM602.444 68.5483C602.026 68.5483 601.69 68.6998 601.437 69.0028C601.183 69.3059 601.035 69.7359 600.994 70.2928H603.808C603.808 69.9488 603.759 69.6458 603.66 69.3837C603.562 69.1216 603.41 68.9168 603.206 68.7694C603.009 68.622 602.755 68.5483 602.444 68.5483ZM609.852 67.5408C610.573 67.5408 611.125 67.7333 611.51 68.1183C611.904 68.5032 612.1 69.1216 612.1 69.9734V74.2857H610.773V70.1577C610.773 69.6417 610.671 69.2568 610.466 69.0028C610.27 68.7408 609.962 68.6097 609.545 68.6097C608.93 68.6097 608.509 68.8104 608.279 69.2117C608.05 69.613 607.935 70.1905 607.935 70.944V74.2857H606.608V67.6637H607.653L607.837 68.5483H607.911C608.05 68.3189 608.218 68.1306 608.414 67.9831C608.611 67.8357 608.832 67.7251 609.078 67.6514C609.324 67.5777 609.582 67.5408 609.852 67.5408ZM616.053 74.4086C615.315 74.4086 614.717 74.1219 614.259 73.5486C613.808 72.9752 613.583 72.1234 613.583 70.9931C613.583 69.8547 613.812 68.9947 614.271 68.4131C614.73 67.8316 615.332 67.5408 616.077 67.5408C616.397 67.5408 616.671 67.5859 616.9 67.676C617.13 67.7579 617.33 67.8726 617.502 68.02C617.674 68.1674 617.818 68.3312 617.932 68.5114H618.006C617.99 68.3968 617.969 68.2329 617.945 68.02C617.928 67.7988 617.92 67.6023 617.92 67.4303V64.9486H619.247V74.2857H618.203L617.969 73.4011H617.92C617.805 73.5895 617.662 73.7615 617.49 73.9171C617.318 74.0646 617.113 74.1833 616.876 74.2734C616.646 74.3635 616.372 74.4086 616.053 74.4086ZM616.409 73.3397C616.982 73.3397 617.383 73.1636 617.613 72.8114C617.85 72.451 617.969 71.9146 617.969 71.202V71.0054C617.969 70.2273 617.859 69.6335 617.637 69.224C617.416 68.8145 617.003 68.6097 616.397 68.6097C615.921 68.6097 615.561 68.8268 615.315 69.2608C615.07 69.6868 614.947 70.2724 614.947 71.0177C614.947 71.763 615.07 72.3364 615.315 72.7377C615.561 73.139 615.926 73.3397 616.409 73.3397ZM623.62 67.5408C624.398 67.5408 624.984 67.7251 625.377 68.0937C625.778 68.4541 625.979 69.0233 625.979 69.8014V74.2857H625.033L624.775 73.3643H624.726C624.537 73.6018 624.349 73.7984 624.161 73.954C623.98 74.1096 623.767 74.2243 623.522 74.298C623.284 74.3717 622.989 74.4086 622.637 74.4086C622.269 74.4086 621.937 74.3389 621.642 74.1997C621.347 74.0523 621.114 73.8311 620.942 73.5363C620.77 73.2332 620.684 72.8565 620.684 72.406C620.684 71.7344 620.921 71.2225 621.396 70.8703C621.88 70.5181 622.613 70.3256 623.595 70.2928L624.652 70.256V69.8874C624.652 69.396 624.55 69.052 624.345 68.8554C624.148 68.6588 623.87 68.5606 623.509 68.5606C623.206 68.5606 622.907 68.6097 622.613 68.708C622.318 68.8063 622.031 68.925 621.753 69.0643L621.347 68.1183C621.65 67.9545 621.994 67.8193 622.379 67.7128C622.772 67.5982 623.186 67.5408 623.62 67.5408ZM623.853 71.1283C623.182 71.161 622.715 71.288 622.453 71.5091C622.191 71.7221 622.06 72.0251 622.06 72.4183C622.06 72.7623 622.15 73.0121 622.33 73.1677C622.518 73.3233 622.76 73.4011 623.055 73.4011C623.505 73.4011 623.882 73.2578 624.185 72.9711C624.496 72.6845 624.652 72.2545 624.652 71.6811V71.1037L623.853 71.1283ZM630.966 67.5408C631.072 67.5408 631.191 67.549 631.322 67.5654C631.453 67.5736 631.564 67.5859 631.654 67.6023L631.519 68.8186C631.429 68.794 631.326 68.7735 631.212 68.7571C631.097 68.7408 630.982 68.7326 630.868 68.7326C630.647 68.7326 630.434 68.7817 630.229 68.88C630.024 68.9701 629.84 69.1052 629.676 69.2854C629.512 69.4574 629.381 69.6704 629.283 69.9243C629.185 70.1782 629.135 70.4689 629.135 70.7966V74.2857H627.809V67.6637H628.853L629.025 68.8431H629.099C629.221 68.6056 629.373 68.3886 629.553 68.192C629.741 67.9954 629.954 67.8398 630.192 67.7251C630.429 67.6023 630.687 67.5408 630.966 67.5408Z" fill="#464648"/>
<path d="M674.576 29.9524L664.353 38.3744V47.4642C664.353 47.6995 664.446 47.9253 664.612 48.0917C664.779 48.2581 665.004 48.3516 665.24 48.3516L671.454 48.3355C671.688 48.3343 671.913 48.2403 672.078 48.074C672.244 47.9077 672.337 47.6827 672.337 47.4481V42.1398C672.337 41.9044 672.43 41.6787 672.596 41.5123C672.763 41.3459 672.988 41.2524 673.224 41.2524H676.773C677.008 41.2524 677.234 41.3459 677.4 41.5123C677.566 41.6787 677.66 41.9044 677.66 42.1398V47.4442C677.66 47.561 677.682 47.6767 677.727 47.7847C677.771 47.8927 677.836 47.9908 677.919 48.0735C678.001 48.1562 678.099 48.2218 678.207 48.2666C678.315 48.3113 678.43 48.3344 678.547 48.3344L684.759 48.3516C684.994 48.3516 685.22 48.2581 685.386 48.0917C685.553 47.9253 685.646 47.6995 685.646 47.4642V38.3683L675.425 29.9524C675.304 29.8556 675.155 29.8027 675 29.8027C674.846 29.8027 674.696 29.8556 674.576 29.9524ZM690.726 35.6767L686.09 31.8548V24.1727C686.09 23.9962 686.02 23.8269 685.895 23.7021C685.77 23.5773 685.601 23.5071 685.424 23.5071H682.319C682.143 23.5071 681.973 23.5773 681.848 23.7021C681.724 23.8269 681.654 23.9962 681.654 24.1727V28.1998L676.689 24.1145C676.213 23.7223 675.615 23.5079 674.998 23.5079C674.381 23.5079 673.783 23.7223 673.306 24.1145L659.27 35.6767C659.202 35.7324 659.147 35.8009 659.106 35.8781C659.065 35.9554 659.04 36.04 659.031 36.127C659.023 36.2141 659.032 36.3019 659.058 36.3854C659.083 36.469 659.125 36.5467 659.181 36.614L660.595 38.3334C660.651 38.401 660.719 38.457 660.796 38.4981C660.874 38.5392 660.958 38.5647 661.045 38.5731C661.132 38.5815 661.22 38.5726 661.304 38.547C661.388 38.5214 661.465 38.4795 661.533 38.4238L674.576 27.6785C674.696 27.5816 674.846 27.5288 675 27.5288C675.155 27.5288 675.304 27.5816 675.425 27.6785L688.469 38.4238C688.536 38.4795 688.614 38.5215 688.697 38.5472C688.781 38.5729 688.869 38.5819 688.956 38.5736C689.043 38.5654 689.127 38.5401 689.204 38.4991C689.282 38.4582 689.35 38.4024 689.406 38.3351L690.82 36.6157C690.875 36.548 690.917 36.4699 690.943 36.3859C690.968 36.302 690.977 36.2139 690.968 36.1266C690.959 36.0394 690.933 35.9547 690.892 35.8775C690.85 35.8003 690.794 35.7321 690.726 35.6767Z" fill="#464648"/>
<path d="M665.253 74.2857H663.889V70.2806H660.105V74.2857H658.742V65.5137H660.105V69.1503H663.889V65.5137H665.253V74.2857ZM672.834 70.9686C672.834 71.5173 672.765 72.0047 672.626 72.4306C672.486 72.8565 672.286 73.2168 672.024 73.5117C671.77 73.8066 671.458 74.0318 671.09 74.1874C670.721 74.3348 670.308 74.4086 669.849 74.4086C669.431 74.4086 669.042 74.3348 668.682 74.1874C668.321 74.0318 668.01 73.8066 667.748 73.5117C667.486 73.2168 667.281 72.8565 667.134 72.4306C666.995 72.0047 666.925 71.5132 666.925 70.9563C666.925 70.2273 667.044 69.6089 667.281 69.1011C667.519 68.5933 667.859 68.2084 668.301 67.9463C668.751 67.676 669.284 67.5408 669.898 67.5408C670.471 67.5408 670.979 67.676 671.422 67.9463C671.864 68.2084 672.208 68.5933 672.454 69.1011C672.707 69.6089 672.834 70.2314 672.834 70.9686ZM668.301 70.9686C668.301 71.46 668.354 71.8859 668.461 72.2463C668.575 72.5985 668.747 72.8688 668.977 73.0571C669.214 73.2455 669.513 73.3397 669.874 73.3397C670.242 73.3397 670.541 73.2455 670.77 73.0571C671.008 72.8688 671.18 72.5985 671.286 72.2463C671.401 71.8859 671.458 71.46 671.458 70.9686C671.458 70.4608 671.401 70.0348 671.286 69.6908C671.172 69.3468 671 69.0848 670.77 68.9046C670.541 68.7162 670.238 68.622 669.861 68.622C669.313 68.622 668.915 68.8268 668.67 69.2363C668.424 69.6458 668.301 70.2232 668.301 70.9686ZM681.412 67.5408C682.116 67.5408 682.645 67.7333 682.997 68.1183C683.357 68.5032 683.537 69.1216 683.537 69.9734V74.2857H682.211V70.1454C682.211 69.6376 682.116 69.2568 681.928 69.0028C681.748 68.7408 681.465 68.6097 681.08 68.6097C680.548 68.6097 680.167 68.794 679.938 69.1626C679.717 69.5229 679.606 70.0471 679.606 70.7351V74.2857H678.267V70.1454C678.267 69.8096 678.226 69.527 678.144 69.2977C678.062 69.0684 677.939 68.8964 677.775 68.7817C677.612 68.667 677.399 68.6097 677.137 68.6097C676.768 68.6097 676.477 68.6998 676.264 68.88C676.051 69.0602 675.9 69.3264 675.81 69.6786C675.72 70.0226 675.675 70.4444 675.675 70.944V74.2857H674.348V67.6637H675.392L675.589 68.5483H675.65C675.781 68.3189 675.937 68.1306 676.117 67.9831C676.305 67.8357 676.518 67.7251 676.756 67.6514C676.993 67.5777 677.239 67.5408 677.493 67.5408C677.96 67.5408 678.353 67.6309 678.672 67.8111C678.992 67.9831 679.229 68.2493 679.385 68.6097H679.471C679.667 68.2411 679.942 67.9708 680.294 67.7988C680.646 67.6268 681.019 67.5408 681.412 67.5408ZM687.868 67.5408C688.417 67.5408 688.892 67.6637 689.293 67.9094C689.694 68.1469 690.002 68.4909 690.215 68.9414C690.436 69.3919 690.546 69.9243 690.546 70.5386V71.2511H686.381C686.398 71.9309 686.562 72.451 686.873 72.8114C687.184 73.1718 687.622 73.352 688.187 73.352C688.589 73.352 688.945 73.3151 689.256 73.2414C689.576 73.1595 689.899 73.0408 690.227 72.8851V73.9663C689.916 74.1137 689.596 74.2243 689.269 74.298C688.949 74.3717 688.56 74.4086 688.101 74.4086C687.503 74.4086 686.971 74.2816 686.504 74.0277C686.037 73.7738 685.673 73.397 685.411 72.8974C685.149 72.3896 685.018 71.7671 685.018 71.03C685.018 70.2847 685.136 69.654 685.374 69.138C685.611 68.622 685.943 68.2288 686.369 67.9586C686.803 67.6801 687.303 67.5408 687.868 67.5408ZM687.868 68.5483C687.45 68.5483 687.114 68.6998 686.861 69.0028C686.607 69.3059 686.459 69.7359 686.418 70.2928H689.232C689.232 69.9488 689.183 69.6458 689.084 69.3837C688.986 69.1216 688.834 68.9168 688.63 68.7694C688.433 68.622 688.179 68.5483 687.868 68.5483Z" fill="#464648"/>
<rect x="713.086" y="17.0571" width="86" height="29.4857" rx="4.91429" fill="#EA4343"/>
<path d="M728.089 35.7429H723.876V27.8481H728.089V28.8653H725.103V31.121H727.912V32.1272H725.103V34.7145H728.089V35.7429ZM730.814 32.7021L728.923 29.7831H730.283L731.577 31.9281L732.848 29.7831H734.22L732.318 32.7021L734.308 35.7429H732.948L731.577 33.4651L730.184 35.7429H728.835L730.814 32.7021ZM736.503 29.7831V35.7429H735.297V29.7831H736.503ZM735.917 27.5163C736.094 27.5163 736.248 27.5679 736.381 27.6711C736.514 27.7743 736.58 27.9476 736.58 28.1908C736.58 28.4267 736.514 28.5999 736.381 28.7105C736.248 28.8137 736.094 28.8653 735.917 28.8653C735.725 28.8653 735.563 28.8137 735.43 28.7105C735.297 28.5999 735.231 28.4267 735.231 28.1908C735.231 27.9476 735.297 27.7743 735.43 27.6711C735.563 27.5679 735.725 27.5163 735.917 27.5163ZM740.292 34.9025C740.447 34.9025 740.598 34.8878 740.746 34.8583C740.893 34.8288 741.022 34.7956 741.133 34.7588V35.6433C741.007 35.7023 740.842 35.7502 740.635 35.7871C740.436 35.8313 740.226 35.8534 740.005 35.8534C739.695 35.8534 739.412 35.7981 739.154 35.6876C738.896 35.577 738.689 35.3853 738.534 35.1126C738.38 34.8399 738.302 34.4602 738.302 33.9737V30.6787H737.539V30.1479L738.357 29.7057L738.767 28.4451H739.507V29.7831H741.089V30.6787H739.507V33.9516C739.507 34.2759 739.581 34.5155 739.729 34.6703C739.876 34.8251 740.064 34.9025 740.292 34.9025Z" fill="white"/>
<path d="M790.019 30.166L784.318 35.8665L778.605 30.166" stroke="white" stroke-width="1.22857" stroke-linecap="round" stroke-linejoin="round"/>
<rect x="713.086" y="51.4572" width="86" height="29.4857" rx="4.91429" fill="white"/>
<path d="M729.736 70.1429H728.509V66.5383H725.103V70.1429H723.876V62.2481H725.103V65.521H728.509V62.2481H729.736V70.1429ZM732.756 64.1831V70.1429H731.551V64.1831H732.756ZM732.17 61.9164C732.347 61.9164 732.501 61.968 732.634 62.0712C732.767 62.1744 732.833 62.3476 732.833 62.5909C732.833 62.8267 732.767 63 732.634 63.1105C732.501 63.2137 732.347 63.2653 732.17 63.2653C731.978 63.2653 731.816 63.2137 731.683 63.1105C731.551 63 731.484 62.8267 731.484 62.5909C731.484 62.3476 731.551 62.1744 731.683 62.0712C731.816 61.968 731.978 61.9164 732.17 61.9164ZM736.347 70.2535C735.683 70.2535 735.145 69.9955 734.732 69.4795C734.327 68.9635 734.124 68.1968 734.124 67.1796C734.124 66.1549 734.33 65.3809 734.743 64.8576C735.156 64.3342 735.698 64.0725 736.369 64.0725C736.656 64.0725 736.903 64.1131 737.109 64.1941C737.316 64.2679 737.496 64.3711 737.651 64.5037C737.806 64.6364 737.935 64.7839 738.038 64.946H738.105C738.09 64.8428 738.071 64.6954 738.049 64.5037C738.035 64.3047 738.027 64.1278 738.027 63.973V61.7395H739.221V70.1429H738.282L738.071 69.3468H738.027C737.924 69.5163 737.795 69.6711 737.64 69.8112C737.485 69.9439 737.301 70.0507 737.087 70.1318C736.881 70.2129 736.634 70.2535 736.347 70.2535ZM736.667 69.2915C737.183 69.2915 737.544 69.133 737.751 68.816C737.965 68.4917 738.071 68.0089 738.071 67.3675V67.1906C738.071 66.4903 737.972 65.9559 737.773 65.5873C737.574 65.2188 737.202 65.0345 736.656 65.0345C736.229 65.0345 735.904 65.2298 735.683 65.6205C735.462 66.0038 735.351 66.5309 735.351 67.2017C735.351 67.8725 735.462 68.3885 735.683 68.7497C735.904 69.1109 736.232 69.2915 736.667 69.2915ZM743.157 64.0725C743.651 64.0725 744.079 64.1831 744.44 64.4042C744.801 64.618 745.078 64.9276 745.269 65.333C745.468 65.7385 745.568 66.2176 745.568 66.7705V67.4118H741.819C741.834 68.0236 741.982 68.4917 742.262 68.816C742.542 69.1404 742.936 69.3025 743.445 69.3025C743.806 69.3025 744.127 69.2694 744.407 69.203C744.694 69.1293 744.985 69.0224 745.28 68.8824V69.8554C745 69.9881 744.713 70.0876 744.418 70.1539C744.13 70.2203 743.78 70.2535 743.367 70.2535C742.829 70.2535 742.35 70.1392 741.93 69.9107C741.51 69.6822 741.182 69.3431 740.946 68.8934C740.71 68.4364 740.592 67.8762 740.592 67.2127C740.592 66.5419 740.699 65.9743 740.913 65.5099C741.126 65.0455 741.425 64.6917 741.808 64.4485C742.199 64.1978 742.649 64.0725 743.157 64.0725ZM743.157 64.9792C742.781 64.9792 742.479 65.1156 742.251 65.3883C742.022 65.6611 741.889 66.0481 741.853 66.5493H744.385C744.385 66.2397 744.34 65.967 744.252 65.7311C744.163 65.4952 744.027 65.3109 743.843 65.1782C743.666 65.0455 743.437 64.9792 743.157 64.9792Z" fill="#6E7191"/>
<path d="M784.957 58.2143C784.618 58.2143 784.343 58.4893 784.343 58.8286C784.343 59.1678 784.618 59.4428 784.957 59.4428V58.2143ZM777.585 66.8143C777.585 66.475 777.31 66.2 776.971 66.2C776.632 66.2 776.357 66.475 776.357 66.8143H777.585ZM789.871 62.5143V68.6571H791.1V62.5143H789.871ZM786.8 71.7286H780.657V72.9571H786.8V71.7286ZM784.957 59.4428H786.8V58.2143H784.957V59.4428ZM777.585 68.6571V66.8143H776.357V68.6571H777.585ZM780.657 71.7286C778.961 71.7286 777.585 70.3534 777.585 68.6571H776.357C776.357 71.0319 778.282 72.9571 780.657 72.9571V71.7286ZM789.871 68.6571C789.871 70.3534 788.496 71.7286 786.8 71.7286V72.9571C789.175 72.9571 791.1 71.0319 791.1 68.6571H789.871ZM791.1 62.5143C791.1 60.1394 789.175 58.2143 786.8 58.2143V59.4428C788.496 59.4428 789.871 60.818 789.871 62.5143H791.1Z" fill="#6E7191"/>
<path d="M785.902 63.2874L785.902 67.3867L782.173 67.3867" stroke="#6E7191" stroke-width="1.22857" stroke-linecap="round" stroke-linejoin="round"/>
<path d="M785.736 66.4993C785.976 66.7392 785.976 67.1281 785.736 67.368C785.496 67.6079 785.107 67.6079 784.867 67.368L785.736 66.4993ZM777.778 60.5033C777.532 60.2701 777.521 59.8813 777.754 59.6349C777.987 59.3885 778.376 59.3778 778.622 59.6109L777.778 60.5033ZM784.867 67.368C781.256 63.7567 782.369 64.8477 777.778 60.5033L778.622 59.6109C783.217 63.9587 782.113 62.8765 785.736 66.4993L784.867 67.368Z" fill="#6E7191"/>
</g>
<defs>
<filter id="filter0_bd_1615_6192" x="-84.9623" y="-108.962" width="1008.84" height="315.925" filterUnits="userSpaceOnUse" color-interpolation-filters="sRGB">
<feFlood flood-opacity="0" result="BackgroundImageFix"/>
<feGaussianBlur in="BackgroundImage" stdDeviation="57.4811"/>
<feComposite in2="SourceAlpha" operator="in" result="effect1_backgroundBlur_1615_6192"/>
<feColorMatrix in="SourceAlpha" type="matrix" values="0 0 0 0 0 0 0 0 0 0 0 0 0 0 0 0 0 0 127 0" result="hardAlpha"/>
<feOffset dy="23.9505"/>
<feGaussianBlur stdDeviation="14.969"/>
<feComposite in2="hardAlpha" operator="out"/>
<feColorMatrix type="matrix" values="0 0 0 0 0 0 0 0 0 0 0 0 0 0 0 0 0 0 0.25 0"/>
<feBlend mode="normal" in2="effect1_backgroundBlur_1615_6192" result="effect2_dropShadow_1615_6192"/>
<feBlend mode="normal" in="SourceGraphic" in2="effect2_dropShadow_1615_6192" result="shape"/>
</filter>
<clipPath id="clip0_1615_6192">
<rect x="39.8286" y="29.3428" width="87.2286" height="9.82857" rx="3.68571" fill="white"/>
</clipPath>
<clipPath id="clip1_1615_6192">
<rect width="23.9571" height="23.9571" fill="white" transform="translate(309.193 23.5071)"/>
</clipPath>
<clipPath id="clip2_1615_6192">
<rect width="21.2952" height="25.2881" fill="white" transform="translate(596.781 22.1762)"/>
</clipPath>
</defs>
</svg>
