<?xml version="1.0" encoding="UTF-8"?><svg xmlns="http://www.w3.org/2000/svg" xmlns:xlink="http://www.w3.org/1999/xlink" viewBox="0 0 778.91 86"><defs><style>.g,.h,.i{fill:none;}.j{fill:#00875e;}.k,.l{fill:#ea4343;}.m,.n{fill:#fff;}.o{fill:#f1f1f5;}.p{fill:#fbff38;}.q,.r{fill:#464648;}.s{fill:#6e7191;}.h,.i{stroke-linecap:round;stroke-linejoin:round;stroke-width:1.23px;}.h,.l{stroke:#fff;}.i{stroke:#6e7191;}.r,.n{fill-rule:evenodd;}.t{clip-path:url(#f);}.u{clip-path:url(#e);}.v{clip-path:url(#d);}.l{stroke-width:.25px;}</style><clipPath id="d"><rect class="g" x="9.83" y="23.34" width="87.23" height="9.83" rx="3.69" ry="3.69"/></clipPath><clipPath id="e"><rect class="g" x="279.19" y="17.51" width="23.96" height="23.96"/></clipPath><clipPath id="f"><rect class="g" x="566.78" y="16.18" width="21.3" height="25.29"/></clipPath></defs><g id="a"/><g id="b"><g id="c"><g><rect class="o" width="778.91" height="86" rx="11.98" ry="11.98"/><g class="v"><g><rect class="q" x="9.83" y="23.34" width="87.23" height="9.83" rx="3.69" ry="3.69"/><rect class="p" x="57.56" y="23.34" width="2.79" height="9.83"/><rect class="p" x="37.91" y="23.34" width="2.79" height="9.83"/><rect class="p" x="75.67" y="23.34" width="2.79" height="9.83"/><rect class="p" x="83.83" y="23.34" width="2.79" height="9.83"/></g></g><path class="q" d="M22.9,54.72c.72,0,1.33-.55,1.33-1.55v-4.74c.11,.39,.4,.73,.9,1.02l8.43,4.95c.35,.21,.67,.32,1.03,.32,.72,0,1.33-.55,1.33-1.55v-10.14c0-1-.61-1.55-1.33-1.55-.36,0-.67,.11-1.03,.32l-8.43,4.95c-.49,.29-.79,.62-.9,1.01v-4.73c0-1-.6-1.55-1.32-1.55-.37,0-.67,.11-1.04,.32l-8.43,4.95c-.63,.37-.93,.79-.93,1.35s.31,1,.93,1.36l8.43,4.95c.35,.21,.67,.32,1.03,.32Z"/><path class="q" d="M57.02,48.14c0,.86-.06,1.62-.19,2.29-.12,.67-.31,1.24-.57,1.71-.27,.46-.61,.82-1.05,1.06-.42,.25-.94,.37-1.55,.37-.77,0-1.4-.22-1.9-.65-.49-.43-.86-1.05-1.11-1.86-.24-.82-.35-1.79-.35-2.92s.11-2.11,.32-2.92c.23-.81,.58-1.42,1.08-1.84,.49-.43,1.15-.65,1.96-.65,.77,0,1.4,.22,1.89,.65,.5,.42,.87,1.04,1.11,1.84,.25,.81,.37,1.78,.37,2.92Zm-5.12,0c0,.91,.05,1.68,.16,2.29,.12,.61,.3,1.07,.56,1.37,.26,.3,.6,.46,1.03,.46s.76-.15,1.02-.44c.27-.3,.45-.76,.56-1.37,.12-.62,.18-1.39,.18-2.3s-.06-1.67-.18-2.27c-.11-.61-.29-1.07-.56-1.37-.26-.3-.59-.46-1.02-.46s-.78,.15-1.03,.46c-.26,.3-.44,.76-.56,1.37-.11,.6-.16,1.36-.16,2.27Zm6.64,4.41c0-.38,.09-.65,.28-.81,.2-.16,.44-.24,.72-.24s.51,.08,.71,.24c.21,.16,.31,.43,.31,.81s-.1,.66-.31,.83c-.2,.17-.43,.25-.71,.25s-.53-.08-.72-.25c-.19-.17-.28-.44-.28-.83Zm0-6.19c0-.4,.09-.68,.28-.84,.2-.16,.44-.24,.72-.24s.51,.08,.71,.24c.21,.16,.31,.44,.31,.84,0,.37-.1,.64-.31,.81-.2,.17-.43,.25-.71,.25s-.53-.08-.72-.25c-.19-.17-.28-.44-.28-.81Zm10.24,1.78c0,.86-.06,1.62-.19,2.29-.12,.67-.31,1.24-.57,1.71-.26,.46-.61,.82-1.05,1.06-.42,.25-.94,.37-1.55,.37-.77,0-1.4-.22-1.9-.65-.49-.43-.86-1.05-1.11-1.86-.24-.82-.35-1.79-.35-2.92s.11-2.11,.32-2.92c.23-.81,.58-1.42,1.08-1.84,.49-.43,1.14-.65,1.96-.65,.77,0,1.4,.22,1.89,.65,.5,.42,.87,1.04,1.11,1.84,.25,.81,.37,1.78,.37,2.92Zm-5.12,0c0,.91,.05,1.68,.16,2.29,.12,.61,.31,1.07,.56,1.37,.25,.3,.6,.46,1.03,.46s.76-.15,1.02-.44c.26-.3,.45-.76,.56-1.37,.12-.62,.18-1.39,.18-2.3s-.06-1.67-.18-2.27c-.11-.61-.3-1.07-.56-1.37-.26-.3-.59-.46-1.02-.46s-.78,.15-1.03,.46c-.26,.3-.44,.76-.56,1.37-.11,.6-.16,1.36-.16,2.27Zm13.06,0c0,.86-.06,1.62-.19,2.29-.12,.67-.31,1.24-.58,1.71-.27,.46-.61,.82-1.05,1.06-.42,.25-.94,.37-1.55,.37-.77,0-1.4-.22-1.9-.65-.49-.43-.86-1.05-1.11-1.86-.24-.82-.35-1.79-.35-2.92s.11-2.11,.33-2.92c.23-.81,.58-1.42,1.08-1.84,.49-.43,1.15-.65,1.96-.65,.77,0,1.4,.22,1.89,.65,.5,.42,.87,1.04,1.11,1.84,.24,.81,.37,1.78,.37,2.92Zm-5.12,0c0,.91,.05,1.68,.16,2.29,.12,.61,.3,1.07,.56,1.37,.25,.3,.6,.46,1.03,.46s.76-.15,1.02-.44c.26-.3,.45-.76,.56-1.37,.12-.62,.18-1.39,.18-2.3s-.06-1.67-.18-2.27c-.11-.61-.29-1.07-.56-1.37-.26-.3-.6-.46-1.02-.46s-.78,.15-1.03,.46c-.26,.3-.44,.76-.56,1.37-.11,.6-.16,1.36-.16,2.27Zm6.64,4.41c0-.38,.09-.65,.28-.81,.2-.16,.44-.24,.72-.24s.51,.08,.71,.24c.21,.16,.31,.43,.31,.81s-.1,.66-.31,.83c-.2,.17-.43,.25-.71,.25s-.53-.08-.72-.25c-.19-.17-.28-.44-.28-.83Zm0-6.19c0-.4,.09-.68,.28-.84,.2-.16,.44-.24,.72-.24s.51,.08,.71,.24c.21,.16,.31,.44,.31,.84,0,.37-.1,.64-.31,.81-.2,.17-.43,.25-.71,.25s-.53-.08-.72-.25c-.19-.17-.28-.44-.28-.81Zm10.24,1.78c0,.86-.06,1.62-.19,2.29-.12,.67-.31,1.24-.57,1.71-.26,.46-.61,.82-1.05,1.06-.42,.25-.94,.37-1.55,.37-.77,0-1.4-.22-1.9-.65-.49-.43-.86-1.05-1.11-1.86-.24-.82-.35-1.79-.35-2.92s.11-2.11,.32-2.92c.23-.81,.58-1.42,1.08-1.84,.49-.43,1.15-.65,1.96-.65,.77,0,1.4,.22,1.89,.65,.5,.42,.87,1.04,1.11,1.84,.25,.81,.37,1.78,.37,2.92Zm-5.12,0c0,.91,.05,1.68,.16,2.29,.12,.61,.31,1.07,.56,1.37,.26,.3,.6,.46,1.03,.46s.76-.15,1.02-.44c.26-.3,.45-.76,.56-1.37,.12-.62,.18-1.39,.18-2.3s-.06-1.67-.18-2.27c-.11-.61-.29-1.07-.56-1.37-.26-.3-.6-.46-1.02-.46s-.78,.15-1.03,.46c-.25,.3-.44,.76-.56,1.37-.11,.6-.16,1.36-.16,2.27Zm13.06,0c0,.86-.06,1.62-.19,2.29-.12,.67-.31,1.24-.57,1.71-.26,.46-.61,.82-1.05,1.06-.42,.25-.94,.37-1.55,.37-.77,0-1.4-.22-1.9-.65-.49-.43-.86-1.05-1.11-1.86-.24-.82-.35-1.79-.35-2.92s.11-2.11,.33-2.92c.23-.81,.58-1.42,1.08-1.84,.49-.43,1.14-.65,1.96-.65,.77,0,1.39,.22,1.89,.65,.5,.42,.87,1.04,1.11,1.84,.24,.81,.37,1.78,.37,2.92Zm-5.12,0c0,.91,.05,1.68,.16,2.29,.12,.61,.3,1.07,.56,1.37,.25,.3,.6,.46,1.03,.46s.76-.15,1.02-.44c.26-.3,.45-.76,.56-1.37,.12-.62,.18-1.39,.18-2.3s-.06-1.67-.18-2.27c-.11-.61-.29-1.07-.56-1.37-.26-.3-.6-.46-1.02-.46s-.78,.15-1.03,.46c-.26,.3-.44,.76-.56,1.37-.11,.6-.16,1.36-.16,2.27Z"/><path class="r" d="M133.84,16.88c-.72,0-1.4,.28-1.91,.79-.51,.51-.79,1.19-.79,1.91v19.81c0,.72,.29,1.4,.79,1.91,.51,.51,1.19,.79,1.91,.79h10.96c.72,0,1.4-.29,1.91-.79l8.85-8.85c.51-.51,.79-1.19,.79-1.91v-10.96c0-.72-.29-1.4-.79-1.91-.51-.51-1.19-.79-1.91-.79h-19.81Zm9.97,14.47v7.92c0,.4,.49,.6,.77,.32l9.27-9.27c.06-.06,.11-.14,.12-.23,.02-.09,0-.18-.02-.26-.04-.08-.09-.15-.17-.2-.07-.05-.16-.08-.25-.08h-7.92c-.48,0-.94,.19-1.27,.53-.34,.34-.53,.8-.53,1.27Z"/><path class="q" d="M118.16,65.91c0,.52-.12,.97-.36,1.34-.24,.37-.58,.66-1.02,.86-.44,.2-.98,.29-1.62,.29-.31,0-.61-.02-.9-.06-.28-.03-.54-.08-.77-.15-.23-.07-.45-.15-.65-.25v-1.25c.33,.15,.7,.28,1.12,.41,.43,.11,.85,.17,1.26,.17,.36,0,.66-.05,.88-.16,.24-.11,.41-.25,.53-.44,.12-.19,.18-.41,.18-.66,0-.27-.06-.5-.18-.68-.11-.19-.31-.36-.58-.52-.26-.16-.62-.33-1.06-.5-.31-.13-.59-.27-.85-.42-.25-.16-.48-.34-.66-.54-.18-.2-.32-.44-.42-.71-.09-.27-.13-.59-.13-.95,0-.48,.12-.9,.34-1.24,.23-.34,.55-.61,.96-.79,.41-.19,.89-.28,1.44-.28,.46,0,.88,.05,1.26,.15,.38,.09,.75,.22,1.09,.38l-.43,1.09c-.32-.14-.64-.25-.97-.34-.32-.09-.65-.14-.99-.14-.3,0-.56,.05-.76,.15-.2,.1-.34,.23-.44,.41-.1,.17-.15,.37-.15,.6,0,.27,.06,.5,.17,.68,.11,.18,.3,.35,.55,.5,.25,.15,.59,.31,1.01,.49,.46,.2,.85,.41,1.17,.63,.32,.21,.56,.48,.73,.79,.16,.3,.25,.68,.25,1.14Zm3.8,1.44c.17,0,.34-.02,.5-.05,.16-.03,.31-.07,.43-.11v.98c-.14,.07-.32,.12-.55,.16-.22,.05-.46,.07-.7,.07-.34,0-.66-.06-.95-.18-.29-.12-.52-.34-.69-.64-.17-.3-.26-.72-.26-1.27v-3.66h-.85v-.59l.91-.49,.45-1.4h.82v1.49h1.76v1h-1.76v3.64c0,.36,.08,.63,.25,.8,.16,.17,.37,.26,.63,.26Zm3.5-5.69v6.62h-1.34v-6.62h1.34Zm-.65-2.52c.2,0,.37,.06,.52,.17,.15,.11,.22,.31,.22,.58s-.07,.45-.22,.58c-.15,.11-.32,.17-.52,.17-.21,0-.39-.06-.54-.17-.15-.12-.22-.32-.22-.58s.07-.46,.22-.58c.15-.11,.33-.17,.54-.17Zm5.08,9.26c-.58,0-1.09-.12-1.54-.36-.43-.24-.77-.61-1.02-1.11-.24-.51-.36-1.15-.36-1.93,0-.82,.13-1.48,.39-1.99,.26-.51,.62-.88,1.07-1.12,.45-.25,.97-.37,1.55-.37,.34,0,.67,.04,.98,.12,.32,.07,.58,.16,.79,.26l-.4,1.04c-.21-.08-.43-.16-.66-.22-.24-.07-.46-.1-.68-.1-.38,0-.69,.09-.93,.27-.24,.17-.42,.43-.54,.79-.12,.34-.18,.78-.18,1.3s.06,.92,.18,1.27c.12,.34,.3,.61,.54,.79,.24,.17,.54,.26,.88,.26s.63-.04,.9-.12c.27-.08,.52-.19,.75-.32v1.13c-.23,.14-.48,.24-.75,.31-.27,.07-.59,.1-.97,.1Zm4.48-4.79c0,.17,0,.37-.03,.59-.02,.22-.03,.43-.05,.61h.05c.05-.08,.12-.18,.2-.29l.27-.37c.1-.12,.19-.23,.27-.32l1.86-2.17h1.52l-2.47,2.84,2.63,3.78h-1.57l-1.97-2.96-.71,.64v2.32h-1.33v-9.34h1.33v4.67Zm4.33-1.95h1.42l1.27,3.76c.07,.19,.12,.37,.17,.55,.06,.18,.1,.36,.13,.54,.04,.17,.07,.34,.1,.52h.04c.04-.21,.1-.46,.17-.75,.07-.29,.16-.59,.25-.87l1.2-3.75h1.44l-2.65,7.52c-.15,.43-.34,.79-.57,1.09-.21,.31-.48,.55-.79,.71-.3,.16-.67,.25-1.09,.25-.18,0-.34-.01-.49-.04-.14-.02-.26-.04-.37-.06v-1.03c.08,.02,.18,.03,.31,.05,.12,.02,.25,.02,.38,.02,.24,0,.44-.05,.61-.15,.17-.1,.32-.24,.43-.42,.11-.17,.21-.38,.28-.61l.25-.71-2.49-6.62Zm17.15,6.62h-1.67l-4.04-7.09h-.05c0,.16,.02,.34,.02,.53,.02,.19,.03,.39,.04,.6,0,.2,.02,.42,.02,.64,0,.21,.02,.43,.03,.65v4.67h-1.24v-8.77h1.66l4.03,7.05h.05c0-.12-.02-.27-.02-.45,0-.19-.02-.39-.03-.6,0-.21-.02-.43-.02-.65,0-.22-.01-.43-.01-.63v-4.72h1.24v8.77Zm7.59-3.32c0,.55-.07,1.04-.21,1.46-.14,.43-.34,.79-.6,1.08-.25,.29-.56,.52-.93,.68-.37,.15-.78,.22-1.24,.22-.42,0-.81-.07-1.17-.22-.36-.16-.67-.38-.93-.68-.26-.29-.47-.66-.61-1.08-.14-.43-.21-.92-.21-1.47,0-.73,.12-1.35,.36-1.86,.24-.51,.58-.89,1.02-1.15,.45-.27,.98-.41,1.6-.41,.57,0,1.08,.14,1.52,.41,.44,.26,.79,.65,1.03,1.15,.25,.51,.38,1.13,.38,1.87Zm-4.53,0c0,.49,.05,.92,.16,1.28,.11,.35,.29,.62,.52,.81,.24,.19,.54,.28,.9,.28s.67-.09,.9-.28c.24-.19,.41-.46,.52-.81,.11-.36,.17-.79,.17-1.28s-.06-.93-.17-1.28c-.11-.34-.29-.61-.52-.79-.23-.19-.53-.28-.91-.28-.55,0-.95,.2-1.19,.61-.25,.41-.37,.99-.37,1.73Zm8.39,2.38c.17,0,.34-.02,.5-.05,.16-.03,.31-.07,.43-.11v.98c-.14,.07-.32,.12-.55,.16-.22,.05-.45,.07-.7,.07-.34,0-.66-.06-.95-.18-.29-.12-.52-.34-.69-.64-.17-.3-.26-.72-.26-1.27v-3.66h-.85v-.59l.91-.49,.46-1.4h.82v1.49h1.76v1h-1.76v3.64c0,.36,.08,.63,.25,.8,.16,.17,.37,.26,.63,.26Zm4.67-5.81c.55,0,1.02,.12,1.43,.37,.4,.24,.71,.58,.92,1.03,.22,.45,.33,.98,.33,1.6v.71h-4.16c.02,.68,.18,1.2,.49,1.56,.31,.36,.75,.54,1.32,.54,.4,0,.76-.04,1.07-.11,.32-.08,.64-.2,.97-.36v1.08c-.31,.15-.63,.26-.96,.33-.32,.07-.71,.11-1.17,.11-.6,0-1.13-.13-1.6-.38-.47-.25-.83-.63-1.09-1.13-.26-.51-.39-1.13-.39-1.87s.12-1.38,.36-1.89c.24-.52,.57-.91,1-1.18,.43-.28,.93-.42,1.5-.42Zm0,1.01c-.42,0-.75,.15-1.01,.45-.25,.3-.4,.73-.44,1.29h2.81c0-.34-.05-.65-.15-.91-.1-.26-.25-.47-.45-.61-.2-.15-.45-.22-.76-.22Z"/><rect class="j" x="180.6" width="73.71" height="86"/><path class="n" d="M217.46,44.32c8.19,0,14.83-6.64,14.83-14.83s-6.64-14.83-14.83-14.83-14.83,6.64-14.83,14.83,6.64,14.83,14.83,14.83Zm0-2.54c6.79,0,12.29-5.5,12.29-12.29s-5.5-12.29-12.29-12.29-12.29,5.5-12.29,12.29,5.5,12.29,12.29,12.29Z"/><circle class="l" cx="217.46" cy="29.49" r="9"/><path class="m" d="M192.66,59.51c.71,0,1.29,.09,1.74,.28s.8,.47,1.02,.85c.23,.37,.34,.84,.34,1.4,0,.45-.08,.83-.23,1.14-.15,.3-.34,.55-.59,.75-.24,.19-.5,.34-.77,.45l2.32,3.89h-1.55l-1.95-3.55h-1.34v3.55h-1.36v-8.77h2.37Zm-.06,1.13h-.95v2.99h.97c.4,0,.73-.06,.98-.17,.26-.11,.46-.29,.58-.52,.13-.23,.2-.51,.2-.85,0-.35-.07-.63-.2-.84-.12-.21-.32-.37-.59-.47-.26-.1-.59-.15-.99-.15Zm7.43,.9c.55,0,1.02,.12,1.43,.37,.4,.24,.71,.58,.92,1.03,.22,.45,.33,.98,.33,1.6v.71h-4.17c.02,.68,.18,1.2,.49,1.56,.31,.36,.75,.54,1.31,.54,.4,0,.76-.04,1.07-.11,.32-.08,.64-.2,.97-.36v1.08c-.31,.15-.63,.26-.96,.33-.32,.07-.71,.11-1.17,.11-.6,0-1.13-.13-1.6-.38-.47-.25-.83-.63-1.09-1.13-.26-.51-.39-1.13-.39-1.87s.12-1.38,.36-1.89c.24-.52,.57-.91,.99-1.18,.43-.28,.93-.42,1.5-.42Zm0,1.01c-.42,0-.75,.15-1.01,.45-.25,.3-.4,.73-.44,1.29h2.81c0-.34-.05-.65-.15-.91-.1-.26-.25-.47-.45-.61-.2-.15-.45-.22-.76-.22Zm6.73,5.86c-.58,0-1.09-.12-1.54-.36-.43-.24-.77-.61-1.02-1.11-.24-.51-.36-1.15-.36-1.93,0-.82,.13-1.48,.39-1.99,.26-.51,.62-.88,1.07-1.12,.45-.25,.97-.37,1.55-.37,.34,0,.67,.04,.98,.12,.32,.07,.58,.16,.79,.26l-.41,1.04c-.2-.08-.43-.16-.66-.22-.24-.07-.46-.1-.68-.1-.38,0-.69,.09-.93,.27-.24,.17-.42,.43-.54,.79-.12,.34-.18,.78-.18,1.3s.06,.92,.18,1.27c.12,.34,.3,.61,.54,.79,.25,.17,.54,.26,.88,.26s.64-.04,.9-.12c.27-.08,.52-.19,.75-.32v1.13c-.23,.14-.48,.24-.75,.31-.27,.07-.59,.1-.97,.1Zm8.72-3.44c0,.55-.07,1.04-.21,1.46-.14,.43-.34,.79-.6,1.08-.25,.29-.57,.52-.93,.68-.37,.15-.78,.22-1.24,.22-.42,0-.81-.07-1.17-.22-.36-.16-.67-.38-.93-.68-.26-.29-.47-.66-.61-1.08-.14-.43-.21-.92-.21-1.47,0-.73,.12-1.35,.36-1.86,.24-.51,.58-.89,1.02-1.15,.45-.27,.98-.41,1.6-.41,.57,0,1.08,.14,1.52,.41,.44,.26,.79,.65,1.03,1.15,.25,.51,.38,1.13,.38,1.87Zm-4.53,0c0,.49,.05,.92,.16,1.28,.11,.35,.29,.62,.52,.81,.24,.19,.54,.28,.9,.28s.67-.09,.9-.28c.24-.19,.41-.46,.52-.81,.11-.36,.17-.79,.17-1.28s-.06-.93-.17-1.28c-.12-.34-.29-.61-.52-.79-.23-.19-.53-.28-.91-.28-.55,0-.95,.2-1.19,.61s-.37,.99-.37,1.73Zm9.21-3.43c.11,0,.23,0,.36,.02,.13,0,.24,.02,.33,.04l-.14,1.22c-.09-.02-.19-.05-.31-.06-.11-.02-.23-.02-.34-.02-.22,0-.43,.05-.64,.15-.2,.09-.39,.23-.55,.41-.16,.17-.29,.39-.39,.64-.1,.25-.15,.54-.15,.87v3.49h-1.33v-6.62h1.04l.17,1.18h.07c.12-.24,.27-.45,.46-.65,.19-.2,.4-.35,.64-.47,.24-.12,.49-.18,.77-.18Zm3.71,6.87c-.74,0-1.33-.29-1.79-.86-.45-.57-.68-1.43-.68-2.56s.23-2,.69-2.58c.46-.58,1.06-.87,1.81-.87,.32,0,.59,.05,.82,.14,.23,.08,.43,.2,.6,.34s.32,.31,.43,.49h.07c-.02-.11-.04-.28-.06-.49-.02-.22-.02-.42-.02-.59v-2.48h1.33v9.34h-1.04l-.23-.88h-.05c-.12,.19-.26,.36-.43,.52-.17,.15-.38,.27-.61,.36-.23,.09-.5,.14-.82,.14Zm.36-1.07c.57,0,.98-.18,1.2-.53,.24-.36,.36-.9,.36-1.61v-.2c0-.78-.11-1.37-.33-1.78-.22-.41-.63-.61-1.24-.61-.48,0-.84,.22-1.08,.65-.25,.43-.37,1.01-.37,1.76s.12,1.32,.37,1.72c.24,.4,.61,.6,1.09,.6Zm6.04-5.68v6.62h-1.34v-6.62h1.34Zm-.65-2.52c.2,0,.37,.06,.52,.17,.15,.11,.22,.31,.22,.58s-.07,.45-.22,.58c-.15,.11-.32,.17-.52,.17-.21,0-.39-.06-.54-.17-.15-.12-.22-.32-.22-.58s.07-.46,.22-.58c.15-.11,.33-.17,.54-.17Zm5.76,2.4c.72,0,1.27,.19,1.66,.58,.39,.38,.59,1,.59,1.86v4.31h-1.33v-4.13c0-.52-.1-.9-.31-1.15-.2-.26-.5-.39-.92-.39-.61,0-1.04,.2-1.27,.6s-.34,.98-.34,1.73v3.34h-1.33v-6.62h1.04l.18,.88h.07c.14-.23,.31-.42,.5-.57,.2-.15,.42-.26,.66-.33,.24-.07,.5-.11,.77-.11Zm6.23,0c.4,0,.76,.08,1.07,.25,.32,.16,.59,.41,.81,.75h.05l.15-.87h1.09v6.71c0,.62-.11,1.15-.32,1.57-.21,.43-.54,.75-.97,.96-.43,.22-.98,.33-1.65,.33-.46,0-.88-.03-1.25-.1-.37-.07-.71-.17-1.03-.31v-1.14c.21,.11,.44,.21,.69,.28,.25,.08,.5,.14,.77,.17,.28,.04,.57,.06,.86,.06,.51,0,.9-.16,1.17-.47,.28-.3,.42-.73,.42-1.29v-.22c0-.11,0-.25,.01-.42,0-.18,.02-.31,.02-.39h-.05c-.2,.34-.46,.6-.77,.76-.3,.16-.66,.23-1.08,.23-.77,0-1.38-.3-1.82-.9-.44-.61-.66-1.45-.66-2.52,0-.72,.1-1.34,.3-1.84,.2-.52,.49-.91,.86-1.19,.38-.28,.82-.42,1.34-.42Zm.32,1.08c-.31,0-.57,.09-.79,.28-.21,.18-.38,.45-.49,.8-.11,.35-.16,.79-.16,1.3,0,.77,.12,1.36,.37,1.76,.25,.4,.61,.6,1.08,.6,.28,0,.52-.04,.71-.12,.2-.08,.36-.21,.48-.38,.13-.17,.23-.39,.28-.65,.07-.27,.1-.59,.1-.97v-.25c0-.57-.06-1.02-.17-1.36-.11-.35-.28-.61-.52-.76-.23-.16-.53-.25-.9-.25Z"/><path class="q" d="M262.53,59.51c.7,0,1.29,.07,1.77,.21,.48,.14,.83,.37,1.07,.7,.24,.32,.36,.75,.36,1.28,0,.34-.06,.65-.17,.92-.11,.26-.28,.48-.5,.66-.22,.17-.48,.29-.79,.34v.06c.31,.06,.6,.16,.86,.32,.26,.15,.47,.36,.62,.65,.15,.29,.23,.66,.23,1.12,0,.53-.12,.99-.36,1.36-.24,.37-.58,.65-1.02,.85-.43,.2-.95,.29-1.56,.29h-2.99v-8.77h2.48Zm.17,3.66c.62,0,1.05-.11,1.28-.33,.23-.22,.34-.55,.34-.98s-.14-.76-.42-.95c-.28-.19-.72-.28-1.33-.28h-1.17v2.54h1.29Zm-1.29,1.08v2.92h1.42c.64,0,1.09-.14,1.34-.42,.25-.28,.38-.65,.38-1.11,0-.28-.06-.52-.17-.74-.11-.21-.3-.38-.57-.49-.25-.11-.6-.17-1.04-.17h-1.36Zm11.55-2.59v6.62h-1.04l-.18-.87h-.07c-.12,.23-.29,.42-.5,.57-.2,.15-.43,.25-.67,.32-.25,.07-.5,.11-.76,.11-.48,0-.89-.08-1.23-.25-.33-.17-.58-.43-.76-.79-.17-.36-.26-.82-.26-1.38v-4.34h1.34v4.14c0,.52,.1,.9,.29,1.15,.2,.25,.5,.38,.92,.38s.73-.09,.96-.27c.24-.18,.41-.44,.5-.79,.1-.35,.15-.77,.15-1.27v-3.35h1.33Zm5.02-.12c.11,0,.23,0,.36,.02,.13,0,.24,.02,.33,.04l-.14,1.22c-.09-.02-.19-.05-.31-.06-.11-.02-.23-.02-.34-.02-.22,0-.43,.05-.64,.15-.2,.09-.39,.23-.55,.41-.16,.17-.3,.39-.39,.64-.1,.25-.15,.54-.15,.87v3.49h-1.33v-6.62h1.04l.17,1.18h.07c.12-.24,.27-.45,.45-.65,.19-.2,.4-.35,.64-.47,.24-.12,.49-.18,.77-.18Zm6.02,4.88c0,.43-.1,.8-.29,1.09-.2,.29-.48,.52-.86,.68-.38,.15-.84,.22-1.39,.22-.43,0-.82-.04-1.14-.11-.32-.07-.61-.16-.89-.29v-1.14c.29,.14,.61,.27,.98,.38,.37,.11,.72,.16,1.06,.16,.43,0,.75-.08,.95-.23,.2-.16,.29-.36,.29-.63,0-.15-.04-.28-.12-.39-.07-.12-.22-.25-.43-.37-.21-.13-.52-.28-.92-.44-.39-.17-.73-.34-.99-.5-.26-.17-.47-.37-.61-.6-.14-.24-.21-.54-.21-.91,0-.57,.22-1.01,.66-1.31,.44-.31,1.02-.47,1.73-.47,.39,0,.76,.04,1.09,.12,.34,.07,.66,.19,.98,.34l-.41,1c-.19-.09-.38-.16-.58-.22-.19-.07-.38-.12-.56-.16-.19-.04-.38-.06-.57-.06-.35,0-.62,.06-.8,.18-.18,.12-.27,.29-.27,.52,0,.16,.04,.3,.12,.42,.09,.11,.24,.23,.45,.34,.22,.11,.52,.25,.91,.41,.39,.16,.71,.32,.98,.48,.27,.16,.48,.36,.61,.6,.14,.24,.21,.54,.21,.91Zm3.77,.93c.17,0,.34-.02,.5-.05,.16-.03,.31-.07,.43-.11v.98c-.14,.07-.32,.12-.55,.16-.22,.05-.45,.07-.7,.07-.34,0-.66-.06-.95-.18-.29-.12-.52-.34-.69-.64-.17-.3-.26-.72-.26-1.27v-3.66h-.85v-.59l.91-.49,.45-1.4h.82v1.49h1.76v1h-1.76v3.64c0,.36,.08,.63,.24,.8,.16,.17,.37,.26,.63,.26Zm11.44-7.84l-2.89,8.77h-1.45l-2.88-8.77h1.44l1.68,5.5c.07,.2,.13,.41,.18,.64,.07,.22,.12,.44,.17,.66,.06,.22,.1,.43,.12,.63,.03-.2,.07-.41,.12-.63,.05-.22,.11-.44,.17-.66,.07-.23,.13-.45,.18-.65l1.68-5.49h1.45Zm2.27,2.15v6.62h-1.34v-6.62h1.34Zm-.65-2.52c.2,0,.37,.06,.52,.17,.15,.11,.22,.31,.22,.58s-.07,.45-.22,.58c-.15,.11-.32,.17-.52,.17-.21,0-.39-.06-.54-.17-.15-.12-.22-.32-.22-.58s.07-.46,.22-.58c.15-.11,.33-.17,.54-.17Zm4.64,9.26c-.74,0-1.34-.29-1.79-.86-.45-.57-.68-1.43-.68-2.56s.23-2,.69-2.58c.46-.58,1.06-.87,1.81-.87,.32,0,.59,.05,.82,.14,.23,.08,.43,.2,.6,.34s.32,.31,.43,.49h.07c-.02-.11-.04-.28-.06-.49-.02-.22-.03-.42-.03-.59v-2.48h1.33v9.34h-1.04l-.23-.88h-.05c-.11,.19-.26,.36-.43,.52-.17,.15-.38,.27-.61,.36-.23,.09-.5,.14-.82,.14Zm.36-1.07c.57,0,.97-.18,1.2-.53,.24-.36,.36-.9,.36-1.61v-.2c0-.78-.11-1.37-.33-1.78-.22-.41-.63-.61-1.24-.61-.48,0-.84,.22-1.08,.65-.24,.43-.37,1.01-.37,1.76s.12,1.32,.37,1.72c.25,.4,.61,.6,1.09,.6Zm7.21-5.8c.55,0,1.02,.12,1.42,.37,.4,.24,.71,.58,.92,1.03,.22,.45,.33,.98,.33,1.6v.71h-4.17c.02,.68,.18,1.2,.49,1.56,.31,.36,.75,.54,1.31,.54,.4,0,.76-.04,1.07-.11,.32-.08,.64-.2,.97-.36v1.08c-.31,.15-.63,.26-.96,.33-.32,.07-.71,.11-1.17,.11-.6,0-1.13-.13-1.6-.38-.47-.25-.83-.63-1.09-1.13-.26-.51-.39-1.13-.39-1.87s.12-1.38,.36-1.89c.24-.52,.57-.91,.99-1.18,.43-.28,.93-.42,1.5-.42Zm0,1.01c-.42,0-.75,.15-1.01,.45-.25,.3-.4,.73-.44,1.29h2.81c0-.34-.05-.65-.15-.91-.1-.26-.25-.47-.45-.61-.2-.15-.45-.22-.76-.22Zm9.73,2.42c0,.55-.07,1.04-.21,1.46-.14,.43-.34,.79-.6,1.08-.25,.29-.57,.52-.93,.68-.37,.15-.78,.22-1.24,.22-.42,0-.81-.07-1.17-.22-.36-.16-.67-.38-.93-.68-.26-.29-.47-.66-.62-1.08-.14-.43-.21-.92-.21-1.47,0-.73,.12-1.35,.36-1.86,.24-.51,.58-.89,1.02-1.15,.45-.27,.98-.41,1.6-.41,.57,0,1.08,.14,1.52,.41,.44,.26,.79,.65,1.03,1.15,.25,.51,.38,1.13,.38,1.87Zm-4.53,0c0,.49,.05,.92,.16,1.28,.12,.35,.29,.62,.52,.81,.24,.19,.54,.28,.9,.28s.67-.09,.9-.28c.24-.19,.41-.46,.52-.81,.11-.36,.17-.79,.17-1.28s-.06-.93-.17-1.28c-.12-.34-.29-.61-.52-.79-.23-.19-.53-.28-.91-.28-.55,0-.95,.2-1.19,.61s-.37,.99-.37,1.73Z"/><g class="u"><g><path class="q" d="M300.57,17.51h-18.8c-1.42,0-2.58,1.16-2.58,2.58v18.79c0,1.42,1.16,2.58,2.58,2.58h18.8c1.42,0,2.58-1.16,2.58-2.58V20.09c0-1.42-1.16-2.58-2.58-2.58h0Zm-9.4,18.32c-3.5,0-6.34-2.84-6.34-6.34s2.84-6.34,6.34-6.34,6.34,2.84,6.34,6.34-2.85,6.34-6.34,6.34Z"/><path class="q" d="M291.17,26.49c-1.65,0-2.99,1.34-2.99,2.99s1.34,2.99,2.99,2.99,2.99-1.34,2.99-2.99-1.34-2.99-2.99-2.99Z"/></g></g><path class="q" d="M376.24,35.12l-3.35-3.35c-1.2-1.2-3.23-.72-3.71,.84-.36,1.08-1.55,1.68-2.63,1.44-2.39-.6-5.62-3.71-6.22-6.22-.36-1.08,.36-2.27,1.44-2.63,1.55-.48,2.03-2.51,.84-3.71l-3.35-3.35c-.96-.84-2.39-.84-3.23,0l-2.27,2.27c-2.27,2.39,.24,8.73,5.86,14.36,5.62,5.62,11.96,8.26,14.36,5.86l2.27-2.27c.84-.96,.84-2.39,0-3.23Z"/><path class="q" d="M356.48,60.53c-.39,0-.75,.08-1.07,.23-.31,.15-.58,.37-.8,.66-.21,.29-.38,.65-.49,1.07-.11,.42-.17,.89-.17,1.41,0,.69,.09,1.29,.28,1.79,.19,.5,.47,.88,.85,1.15,.38,.27,.84,.41,1.4,.41,.36,0,.7-.03,1.03-.1,.33-.07,.66-.17,.99-.28v1.14c-.33,.13-.66,.23-1.01,.28-.34,.07-.73,.1-1.18,.1-.85,0-1.56-.18-2.11-.55-.56-.37-.98-.89-1.25-1.57-.28-.68-.42-1.47-.42-2.38,0-.66,.09-1.27,.26-1.82,.17-.56,.43-1.04,.76-1.44,.33-.4,.75-.71,1.24-.92,.49-.22,1.05-.33,1.68-.33,.43,0,.84,.05,1.25,.15,.41,.09,.77,.22,1.09,.39l-.48,1.11c-.27-.13-.57-.25-.89-.34-.31-.11-.64-.16-.98-.16Zm6.15,1.01c.78,0,1.36,.18,1.76,.55,.4,.36,.6,.93,.6,1.71v4.48h-.95l-.26-.92h-.05c-.19,.24-.38,.43-.57,.59-.18,.16-.39,.27-.64,.34-.24,.07-.53,.11-.88,.11s-.7-.07-.99-.21c-.3-.15-.53-.37-.7-.66-.17-.3-.26-.68-.26-1.13,0-.67,.24-1.18,.71-1.54,.48-.35,1.22-.54,2.2-.58l1.06-.04v-.37c0-.49-.1-.84-.31-1.03-.2-.2-.48-.29-.84-.29-.3,0-.6,.05-.9,.15s-.58,.22-.86,.36l-.41-.95c.3-.16,.65-.3,1.03-.41,.39-.11,.81-.17,1.24-.17Zm.23,3.59c-.67,.03-1.14,.16-1.4,.38-.26,.21-.39,.52-.39,.91,0,.34,.09,.59,.27,.75,.19,.16,.43,.23,.73,.23,.45,0,.83-.14,1.13-.43,.31-.29,.47-.72,.47-1.29v-.58l-.8,.02Zm5.28,3.16h-1.33v-9.34h1.33v9.34Zm3.19,0h-1.33v-9.34h1.33v9.34Zm6.08-1.87c0,.43-.1,.8-.3,1.09-.2,.29-.48,.52-.86,.68-.38,.15-.84,.22-1.39,.22-.43,0-.82-.04-1.14-.11-.32-.07-.61-.16-.88-.29v-1.14c.29,.14,.61,.27,.98,.38,.37,.11,.72,.16,1.06,.16,.43,0,.75-.08,.95-.23,.2-.16,.29-.36,.29-.63,0-.15-.04-.28-.12-.39-.07-.12-.22-.25-.43-.37-.21-.13-.52-.28-.92-.44-.39-.17-.73-.34-.99-.5-.26-.17-.47-.37-.61-.6-.14-.24-.21-.54-.21-.91,0-.57,.22-1.01,.66-1.31,.44-.31,1.02-.47,1.73-.47,.39,0,.76,.04,1.09,.12,.33,.07,.66,.19,.98,.34l-.4,1c-.19-.09-.38-.16-.58-.22-.19-.07-.38-.12-.57-.16-.19-.04-.38-.06-.57-.06-.35,0-.62,.06-.8,.18-.18,.12-.27,.29-.27,.52,0,.16,.04,.3,.12,.42,.09,.11,.24,.23,.46,.34,.22,.11,.52,.25,.91,.41s.71,.32,.98,.48c.27,.16,.48,.36,.61,.6,.14,.24,.21,.54,.21,.91Z"/><path class="q" d="M438.47,45.46c8.06,0,14.72-6.58,14.72-14.56,0-4.54-2.29-8.85-5.73-11.41-.77-.62-1.71-.51-2.17,.15-.51,.69-.29,1.52,.37,2.1,2.8,2.12,4.58,5.4,4.59,9.16,.01,6.46-5.25,11.65-11.77,11.65s-11.75-5.19-11.75-11.65c0-5.46,3.73-10,8.82-11.28v2.04c0,1.08,.81,1.38,1.69,.75l4.81-3.36c.71-.52,.73-1.31,0-1.81l-4.79-3.38c-.9-.63-1.71-.35-1.71,.75v2.05c-6.68,1.36-11.77,7.27-11.77,14.25,0,7.98,6.65,14.56,14.7,14.56Z"/><path class="r" d="M436.13,34.26c-2.51,.13-4.37,2.51-4.37,5.22v1.82c0,.37,6.56,2.34,6.93,2.34l6.26-1.67c.37,0,.67-.3,.67-.67v-1.82c0-2.71-1.86-5.09-4.37-5.22-.77,.39-1.64,.61-2.56,.61s-1.79-.22-2.56-.61Zm6.66-3.92c-.5,1.79-2.15,3.11-4.11,3.11s-3.6-1.31-4.1-3.11c-.09-.35-.14-.72-.14-1.11,0-2.37,1.89-4.32,4.25-4.32s4.25,1.94,4.25,4.32c0,.38-.05,.75-.14,1.1Z"/><path class="q" d="M414.02,65.91c0,.52-.12,.97-.36,1.34-.24,.37-.58,.66-1.02,.86-.44,.2-.98,.29-1.62,.29-.31,0-.61-.02-.9-.06-.28-.03-.54-.08-.77-.15-.23-.07-.45-.15-.65-.25v-1.25c.33,.15,.7,.28,1.12,.41,.43,.11,.85,.17,1.26,.17,.36,0,.66-.05,.89-.16,.24-.11,.41-.25,.53-.44,.12-.19,.18-.41,.18-.66,0-.27-.06-.5-.18-.68-.11-.19-.31-.36-.58-.52-.26-.16-.61-.33-1.06-.5-.31-.13-.59-.27-.85-.42-.25-.16-.48-.34-.66-.54-.18-.2-.32-.44-.42-.71-.09-.27-.14-.59-.14-.95,0-.48,.11-.9,.34-1.24s.55-.61,.96-.79c.41-.19,.89-.28,1.44-.28,.46,0,.88,.05,1.27,.15,.39,.09,.75,.22,1.09,.38l-.43,1.09c-.32-.14-.64-.25-.97-.34-.32-.09-.65-.14-.99-.14-.3,0-.56,.05-.76,.15-.2,.1-.34,.23-.44,.41-.1,.17-.15,.37-.15,.6,0,.27,.06,.5,.17,.68,.11,.18,.3,.35,.55,.5,.25,.15,.59,.31,1.01,.49,.46,.2,.85,.41,1.17,.63,.32,.21,.56,.48,.73,.79,.16,.3,.25,.68,.25,1.14Zm3.96-4.37c.55,0,1.02,.12,1.43,.37,.4,.24,.71,.58,.92,1.03,.22,.45,.33,.98,.33,1.6v.71h-4.17c.02,.68,.18,1.2,.49,1.56,.31,.36,.75,.54,1.31,.54,.4,0,.76-.04,1.07-.11,.32-.08,.64-.2,.97-.36v1.08c-.31,.15-.63,.26-.96,.33-.32,.07-.71,.11-1.17,.11-.6,0-1.13-.13-1.6-.38s-.83-.63-1.09-1.13c-.26-.51-.39-1.13-.39-1.87s.12-1.38,.36-1.89c.24-.52,.57-.91,.99-1.18,.43-.28,.93-.42,1.5-.42Zm0,1.01c-.42,0-.75,.15-1.01,.45-.25,.3-.4,.73-.44,1.29h2.81c0-.34-.05-.65-.15-.91-.1-.26-.25-.47-.45-.61-.2-.15-.45-.22-.76-.22Zm5.49,5.74h-1.33v-9.34h1.33v9.34Zm5-5.63h-1.51v5.63h-1.34v-5.63h-1.02v-.61l1.02-.41v-.42c0-.57,.08-1.02,.23-1.35,.16-.34,.4-.59,.71-.75,.31-.16,.69-.23,1.14-.23,.27,0,.52,.02,.75,.07,.23,.05,.43,.1,.6,.16l-.33,1c-.12-.04-.27-.08-.43-.11-.15-.04-.32-.06-.48-.06-.29,0-.51,.11-.65,.32-.14,.21-.21,.54-.21,.97v.43h1.51v1Zm2.4-1v6.62h-1.34v-6.62h1.34Zm-.65-2.52c.2,0,.37,.06,.52,.17,.15,.11,.22,.31,.22,.58s-.07,.45-.22,.58c-.15,.11-.32,.17-.52,.17-.21,0-.39-.06-.54-.17-.15-.12-.22-.32-.22-.58s.07-.46,.22-.58c.15-.11,.33-.17,.54-.17Zm5.02,2.4c.55,0,1.02,.12,1.42,.37,.4,.24,.71,.58,.92,1.03,.22,.45,.33,.98,.33,1.6v.71h-4.16c.02,.68,.18,1.2,.49,1.56,.31,.36,.75,.54,1.32,.54,.4,0,.76-.04,1.07-.11,.32-.08,.64-.2,.97-.36v1.08c-.31,.15-.63,.26-.96,.33-.32,.07-.71,.11-1.17,.11-.6,0-1.13-.13-1.6-.38-.47-.25-.83-.63-1.09-1.13-.26-.51-.39-1.13-.39-1.87s.12-1.38,.36-1.89c.24-.52,.57-.91,.99-1.18,.43-.28,.93-.42,1.5-.42Zm0,1.01c-.42,0-.75,.15-1.01,.45-.25,.3-.4,.73-.44,1.29h2.81c0-.34-.05-.65-.15-.91-.1-.26-.25-.47-.46-.61-.2-.15-.45-.22-.76-.22Zm7.3,5.74v-8.77h1.36v7.63h3.49v1.14h-4.85Zm11.68-3.32c0,.55-.07,1.04-.21,1.46-.14,.43-.34,.79-.6,1.08-.25,.29-.57,.52-.93,.68-.37,.15-.78,.22-1.24,.22-.42,0-.81-.07-1.17-.22-.36-.16-.67-.38-.93-.68-.26-.29-.47-.66-.61-1.08-.14-.43-.21-.92-.21-1.47,0-.73,.12-1.35,.36-1.86,.24-.51,.58-.89,1.02-1.15,.45-.27,.98-.41,1.6-.41,.57,0,1.08,.14,1.52,.41,.44,.26,.79,.65,1.03,1.15,.25,.51,.38,1.13,.38,1.87Zm-4.53,0c0,.49,.05,.92,.16,1.28,.11,.35,.29,.62,.52,.81,.24,.19,.54,.28,.9,.28s.67-.09,.9-.28c.24-.19,.41-.46,.52-.81,.11-.36,.17-.79,.17-1.28s-.06-.93-.17-1.28c-.11-.34-.29-.61-.52-.79-.23-.19-.53-.28-.91-.28-.55,0-.95,.2-1.19,.61-.25,.41-.37,.99-.37,1.73Zm11.61,0c0,.55-.07,1.04-.21,1.46-.14,.43-.34,.79-.6,1.08-.25,.29-.56,.52-.93,.68-.37,.15-.78,.22-1.24,.22-.42,0-.81-.07-1.17-.22-.36-.16-.67-.38-.93-.68-.26-.29-.47-.66-.61-1.08-.14-.43-.21-.92-.21-1.47,0-.73,.12-1.35,.36-1.86,.24-.51,.58-.89,1.02-1.15,.45-.27,.98-.41,1.6-.41,.57,0,1.08,.14,1.52,.41,.44,.26,.79,.65,1.03,1.15,.25,.51,.38,1.13,.38,1.87Zm-4.53,0c0,.49,.05,.92,.16,1.28,.11,.35,.29,.62,.52,.81,.24,.19,.54,.28,.9,.28s.67-.09,.9-.28c.24-.19,.41-.46,.52-.81,.12-.36,.17-.79,.17-1.28s-.06-.93-.17-1.28c-.11-.34-.29-.61-.52-.79-.23-.19-.53-.28-.91-.28-.55,0-.95,.2-1.19,.61-.25,.41-.37,.99-.37,1.73Zm9.24-3.43c.74,0,1.34,.29,1.79,.86,.45,.57,.68,1.43,.68,2.57,0,.75-.11,1.38-.32,1.89-.2,.52-.5,.9-.87,1.17-.38,.25-.82,.38-1.31,.38-.3,0-.57-.04-.81-.12-.24-.09-.44-.2-.6-.34-.16-.15-.29-.3-.42-.47h-.07c.02,.15,.03,.32,.05,.53,.02,.2,.02,.37,.02,.53v2.7h-1.33v-9.57h1.08l.18,.88h.06c.12-.18,.27-.35,.43-.5,.17-.16,.37-.28,.6-.37,.24-.09,.52-.14,.84-.14Zm-.36,1.07c-.36,0-.65,.08-.87,.25-.22,.16-.38,.39-.49,.71-.1,.31-.15,.71-.15,1.19v.2c0,.51,.05,.94,.14,1.3,.1,.35,.26,.62,.48,.81,.23,.18,.54,.27,.92,.27,.33,0,.6-.1,.81-.29,.21-.2,.37-.49,.47-.85,.11-.36,.16-.78,.16-1.25,0-.72-.12-1.29-.37-1.71-.24-.42-.6-.63-1.09-.63Z"/><path class="q" d="M519.18,17.51h-19.98c-2.2,0-3.99,1.75-3.99,3.9v13.2c0,2.15,1.79,3.9,3.99,3.9h1.57l.03,3.45c0,.32,.19,.61,.48,.75,.12,.06,.25,.08,.37,.08,.18,0,.37-.06,.52-.17l5.43-4.1h11.58c2.2,0,3.99-1.75,3.99-3.9v-13.2c0-2.15-1.79-3.9-3.99-3.9Z"/><path class="q" d="M500.93,60.53c-.39,0-.75,.08-1.07,.23-.31,.15-.58,.37-.8,.66-.21,.29-.38,.65-.49,1.07s-.17,.89-.17,1.41c0,.69,.09,1.29,.28,1.79,.19,.5,.47,.88,.85,1.15,.38,.27,.84,.41,1.4,.41,.36,0,.7-.03,1.03-.1,.33-.07,.66-.17,.99-.28v1.14c-.33,.13-.66,.23-1.01,.28-.33,.07-.73,.1-1.18,.1-.85,0-1.56-.18-2.11-.55s-.97-.89-1.25-1.57c-.28-.68-.42-1.47-.42-2.38,0-.66,.09-1.27,.26-1.82,.17-.56,.43-1.04,.76-1.44,.34-.4,.75-.71,1.24-.92,.49-.22,1.05-.33,1.68-.33,.43,0,.84,.05,1.25,.15,.41,.09,.77,.22,1.09,.39l-.48,1.11c-.27-.13-.57-.25-.88-.34-.31-.11-.64-.16-.98-.16Zm4.97,.91c0,.2,0,.41-.02,.61,0,.2-.02,.37-.04,.5h.07c.13-.23,.29-.42,.48-.57,.2-.15,.41-.26,.65-.33,.25-.07,.5-.11,.75-.11,.48,0,.89,.09,1.23,.26,.34,.16,.6,.43,.77,.79,.18,.35,.27,.81,.27,1.38v4.31h-1.34v-4.13c0-.52-.1-.9-.29-1.15-.2-.26-.5-.39-.92-.39s-.72,.09-.96,.27c-.24,.18-.41,.45-.5,.8-.1,.34-.15,.77-.15,1.28v3.33h-1.33v-9.34h1.33v2.49Zm8.5,.1c.78,0,1.36,.18,1.76,.55,.4,.36,.6,.93,.6,1.71v4.48h-.95l-.26-.92h-.05c-.19,.24-.38,.43-.57,.59-.18,.16-.39,.27-.64,.34-.24,.07-.53,.11-.88,.11s-.7-.07-.99-.21c-.29-.15-.53-.37-.7-.66-.17-.3-.26-.68-.26-1.13,0-.67,.24-1.18,.71-1.54,.48-.35,1.22-.54,2.2-.58l1.06-.04v-.37c0-.49-.1-.84-.31-1.03-.2-.2-.48-.29-.84-.29-.3,0-.6,.05-.9,.15-.29,.1-.58,.22-.86,.36l-.4-.95c.3-.16,.65-.3,1.03-.41,.39-.11,.81-.17,1.24-.17Zm.23,3.59c-.67,.03-1.14,.16-1.4,.38-.26,.21-.39,.52-.39,.91,0,.34,.09,.59,.27,.75,.19,.16,.43,.23,.72,.23,.45,0,.83-.14,1.13-.43,.31-.29,.47-.72,.47-1.29v-.58l-.8,.02Zm6.3,2.22c.17,0,.34-.02,.5-.05,.16-.03,.31-.07,.43-.11v.98c-.14,.07-.32,.12-.55,.16-.22,.05-.45,.07-.7,.07-.34,0-.66-.06-.95-.18-.29-.12-.52-.34-.69-.64-.17-.3-.26-.72-.26-1.27v-3.66h-.85v-.59l.91-.49,.45-1.4h.82v1.49h1.76v1h-1.76v3.64c0,.36,.08,.63,.25,.8,.16,.17,.37,.26,.63,.26Z"/><g class="t"><path class="q" d="M587.51,25.66h-20.15c-.31,0-.57,.27-.57,.59v12.84c0,1.31,1.02,2.37,2.28,2.37h16.73c1.26,0,2.28-1.06,2.28-2.37v-12.84c0-.33-.26-.59-.57-.59Zm-20.72-2.17v-1.78c0-1.31,1.02-2.37,2.28-2.37h2.28v-2.57c0-.33,.26-.59,.57-.59h1.9c.31,0,.57,.27,.57,.59v2.57h6.09v-2.57c0-.33,.26-.59,.57-.59h1.9c.31,0,.57,.27,.57,.59v2.57h2.28c1.26,0,2.28,1.06,2.28,2.37v1.78c0,.33-.26,.59-.57,.59h-20.15c-.31,0-.57-.27-.57-.59Z"/></g><path class="q" d="M556.41,60.53c-.39,0-.75,.08-1.07,.23-.31,.15-.58,.37-.8,.66-.21,.29-.38,.65-.49,1.07-.11,.42-.17,.89-.17,1.41,0,.69,.09,1.29,.28,1.79,.19,.5,.47,.88,.85,1.15,.38,.27,.84,.41,1.4,.41,.36,0,.71-.03,1.03-.1,.33-.07,.66-.17,1-.28v1.14c-.33,.13-.66,.23-1.01,.28-.34,.07-.73,.1-1.18,.1-.85,0-1.56-.18-2.11-.55-.56-.37-.97-.89-1.25-1.57-.28-.68-.42-1.47-.42-2.38,0-.66,.09-1.27,.26-1.82,.17-.56,.43-1.04,.76-1.44,.34-.4,.75-.71,1.24-.92,.49-.22,1.05-.33,1.68-.33,.43,0,.84,.05,1.25,.15,.41,.09,.77,.22,1.09,.39l-.48,1.11c-.27-.13-.57-.25-.89-.34-.31-.11-.64-.16-.98-.16Zm6.15,1.01c.78,0,1.36,.18,1.76,.55,.4,.36,.6,.93,.6,1.71v4.48h-.95l-.26-.92h-.05c-.19,.24-.38,.43-.57,.59-.18,.16-.39,.27-.64,.34-.24,.07-.53,.11-.88,.11s-.7-.07-.99-.21c-.3-.15-.53-.37-.7-.66-.17-.3-.26-.68-.26-1.13,0-.67,.24-1.18,.71-1.54,.48-.35,1.22-.54,2.2-.58l1.06-.04v-.37c0-.49-.1-.84-.31-1.03-.2-.2-.47-.29-.83-.29-.3,0-.6,.05-.9,.15s-.58,.22-.86,.36l-.41-.95c.3-.16,.65-.3,1.03-.41,.39-.11,.81-.17,1.24-.17Zm.23,3.59c-.67,.03-1.14,.16-1.4,.38-.26,.21-.39,.52-.39,.91,0,.34,.09,.59,.27,.75,.19,.16,.43,.23,.72,.23,.45,0,.83-.14,1.13-.43,.31-.29,.47-.72,.47-1.29v-.58l-.8,.02Zm5.28,3.16h-1.33v-9.34h1.33v9.34Zm4.37-6.74c.55,0,1.02,.12,1.43,.37,.4,.24,.71,.58,.92,1.03,.22,.45,.33,.98,.33,1.6v.71h-4.17c.02,.68,.18,1.2,.49,1.56,.31,.36,.75,.54,1.31,.54,.4,0,.76-.04,1.07-.11,.32-.08,.64-.2,.97-.36v1.08c-.31,.15-.63,.26-.96,.33-.32,.07-.71,.11-1.17,.11-.6,0-1.13-.13-1.6-.38-.47-.25-.83-.63-1.09-1.13-.26-.51-.39-1.13-.39-1.87s.12-1.38,.36-1.89c.24-.52,.57-.91,.99-1.18,.43-.28,.93-.42,1.5-.42Zm0,1.01c-.42,0-.75,.15-1.01,.45-.25,.3-.4,.73-.44,1.29h2.81c0-.34-.05-.65-.15-.91-.1-.26-.25-.47-.45-.61-.2-.15-.45-.22-.76-.22Zm7.41-1.01c.72,0,1.27,.19,1.66,.58,.39,.38,.59,1,.59,1.86v4.31h-1.33v-4.13c0-.52-.1-.9-.31-1.15-.2-.26-.5-.39-.92-.39-.61,0-1.04,.2-1.27,.6s-.34,.98-.34,1.73v3.34h-1.33v-6.62h1.04l.18,.88h.07c.14-.23,.31-.42,.5-.57,.2-.15,.42-.26,.66-.33,.24-.07,.5-.11,.77-.11Zm6.2,6.87c-.74,0-1.34-.29-1.79-.86-.45-.57-.68-1.43-.68-2.56s.23-2,.69-2.58c.46-.58,1.06-.87,1.81-.87,.32,0,.59,.05,.82,.14,.23,.08,.43,.2,.6,.34s.32,.31,.43,.49h.07c-.02-.11-.04-.28-.06-.49-.02-.22-.02-.42-.02-.59v-2.48h1.33v9.34h-1.04l-.23-.88h-.05c-.11,.19-.26,.36-.43,.52-.17,.15-.38,.27-.61,.36-.23,.09-.5,.14-.82,.14Zm.36-1.07c.57,0,.97-.18,1.2-.53,.24-.36,.36-.9,.36-1.61v-.2c0-.78-.11-1.37-.33-1.78-.22-.41-.64-.61-1.24-.61-.47,0-.84,.22-1.08,.65-.25,.43-.37,1.01-.37,1.76s.12,1.32,.37,1.72c.25,.4,.61,.6,1.09,.6Zm7.21-5.8c.78,0,1.36,.18,1.76,.55,.4,.36,.6,.93,.6,1.71v4.48h-.95l-.26-.92h-.05c-.19,.24-.38,.43-.57,.59-.18,.16-.39,.27-.64,.34-.24,.07-.53,.11-.88,.11s-.7-.07-.99-.21c-.3-.15-.53-.37-.7-.66-.17-.3-.26-.68-.26-1.13,0-.67,.24-1.18,.71-1.54,.48-.35,1.22-.54,2.2-.58l1.06-.04v-.37c0-.49-.1-.84-.31-1.03-.2-.2-.47-.29-.84-.29-.3,0-.6,.05-.9,.15-.29,.1-.58,.22-.86,.36l-.41-.95c.3-.16,.65-.3,1.03-.41,.39-.11,.81-.17,1.24-.17Zm.23,3.59c-.67,.03-1.14,.16-1.4,.38-.26,.21-.39,.52-.39,.91,0,.34,.09,.59,.27,.75,.19,.16,.43,.23,.72,.23,.45,0,.83-.14,1.13-.43,.31-.29,.47-.72,.47-1.29v-.58l-.8,.02Zm7.11-3.59c.11,0,.22,0,.36,.02,.13,0,.24,.02,.33,.04l-.14,1.22c-.09-.02-.19-.05-.31-.06-.11-.02-.23-.02-.34-.02-.22,0-.43,.05-.64,.15-.21,.09-.39,.23-.55,.41-.16,.17-.3,.39-.39,.64-.1,.25-.15,.54-.15,.87v3.49h-1.33v-6.62h1.05l.17,1.18h.07c.12-.24,.27-.45,.45-.65,.19-.2,.4-.35,.64-.47,.24-.12,.49-.18,.77-.18Z"/><path class="q" d="M644.58,23.95l-10.22,8.42v9.09c0,.24,.09,.46,.26,.63,.17,.17,.39,.26,.63,.26l6.21-.02c.24,0,.46-.1,.62-.26,.17-.17,.26-.39,.26-.63v-5.31c0-.24,.09-.46,.26-.63,.17-.17,.39-.26,.63-.26h3.55c.23,0,.46,.09,.63,.26,.17,.17,.26,.39,.26,.63v5.3c0,.12,.02,.23,.07,.34,.04,.11,.11,.21,.19,.29,.08,.08,.18,.15,.29,.19,.11,.04,.22,.07,.34,.07l6.21,.02c.24,0,.46-.09,.63-.26,.17-.17,.26-.39,.26-.63v-9.1l-10.22-8.42c-.12-.1-.27-.15-.42-.15s-.3,.05-.42,.15h0Zm16.15,5.72l-4.64-3.82v-7.68c0-.18-.07-.35-.2-.47-.12-.12-.29-.2-.47-.2h-3.11c-.18,0-.34,.07-.47,.2-.12,.12-.2,.29-.2,.47v4.03l-4.96-4.09c-.48-.39-1.07-.61-1.69-.61s-1.21,.21-1.69,.61l-14.04,11.56c-.07,.06-.12,.12-.16,.2-.04,.08-.07,.16-.07,.25,0,.09,0,.17,.03,.26,.03,.08,.07,.16,.12,.23l1.41,1.72c.06,.07,.12,.12,.2,.16,.08,.04,.16,.07,.25,.08,.09,0,.17,0,.26-.03,.08-.03,.16-.07,.23-.12l13.04-10.75c.12-.1,.27-.15,.42-.15s.3,.05,.42,.15l13.04,10.75c.07,.06,.15,.1,.23,.12,.08,.03,.17,.03,.26,.03,.09,0,.17-.03,.25-.07,.08-.04,.14-.1,.2-.16l1.41-1.72c.06-.07,.1-.15,.12-.23,.03-.08,.03-.17,.03-.26,0-.09-.04-.17-.08-.25-.04-.08-.1-.15-.17-.2h0Z"/><path class="q" d="M635.25,68.29h-1.36v-4.01h-3.78v4.01h-1.36v-8.77h1.36v3.64h3.78v-3.64h1.36v8.77Zm7.58-3.32c0,.55-.07,1.04-.21,1.46-.14,.43-.34,.79-.6,1.08-.25,.29-.57,.52-.93,.68-.37,.15-.78,.22-1.24,.22-.42,0-.81-.07-1.17-.22-.36-.16-.67-.38-.93-.68-.26-.29-.47-.66-.61-1.08-.14-.43-.21-.92-.21-1.47,0-.73,.12-1.35,.36-1.86,.24-.51,.58-.89,1.02-1.15,.45-.27,.98-.41,1.6-.41,.57,0,1.08,.14,1.52,.41,.44,.26,.79,.65,1.03,1.15,.25,.51,.38,1.13,.38,1.87Zm-4.53,0c0,.49,.05,.92,.16,1.28,.11,.35,.29,.62,.52,.81,.24,.19,.54,.28,.9,.28s.67-.09,.9-.28c.24-.19,.41-.46,.52-.81,.11-.36,.17-.79,.17-1.28s-.06-.93-.17-1.28c-.11-.34-.29-.61-.52-.79-.23-.19-.53-.28-.91-.28-.55,0-.95,.2-1.19,.61-.24,.41-.37,.99-.37,1.73Zm13.11-3.43c.7,0,1.23,.19,1.59,.58,.36,.38,.54,1,.54,1.86v4.31h-1.33v-4.14c0-.51-.09-.89-.28-1.14-.18-.26-.46-.39-.85-.39-.53,0-.91,.18-1.14,.55-.22,.36-.33,.88-.33,1.57v3.55h-1.34v-4.14c0-.34-.04-.62-.12-.85-.08-.23-.2-.4-.37-.52s-.38-.17-.64-.17c-.37,0-.66,.09-.87,.27-.21,.18-.36,.45-.45,.8-.09,.34-.14,.77-.14,1.27v3.34h-1.33v-6.62h1.04l.2,.88h.06c.13-.23,.29-.42,.47-.57,.19-.15,.4-.26,.64-.33,.24-.07,.48-.11,.74-.11,.47,0,.86,.09,1.18,.27,.32,.17,.56,.44,.71,.8h.09c.2-.37,.47-.64,.82-.81,.35-.17,.72-.26,1.12-.26Zm6.46,0c.55,0,1.02,.12,1.43,.37,.4,.24,.71,.58,.92,1.03,.22,.45,.33,.98,.33,1.6v.71h-4.17c.02,.68,.18,1.2,.49,1.56,.31,.36,.75,.54,1.31,.54,.4,0,.76-.04,1.07-.11,.32-.08,.64-.2,.97-.36v1.08c-.31,.15-.63,.26-.96,.33-.32,.07-.71,.11-1.17,.11-.6,0-1.13-.13-1.6-.38-.47-.25-.83-.63-1.09-1.13-.26-.51-.39-1.13-.39-1.87s.12-1.38,.36-1.89c.24-.52,.57-.91,.99-1.18,.43-.28,.93-.42,1.5-.42Zm0,1.01c-.42,0-.75,.15-1.01,.45-.25,.3-.4,.73-.44,1.29h2.81c0-.34-.05-.65-.15-.91-.1-.26-.25-.47-.45-.61-.2-.15-.45-.22-.76-.22Z"/><rect class="k" x="683.09" y="11.06" width="86" height="29.49" rx="4.91" ry="4.91"/><path class="m" d="M698.09,29.74h-4.21v-7.89h4.21v1.02h-2.98v2.26h2.81v1.01h-2.81v2.59h2.98v1.03Zm2.73-3.04l-1.89-2.92h1.36l1.29,2.15,1.27-2.15h1.37l-1.9,2.92,1.99,3.04h-1.36l-1.37-2.28-1.39,2.28h-1.35l1.98-3.04Zm5.69-2.92v5.96h-1.21v-5.96h1.21Zm-.59-2.27c.18,0,.33,.05,.46,.15,.13,.1,.2,.28,.2,.52s-.07,.41-.2,.52c-.13,.1-.29,.15-.46,.15-.19,0-.35-.05-.49-.15-.13-.11-.2-.28-.2-.52s.07-.42,.2-.52c.13-.1,.29-.15,.49-.15Zm4.38,7.39c.15,0,.31-.01,.45-.04,.15-.03,.28-.06,.39-.1v.88c-.12,.06-.29,.11-.5,.14-.2,.04-.41,.07-.63,.07-.31,0-.59-.06-.85-.17-.26-.11-.46-.3-.62-.58-.15-.27-.23-.65-.23-1.14v-3.3h-.76v-.53l.82-.44,.41-1.26h.74v1.34h1.58v.9h-1.58v3.27c0,.32,.07,.56,.22,.72,.15,.15,.34,.23,.56,.23Z"/><path class="h" d="M760.02,22.94l-5.7,5.7-5.71-5.7"/><rect class="m" x="683.09" y="45.46" width="86" height="29.49" rx="4.91" ry="4.91"/><path class="s" d="M699.74,64.14h-1.23v-3.6h-3.4v3.6h-1.23v-7.89h1.23v3.27h3.4v-3.27h1.23v7.89Zm3.02-5.96v5.96h-1.2v-5.96h1.2Zm-.59-2.27c.18,0,.33,.05,.46,.15,.13,.1,.2,.28,.2,.52s-.07,.41-.2,.52c-.13,.1-.29,.15-.46,.15-.19,0-.35-.05-.49-.15-.13-.11-.2-.28-.2-.52s.07-.42,.2-.52c.13-.1,.3-.15,.49-.15Zm4.18,8.34c-.66,0-1.2-.26-1.61-.77-.4-.52-.61-1.28-.61-2.3s.21-1.8,.62-2.32c.41-.52,.96-.79,1.63-.79,.29,0,.53,.04,.74,.12,.21,.07,.39,.18,.54,.31,.16,.13,.28,.28,.39,.44h.07c-.01-.1-.03-.25-.05-.44-.02-.2-.02-.38-.02-.53v-2.23h1.2v8.4h-.94l-.21-.8h-.05c-.1,.17-.23,.32-.39,.46-.15,.13-.34,.24-.55,.32-.21,.08-.45,.12-.74,.12Zm.32-.96c.52,0,.88-.16,1.08-.48,.21-.32,.32-.81,.32-1.45v-.18c0-.7-.1-1.23-.3-1.6-.2-.37-.57-.55-1.12-.55-.43,0-.75,.2-.97,.59-.22,.38-.33,.91-.33,1.58s.11,1.19,.33,1.55c.22,.36,.55,.54,.98,.54Zm6.49-5.22c.49,0,.92,.11,1.28,.33,.36,.21,.64,.52,.83,.93,.2,.41,.3,.88,.3,1.44v.64h-3.75c.01,.61,.16,1.08,.44,1.4,.28,.32,.67,.49,1.18,.49,.36,0,.68-.03,.96-.1,.29-.07,.58-.18,.87-.32v.97c-.28,.13-.57,.23-.86,.3-.29,.07-.64,.1-1.05,.1-.54,0-1.02-.11-1.44-.34s-.75-.57-.98-1.02c-.24-.46-.35-1.02-.35-1.68s.11-1.24,.32-1.7c.21-.46,.51-.82,.9-1.06,.39-.25,.84-.38,1.35-.38Zm0,.91c-.38,0-.68,.14-.91,.41-.23,.27-.36,.66-.4,1.16h2.53c0-.31-.04-.58-.13-.82-.09-.24-.23-.42-.41-.55-.18-.13-.41-.2-.68-.2Z"/><path class="s" d="M754.96,52.21c-.34,0-.61,.28-.61,.61s.27,.61,.61,.61v-1.23Zm-7.37,8.6c0-.34-.28-.61-.61-.61s-.61,.28-.61,.61h1.23Zm12.28-4.3v6.14h1.23v-6.14h-1.23Zm-3.07,9.21h-6.14v1.23h6.14v-1.23Zm-1.84-12.29h1.84v-1.23h-1.84v1.23Zm-7.37,9.21v-1.84h-1.23v1.84h1.23Zm3.07,3.07c-1.7,0-3.07-1.38-3.07-3.07h-1.23c0,2.37,1.92,4.3,4.3,4.3v-1.23Zm9.21-3.07c0,1.7-1.38,3.07-3.07,3.07v1.23c2.38,0,4.3-1.93,4.3-4.3h-1.23Zm1.23-6.14c0-2.37-1.92-4.3-4.3-4.3v1.23c1.7,0,3.07,1.38,3.07,3.07h1.23Z"/><path class="i" d="M755.9,57.29v4.1h-3.73"/><path class="s" d="M755.74,60.5c.24,.24,.24,.63,0,.87-.24,.24-.63,.24-.87,0l.87-.87Zm-7.96-6c-.25-.23-.26-.62-.02-.87,.23-.25,.62-.26,.87-.02l-.84,.89Zm7.09,6.86c-3.61-3.61-2.5-2.52-7.09-6.86l.84-.89c4.59,4.35,3.49,3.27,7.11,6.89l-.87,.87Z"/></g></g></g></svg>