<svg width="40" height="40" viewBox="0 0 40 40" fill="none" xmlns="http://www.w3.org/2000/svg">
<path d="M34.2133 27.0599L30.0179 22.8645C28.5196 21.3661 25.9724 21.9655 25.373 23.9133C24.9235 25.2619 23.4251 26.0111 22.0766 25.7114C19.0799 24.9622 15.0344 21.0665 14.2852 17.9199C13.8357 16.5713 14.7347 15.073 16.0832 14.6235C18.0311 14.0242 18.6304 11.477 17.1321 9.97862L12.9367 5.78322C11.738 4.73437 9.93994 4.73437 8.89109 5.78322L6.04421 8.6301C3.19734 11.6268 6.34389 19.5681 13.3862 26.6104C20.4284 33.6527 28.3697 36.9491 31.3664 33.9523L34.2133 31.1055C35.2622 29.9068 35.2622 28.1087 34.2133 27.0599Z" fill="#303030"/>
<path d="M25.5141 8.88685C25.3392 8.82141 25.1526 8.7934 24.9662 8.80462C24.7798 8.81585 24.5978 8.86607 24.4321 8.95203C24.2663 9.03799 24.1204 9.15779 24.0039 9.30366C23.8873 9.44954 23.8027 9.61825 23.7554 9.7989C23.7081 9.97954 23.6993 10.1681 23.7295 10.3524C23.7597 10.5366 23.8282 10.7125 23.9306 10.8687C24.033 11.0248 24.1671 11.1577 24.3241 11.2588C24.4811 11.3598 24.6575 11.4269 24.842 11.4554C25.9743 11.7554 27.0076 12.348 27.8381 13.1739C28.6687 13.9997 29.2673 15.0296 29.5736 16.1601C29.6155 16.3314 29.6908 16.4928 29.7954 16.6348C29.9 16.7768 30.0317 16.8967 30.1828 16.9876C30.334 17.0784 30.5017 17.1383 30.6762 17.164C30.8507 17.1896 31.0286 17.1804 31.1995 17.1368C31.4334 17.0701 31.6471 16.9463 31.8212 16.7765C31.9846 16.6141 32.1031 16.4122 32.1653 16.1905C32.2275 15.9687 32.2313 15.7346 32.1762 15.511C31.74 13.932 30.8995 12.494 29.7379 11.339C28.5762 10.1839 27.1335 9.35171 25.552 8.92449L25.5141 8.88685Z" fill="#303030"/>
<path d="M23.676 2.93865C23.5012 2.92304 23.325 2.94201 23.1576 2.99447C22.9902 3.04693 22.8347 3.13185 22.7001 3.2444C22.4282 3.47169 22.2577 3.79768 22.2262 4.15064C22.1947 4.50361 22.3047 4.85464 22.532 5.12652C22.7593 5.3984 23.0852 5.56885 23.4382 5.60037C26.5217 5.88871 29.4089 7.24052 31.605 9.42414C33.8012 11.6077 35.1694 14.4872 35.4754 17.569C35.4918 17.7438 35.5425 17.9136 35.6246 18.0687C35.7067 18.2238 35.8187 18.3612 35.954 18.4731C36.0893 18.5849 36.2453 18.6689 36.4131 18.7203C36.581 18.7717 36.7573 18.7895 36.932 18.7727C37.2424 18.7427 37.5324 18.605 37.7519 18.3835C37.8903 18.2447 37.9965 18.0771 38.0628 17.8926C38.1292 17.7081 38.1541 17.5112 38.1357 17.3161C37.7713 13.6128 36.1286 10.1521 33.4899 7.52845C30.8512 4.90476 27.3812 3.2819 23.676 2.93865V2.93865Z" fill="#303030"/>
</svg>
