<svg width="37" height="36" viewBox="0 0 37 36" fill="none" xmlns="http://www.w3.org/2000/svg">
<path d="M29.2133 27.0599L25.0179 22.8645C23.5196 21.3661 20.9724 21.9655 20.373 23.9133C19.9235 25.2619 18.4251 26.0111 17.0766 25.7114C14.0799 24.9622 10.0344 21.0665 9.28517 17.9199C8.83567 16.5713 9.73468 15.073 11.0832 14.6235C13.0311 14.0242 13.6304 11.477 12.1321 9.97862L7.93665 5.78322C6.73797 4.73437 4.93994 4.73437 3.89109 5.78322L1.04421 8.6301C-1.80266 11.6268 1.34389 19.5681 8.38616 26.6104C15.4284 33.6527 23.3697 36.9491 26.3664 33.9523L29.2133 31.1055C30.2622 29.9068 30.2622 28.1087 29.2133 27.0599Z" fill="#303030"/>
<path d="M20.5141 8.88685C20.3392 8.82141 20.1526 8.7934 19.9662 8.80462C19.7798 8.81585 19.5978 8.86607 19.4321 8.95203C19.2663 9.03799 19.1204 9.15779 19.0039 9.30366C18.8873 9.44954 18.8027 9.61825 18.7554 9.7989C18.7081 9.97954 18.6993 10.1681 18.7295 10.3524C18.7597 10.5366 18.8282 10.7125 18.9306 10.8687C19.033 11.0248 19.1671 11.1577 19.3241 11.2588C19.4811 11.3598 19.6575 11.4269 19.842 11.4554C20.9743 11.7554 22.0076 12.348 22.8381 13.1739C23.6687 13.9997 24.2673 15.0296 24.5736 16.1601C24.6155 16.3314 24.6908 16.4928 24.7954 16.6348C24.9 16.7768 25.0317 16.8967 25.1828 16.9876C25.334 17.0784 25.5017 17.1383 25.6762 17.164C25.8507 17.1896 26.0286 17.1804 26.1995 17.1368C26.4334 17.0701 26.6471 16.9463 26.8212 16.7765C26.9846 16.6141 27.1031 16.4122 27.1653 16.1905C27.2275 15.9687 27.2313 15.7346 27.1762 15.511C26.74 13.932 25.8995 12.494 24.7379 11.339C23.5762 10.1839 22.1335 9.35171 20.552 8.92449L20.5141 8.88685Z" fill="#303030"/>
<path d="M18.676 2.93865C18.5012 2.92304 18.325 2.94201 18.1576 2.99447C17.9902 3.04693 17.8347 3.13185 17.7001 3.2444C17.4282 3.47169 17.2577 3.79768 17.2262 4.15064C17.1947 4.50361 17.3047 4.85464 17.532 5.12652C17.7593 5.3984 18.0852 5.56885 18.4382 5.60037C21.5217 5.88871 24.4089 7.24052 26.605 9.42414C28.8012 11.6077 30.1694 14.4872 30.4754 17.569C30.4918 17.7438 30.5425 17.9136 30.6246 18.0687C30.7067 18.2238 30.8187 18.3612 30.954 18.473C31.0893 18.5849 31.2453 18.6689 31.4131 18.7203C31.581 18.7717 31.7573 18.7895 31.932 18.7727C32.2424 18.7427 32.5324 18.605 32.7519 18.3835C32.8903 18.2447 32.9965 18.0771 33.0628 17.8926C33.1292 17.7081 33.1541 17.5112 33.1357 17.3161C32.7713 13.6128 31.1286 10.1521 28.4899 7.52845C25.8512 4.90476 22.3812 3.2819 18.676 2.93865Z" fill="#303030"/>
</svg>
