<svg width="40" height="40" viewBox="0 0 40 40" fill="none" xmlns="http://www.w3.org/2000/svg">
<path d="M16.1819 28.0692C16.5118 28.0692 16.8025 27.9636 17.1639 27.7736L26.4417 22.9659C27.1174 22.6139 27.4002 22.3394 27.4002 21.8959C27.4002 21.4525 27.1174 21.185 26.4417 20.826L17.1639 16.0183C16.8025 15.8282 16.5118 15.7227 16.1819 15.7227C15.5377 15.7227 15.082 16.1661 15.082 16.863V26.9289C15.082 27.6328 15.5377 28.0692 16.1819 28.0692Z" fill="#303030"/>
<path d="M19.9903 40C30.9522 40 40 31.7557 40 21.7675C40 16.0775 36.8874 10.687 32.2088 7.48088C31.1648 6.70578 29.8888 6.8467 29.2508 7.67466C28.5549 8.53784 28.8642 9.57718 29.7535 10.2994C33.5621 12.9595 35.9787 17.064 35.9981 21.7675C36.0174 29.8532 28.8642 36.3535 19.9903 36.3535C11.1165 36.3535 4.02127 29.8532 4.02127 21.7675C4.02127 14.9324 9.08652 9.24248 16.0077 7.63942V10.1937C16.0077 11.5502 17.1097 11.9201 18.3084 11.1274L24.8429 6.91717C25.8096 6.26538 25.8289 5.27888 24.8429 4.64471L18.3277 0.416868C17.1097 -0.375852 16.0077 -0.0235322 16.0077 1.35052V3.92245C6.92122 5.6312 0 13.0299 0 21.7675C0 31.7557 9.04785 40 19.9903 40Z" fill="#303030"/>
</svg>
