<svg width="40" height="40" viewBox="0 0 40 40" fill="none" xmlns="http://www.w3.org/2000/svg">
<path d="M31.7675 5H8.23238C6.45008 5 5 6.45008 5 8.23244V31.7676C5 33.55 6.45008 35 8.23238 35H31.7675C33.5499 35 35 33.55 35 31.7676V8.23244C35 6.45008 33.5499 5 31.7675 5V5ZM20 27.9395C15.6222 27.9395 12.0605 24.3778 12.0605 20C12.0605 15.6222 15.6222 12.0605 20 12.0605C24.3778 12.0605 27.9395 15.6222 27.9395 20C27.9395 24.3778 24.3778 27.9395 20 27.9395Z" fill="#303030"/>
<path d="M20 16.25C17.9323 16.25 16.25 17.9322 16.25 20C16.25 22.0678 17.9323 23.75 20 23.75C22.0678 23.75 23.75 22.0678 23.75 20C23.75 17.9322 22.0678 16.25 20 16.25Z" fill="#303030"/>
</svg>
