<svg width="32" height="32" viewBox="0 0 32 32" fill="none" xmlns="http://www.w3.org/2000/svg">
<path fill-rule="evenodd" clip-rule="evenodd" d="M6.07493 3.36865C5.35705 3.36865 4.66857 3.65383 4.16096 4.16145C3.65334 4.66906 3.36816 5.35754 3.36816 6.07542V25.925C3.36816 26.6429 3.65334 27.3314 4.16096 27.839C4.66857 28.3466 5.35705 28.6318 6.07493 28.6318H17.0572C17.7748 28.6312 18.4628 28.3456 18.97 27.8378L27.8391 18.9705C28.3462 18.463 28.6312 17.7751 28.6313 17.0577V6.07542C28.6313 5.35754 28.3461 4.66906 27.8385 4.16145C27.3309 3.65383 26.6424 3.36865 25.9246 3.36865H6.07493ZM16.0599 17.8649V25.7975C16.0599 26.1999 16.5471 26.402 16.8304 26.1169L26.1164 16.8309C26.1797 16.7678 26.2228 16.6874 26.2403 16.5997C26.2577 16.5121 26.2488 16.4213 26.2146 16.3388C26.1804 16.2562 26.1224 16.1857 26.0481 16.1362C25.9738 16.0866 25.8864 16.0602 25.797 16.0604H17.8644C17.3858 16.0604 16.9268 16.2505 16.5884 16.5889C16.25 16.9273 16.0599 17.3863 16.0599 17.8649Z" fill="#303030"/>
</svg>
