<svg width="40" height="40" viewBox="0 0 40 40" fill="none" xmlns="http://www.w3.org/2000/svg">
<path d="M17.846 29.2299C18.8281 29.2299 19.654 28.4821 19.654 27.1205V20.692C19.7991 21.2277 20.2009 21.6853 20.8705 22.0759L32.3103 28.7946C32.7902 29.0848 33.2143 29.2299 33.7054 29.2299C34.6875 29.2299 35.5134 28.4821 35.5134 27.1205V13.3594C35.5134 11.9978 34.6875 11.25 33.7054 11.25C33.2143 11.25 32.7902 11.3951 32.3103 11.6853L20.8705 18.404C20.2009 18.7946 19.7991 19.2411 19.654 19.7768V13.3594C19.654 11.9978 18.8393 11.25 17.8571 11.25C17.3549 11.25 16.942 11.3951 16.4509 11.6853L5.01116 18.404C4.16295 18.9062 3.75 19.4754 3.75 20.2344C3.75 20.9821 4.17411 21.5848 5.01116 22.0759L16.4509 28.7946C16.9308 29.0848 17.3549 29.2299 17.846 29.2299Z" fill="#464648"/>
</svg>
